<svg xmlns="http://www.w3.org/2000/svg" viewBox="0 0 153.55 233.73"><g id="Layer_2" data-name="Layer 2"><g id="Layer_1-2" data-name="Layer 1"><g id="Layer_2-2" data-name="Layer 2"><g id="Layer_1-2-2" data-name="Layer 1-2"><path d="M120.37,0A12.35,12.35,0,1,1,108,12.35h0A12.36,12.36,0,0,1,120.37,0Zm0,22.7A10.35,10.35,0,1,0,110,12.35h0A10.37,10.37,0,0,0,120.37,22.7Z"/><path d="M24,200.39A16.67,16.67,0,1,1,7.29,217.07v0A16.7,16.7,0,0,1,24,200.39Zm0,31.33A14.67,14.67,0,1,0,9.29,217h0A14.7,14.7,0,0,0,24,231.72Z"/><polygon points="130.28 139.9 132.28 139.9 132.28 161.16 153.55 161.16 153.55 163.16 132.28 163.16 132.28 184.43 130.28 184.43 130.28 163.16 109.02 163.16 109.02 161.16 130.28 161.16 130.28 139.9"/><path d="M6.67,82H9.16C22.32,82,31,82,42.69,75.54c12.36-6.92,19.77-6.87,32.06-6.76h4.93a6.67,6.67,0,0,1,6.66,6.66v29.38a6.66,6.66,0,0,1-6.66,6.66H74.74c-12.37-.1-19.17-.15-31.08,6.49-11.42,6.35-20,6.71-32.18,6.71H6.67A6.69,6.69,0,0,1,0,118V88.63A6.67,6.67,0,0,1,6.67,82Z"/></g></g></g></g></svg>