<?xml version="1.0" encoding="utf-8"?>
<!-- Generator: Adobe Illustrator 25.1.0, SVG Export Plug-In . SVG Version: 6.00 Build 0)  -->
<svg version="1.1" id="Layer_1" xmlns="http://www.w3.org/2000/svg" xmlns:xlink="http://www.w3.org/1999/xlink" x="0px" y="0px"
	 viewBox="0 0 431.4 331.3" style="enable-background:new 0 0 431.4 331.3;" xml:space="preserve">
<path d="M398.2,91.3c6.8,0,12.4-5.5,12.4-12.4s-5.5-12.3-12.4-12.3c-6.8,0-12.4,5.5-12.4,12.3C385.9,85.7,391.4,91.3,398.2,91.3z
	 M398.2,68.6c5.7,0,10.4,4.6,10.4,10.4s-4.6,10.3-10.4,10.3c-5.7,0-10.4-4.6-10.4-10.3C387.9,73.2,392.5,68.6,398.2,68.6z"/>
<polygon points="431.4,227.7 410.1,227.7 410.1,206.5 408.1,206.5 408.1,227.7 386.9,227.7 386.9,229.7 408.1,229.7 408.1,251 
	410.1,251 410.1,229.7 431.4,229.7 "/>
<path d="M332.6,158.1c1.6,0,3.2,0,4.9,0c3.7,0,6.7-3,6.7-6.7V122c0-3.7-3-6.7-6.7-6.7h-4.9c-12.3-0.1-19.7-0.2-32.1,6.7
	c-11.7,6.5-20.4,6.5-33.5,6.5h-2.5c-3.7,0-6.7,3-6.7,6.7v0v29.4c0,3.7,3,6.7,6.7,6.7l0,0h4.8c12.2,0,20.8-0.4,32.2-6.7
	C313.4,157.9,320.2,158,332.6,158.1z"/>
<path d="M4.9,116.9c-3.5,1-5.6,4.6-4.7,8.1c0.8,2.9,3.4,5,6.4,5c0.6,0,1.2-0.1,1.7-0.2c3.6-1,5.7-4.6,4.7-8.2
	C12.1,118.1,8.5,115.9,4.9,116.9L4.9,116.9z M10.7,125.6c-1.3,2.2-4.1,3-6.3,1.7c0,0,0,0,0,0c-2.2-1.3-3-4.1-1.7-6.4
	c0.6-1.1,1.6-1.9,2.8-2.2c0.4-0.1,0.8-0.2,1.2-0.2c2.6,0,4.6,2.1,4.6,4.7C11.3,124.1,11.1,124.9,10.7,125.6L10.7,125.6z"/>
</svg>
