<svg xmlns="http://www.w3.org/2000/svg" viewBox="0 0 153.55 233.72"><g id="Layer_2" data-name="Layer 2"><g id="Layer_1-2" data-name="Layer 1"><path d="M33.18,0A12.35,12.35,0,1,0,45.53,12.35,12.36,12.36,0,0,0,33.18,0Zm0,22.7A10.35,10.35,0,1,1,43.53,12.35,10.36,10.36,0,0,1,33.18,22.7Z"/><path d="M129.6,200.39a16.67,16.67,0,1,0,16.66,16.66A16.69,16.69,0,0,0,129.6,200.39Zm0,31.33a14.67,14.67,0,1,1,14.66-14.67A14.69,14.69,0,0,1,129.6,231.72Z"/><polygon points="23.27 139.9 21.27 139.9 21.27 161.16 0 161.16 0 163.16 21.27 163.16 21.27 184.43 23.27 184.43 23.27 163.16 44.53 163.16 44.53 161.16 23.27 161.16 23.27 139.9"/><path d="M146.88,82h-2.49c-13.16,0-21.86,0-33.53-6.46C98.5,68.62,91.09,68.67,78.8,68.78l-4.93,0a6.67,6.67,0,0,0-6.66,6.66v29.38a6.66,6.66,0,0,0,6.66,6.66l4.94,0c12.37-.1,19.17-.15,31.08,6.49,11.42,6.35,20,6.71,32.18,6.71h4.81a6.68,6.68,0,0,0,6.67-6.67V88.63A6.67,6.67,0,0,0,146.88,82Z"/></g></g></svg>