<?xml version="1.0" encoding="utf-8"?>
<!-- Generator: Adobe Illustrator 25.1.0, SVG Export Plug-In . SVG Version: 6.00 Build 0)  -->
<svg version="1.1" id="Layer_1" xmlns="http://www.w3.org/2000/svg" xmlns:xlink="http://www.w3.org/1999/xlink" x="0px" y="0px"
	 viewBox="0 0 100 100" style="enable-background:new 0 0 100 100;" xml:space="preserve">
<style type="text/css">
	.st0{fill:#8FE7DA;}
	.st1{opacity:0.63;fill:#8FE7DA;enable-background:new    ;}
	.st2{opacity:0.49;fill:#8FE7DA;enable-background:new    ;}
</style>
<g id="Layer_2_1_">
	<g id="Layer_1-2">
		<g id="Group_1278">
			<g id="Group_1085">
				<path id="Rectangle_386" class="st0" d="M34,26h49c0.6,0,1,0.4,1,1v7c0,0.6-0.4,1-1,1H34c-0.6,0-1-0.4-1-1v-7
					C33,26.4,33.4,26,34,26z"/>
				<path id="Path_424" class="st0" d="M9,40h82c0.6,0,1,0.4,1,1v7c0,0.6-0.4,1-1,1H9c-0.6,0-1-0.4-1-1v-7C8,40.4,8.4,40,9,40z"/>
				<path id="Rectangle_390" class="st0" d="M9,69h82c0.6,0,1,0.4,1,1v7c0,0.6-0.4,1-1,1H9c-0.6,0-1-0.4-1-1v-7C8,69.4,8.4,69,9,69z
					"/>
				<path id="Rectangle_389" class="st0" d="M9,55h74c0.6,0,1,0.4,1,1v7c0,0.6-0.4,1-1,1H9c-0.6,0-1-0.4-1-1v-7C8,55.4,8.4,55,9,55z
					"/>
				<circle id="Ellipse_81" class="st1" cx="14.5" cy="28.5" r="6.5"/>
				<circle id="Ellipse_82" class="st2" cx="22.5" cy="28.5" r="6.5"/>
			</g>
		</g>
	</g>
</g>
</svg>
