<?xml version="1.0" encoding="utf-8"?>
<!-- Generator: Adobe Illustrator 25.1.0, SVG Export Plug-In . SVG Version: 6.00 Build 0)  -->
<svg version="1.1" id="Layer_1" xmlns="http://www.w3.org/2000/svg" xmlns:xlink="http://www.w3.org/1999/xlink" x="0px" y="0px"
	 viewBox="0 0 100 100" style="enable-background:new 0 0 100 100;" xml:space="preserve">
<style type="text/css">
	.st0{fill:#FF9D7A;}
	.st1{opacity:0.68;}
	.st2{fill:#FF6F3B;}
	.st3{opacity:0.67;}
	.st4{fill:#FA6B37;}
</style>
<g id="Layer_2_1_">
	<g id="Layer_1-2">
		<g id="Group_1276">
			<g id="Rectangle_391">
				<path class="st0" d="M10.8,27h61c3.3,0,6,2.7,6,6v34c0,3.3-2.7,6-6,6h-61c-3.3,0-6-2.7-6-6V33C4.8,29.7,7.5,27,10.8,27z"/>
			</g>
			<g id="Group_333" class="st1">
				<g id="Group_211-3">
					<g id="Group_210-3">
						<g id="Path_239-3">
							<path class="st2" d="M93.8,60.2c-15.1-6.9-30.2,8.8-45.3,1C48.2,61,48,60.7,48,60.3V40.7c0-0.6,0.4-1,1-1
								c0.1,0,0.3,0,0.4,0.1c15.1,6.9,30.2-8.8,45.3-1c0.3,0.2,0.5,0.5,0.5,0.9v19.6c0,0.6-0.5,1-1,1C94.1,60.3,93.9,60.3,93.8,60.2
								"/>
						</g>
					</g>
				</g>
			</g>
			<g id="Path_420" class="st3">
				<rect x="15" y="38.8" class="st4" width="5" height="22.4"/>
			</g>
			<g id="Path_421" class="st3">
				<rect x="30" y="38.8" class="st4" width="5" height="22.4"/>
			</g>
			<g id="Path_422" class="st3">
				<rect x="27.3" y="50.5" class="st4" width="10.3" height="5"/>
			</g>
			<g id="Path_423" class="st3">
				<rect x="12.3" y="42.5" class="st4" width="10.3" height="5"/>
			</g>
		</g>
	</g>
</g>
</svg>
