<svg xmlns="http://www.w3.org/2000/svg" viewBox="0 0 1011.68 869.24"><defs><style>.cls-1{fill:none;}.cls-2{fill:#fff;}</style></defs><g id="Layer_2" data-name="Layer 2"><g id="Layer_1-2" data-name="Layer 1"><path class="cls-1" d="M509.31,362.78c2.71-.8,4.83-3.41,7.06-6.16,1.92-2.37,3.9-4.81,6.41-6.2s5.44-1.69,8.39-2c3.44-.4,7-.82,9.26-2.79s3-5.28,3.7-8.53c.61-2.66,1.23-5.42,2.68-7.39,1.64-2.21,4.19-3.78,6.66-5.29,2.84-1.75,5.53-3.4,6.43-5.78,1-2.6,0-5.72-1.08-9-.84-2.62-1.71-5.33-1.53-7.85s1.43-5.09,2.65-7.57c1.53-3.1,3-6,2.42-8.76-.48-2.47-2.76-4.57-5.17-6.8-2.18-2-4.43-4.1-5.54-6.66-1-2.39-.95-5.36-.88-8.23.09-3.22.18-6.55-1.32-8.86-1.34-2.05-4.11-3.23-7-4.48s-5.75-2.45-7.66-4.64-2.73-5.26-3.55-8.24-1.65-6-3.52-7.7c-2.08-1.81-5.39-2.21-8.6-2.59-2.88-.34-5.86-.7-8.12-2.09s-4.14-4-5.84-6.47c-1.88-2.73-3.65-5.3-6.05-6.16-2.64-.94-5.77,0-9.08,1.07-2.66.82-5.4,1.69-7.95,1.46s-5.12-1.5-7.6-2.73c-3.12-1.56-6.08-3-8.81-2.47-2.53.53-4.59,3-6.78,5.52-1.88,2.21-3.82,4.48-6.26,5.76-2.17,1.14-5,1.37-7.71,1.59-3.35.27-6.82.55-9.05,2.5s-3.23,5.52-4.11,8.93c-.75,2.87-1.52,5.84-3.14,8.06s-4.35,4-6.92,5.62c-3.05,1.93-5.93,3.76-7.07,6.43s-.51,6.12.2,9.7c.58,2.95,1.18,6,.68,8.74s-2.16,5.41-3.75,8c-1.93,3.09-3.75,6-3.63,9a83.26,83.26,0,0,0,2.47,16.68L434.2,262.4l1.76,1-11.52,21.38,6-3.35,14.45-27,.79.23c25.87,7.73,49.3,24,69.63,48.38l.45.53-21,36.78a1.89,1.89,0,0,0,.51,2.43l3.74,2.77a1.87,1.87,0,0,0,2.1.09l8.39-5.2.35,0a6.48,6.48,0,0,1,5.63,7.19v0a6.58,6.58,0,0,1-.14.75,6.5,6.5,0,0,1-4.91,4.78l-4.14.9-10.12,10.13a49.75,49.75,0,0,1-4.15,6.37c3-.38,6.3-2.26,9.53-4.09A39.37,39.37,0,0,1,509.31,362.78Z"/><path class="cls-1" d="M426.07,378.34l6.32,3.41a45.92,45.92,0,0,0,62.13-18.61l.17-.23,10.64-10.65,4.71-1a4.5,4.5,0,0,0,3.4-3.31,3.58,3.58,0,0,0,.09-.45v-.07a4.48,4.48,0,0,0-3.55-4.94l-7.78,4.82a3.83,3.83,0,0,1-4.34-.19l-3.74-2.77a3.86,3.86,0,0,1-1.05-5l20.28-35.57c-19.76-23.53-42.45-39.33-67.45-47l-14,26.08L422.68,288l-15.21,28.23A45.9,45.9,0,0,0,426.07,378.34Zm26.17-75.53,1.7,1-16.3,26.45-1.7-1.05Z"/><path class="cls-1" d="M747.55,375l-3.36,0c-8.34-.06-12.92-.1-20.93,4.36C715,384,708.91,384,699.73,383.93H698a2.84,2.84,0,0,0-2.84,2.84v19.94a2.84,2.84,0,0,0,2.84,2.84h1.7c8.89,0,14.74,0,22.59-4.34,8.47-4.71,13.53-4.67,21.9-4.6h3.36a2.83,2.83,0,0,0,2.84-2.84V377.85A2.85,2.85,0,0,0,747.55,375Z"/><path class="cls-1" d="M866.15,209.82a5.14,5.14,0,1,0,5.14,5.14A5.14,5.14,0,0,0,866.15,209.82Z"/><path class="cls-1" d="M8.7,289.26A6.71,6.71,0,1,0,15.41,296,6.72,6.72,0,0,0,8.7,289.26Z"/><path class="cls-1" d="M831.74,382.53a6.71,6.71,0,1,0,6.7-6.71A6.71,6.71,0,0,0,831.74,382.53Z"/><path class="cls-1" d="M975.49,317.75V145.44a15,15,0,0,0-15-15H655a15,15,0,0,0-15,15V317.75a15,15,0,0,0,15,15H960.47A15,15,0,0,0,975.49,317.75ZM691.83,142.8a4.55,4.55,0,1,1-4.54,4.55A4.55,4.55,0,0,1,691.83,142.8Zm-35.21,9.1a4.55,4.55,0,1,1,4.55-4.55A4.55,4.55,0,0,1,656.62,151.9Zm17.61,0a4.55,4.55,0,1,1,4.54-4.55A4.55,4.55,0,0,1,674.23,151.9Zm93.54,137.19h0a15.25,15.25,0,0,1-15.24,15.24h-6.68V273.86h6.68a15.24,15.24,0,0,1,13.24,7.72v-9.3a43,43,0,0,0-86,0v9.3A15.25,15.25,0,0,1,693,273.86h6.68v30.47H693a15.24,15.24,0,0,1-15.23-15.23h0V272.28a45,45,0,0,1,90,0ZM825,256.5a58.82,58.82,0,0,1,0-83.08l1.41,1.42a56.81,56.81,0,0,0,0,80.24Zm14.27-69-.11.12a38.71,38.71,0,0,0,0,54.75l-1.41,1.41a40.7,40.7,0,0,1-.12-57.46l.13-.13.71.72.88.45Zm11.47,43.3a22.38,22.38,0,0,1,0-31.61l1.41,1.41a20.38,20.38,0,0,0,0,28.78Zm15.42-8.67a7.14,7.14,0,1,1,7.14-7.14A7.14,7.14,0,0,1,866.15,222.1Zm16.19,8.67-1.42-1.42a20.38,20.38,0,0,0,0-28.78l1.42-1.41A22.39,22.39,0,0,1,882.34,230.77Zm11.58,11.57a38.77,38.77,0,0,0,0-54.76l1.42-1.42a40.76,40.76,0,0,1,0,57.59Zm14.15,14.15-.15.13-.54-.82-.82-.61.11-.1h0a56.72,56.72,0,0,0,0-80.24l1.42-1.42a58.73,58.73,0,0,1,0,83.07Z"/><path class="cls-1" d="M39.75,425.26a9.63,9.63,0,1,0,9.63,9.63A9.64,9.64,0,0,0,39.75,425.26Z"/><path class="cls-1" d="M519.58,21.86a6.7,6.7,0,1,0-6.7-6.7A6.71,6.71,0,0,0,519.58,21.86Z"/><path class="cls-1" d="M538.89,89.71h2.41c8.48,0,14.24-.09,21.88-4.34,8.47-4.71,13.52-4.68,21.91-4.61l3.35,0a2.84,2.84,0,0,0,2.84-2.84V58a2.84,2.84,0,0,0-2.84-2.84l-3.35,0c-8.34-.06-12.93-.1-20.94,4.36-8.28,4.62-14.35,4.6-23.51,4.59h-1.75a2.85,2.85,0,0,0-2.84,2.85V86.87A2.84,2.84,0,0,0,538.89,89.71Z"/><path class="cls-1" d="M107.25,148.07A54.43,54.43,0,1,0,52.82,93.64,54.5,54.5,0,0,0,107.25,148.07Zm0-84.84,19,19-1.42,1.41L108.25,67.06v41.15h-2V67.06L89.68,83.63l-1.42-1.41ZM78.1,106.42h2v11.26h54.3V106.42h2v13.26H78.1Z"/><path class="cls-1" d="M410.78,102.82h.16a1,1,0,0,0,.94-1V70.29a1.1,1.1,0,0,0,0-.18.94.94,0,0,0-1.08-.76l-30.45,4.86V98Z"/><path class="cls-1" d="M222.27,158.35H459a11.43,11.43,0,0,0,11.41-11.42V13.42A11.43,11.43,0,0,0,459,2H222.27a11.43,11.43,0,0,0-11.41,11.42V146.93A11.43,11.43,0,0,0,222.27,158.35ZM280.87,55.7a7.07,7.07,0,0,1,7.06-7.06h85.35a7.06,7.06,0,0,1,7.05,7.06V72.19l30.14-4.81a2.94,2.94,0,0,1,3.37,2.44,4.07,4.07,0,0,1,0,.47v31.59a3,3,0,0,1-2.95,3l-.45,0L380.33,100v16.49a7.06,7.06,0,0,1-7.05,7.06H287.93a7.07,7.07,0,0,1-7.06-7.06ZM250.79,11.38a3.52,3.52,0,1,1-3.53,3.52A3.52,3.52,0,0,1,250.79,11.38Zm-13.64,0a3.52,3.52,0,1,1-3.53,3.52A3.52,3.52,0,0,1,237.15,11.38Zm-13.65,0A3.52,3.52,0,1,1,220,14.9,3.52,3.52,0,0,1,223.5,11.38Z"/><path class="cls-1" d="M541,154.08a9.63,9.63,0,1,0,9.63-9.63A9.64,9.64,0,0,0,541,154.08Z"/><path class="cls-1" d="M830.37,530.87a9.63,9.63,0,1,0,9.63-9.63A9.64,9.64,0,0,0,830.37,530.87Z"/><path class="cls-1" d="M874.73,590.89a19,19,0,1,0-19-19A19,19,0,0,0,874.73,590.89Z"/><path d="M885.68,660.64H819.94a5.93,5.93,0,0,1-5.92-5.92V476.24a5.93,5.93,0,0,1,5.92-5.92h88.71a5.92,5.92,0,0,1,5.92,5.92V606.89h2V476.24a7.93,7.93,0,0,0-7.92-7.92H819.94a7.93,7.93,0,0,0-7.92,7.92V654.72a7.93,7.93,0,0,0,7.92,7.92h65.74Z"/><path d="M892.28,727.79a53.18,53.18,0,0,1-27.11-42.65l-.95-13-2,.14.94,13a55.22,55.22,0,0,0,28.13,44.26,14.72,14.72,0,0,1,6.85,8.4l24.63,77,1.9-.61-24.62-77A16.77,16.77,0,0,0,892.28,727.79Z"/><path d="M987.17,719.25a88.3,88.3,0,0,1-4-14.72L969.2,628.06a69,69,0,0,0-9.35-24.16L927.3,551.7l-1.7,1.06L958.15,605a66.83,66.83,0,0,1,9.08,23.46l13.95,76.47a91,91,0,0,0,4.11,15.05l24.52,66.49,1.87-.69Z"/><path d="M892.57,606.84l-.39.25a20.66,20.66,0,0,0-9.56,17.48,20.89,20.89,0,0,0,2.34,9.58l9.18,17.64a36.77,36.77,0,0,1,3.3,24.68A45.1,45.1,0,0,0,908.73,717l7.14,7.55,1.45-1.37-7.14-7.55a43.13,43.13,0,0,1-10.79-38.76,38.72,38.72,0,0,0-3.48-26l-9.17-17.64a18.77,18.77,0,0,1,6.51-24.46l.39-.25a4,4,0,0,1,5.24.88l47.86,60.39,1.57-1.24-47.87-60.4A5.94,5.94,0,0,0,892.57,606.84Z"/><path d="M853.73,571.9a21,21,0,1,0,21-21A21,21,0,0,0,853.73,571.9Zm21-19a19,19,0,1,1-19,19A19,19,0,0,1,874.73,552.91Z"/><path d="M828.37,530.87A11.63,11.63,0,1,0,840,519.24,11.65,11.65,0,0,0,828.37,530.87Zm21.26,0a9.63,9.63,0,1,1-9.63-9.63A9.64,9.64,0,0,1,849.63,530.87Z"/><polygon points="875.73 520.23 875.73 495.71 874.73 494.71 873.73 495.71 873.73 520.23 875.73 520.23"/><polygon points="875.73 493.29 875.73 495.71 885.33 505.31 886.74 503.89 874.73 491.88 862.71 503.89 864.13 505.31 873.73 495.71 873.73 493.29 875.73 493.29"/><polygon points="875.73 495.71 875.73 493.29 873.73 493.29 873.73 495.71 874.73 494.71 875.73 495.71"/><path d="M373.28,50.64H287.93a5.07,5.07,0,0,0-5.06,5.06v60.77a5.07,5.07,0,0,0,5.06,5.06h85.35a5.06,5.06,0,0,0,5.05-5.06V55.7A5.06,5.06,0,0,0,373.28,50.64Zm-23,37.78-31.16,18a2.15,2.15,0,0,1-1.11.3h0a2.24,2.24,0,0,1-2.23-2.24v-36a2.24,2.24,0,0,1,3.35-1.94l31.16,18a2.23,2.23,0,0,1,0,3.87Z"/><path d="M287.93,123.53h85.35a7.06,7.06,0,0,0,7.05-7.06V100l-1-.16v16.65a6.05,6.05,0,0,1-6.05,6.06H287.93a6.06,6.06,0,0,1-6.06-6.06V55.7a6.06,6.06,0,0,1,6.06-6.06h85.35a6.05,6.05,0,0,1,6.05,6.06V72.35l1-.16V55.7a7.06,7.06,0,0,0-7.05-7.06H287.93a7.07,7.07,0,0,0-7.06,7.06v60.77A7.07,7.07,0,0,0,287.93,123.53Z"/><polygon points="379.48 97.82 380.33 97.96 380.33 74.21 379.48 74.35 379.33 73.4 379.33 98.77 379.48 97.82"/><path d="M379.33,98.77V73.4l-.16-1,.16,0V55.7a6.05,6.05,0,0,0-6.05-6.06H287.93a6.06,6.06,0,0,0-6.06,6.06v60.77a6.06,6.06,0,0,0,6.06,6.06h85.35a6.05,6.05,0,0,0,6.05-6.06V99.82l-.16,0Zm-1,17.7a5.06,5.06,0,0,1-5.05,5.06H287.93a5.07,5.07,0,0,1-5.06-5.06V55.7a5.07,5.07,0,0,1,5.06-5.06h85.35a5.06,5.06,0,0,1,5.05,5.06Z"/><path d="M410.78,69.35a.94.94,0,0,1,1.08.76,1.1,1.1,0,0,1,0,.18v31.59a1,1,0,0,1-.94,1h-.16L380.33,98v2l30.15,4.81.45,0a3,3,0,0,0,2.95-3V70.29a4.07,4.07,0,0,0,0-.47,2.94,2.94,0,0,0-3.37-2.44l-30.14,4.81v2Z"/><polygon points="379.33 73.4 379.48 74.35 380.33 74.21 380.33 72.19 379.33 72.35 379.33 73.4"/><polygon points="379.48 97.82 379.33 98.77 379.33 99.82 380.33 99.98 380.33 97.96 379.48 97.82"/><polygon points="379.17 99.8 379.33 99.82 379.33 98.77 379.17 99.8"/><polygon points="379.33 73.4 379.33 72.35 379.17 72.37 379.33 73.4"/><path d="M350.28,84.55l-31.16-18a2.24,2.24,0,0,0-3.35,1.94v36a2.24,2.24,0,0,0,2.23,2.24h0a2.15,2.15,0,0,0,1.11-.3l31.16-18a2.23,2.23,0,0,0,0-3.87Zm-.5,3-31.16,18a1.19,1.19,0,0,1-.61.17h0a1.23,1.23,0,0,1-1.23-1.24v-36a1.23,1.23,0,0,1,1.85-1.07l31.16,18a1.25,1.25,0,0,1,0,2.15Z"/><path d="M349.78,85.41l-31.16-18a1.23,1.23,0,0,0-1.85,1.07v36a1.23,1.23,0,0,0,1.23,1.24h0a1.19,1.19,0,0,0,.61-.17l31.16-18a1.25,1.25,0,0,0,0-2.15Zm-.51,1.28-31.15,18a.21.21,0,0,1-.12,0,.19.19,0,0,1-.17-.07.24.24,0,0,1-.06-.17v-36a.27.27,0,0,1,0-.12.22.22,0,0,1,.21-.12.2.2,0,0,1,.11,0l31.16,18a.24.24,0,0,1,.08.09A.23.23,0,0,1,349.27,86.69Z"/><path d="M722.77,227.28a45.05,45.05,0,0,0-45,45v16.81h0a15.28,15.28,0,0,1,2-7.51v-9.3a43,43,0,0,1,86,0v9.3a15.07,15.07,0,0,1,2,7.51h0V272.28A45,45,0,0,0,722.77,227.28Z"/><path d="M693,302.33h4.68V275.86H693a13.24,13.24,0,1,0,0,26.47Z"/><path d="M693,274.86h5.68v28.47H693a14.24,14.24,0,0,1-14.24-14.23h-1A15.24,15.24,0,0,0,693,304.33h6.69V273.86H693a15.25,15.25,0,0,0-13.24,7.72v2.3A14.24,14.24,0,0,1,693,274.86Z"/><path d="M678.77,289.09a14.33,14.33,0,0,1,1-5.21v-2.3a15.28,15.28,0,0,0-2,7.51Z"/><path d="M678.77,289.1A14.24,14.24,0,0,0,693,303.33h5.68V274.86H693a14.24,14.24,0,0,0-13.24,9v5.21h-1ZM693,275.86h4.68v26.47H693a13.24,13.24,0,1,1,0-26.47Z"/><path d="M679.77,283.88a14.33,14.33,0,0,0-1,5.21h1Z"/><path d="M752.53,275.86h-4.68v26.47h4.68a13.24,13.24,0,1,0,0-26.47Z"/><path d="M766.77,289.1a14.23,14.23,0,0,1-14.24,14.23h-5.68V274.86h5.68a14.23,14.23,0,0,1,13.24,9v-2.3a15.24,15.24,0,0,0-13.24-7.72h-6.68v30.47h6.68a15.25,15.25,0,0,0,15.24-15.24h-1Z"/><path d="M765.77,283.88a14.13,14.13,0,0,1,1,5.21h1a15.07,15.07,0,0,0-2-7.51Z"/><path d="M752.53,274.86h-5.68v28.47h5.68a14.23,14.23,0,0,0,14.24-14.23h-1v-5.21A14.23,14.23,0,0,0,752.53,274.86Zm0,27.47h-4.68V275.86h4.68a13.24,13.24,0,1,1,0,26.47Z"/><path d="M766.77,289.09a14.13,14.13,0,0,0-1-5.21v5.21Z"/><path d="M826.4,174.84,825,173.42a58.82,58.82,0,0,0,0,83.08l1.41-1.42A56.81,56.81,0,0,1,826.4,174.84Z"/><path d="M906.65,174.84a56.72,56.72,0,0,1,0,80.24h0l-.11.1.82.61.54.82.15-.13a58.73,58.73,0,0,0,0-83.07Z"/><path d="M837.75,186.16l-.13.13a40.7,40.7,0,0,0,.12,57.46l1.41-1.41a38.71,38.71,0,0,1,0-54.75l.11-.12.08-.14-.88-.45Z"/><path d="M895.33,186.16l-1.42,1.42a38.77,38.77,0,0,1,0,54.76l1.41,1.41A40.76,40.76,0,0,0,895.33,186.16Z"/><path d="M852.14,200.57l-1.41-1.41a22.38,22.38,0,0,0,0,31.61l1.41-1.42A20.38,20.38,0,0,1,852.14,200.57Z"/><path d="M880.92,200.57a20.38,20.38,0,0,1,0,28.78l1.42,1.42a22.39,22.39,0,0,0,0-31.61Z"/><path d="M866.15,207.82a7.14,7.14,0,1,0,7.14,7.14A7.14,7.14,0,0,0,866.15,207.82Zm0,12.28a5.14,5.14,0,1,1,5.14-5.14A5.14,5.14,0,0,1,866.15,220.1Z"/><path d="M330.21,496.63,196,425.07a42.37,42.37,0,0,1-20.31-24L133.4,275l-1.89.64L173.82,401.7a44.38,44.38,0,0,0,21.27,25.13l134.18,71.56Z"/><path d="M328.75,754.68l2-.25-5.66-45.31a298,298,0,0,1-2.3-36.94V508.44h-2V672.18a300,300,0,0,0,2.32,37.19Z"/><rect x="277.27" y="819.84" width="96.98" height="2" transform="translate(-519.04 1078.16) rotate(-85.29)"/><path d="M609.22,583l1.59,57.22a33.17,33.17,0,0,1-15.21,26.5l-25.66,16.49a11.73,11.73,0,0,1-16.08-3.42l-15.94-24.24-19.39-77.59L519,588l17,68.18,0,.16,16.13,24.53A13.72,13.72,0,0,0,563.66,687a13.57,13.57,0,0,0,7.36-2.15l25.66-16.48a35.23,35.23,0,0,0,16.13-28.18l-1.6-57.28Z"/><path d="M558.75,608.42c-2.42,7.87-5.16,16.79-7.64,27.06l1.94.47c2.47-10.22,5.2-19.1,7.62-26.94,5.58-18.18,10.06-32.76,8.54-53.07l-2.31-3.39C569.22,574.38,564.6,589.4,558.75,608.42Z"/><path d="M477.56,418.13l45.63,17.78a57,57,0,0,1,31.19,32.42L567,501.84l1.87-.7-12.57-33.52a59,59,0,0,0-32.31-33.57l-46.19-18-.36.93.63.77Z"/><path d="M518.51,577.86l0,.07-2.47-54.57-2,.09,9.84,218.16c0,.26,0,.5,0,.77a17.17,17.17,0,0,1-17.17,17.17h-145v2h145a19.17,19.17,0,0,0,19.17-19.18c0-.3,0-.59,0-.86L519,588l-2.41-9.65Z"/><polygon points="518.51 577.86 516.57 578.34 518.98 587.99 518.53 577.93 518.51 577.86"/><rect x="529.21" y="764.24" width="2" height="71.91" transform="translate(-352.27 422.48) rotate(-33.3)"/><path d="M617.81,518.32l-22.4-10.45,5-36.24a7.73,7.73,0,0,0-6.49-8.67h-.14a7.71,7.71,0,0,0-8.65,6.56l-8,56.29a.78.78,0,0,1-.37.57.81.81,0,0,1-1.1-.25l-6.16-9.85a4.67,4.67,0,0,0-8.63,2.48v25l6,8.85s0-.09,0-.14l2-.21c.13,1.27.24,2.51.33,3.74l7.4,10.86,1.65-1.13-15.39-22.59V518.75a2.68,2.68,0,0,1,4.94-1.42l6.16,9.85a2.8,2.8,0,0,0,3.85.89,2.75,2.75,0,0,0,1.29-2l8-56.29a5.71,5.71,0,0,1,2.22-3.76,5.63,5.63,0,0,1,4.23-1.09h.13a5.72,5.72,0,0,1,4.74,6.41l-5.16,37.7L617,520.13a10.13,10.13,0,0,1,5.33,12.36l-6.75,20.41a30.28,30.28,0,0,1-19.36,19.23l-6.46,2.08.61,1.9L596.8,574a32.27,32.27,0,0,0,20.64-20.51l6.75-20.41A12.12,12.12,0,0,0,617.81,518.32Z"/><path d="M566.89,552.41c0,.05,0,.09,0,.14l2.31,3.39c-.09-1.23-.2-2.47-.33-3.74Z"/><path d="M381.38,407.83l1.77-.92.83,1.58,19.15,1.3.27-2-60.91-4.13a114.44,114.44,0,0,1-43.75-11.9l-67-33.48a36.57,36.57,0,0,1-15.69-15l-51-91.59,6.61-42.75a4.46,4.46,0,0,0,.05-.63,4.2,4.2,0,0,0-4.19-4.19h-3.77a4.18,4.18,0,0,0-3.73,2.29L153,220.35a1.13,1.13,0,0,1-2.06-.11l-18-47.3c-.06-.15-.12-.31-.19-.47a7.31,7.31,0,0,0-9.7-3.53l-.16.08a7.34,7.34,0,0,0-4,8.22l6,26.41a6.16,6.16,0,0,1-1.66,5.74l-13.72,13.72A13.73,13.73,0,0,0,107,239.37l4.29,8,14.53,22.15,1.67-1.09L113,246.39l-4.24-8a11.74,11.74,0,0,1,2.07-13.91l13.73-13.72a8.17,8.17,0,0,0,2.19-7.59l-6-26.41a5.33,5.33,0,0,1,2.92-6l.17-.07a5.3,5.3,0,0,1,7,2.55,3.47,3.47,0,0,1,.15.36l18,47.28a3.12,3.12,0,0,0,5.71.3l7.1-13.94a2.18,2.18,0,0,1,2-1.2h3.77a2.19,2.19,0,0,1,2.19,2.19,1.76,1.76,0,0,1,0,.33l-6.71,43.42,2.79,5,.86-.49,1,1.73-.87.51,47.51,85.42a38.64,38.64,0,0,0,16.54,15.83l67,33.48a116.58,116.58,0,0,0,44.51,12.11l39.28,2.66Z"/><polygon points="139.75 272.12 140.75 273.85 166.82 258.83 165.85 257.08 139.75 272.12"/><polygon points="166.71 256.59 165.85 257.08 166.82 258.83 167.7 258.32 166.71 256.59"/><path d="M388.49,421.46a41.37,41.37,0,0,0,33,22.14l5.72.52c1.28.11,2.56.17,3.83.17a41.16,41.16,0,0,0,26.37-9.52l20.11-16.64-.54-.21.37-.93-.65-.78-20.56,17a39.26,39.26,0,0,1-28.75,8.9l-5.72-.52a39.35,39.35,0,0,1-31.44-21.07L384,408.49l-2.34-.16Z"/><polygon points="477.56 418.13 478.02 417.76 477.39 416.99 477.02 417.92 477.56 418.13"/><polygon points="381.38 407.83 381.64 408.33 383.98 408.49 383.15 406.9 381.38 407.83"/><rect x="446.51" y="406.71" width="27.33" height="2" transform="translate(-4.62 810.14) rotate(-82.43)"/><path d="M404,409.84l-.82,0-.87,6.57,2,.26,6.44-48.43c-.35-.44-.69-.88-1-1.33l-.81-.1-5.45,41,.68,0Z"/><polygon points="403.95 409.84 404.08 407.85 403.4 407.8 403.13 409.79 403.95 409.84"/><path d="M408.09,289.59c-.12-3,1.7-5.89,3.63-9,1.59-2.55,3.24-5.2,3.75-8s-.1-5.79-.68-8.74c-.71-3.58-1.38-7-.2-9.7s4-4.5,7.07-6.43c2.57-1.63,5.23-3.31,6.92-5.62s2.39-5.19,3.14-8.06c.88-3.41,1.8-6.94,4.11-8.93s5.7-2.23,9.05-2.5c2.73-.22,5.54-.45,7.71-1.59,2.44-1.28,4.38-3.55,6.26-5.76,2.19-2.56,4.25-5,6.78-5.52,2.73-.57,5.69.91,8.81,2.47,2.48,1.23,5.05,2.51,7.6,2.73s5.29-.64,7.95-1.46c3.31-1,6.44-2,9.08-1.07,2.4.86,4.17,3.43,6.05,6.16,1.7,2.46,3.45,5,5.84,6.47s5.24,1.75,8.12,2.09c3.21.38,6.52.78,8.6,2.59,1.87,1.65,2.67,4.59,3.52,7.7s1.66,6.05,3.55,8.24,4.83,3.43,7.66,4.64,5.7,2.43,7,4.48c1.5,2.31,1.41,5.64,1.32,8.86-.07,2.87-.15,5.84.88,8.23,1.11,2.56,3.36,4.64,5.54,6.66,2.41,2.23,4.69,4.33,5.17,6.8.55,2.74-.89,5.66-2.42,8.76-1.22,2.48-2.48,5-2.65,7.57s.69,5.23,1.53,7.85c1.06,3.31,2.06,6.43,1.08,9-.9,2.38-3.59,4-6.43,5.78-2.47,1.51-5,3.08-6.66,5.29-1.45,2-2.07,4.73-2.68,7.39-.74,3.25-1.5,6.61-3.7,8.53s-5.82,2.39-9.26,2.79c-2.95.35-6,.71-8.39,2s-4.49,3.83-6.41,6.2c-2.23,2.75-4.35,5.36-7.06,6.16a39.37,39.37,0,0,0-7.72,3.72c-3.23,1.83-6.55,3.71-9.53,4.09l-.5.63.1,1.44c3.56-.24,7.3-2.37,10.92-4.43a37.71,37.71,0,0,1,7.3-3.53c3.31-1,5.72-3.95,8-6.82,1.8-2.22,3.66-4.51,5.83-5.71s4.77-1.46,7.65-1.8c3.74-.44,7.61-.9,10.34-3.27s3.53-6,4.34-9.59c.59-2.58,1.14-5,2.34-6.65,1.4-1.9,3.79-3.37,6.09-4.78,3-1.85,6.12-3.75,7.26-6.77,1.23-3.25.07-6.86-1-10.35-.81-2.55-1.59-5-1.44-7.1s1.27-4.41,2.46-6.82c1.6-3.27,3.26-6.64,2.59-10-.61-3.11-3.24-5.54-5.78-7.89-2-1.87-4.12-3.81-5.06-6-.86-2-.79-4.61-.72-7.39.1-3.53.19-7.17-1.65-10-1.66-2.56-4.85-3.92-7.92-5.23-2.63-1.12-5.34-2.27-6.94-4.12s-2.37-4.69-3.13-7.45c-.89-3.26-1.81-6.63-4.13-8.67-2.55-2.22-6.18-2.66-9.69-3.07-2.79-.34-5.42-.65-7.3-1.81s-3.66-3.62-5.24-5.91c-2-2.86-4-5.82-7-6.9-3.27-1.17-6.87-.05-10.36,1-2.58.8-5,1.55-7.18,1.38s-4.46-1.33-6.88-2.53c-3.29-1.64-6.69-3.35-10.11-2.63-3.19.66-5.58,3.47-7.89,6.18-1.76,2.05-3.57,4.18-5.67,5.28-1.81.95-4.3,1.15-6.94,1.37-3.68.3-7.48.6-10.2,3s-3.77,6.24-4.74,9.94c-.73,2.82-1.42,5.48-2.82,7.39s-4,3.58-6.37,5.11c-3.17,2-6.45,4.09-7.84,7.33s-.66,7.16.07,10.88c.58,2.89,1.11,5.62.68,8s-1.91,4.76-3.48,7.26c-2,3.22-4.07,6.54-3.93,10.12a85.55,85.55,0,0,0,2.81,18.2l.93-.25.73-1.35A83.26,83.26,0,0,1,408.09,289.59Z"/><path d="M410.68,368.19a47.91,47.91,0,0,0,14.44,11.91l6.32,3.41a47.84,47.84,0,0,0,60.12-12.29l0-.56c.17,0,.35-.05.53-.07a49.75,49.75,0,0,0,4.15-6.37l10.12-10.13,4.14-.9a6.5,6.5,0,0,0,4.91-4.78,6.58,6.58,0,0,0,.14-.75v0a6.48,6.48,0,0,0-5.63-7.19l-.35,0-8.39,5.2a1.87,1.87,0,0,1-2.1-.09l-3.74-2.77a1.89,1.89,0,0,1-.51-2.43l21-36.78-.45-.53c-20.33-24.37-43.76-40.65-69.63-48.38l-.79-.23-14.45,27-6,3.35L436,263.35l-1.76-1-23.64,43.87.27,1.08-1,.27-4.13,7.65a47.93,47.93,0,0,0,4,51.59l1.18.16Zm-3.21-52L422.68,288l9.28-5.15,14-26.08c25,7.65,47.69,23.45,67.45,47l-20.28,35.57a3.86,3.86,0,0,0,1.05,5l3.74,2.77a3.83,3.83,0,0,0,4.34.19l7.78-4.82a4.48,4.48,0,0,1,3.55,4.94v.07a3.58,3.58,0,0,1-.09.45,4.5,4.5,0,0,1-3.4,3.31l-4.71,1-10.64,10.65-.17.23a45.92,45.92,0,0,1-62.13,18.61l-6.32-3.41A45.9,45.9,0,0,1,407.47,316.22Z"/><path d="M410.84,367l-1.18-.16c.33.45.67.89,1,1.33Z"/><path d="M410.56,306.27l-.73,1.35,1-.27Z"/><path d="M491.53,370.66l0,.56.5-.63C491.88,370.61,491.7,370.65,491.53,370.66Z"/><path d="M222.27,160.35H459a13.43,13.43,0,0,0,13.41-13.42V13.42A13.43,13.43,0,0,0,459,0H222.27a13.43,13.43,0,0,0-13.41,13.42V146.93A13.43,13.43,0,0,0,222.27,160.35ZM210.86,13.42A11.43,11.43,0,0,1,222.27,2H459a11.43,11.43,0,0,1,11.41,11.42V146.93A11.43,11.43,0,0,1,459,158.35H222.27a11.43,11.43,0,0,1-11.41-11.42Z"/><path d="M223.5,18.42A3.52,3.52,0,1,0,220,14.9,3.52,3.52,0,0,0,223.5,18.42Z"/><path d="M237.15,18.42a3.52,3.52,0,1,0-3.53-3.52A3.52,3.52,0,0,0,237.15,18.42Z"/><path d="M250.79,18.42a3.52,3.52,0,1,0-3.53-3.52A3.52,3.52,0,0,0,250.79,18.42Z"/><path d="M977.49,317.75V145.44a17,17,0,0,0-17-17H655a17,17,0,0,0-17,17V317.75a17,17,0,0,0,17,17H960.47A17,17,0,0,0,977.49,317.75Zm-337.48,0V145.44a15,15,0,0,1,15-15H960.47a15,15,0,0,1,15,15V317.75a15,15,0,0,1-15,15H655A15,15,0,0,1,640,317.75Z"/><path d="M656.62,142.8a4.55,4.55,0,1,0,4.55,4.55A4.55,4.55,0,0,0,656.62,142.8Z"/><circle cx="674.23" cy="147.35" r="4.55"/><path d="M691.83,151.9a4.55,4.55,0,1,0-4.54-4.55A4.55,4.55,0,0,0,691.83,151.9Z"/><polygon points="106.25 67.06 106.25 108.22 108.25 108.22 108.25 67.06 107.25 66.06 106.25 67.06"/><polygon points="106.25 67.06 106.25 64.63 108.25 64.63 108.25 67.06 124.83 83.64 126.25 82.22 107.25 63.23 88.26 82.22 89.68 83.64 106.25 67.06"/><polygon points="106.25 64.63 106.25 67.06 107.25 66.06 108.25 67.06 108.25 64.63 106.25 64.63"/><path d="M107.25,150.07A56.43,56.43,0,1,0,50.82,93.64,56.5,56.5,0,0,0,107.25,150.07Zm0-110.86A54.43,54.43,0,1,1,52.82,93.64,54.49,54.49,0,0,1,107.25,39.21Z"/><polygon points="136.4 106.42 134.4 106.42 134.4 117.68 80.1 117.68 80.1 106.42 78.1 106.42 78.1 119.68 136.4 119.68 136.4 106.42"/><path d="M604.17,372.08a35.29,35.29,0,1,0,35.29,35.29A35.33,35.33,0,0,0,604.17,372.08Zm15.11,36.64H605.52v13.76h-2.7V408.72H589.06V406h13.76V392.26h2.7V406h13.76Z"/><path d="M604.17,370.08a37.29,37.29,0,1,0,37.29,37.29A37.33,37.33,0,0,0,604.17,370.08Zm0,73.58a36.29,36.29,0,1,1,36.29-36.29A36.29,36.29,0,0,1,604.17,443.66Z"/><path d="M604.17,371.08a36.29,36.29,0,1,0,36.29,36.29A36.29,36.29,0,0,0,604.17,371.08Zm0,71.58a35.29,35.29,0,1,1,35.29-35.29A35.33,35.33,0,0,1,604.17,442.66Z"/><path d="M8.7,287.26A8.71,8.71,0,1,0,17.41,296,8.71,8.71,0,0,0,8.7,287.26Zm0,15.41a6.71,6.71,0,1,1,6.71-6.7A6.71,6.71,0,0,1,8.7,302.67Z"/><path d="M829.74,382.53a8.71,8.71,0,1,0,8.7-8.71A8.71,8.71,0,0,0,829.74,382.53Zm15.41,0a6.71,6.71,0,1,1-6.71-6.71A6.72,6.72,0,0,1,845.15,382.53Z"/><path d="M39.75,423.26a11.63,11.63,0,1,0,11.63,11.63A11.64,11.64,0,0,0,39.75,423.26Zm0,21.26a9.63,9.63,0,1,1,9.63-9.63A9.64,9.64,0,0,1,39.75,444.52Z"/><rect x="111.59" y="398.64" width="2" height="14.11"/><rect x="111.59" y="382.53" width="2" height="14.11"/><rect x="113.59" y="396.64" width="14.11" height="2"/><rect x="97.48" y="396.64" width="14.11" height="2"/><rect x="111.59" y="396.64" width="2" height="2"/><rect x="780.88" y="434.89" width="2" height="14.11"/><rect x="780.88" y="451" width="2" height="14.11"/><rect x="782.88" y="449" width="14.11" height="2"/><rect x="766.77" y="449" width="14.11" height="2"/><rect x="780.88" y="449" width="2" height="2"/><path d="M77.56,336H74.21c-8.34-.07-12.93-.1-20.93,4.35-8.28,4.62-14.35,4.62-23.51,4.59H28a2.85,2.85,0,0,0-2.84,2.84v19.94A2.85,2.85,0,0,0,28,370.52H29.7c8.89,0,14.76,0,22.6-4.34,8.48-4.72,13.54-4.67,21.92-4.61l3.34,0a2.86,2.86,0,0,0,2.85-2.85V338.81A2.86,2.86,0,0,0,77.56,336Z"/><path d="M77.56,334H74.22c-8.39-.07-13.45-.11-21.92,4.61-7.82,4.36-13.67,4.36-22.53,4.33H28a4.85,4.85,0,0,0-4.84,4.85v19.93A4.86,4.86,0,0,0,28,372.52h3.27c8.34,0,14.18-.24,22-4.59,8-4.46,12.6-4.43,20.92-4.36l3.36,0a4.85,4.85,0,0,0,4.85-4.85V338.81A4.85,4.85,0,0,0,77.56,334Zm3.85,24.78h0a3.84,3.84,0,0,1-3.84,3.85c-10.6,0-15.5-.7-24.78,4.46-8.57,4.77-14.8,4.47-24.78,4.47h0a3.85,3.85,0,0,1-3.84-3.85V347.74h0A3.84,3.84,0,0,1,28,343.89c10,0,16.21.32,24.78-4.46C62.06,334.27,67,335,77.57,335a3.84,3.84,0,0,1,3.84,3.85Z"/><path d="M77.57,335c-10.6,0-15.51-.69-24.78,4.47-8.57,4.78-14.8,4.46-24.78,4.46a3.84,3.84,0,0,0-3.84,3.84h0v19.93A3.85,3.85,0,0,0,28,371.52h0c10,0,16.21.3,24.78-4.47,9.28-5.16,14.18-4.46,24.78-4.46a3.84,3.84,0,0,0,3.84-3.85h0V338.81A3.84,3.84,0,0,0,77.57,335Zm2.84,23.78a2.86,2.86,0,0,1-2.85,2.85l-3.34,0c-8.38-.06-13.44-.11-21.92,4.61-7.84,4.37-13.71,4.36-22.6,4.34H28a2.85,2.85,0,0,1-2.84-2.85V347.73A2.85,2.85,0,0,1,28,344.89h1.76c9.16,0,15.23,0,23.51-4.59,8-4.45,12.59-4.42,20.93-4.35h3.35a2.86,2.86,0,0,1,2.85,2.85Z"/><path d="M519.58,23.86a8.7,8.7,0,1,0-8.7-8.7A8.71,8.71,0,0,0,519.58,23.86Zm0-15.4a6.7,6.7,0,1,1-6.7,6.7A6.71,6.71,0,0,1,519.58,8.46Z"/><path d="M539,154.08a11.63,11.63,0,1,0,11.63-11.63A11.65,11.65,0,0,0,539,154.08Zm21.26,0a9.63,9.63,0,1,1-9.63-9.63A9.64,9.64,0,0,1,560.25,154.08Z"/><rect class="cls-2" x="602.82" y="392.26" width="2.71" height="13.76"/><rect class="cls-2" x="602.82" y="408.72" width="2.71" height="13.76"/><rect class="cls-2" x="605.52" y="406.02" width="13.76" height="2.71"/><rect class="cls-2" x="589.06" y="406.02" width="13.76" height="2.71"/><rect class="cls-2" x="602.82" y="406.02" width="2.71" height="2.71"/><path d="M536.9,91.28l-.43.43h5.69c8.33,0,14.17-.25,22-4.6,8-4.46,12.59-4.42,20.92-4.36l3.37,0a4.84,4.84,0,0,0,4.84-4.84V58a4.84,4.84,0,0,0-4.84-4.84l-3.34,0c-8.39-.06-13.45-.1-21.92,4.61-7.83,4.37-13.69,4.36-22.54,4.34h-1.75a4.85,4.85,0,0,0-4.84,4.85V86.87A4.84,4.84,0,0,0,536.9,91.28Zm-.85-24.35a2.85,2.85,0,0,1,2.84-2.85h1.75c9.16,0,15.23,0,23.51-4.59,8-4.46,12.6-4.42,20.94-4.36l3.35,0A2.84,2.84,0,0,1,591.28,58V77.94a2.84,2.84,0,0,1-2.84,2.84l-3.35,0c-8.39-.07-13.44-.1-21.91,4.61-7.64,4.25-13.4,4.36-21.88,4.34h-2.41a2.84,2.84,0,0,1-2.84-2.84Z"/><path d="M747.55,373l-3.35,0c-8.39-.06-13.44-.1-21.91,4.61-7.83,4.37-13.69,4.35-22.55,4.34H698a4.84,4.84,0,0,0-4.84,4.84v19.94a4.84,4.84,0,0,0,4.84,4.84h3.29c8.32,0,14.16-.24,22-4.59,8-4.46,12.6-4.41,20.91-4.35h3.38a4.83,4.83,0,0,0,4.84-4.84V377.85A4.85,4.85,0,0,0,747.55,373Zm2.84,24.78a2.83,2.83,0,0,1-2.84,2.84h-3.36c-8.37-.07-13.43-.11-21.9,4.6-7.85,4.37-13.7,4.35-22.59,4.34H698a2.84,2.84,0,0,1-2.84-2.84V386.77a2.84,2.84,0,0,1,2.84-2.84h1.73c9.18,0,15.24,0,23.53-4.59,8-4.46,12.59-4.42,20.93-4.36l3.36,0a2.85,2.85,0,0,1,2.84,2.85Z"/><rect x="429.4" y="315.56" width="31.07" height="2" transform="translate(-57.97 529.3) rotate(-58.36)"/></g></g></svg>