<svg xmlns="http://www.w3.org/2000/svg" viewBox="0 0 1000.46 805.95"><defs><style>.cls-1{fill:none;}</style></defs><g id="Layer_2" data-name="Layer 2"><g id="Layer_1-2" data-name="Layer 1"><circle class="cls-1" cx="137.62" cy="347.71" r="7.04"/><path class="cls-1" d="M188.8,318.68a3,3,0,0,0,3-3V294.86a3,3,0,0,0-3-3H187c-9.58,0-15.91,0-24.56-4.78-8.36-4.66-13.16-4.62-21.86-4.55h-3.5a3,3,0,0,0-3,3v20.81a3,3,0,0,0,3,3l3.51,0,2.83,0c7.14,0,12.17.46,20,4.82,8.19,4.56,14.33,4.54,23.59,4.53Z"/><path class="cls-1" d="M413.57,756.42c-5,5.59-9,10.39-10.4,12.69-1.52,2.58-1.37,5,.42,6.87a8.94,8.94,0,0,0,10.18,1.38l73-39.78a10.46,10.46,0,0,0,5.33-10.64l-19.62-3.18Z"/><path class="cls-1" d="M616.77,178.81h5.59a35.55,35.55,0,0,0,35.49-35.48V114.05a19.31,19.31,0,0,0-5-13c-1-1.11-2.16-2.33-3.46-3.61-24.78-6.51-47.09-6.56-68.16-.16v46a35.49,35.49,0,0,0,35.49,35.5Zm-12.52-37.59h-2V118.79h2Z"/><path class="cls-1" d="M452.78,720.56l-.62-.1-3.56,2-.13-.23-6.21,3.53c-.72.75-5.18,5.35-10.86,11.35l11.05-10.65Z"/><path class="cls-1" d="M534.82,751.12v19l34.79-.63V753.56a49.08,49.08,0,0,1-14.23,2.12A48.59,48.59,0,0,1,534.82,751.12Z"/><path class="cls-1" d="M530.51,45.68a4.88,4.88,0,1,0-4.88-4.88A4.89,4.89,0,0,0,530.51,45.68Z"/><path class="cls-1" d="M506.38,45.68a4.88,4.88,0,1,0-4.88-4.88A4.89,4.89,0,0,0,506.38,45.68Z"/><path class="cls-1" d="M509.56,380.92a4.72,4.72,0,0,1-.82,2H599.2L575.52,373H506.94l3.71,8.72Z"/><path class="cls-1" d="M586.26,88.11a18.63,18.63,0,0,0-4.53,7c20.11-5.9,41.33-6,64.67-.44-8.08-7.12-20.13-14.71-34.77-14.71-11.8,0-19.06,3-23.5,6.52l-1.84,1.7Z"/><path class="cls-1" d="M503.1,356.72a6.65,6.65,0,0,0,6.09-6.61l0-9.42a1.17,1.17,0,0,1,.78-1.21c.9-.29,1.36.36,2.73,2.28,2,2.76,6.08,8.51,9.4,7.3l.17,0a4.21,4.21,0,0,0,.48-.12,3.68,3.68,0,0,0,2.4-4.61L519.68,327a8.6,8.6,0,0,0-8.24-6,7,7,0,0,0-5.7,2.92,9.08,9.08,0,0,1-8.95,3.6,7.1,7.1,0,0,0-7.33,3.22l-.34.56,11,25.75Z"/><circle class="cls-1" cx="810.5" cy="131.15" r="6.22"/><path class="cls-1" d="M206.28,248.19H14.73A12.74,12.74,0,0,0,2,260.92V366.08a12.74,12.74,0,0,0,12.73,12.73H206.28A12.75,12.75,0,0,0,219,366.08V260.92A12.75,12.75,0,0,0,206.28,248.19ZM78.53,343.29v2h-45v-2ZM57.45,314.5h-24v-2h24Zm7.85,0v-2H92.83v2Zm13.23-15.71h-45v-2h45ZM35.28,255.88a2.95,2.95,0,1,1-3,2.95A2.95,2.95,0,0,1,35.28,255.88Zm-11.43,0a2.95,2.95,0,1,1-3,2.95A2.95,2.95,0,0,1,23.85,255.88Zm-3.59,25.19H39.57v2H20.26Zm-7.83-19.29a2.95,2.95,0,1,1,3-2.95A2.95,2.95,0,0,1,12.43,261.78Zm7.83,65.79H39.57v2H20.26ZM57.45,361h-24v-2h24Zm35.38,0H65.3v-2H92.83ZM107,345.29H86.38v-2H107Zm0-46.5H86.38v-2H107Zm30.67,57.95a9,9,0,1,1,9-9A9,9,0,0,1,137.62,356.74Zm3-45.39-3.52,0a5,5,0,0,1-5-5V285.54a5,5,0,0,1,5-5h3.49c8.74-.08,14-.11,22.85,4.8,8.19,4.56,14.31,4.55,23.58,4.53h1.78a5,5,0,0,1,5,5v20.81a5,5,0,0,1-5,5h-3.42c-8.69,0-14.77-.26-22.92-4.79C154.11,311.24,149.31,311.27,140.62,311.35ZM180.51,361a13.3,13.3,0,1,1,13.3-13.29A13.3,13.3,0,0,1,180.51,361Z"/><circle class="cls-1" cx="180.51" cy="347.71" r="11.3"/><path class="cls-1" d="M643.93,327,601,321.82a20.48,20.48,0,0,0-13.51,3.1l-32.81,21a2,2,0,0,0,.68,3.58l3,.6,14.58-5,.36.86.06.13.12.32-.18.53-9.82,18.74a3.26,3.26,0,0,0,1.37,4.4,3.3,3.3,0,0,0,1.51.37h8.55c.55,0,1.42.06,2.53.15,5.47.4,18.26,1.36,20.94-4.11l6.24-20.71a3.9,3.9,0,0,1,4.4-2.71L642.8,349l1.31-23.57Z"/><path class="cls-1" d="M481.94,45.68a4.88,4.88,0,1,0-4.88-4.88A4.89,4.89,0,0,0,481.94,45.68Z"/><path class="cls-1" d="M510.62,777.1l14.93-4.1,43.71-1.07v12.9l-83.39.62c-7.07,2.52-12.92,4.8-15.22,6.18-2.57,1.53-3.61,3.74-2.92,6.23A9,9,0,0,0,476,804l83.15,0a10.46,10.46,0,0,0,10.45-10.44v-22l-36.79.91v-.26l-7.12.13C524.7,772.6,518.53,774.53,510.62,777.1Z"/><path class="cls-1" d="M810.5,91.61a6.22,6.22,0,1,0-6.22-6.22A6.23,6.23,0,0,0,810.5,91.61Z"/><path class="cls-1" d="M144.91,181.85H390.38a16.61,16.61,0,0,0,16.6-16.6V30.5a16.61,16.61,0,0,0-16.6-16.6H144.91a16.62,16.62,0,0,0-16.6,16.6V165.25A16.62,16.62,0,0,0,144.91,181.85Zm92.63-25H189v-2h48.58Zm56.15-53.41v2H189v-2ZM189,87.94v-2h48.58v2Zm136,17.52H309.26v-2H325Zm13,31.9v2H296.24v-2ZM309.32,87.94H253.47v-2h55.85ZM189,139.36v-2h91.35v2Zm120.36,17.51H253.47v-2h55.85Zm61.12,0H324.89v-2h45.55Zm-16.9-17.51v-2h15.69v2Zm16.9-51.42H324.89v-2h45.55Zm-16.9-19.51h15.69v2H353.54Zm-57.3,0H338v2H296.24Zm-15.93,2H189v-2h91.35ZM171.24,24a3.79,3.79,0,1,1-3.78,3.79A3.79,3.79,0,0,1,171.24,24Zm-9.13,26.89h39.16v2H162.11Zm0,68.92h39.16v2H162.11ZM156.6,24a3.79,3.79,0,1,1-3.78,3.79A3.79,3.79,0,0,1,156.6,24ZM142,24a3.79,3.79,0,1,1-3.78,3.79A3.79,3.79,0,0,1,142,24Z"/><path d="M144.91,183.85H390.38a18.62,18.62,0,0,0,18.6-18.6V30.5a18.62,18.62,0,0,0-18.6-18.6H144.91a18.62,18.62,0,0,0-18.6,18.6V165.25A18.62,18.62,0,0,0,144.91,183.85ZM128.31,30.5a16.62,16.62,0,0,1,16.6-16.6H390.38A16.61,16.61,0,0,1,407,30.5V165.25a16.61,16.61,0,0,1-16.6,16.6H144.91a16.62,16.62,0,0,1-16.6-16.6Z"/><path d="M142,31.6a3.79,3.79,0,1,0-3.78-3.78A3.78,3.78,0,0,0,142,31.6Z"/><path d="M156.6,31.6a3.79,3.79,0,1,0-3.78-3.78A3.78,3.78,0,0,0,156.6,31.6Z"/><path d="M171.24,31.6a3.79,3.79,0,1,0-3.78-3.78A3.79,3.79,0,0,0,171.24,31.6Z"/><rect x="162.11" y="50.92" width="39.16" height="2"/><rect x="188.96" y="68.43" width="91.35" height="2"/><rect x="296.24" y="68.43" width="41.73" height="2"/><rect x="353.54" y="68.43" width="15.69" height="2"/><rect x="188.96" y="103.46" width="104.73" height="2"/><rect x="309.26" y="103.46" width="15.69" height="2"/><rect x="188.96" y="85.94" width="48.58" height="2"/><rect x="253.47" y="85.94" width="55.85" height="2"/><rect x="324.89" y="85.94" width="45.55" height="2"/><rect x="162.11" y="119.84" width="39.16" height="2"/><rect x="188.96" y="137.36" width="91.35" height="2"/><rect x="296.24" y="137.36" width="41.73" height="2"/><rect x="353.54" y="137.36" width="15.69" height="2"/><rect x="188.96" y="154.87" width="48.58" height="2"/><rect x="253.47" y="154.87" width="55.85" height="2"/><rect x="324.89" y="154.87" width="45.55" height="2"/><path d="M206.28,246.19H14.73A14.75,14.75,0,0,0,0,260.92V366.08a14.75,14.75,0,0,0,14.73,14.73H206.28A14.75,14.75,0,0,0,221,366.08V260.92A14.75,14.75,0,0,0,206.28,246.19ZM219,366.08a12.75,12.75,0,0,1-12.74,12.73H14.73A12.74,12.74,0,0,1,2,366.08V260.92a12.74,12.74,0,0,1,12.73-12.73H206.28A12.75,12.75,0,0,1,219,260.92Z"/><path d="M12.43,255.88a2.95,2.95,0,1,0,3,2.95A2.95,2.95,0,0,0,12.43,255.88Z"/><path d="M23.85,261.78a2.95,2.95,0,1,0-3-2.95A2.95,2.95,0,0,0,23.85,261.78Z"/><path d="M35.28,261.78a2.95,2.95,0,1,0-3-2.95A2.95,2.95,0,0,0,35.28,261.78Z"/><path d="M137.62,338.67a9,9,0,1,0,9,9A9,9,0,0,0,137.62,338.67Zm0,16.07a7,7,0,1,1,7-7A7,7,0,0,1,137.62,354.74Z"/><path d="M180.51,334.41a13.3,13.3,0,1,0,13.3,13.3A13.3,13.3,0,0,0,180.51,334.41Zm0,24.59a11.3,11.3,0,1,1,11.3-11.29A11.3,11.3,0,0,1,180.51,359Z"/><path d="M187,320.68h1.77a5,5,0,0,0,5-5V294.86a5,5,0,0,0-5-5H187c-9.27,0-15.39,0-23.58-4.53-8.83-4.91-14.11-4.88-22.85-4.8H137.1a5,5,0,0,0-5,5v20.82a5,5,0,0,0,5,5l3.52,0c8.69-.08,13.49-.11,21.84,4.55,8.15,4.53,14.23,4.79,22.92,4.79Zm-23.59-6.53c-7.83-4.36-12.86-4.82-20-4.82l-2.83,0-3.51,0a3,3,0,0,1-3-3V285.54a3,3,0,0,1,3-3h3.5c8.7-.07,13.5-.11,21.86,4.55,8.65,4.81,15,4.79,24.56,4.78h1.78a3,3,0,0,1,3,3v20.81a3,3,0,0,1-3,3H187C177.77,318.69,171.63,318.71,163.44,314.15Z"/><rect x="20.26" y="281.07" width="19.3" height="2"/><rect x="33.5" y="296.79" width="45.03" height="2"/><rect x="86.38" y="296.79" width="20.57" height="2"/><rect x="33.5" y="312.5" width="23.95" height="2"/><rect x="65.3" y="312.5" width="27.53" height="2"/><rect x="20.26" y="327.57" width="19.3" height="2"/><rect x="33.5" y="343.29" width="45.03" height="2"/><rect x="86.38" y="343.29" width="20.57" height="2"/><rect x="33.5" y="359" width="23.95" height="2"/><rect x="65.3" y="359" width="27.53" height="2"/><path d="M678.43,559.48a12.7,12.7,0,0,0-4.6,0,12.85,12.85,0,0,0-10.39,11.9H921.36v-17H723.83A82,82,0,0,1,678.43,559.48Z"/><path d="M486.79,737.58l-73,39.78A8.94,8.94,0,0,1,403.59,776c-1.79-1.85-1.94-4.29-.42-6.87,1.36-2.3,5.4-7.1,10.4-12.69l-.27.14-1.58-.46,19.68-18.94c5.68-6,10.14-10.6,10.86-11.35l6.21-3.53-1-1.75-6.36,3.62-.23.17c-1.42,1.46-34.82,35.89-39.47,43.78-2,3.37-1.74,6.75.7,9.27a10.95,10.95,0,0,0,12.58,1.75l73-39.79a12.45,12.45,0,0,0,6.43-12.05l-2.06-.34A10.46,10.46,0,0,1,486.79,737.58Z"/><path d="M452.78,720.56l-10.33,6L431.4,737.16c-5.56,5.86-12.28,13.05-17.83,19.26l58.93-32.66Z"/><path d="M411.72,756.1l1.58.46.27-.14c5.55-6.21,12.27-13.4,17.83-19.26Z"/><polygon points="452.16 720.46 451.79 720.4 448.47 722.28 448.6 722.51 452.16 720.46"/><polygon points="447.02 719.62 447.51 720.53 448.64 719.88 447.02 719.62"/><polygon points="451.79 720.4 448.64 719.88 447.51 720.53 448.47 722.28 451.79 720.4"/><path d="M569.61,793.49a10.46,10.46,0,0,1-10.45,10.44L476,804a9,9,0,0,1-8.28-6.09c-.69-2.49.35-4.7,2.92-6.23,2.3-1.38,8.15-3.66,15.22-6.18h-.31l-1.16-1.16,26.22-7.19c7.91-2.57,14.08-4.5,15.08-4.81l7.12-.13v-2l-7.3.13-.28.05c-2,.6-47.76,14.88-55.62,19.57-3.36,2-4.75,5.1-3.82,8.48A10.93,10.93,0,0,0,476,806l83.15,0a12.46,12.46,0,0,0,12.45-12.45v-22l-2,0Z"/><polygon points="534.82 770.37 569.61 769.51 569.61 769.5 534.82 770.13 534.82 770.37"/><path d="M569.26,771.93,525.55,773l-14.93,4.1c-7.66,2.48-16.95,5.56-24.75,8.35l83.39-.62Z"/><path d="M484.4,784.29l1.16,1.16h.31c7.8-2.79,17.09-5.87,24.75-8.35Z"/><path d="M569.61,769.5l2,0v2h0V752.91c-.67.23-1.33.44-2,.65Z"/><path d="M534.82,751.12c-.67-.31-1.34-.64-2-1v20l2,0Z"/><polygon points="569.61 771.51 569.61 771.5 532.82 772.16 532.82 772.42 569.61 771.51"/><polygon points="569.61 769.5 569.61 769.51 534.82 770.37 534.82 770.13 532.82 770.16 532.82 772.16 569.61 771.5 569.61 771.51 571.61 771.46 571.61 769.47 569.61 769.5"/><path d="M498.47,371h5.44l-16.66-39.06-.67-.41.29-.47-39.73-93.17a6.39,6.39,0,0,0-5.88-3.9H277.68a2.63,2.63,0,0,0-1.87.77,2.68,2.68,0,0,0-.79,1.87,2.74,2.74,0,0,0,.18,1l53.19,141.18a6.43,6.43,0,0,0,6,4.13H504.94a2.69,2.69,0,0,0,2.67-2.69,2.52,2.52,0,0,0-.22-1L506,375.89h0l-1.24-2.9h-6.29Z"/><path d="M334.37,384.91H503.48v-1H334.38a7.39,7.39,0,0,1-6.92-4.78L274.27,238a3.65,3.65,0,0,1,3.44-5H441.26a7.41,7.41,0,0,1,6.8,4.5L487.51,330l.24-.39c.13-.21.29-.4.43-.59L449,237.09a8.38,8.38,0,0,0-7.72-5.11H277.71A4.66,4.66,0,0,0,273,236.6a4.71,4.71,0,0,0,.31,1.71l53.19,141.17A8.43,8.43,0,0,0,334.37,384.91Z"/><polygon points="505 370.99 506.08 370.99 500.93 358.9 499.88 358.99 505 370.99"/><polygon points="499.38 357.02 500.1 356.96 489.12 331.21 488.48 332.26 499.46 358.01 499.38 357.02"/><path d="M508.31,378.79a3.53,3.53,0,0,1,.3,1.43,3.65,3.65,0,0,1-1.19,2.7h1.32a4.72,4.72,0,0,0,.82-2l1.09.79L506.94,373h-1.09l2.48,5.81Z"/><polygon points="487.25 331.93 503.91 370.99 505 370.99 499.88 358.99 499.54 359.01 499.46 358.01 488.48 332.26 488.29 332.56 487.25 331.93"/><path d="M507.42,382.92a3.65,3.65,0,0,0,1.19-2.7,3.53,3.53,0,0,0-.3-1.43h0L505.85,373h-1.09l1.24,2.9h0l1.39,3.29a2.52,2.52,0,0,1,.22,1,2.69,2.69,0,0,1-2.67,2.69H334.37a6.43,6.43,0,0,1-6-4.13L275.2,237.6a2.74,2.74,0,0,1-.18-1,2.68,2.68,0,0,1,.79-1.87,2.63,2.63,0,0,1,1.87-.77H441.26a6.39,6.39,0,0,1,5.88,3.9l39.73,93.17.64-1.05-39.45-92.52a7.41,7.41,0,0,0-6.8-4.5H277.71a3.65,3.65,0,0,0-3.44,5l53.19,141.17a7.39,7.39,0,0,0,6.92,4.78h169.1v-1Z"/><path d="M575.52,373l23.68,9.93H508.74a4.7,4.7,0,0,1-3.8,2h96.63a1.52,1.52,0,0,0,.57-2.93l-21.77-9.13-3.06-.21c-1.06-.08-1.9-.14-2.38-.14h-8.55a5,5,0,0,1-3.66-1.52H506.08l.86,2Z"/><polygon points="498.47 370.99 498.47 372.99 504.76 372.99 503.91 370.99 498.47 370.99"/><path d="M508.74,382.92h-1.32a3.61,3.61,0,0,1-2.48,1h-1.46v1h1.46A4.7,4.7,0,0,0,508.74,382.92Z"/><polygon points="505.85 372.99 506.94 372.99 506.08 370.99 505 370.99 505.85 372.99"/><polygon points="504.76 372.99 505.85 372.99 505 370.99 503.91 370.99 504.76 372.99"/><path d="M507.42,382.92h-3.94v1h1.46A3.61,3.61,0,0,0,507.42,382.92Z"/><path d="M570.53,201.92l-.09-.16c0,.08-.05.16-.08.25Z"/><path d="M506.79,320.22l38.84-90.85c5.69-12.76,12.28-20.51,22.31-26.08.23-.9.49-1.8.77-2.68-11.42,5.86-18.7,14-24.91,28l-40.61,95,.1,0a7.35,7.35,0,0,0,.83-.93A9,9,0,0,1,506.79,320.22Z"/><path d="M733.19,239.14a108,108,0,0,1,21.59,53.44L765.23,384l2-.23-10.45-91.45a110,110,0,0,0-22-54.42l-13.47-17.56q1.07,2.92,2,5.9Z"/><polygon points="748.94 343.32 749.32 341.35 646.33 321.64 646.22 323.66 748.94 343.32"/><polygon points="643.05 321.01 642.67 322.98 644.24 323.28 644.35 321.26 643.05 321.01"/><polygon points="551.63 305.72 562.65 262.88 560.72 262.39 549.65 305.41 549.6 305.61 555.09 343.32 556.93 342.13 551.63 305.72"/><path d="M580.37,372.86c1.36.08,2.86.14,4.4.14,6.25,0,13.27-1,15.47-5.66l6.31-20.92a1.89,1.89,0,0,1,2.14-1.32l34,5.94.11-2L609,343.13a3.9,3.9,0,0,0-4.4,2.71l-6.24,20.71c-2.68,5.47-15.47,4.51-20.94,4.11-1.11-.09-2-.15-2.53-.15h-8.55a3.3,3.3,0,0,1-1.51-.37,3.26,3.26,0,0,1-1.37-4.4L573.32,347l.18-.53-.12-.32-.06-.13-.36-.86-14.58,5-3-.6a2,2,0,0,1-.68-3.58l32.81-21a20.48,20.48,0,0,1,13.51-3.1L643.93,327l.18-1.55,0-.44-42.89-5.18a22.52,22.52,0,0,0-14.83,3.4l-29.49,18.89.21,1.4-2,.29-.07-.5-1.48.94a4,4,0,0,0-1.19,5.49,4.06,4.06,0,0,0,2.55,1.74l3.54.7,12-4.07-8.75,16.7a5.24,5.24,0,0,0,1,6.17h13.2Z"/><path d="M566.38,372.51h8.55c.48,0,1.32.06,2.38.14l3.06.21L575.92,371h-13.2a5,5,0,0,0,3.66,1.52Z"/><polygon points="557.14 343.53 556.93 342.13 555.09 343.32 555.16 343.82 557.14 343.53"/><path d="M489.46,330.65a7.1,7.1,0,0,1,7.33-3.22,9.08,9.08,0,0,0,8.95-3.6,7,7,0,0,1,5.7-2.92,8.6,8.6,0,0,1,8.24,6l5.45,17.33a3.68,3.68,0,0,1-2.4,4.61,4.21,4.21,0,0,1-.48.12l-.17,0c-3.32,1.21-7.43-4.54-9.4-7.3-1.37-1.92-1.83-2.57-2.73-2.28a1.17,1.17,0,0,0-.78,1.21l0,9.42a6.65,6.65,0,0,1-6.09,6.61l-3,.24.83,1.94,2.33-.18a8.66,8.66,0,0,0,7.93-8.61v-7c2.44,3.42,6.86,9.47,11.5,7.87a4.74,4.74,0,0,0,.65-.16,5.67,5.67,0,0,0,3.7-7.12l-5.44-17.33a10.59,10.59,0,0,0-10.15-7.45,9,9,0,0,0-4.65,1.31L505,324.33l-1.74-.74a7.12,7.12,0,0,1-6.22,1.86,9,9,0,0,0-8.89,3.57l.94,2.19Z"/><polygon points="487.25 331.93 486.87 331.05 486.58 331.52 487.25 331.93"/><polygon points="499.38 357.02 499.46 358.01 499.88 358.99 500.93 358.9 500.1 356.96 499.38 357.02"/><path d="M487.51,330l1,2.26.64-1.05-.94-2.19c-.14.19-.3.38-.43.59Z"/><polygon points="487.25 331.93 488.29 332.56 488.48 332.26 487.51 330 486.87 331.05 487.25 331.93"/><polygon points="499.88 358.99 499.46 358.01 499.54 359.01 499.88 358.99"/><path d="M506.79,320.22a9,9,0,0,0-2.67,2.44,7.35,7.35,0,0,1-.83.93l1.74.74Z"/><path d="M644.11,325.46,642.8,349l1.41.24-.34,2-1.18-.2-.84,15.08a4.67,4.67,0,0,1-9.17,1,4.58,4.58,0,0,1-.16-1.52l.75-12.53-2-.12-.76,12.53a7,7,0,0,0,.23,2.18,6.69,6.69,0,0,0,6.44,4.89,6.39,6.39,0,0,0,1.77-.24,6.66,6.66,0,0,0,4.89-6.06l2.37-42.57-2-.38-.1,1.74h0Z"/><polygon points="646.38 320.73 644.38 320.62 644.35 321.26 646.33 321.64 646.38 320.73"/><polygon points="646.33 321.64 644.35 321.26 644.24 323.28 646.22 323.66 646.33 321.64"/><polygon points="644.21 349.27 642.8 349.03 642.69 351.04 643.87 351.24 644.21 349.27"/><polygon points="644.17 325.02 644.14 325.02 644.11 325.46 644.17 325.02"/><polygon points="563.83 436.05 565.82 435.82 563.88 419.21 561.86 419.21 563.83 436.05"/><path d="M773.38,475a81.06,81.06,0,0,1-52.32,79.39h2.77A82.12,82.12,0,0,0,774.38,475l-2.45-55.78h-1Z"/><path d="M419.36,714.12l90-224.13a67.51,67.51,0,0,1,43.15-39.48l16.23-4.89a67.48,67.48,0,0,1,29.59-2.12L667.71,454h0l.15-1-69.4-10.49a68.93,68.93,0,0,0-30,2.15l-16.24,4.89a68.19,68.19,0,0,0-43.79,40.06l-90,224.13L418,714.9l29,4.72-.6-1.11Z"/><path d="M521.09,740.17a47.9,47.9,0,0,0-26.66-13.86l-.39-.07c.06.35.11.69.14,1h.09a47.22,47.22,0,0,1,26.1,13.58,49.09,49.09,0,0,0,12.45,9.26V749A48.08,48.08,0,0,1,521.09,740.17Z"/><polygon points="448.91 718.91 449.25 719.54 450.03 719.1 448.91 718.91"/><path d="M534.82,750v1.13a48.59,48.59,0,0,0,20.56,4.56,49.08,49.08,0,0,0,14.23-2.12v-1A48,48,0,0,1,534.82,750Z"/><path d="M472.5,723.76l19.62,3.18a9.53,9.53,0,0,0-.2-1l-18-2.93Z"/><path d="M662.65,574.74l32,166.86-66.23-6.67a48,48,0,0,0-22.73,3.23l-32.34,13c-.58.24-1.17.46-1.75.67v1.06c.71-.25,1.42-.51,2.12-.8l32.34-13a47.17,47.17,0,0,1,22.26-3.16l67.57,6.8L663.64,574.56a12.38,12.38,0,0,1-.2-3.14h-1A13.84,13.84,0,0,0,662.65,574.74Z"/><polygon points="453.53 719.66 452.16 720.46 452.78 720.56 454.15 719.76 453.53 719.66"/><path d="M673.83,559.52a12.7,12.7,0,0,1,4.6,0,82,82,0,0,0,45.4-5.06h-2.77a81.06,81.06,0,0,1-42.46,4.07,13.84,13.84,0,0,0-16.16,12.93h1A12.85,12.85,0,0,1,673.83,559.52Z"/><path d="M491.92,725.9a9.53,9.53,0,0,1,.2,1l2.06.34c0-.35-.08-.69-.14-1Z"/><polygon points="450.41 719.16 450.03 719.1 449.25 719.54 449.37 719.75 450.41 719.16"/><polygon points="452.78 720.56 472.5 723.76 473.91 722.97 454.15 719.76 452.78 720.56"/><polygon points="453.53 719.66 453.18 719.61 451.79 720.4 452.16 720.46 453.53 719.66"/><polygon points="449.25 719.54 448.91 718.91 446.42 718.51 447.02 719.62 448.64 719.88 449.25 719.54"/><polygon points="450.41 719.16 449.37 719.75 449.25 719.54 448.64 719.88 451.79 720.4 453.18 719.61 450.41 719.16"/><path d="M569.61,752.51v1c.67-.21,1.33-.42,2-.65v-1.06C570.94,752.09,570.28,752.31,569.61,752.51Z"/><path d="M534.82,750c-.67-.32-1.34-.65-2-1v1.14c.66.35,1.33.68,2,1Z"/><polygon points="451.42 718.31 448.31 717.8 448.91 718.91 450.03 719.1 451.42 718.31"/><path d="M475.33,722.19l-1.42.78,18,2.93c-.09-.36-.2-.72-.32-1.07Z"/><polygon points="455.52 718.97 454.9 718.87 453.53 719.66 454.15 719.76 455.52 718.97"/><path d="M661.67,574.93l31.76,165.54-64.9-6.53a49.29,49.29,0,0,0-23.2,3.29l-32.34,13-1.38.52v1.07c.58-.21,1.17-.43,1.75-.67l32.34-13a48,48,0,0,1,22.73-3.23l66.23,6.67-32-166.86a13.84,13.84,0,0,1-.21-3.32h-1A14.88,14.88,0,0,0,661.67,574.93Z"/><path d="M521.81,739.47a49.3,49.3,0,0,0-27.22-14.15l-.79-.13a9.92,9.92,0,0,1,.24,1l.39.07a47.9,47.9,0,0,1,26.66,13.86A48.08,48.08,0,0,0,532.82,749v-1.12A47.1,47.1,0,0,1,521.81,739.47Z"/><path d="M534.82,748.91V750a48,48,0,0,0,34.79,2.52v-1A46.76,46.76,0,0,1,534.82,748.91Z"/><path d="M773.38,475l-2.45-55.82h-1l2.46,55.86a80.13,80.13,0,0,1-54.23,79.35h2.9A81.06,81.06,0,0,0,773.38,475Z"/><path d="M598.32,443.5a67.48,67.48,0,0,0-29.59,2.12l-16.23,4.89A67.51,67.51,0,0,0,509.35,490l-90,224.13,27.06,4.39-.61-1.11-25.05-4.07,89.52-223a66.16,66.16,0,0,1,42.51-38.89l16.23-4.9a66.84,66.84,0,0,1,29.15-2.08L667.56,455l.15-1h0Z"/><path d="M678.77,557.51a14.64,14.64,0,0,0-5.32,0,14.85,14.85,0,0,0-12,13.86h1a13.84,13.84,0,0,1,16.16-12.93,81.06,81.06,0,0,0,42.46-4.07h-2.9A80.11,80.11,0,0,1,678.77,557.51Z"/><path d="M491.6,724.83c.12.35.23.71.32,1.07l2.12.34a9.92,9.92,0,0,0-.24-1Z"/><polygon points="450.41 719.16 451.78 718.37 451.42 718.31 450.03 719.1 450.41 719.16"/><polygon points="454.15 719.76 473.91 722.97 475.33 722.19 455.52 718.97 454.15 719.76"/><polygon points="454.57 718.82 453.18 719.61 453.53 719.66 454.9 718.87 454.57 718.82"/><polygon points="445.81 717.4 446.42 718.51 448.91 718.91 448.31 717.8 445.81 717.4"/><polygon points="451.78 718.37 450.41 719.16 453.18 719.61 454.57 718.82 451.78 718.37"/><path d="M532.82,747.87V749c.66.35,1.33.68,2,1v-1.08C534.15,748.58,533.48,748.24,532.82,747.87Z"/><path d="M569.61,751.47v1c.67-.2,1.33-.42,2-.66v-1.07C570.94,751,570.28,751.26,569.61,751.47Z"/><path d="M593.67,171.76l-.64.58c.47.38,1,.76,1.43,1.11V173h2v1.88a37.17,37.17,0,0,0,20.31,6h5.6a37.53,37.53,0,0,0,32.39-18.68l-1.56-1.23,4.85-6.14a37.3,37.3,0,0,0,1.8-11.43V114.05a21.33,21.33,0,0,0-5.46-14.32c-7.34-8.14-22.66-21.8-42.76-21.8a47.19,47.19,0,0,0-17.36,2.89l-6.14,5.63c4.44-3.49,11.7-6.52,23.5-6.52,14.64,0,26.69,7.59,34.77,14.71-23.34-5.61-44.56-5.46-64.67.44a18.63,18.63,0,0,1,4.53-7L585,86.72a19.84,19.84,0,0,0-5.68,9.68L579,98l.24-.08v45.4a37.25,37.25,0,0,0,11,26.51c.41.41.83.8,1.25,1.19l.82-.74Zm-12.39-28.45v-46c21.07-6.4,43.38-6.35,68.16.16,1.3,1.28,2.46,2.5,3.46,3.61a19.31,19.31,0,0,1,5,13v29.28a35.55,35.55,0,0,1-35.49,35.48h-5.59a35.49,35.49,0,0,1-35.49-35.5Z"/><path d="M586.29,88.15l1.84-1.7a22.22,22.22,0,0,0-1.87,1.66Z"/><path d="M600.43,75.18A53.23,53.23,0,0,1,645.8,62.11l5.26,1A48.14,48.14,0,0,1,682.3,83.65l4.6,8.67a88.75,88.75,0,0,1,10.33,41.48v6.47c0,41.68-25.34,59.19-51.29,73.55-8,4.44-40.88,7.76-50.22,5.06l-.55,1.93a45.63,45.63,0,0,0,11.29,1c13.94,0,34.12-2.77,40.45-6.28,20-11.08,39.68-24,48.07-48.17l-1.1-2.35,1.81-.85.2.42a84,84,0,0,0,3.34-24.35V133.8a90.79,90.79,0,0,0-10.56-42.42L684,82.63a50.19,50.19,0,0,0-32.59-21.52l-5.26-1A55.29,55.29,0,0,0,599.08,73.7l-14.14,13,0,0a27.39,27.39,0,0,1,9.29-5.9Z"/><path d="M588.13,86.45l6.14-5.63a27.39,27.39,0,0,0-9.29,5.9l1.28,1.39A22.22,22.22,0,0,1,588.13,86.45Z"/><path d="M654.77,162.14l10.92-13.82a44.36,44.36,0,0,0,9.42-31.81l-.92-9.87-2,.19.92,9.87a42.41,42.41,0,0,1-9,30.38l-6.08,7.68a37.23,37.23,0,0,1-3.29,7.37Z"/><path d="M654.76,162.13a37.23,37.23,0,0,0,3.29-7.37l-4.85,6.14Z"/><path d="M594.46,183.8c0,6.59,3.26,11.47,9.43,14.11a35.75,35.75,0,0,0,13.81,2.33c15.74,0,35.16-6.39,41.84-12.75l5.06-4.85-1.38-1.44L658.16,186c-8.34,8-39.07,16.21-53.49,10-5.45-2.33-8.21-6.46-8.21-12.27v-9c-.68-.44-1.35-.89-2-1.38Z"/><path d="M594.46,173v.5c.65.49,1.32.94,2,1.38V173Z"/><path d="M566.42,217.72c.57,13.05,12.58,24.18,23.38,27a78.5,78.5,0,0,0,19.87,2.41c17.34,0,33.79-4.85,41.78-9.56l30-17.74-1-1.73-30,17.75c-10.75,6.34-37.29,12.93-60.13,6.94-8.81-2.31-21.32-12.34-21.88-25.16A47.28,47.28,0,0,1,570.36,202c-.83.41-1.63.84-2.42,1.28A49.32,49.32,0,0,0,566.42,217.72Z"/><path d="M570.44,201.76a47,47,0,0,1,13.35-21l9.24-8.4c-.51-.42-1-.87-1.52-1.32l-9.07,8.24a48.89,48.89,0,0,0-13.73,21.35l.93-.48Z"/><path d="M570.36,202c0-.09.06-.17.08-.25l-.8-1.63-.93.48c-.28.88-.54,1.78-.77,2.68C568.73,202.85,569.53,202.42,570.36,202Z"/><path d="M593.67,171.76l-1.34-1.48-.82.74c.5.45,1,.9,1.52,1.32Z"/><polygon points="675.21 237.09 673.4 236.23 657.97 268.54 623.37 317.27 625 318.43 659.65 269.62 675.21 237.09"/><path d="M711.76,203.24a159,159,0,0,1,16.53,86.17l-2.42,27.18-26.82-7.25a93.66,93.66,0,0,0-43.34-1.26L636.92,312l.41,2L656.12,310a91.53,91.53,0,0,1,42.4,1.23l29.13,7.87,2.63-29.56a161,161,0,0,0-7-63.31l-3.68-4.8,1.58-1.22.09.12a162.12,162.12,0,0,0-7.75-18l-17.67-37.75c-.29.94-.59,1.87-.91,2.78Z"/><path d="M719.64,221.47l3.68,4.8q-.95-3-2-5.9l-.09-.12Z"/><path d="M693.88,165.05l1.1,2.35c.32-.91.62-1.84.91-2.78l-.2-.42Z"/><polygon points="769.79 416.04 770.78 415.99 770.79 415.99 770.79 415.99 771.79 415.95 771.93 419.21 839.22 419.21 839.22 402.21 278.54 402.21 278.54 419.21 561.86 419.21 560.88 410.82 562.87 410.59 563.88 419.21 762.06 419.21 769.8 416.36 769.79 416.04"/><polygon points="560.88 410.82 561.86 419.21 563.88 419.21 562.87 410.59 560.88 410.82"/><polygon points="770.79 415.99 770.78 415.99 770.79 415.99 770.79 415.99"/><polygon points="769.8 416.36 762.06 419.21 769.93 419.21 769.8 416.36"/><polygon points="770.79 415.99 770.93 419.21 771.93 419.21 771.79 415.95 770.79 415.99"/><polygon points="769.79 416.04 769.8 416.36 770.78 415.99 769.79 416.04"/><polygon points="770.79 415.99 770.78 415.99 769.8 416.36 769.93 419.21 770.93 419.21 770.79 415.99"/><rect x="602.25" y="118.79" width="2" height="22.44"/><polygon points="809.5 3.81 809.5 35.35 811.5 35.35 811.5 3.84 810.49 2.83 809.5 3.81"/><polygon points="809.5 3.81 809.5 1.41 811.5 1.41 811.5 3.84 824.02 16.36 825.43 14.95 810.49 0 795.54 14.95 796.95 16.36 809.5 3.81"/><polygon points="809.5 1.41 809.5 3.81 810.49 2.83 811.5 3.84 811.5 1.41 809.5 1.41"/><polygon points="833.42 33.94 831.42 33.94 831.42 42.5 789.58 42.5 789.58 33.94 787.58 33.94 787.58 44.5 833.42 44.5 833.42 33.94"/><rect x="771.57" y="162.73" width="17.34" height="2"/><rect x="783.46" y="176.85" width="40.45" height="2"/><rect x="830.96" y="176.85" width="18.48" height="2"/><rect x="783.46" y="190.97" width="21.51" height="2"/><rect x="812.02" y="190.97" width="24.73" height="2"/><path d="M810.5,93.61a8.22,8.22,0,1,0-8.22-8.22A8.23,8.23,0,0,0,810.5,93.61Zm0-14.43a6.22,6.22,0,1,1-6.22,6.21A6.22,6.22,0,0,1,810.5,79.18Z"/><path d="M810.5,139.37a8.22,8.22,0,1,0-8.22-8.22A8.23,8.23,0,0,0,810.5,139.37Zm0-14.44a6.22,6.22,0,1,1-6.22,6.22A6.23,6.23,0,0,1,810.5,124.93Z"/><path d="M463.35,37.19V21.33a2.61,2.61,0,0,1,2.6-2.61h2.2v-2H466a4.62,4.62,0,0,0-4.6,4.61V37.2a2.61,2.61,0,0,1-2.6,2.6h0a4.57,4.57,0,0,1,2.82,1A4.55,4.55,0,0,0,463.35,37.19Z"/><path d="M458.75,41.8h0a2.6,2.6,0,0,1,2.59,2.6V60.27a4.62,4.62,0,0,0,4.6,4.61h2.2v-2h-2.2a2.61,2.61,0,0,1-2.6-2.61V44.4a4.59,4.59,0,0,0-1.77-3.6,4.51,4.51,0,0,1-2.82,1Z"/><path d="M458.75,41.8h0a4.51,4.51,0,0,0,2.82-1,4.57,4.57,0,0,0-2.82-1h-2.94v2Z"/><path d="M555,39.8a2.61,2.61,0,0,1-2.6-2.61V21.33a4.61,4.61,0,0,0-4.6-4.61h-2.19v2h2.19a2.6,2.6,0,0,1,2.6,2.61V37.19a4.61,4.61,0,0,0,1.78,3.61,4.51,4.51,0,0,1,2.82-1Z"/><path d="M552.38,60.27V44.4a2.61,2.61,0,0,1,2.6-2.6,4.57,4.57,0,0,1-2.82-1,4.6,4.6,0,0,0-1.78,3.6V60.27a2.6,2.6,0,0,1-2.6,2.6h-2.19v2h2.19A4.61,4.61,0,0,0,552.38,60.27Z"/><path d="M557.92,41.8v-2H555a4.51,4.51,0,0,0-2.82,1,4.57,4.57,0,0,0,2.82,1Z"/><path d="M481.94,47.68a6.88,6.88,0,1,0-6.88-6.88A6.89,6.89,0,0,0,481.94,47.68Zm0-11.76a4.88,4.88,0,1,1-4.88,4.88A4.89,4.89,0,0,1,481.94,35.92Z"/><path d="M506.38,47.68a6.88,6.88,0,1,0-6.88-6.88A6.89,6.89,0,0,0,506.38,47.68Zm0-11.76a4.88,4.88,0,1,1-4.88,4.88A4.89,4.89,0,0,1,506.38,35.92Z"/><path d="M530.51,47.68a6.88,6.88,0,1,0-6.88-6.88A6.89,6.89,0,0,0,530.51,47.68Zm0-11.76a4.88,4.88,0,1,1-4.88,4.88A4.89,4.89,0,0,1,530.51,35.92Z"/><path d="M837,311.68V284.35a5.21,5.21,0,0,1,5.2-5.19h3.78v-2h-3.78a7.21,7.21,0,0,0-7.2,7.19v27.32a5.21,5.21,0,0,1-5.2,5.19h0a7.14,7.14,0,0,1,3.63,1A7.22,7.22,0,0,0,837,311.68Z"/><path d="M829.76,318.86h0a5.2,5.2,0,0,1,5.19,5.19v27.32a7.21,7.21,0,0,0,7.2,7.18h3.78v-2h-3.78a5.21,5.21,0,0,1-5.2-5.18V324a7.2,7.2,0,0,0-3.55-6.17,7.18,7.18,0,0,1-3.65,1Z"/><path d="M829.76,316.86H824.7v2h5.06a7.18,7.18,0,0,0,3.65-1,7.14,7.14,0,0,0-3.63-1Z"/><path d="M995.4,316.86a5.21,5.21,0,0,1-5.2-5.18V284.35a7.19,7.19,0,0,0-7.19-7.19h-3.78v2H983a5.2,5.2,0,0,1,5.19,5.19v27.33a7.21,7.21,0,0,0,3.55,6.18,7.09,7.09,0,0,1,3.64-1Z"/><path d="M990.32,319a7.11,7.11,0,0,0-2.12,5.09v27.32a5.19,5.19,0,0,1-5.19,5.18h-3.78v2H983a7.19,7.19,0,0,0,7.19-7.18V324a5.19,5.19,0,0,1,5.19-5.18h0a7.18,7.18,0,0,1-3.65-1A6.82,6.82,0,0,0,990.32,319Z"/><path d="M995.4,316.86h0a7.09,7.09,0,0,0-3.64,1,7.18,7.18,0,0,0,3.65,1h5.06v-2Z"/><path d="M938.44,309.12h-1.79c-9.59,0-15.9,0-24.54-4.79-8.37-4.65-13.17-4.62-21.86-4.55l-3.51,0a3,3,0,0,0-3,3v20.81a3,3,0,0,0,3,3h3.5l2.83,0c7.14,0,12.18.46,20,4.82C921.27,336,927.4,336,936.67,336h1.77a3,3,0,0,0,3-3V312.13A3,3,0,0,0,938.44,309.12Z"/><path d="M938.44,307.12h-1.79c-9.25,0-15.38,0-23.57-4.53-8.83-4.92-14.11-4.88-22.85-4.81l-3.49,0a5,5,0,0,0-5,5v20.81a5,5,0,0,0,5,5h3.52c8.7-.07,13.48-.11,21.85,4.55C920.25,337.7,926.34,338,935,338h3.42a5,5,0,0,0,5-5V312.13A5,5,0,0,0,938.44,307.12Zm4,25.82a4,4,0,0,1-4,4c-10.4,0-16.91.32-25.85-4.66-9.67-5.38-14.79-4.66-25.85-4.66a4,4,0,0,1-4-4V302.81a4,4,0,0,1,4-4c11.06,0,16.17-.72,25.85,4.66,8.94,5,15.45,4.66,25.85,4.66a4,4,0,0,1,4,4Z"/><path d="M938.44,308.12c-10.4,0-16.91.32-25.85-4.66-9.68-5.38-14.79-4.66-25.85-4.66a4,4,0,0,0-4,4v20.81a4,4,0,0,0,4,4c11.06,0,16.18-.72,25.85,4.66,8.94,5,15.45,4.66,25.85,4.66a4,4,0,0,0,4-4V312.13A4,4,0,0,0,938.44,308.12Zm3,24.82a3,3,0,0,1-3,3h-1.77c-9.27,0-15.4,0-23.59-4.53-7.83-4.36-12.87-4.82-20-4.82l-2.83,0h-3.5a3,3,0,0,1-3-3V302.81a3,3,0,0,1,3-3l3.51,0c8.69-.07,13.49-.1,21.86,4.55,8.64,4.82,14.95,4.8,24.54,4.79h1.79a3,3,0,0,1,3,3Z"/></g></g></svg>