<svg xmlns="http://www.w3.org/2000/svg" width="917.201" height="596" viewBox="0 0 917.201 596">
  <g id="Group_1284" data-name="Group 1284" transform="translate(-1003 -344)">
    <circle id="Ellipse_213" data-name="Ellipse 213" cx="131" cy="131" r="131" transform="translate(1490 394)" fill="#82c6f5" opacity="0.313"/>
    <circle id="Ellipse_214" data-name="Ellipse 214" cx="131" cy="131" r="131" transform="translate(1238 678)" fill="#cfedab" opacity="0.313"/>
    <path id="Path_1133" data-name="Path 1133" d="M156,0A156,156,0,1,1,0,156,156,156,0,0,1,156,0Z" transform="translate(1003 344)" fill="#634aaf" opacity="0.094"/>
    <g id="Group_727" data-name="Group 727" transform="translate(-688.058 2192.127)" style="mix-blend-mode: darken;isolation: isolate">
      <g id="Group_711" data-name="Group 711">
        <g id="Group_709" data-name="Group 709">
          <g id="Group_700" data-name="Group 700">
            <path id="Path_779" data-name="Path 779" d="M1941.117-1770.443s4.058-7.751,17.293-3.348c9.1,3.029,14.021,11.487,16.2,16.471a9.966,9.966,0,0,1,.306,7.144l-4.526,13.606a17.871,17.871,0,0,1-22.6,11.317h0l-2.6-.863a17.87,17.87,0,0,1-11.316-22.6v0l7.231-21.734" fill="none" stroke="#000" stroke-miterlimit="10" stroke-width="2"/>
            <path id="Path_779-2" data-name="Path 779" d="M1973.492-1759.673" fill="none" stroke="#000" stroke-miterlimit="10" stroke-width="2"/>
            <line id="Line_226" data-name="Line 226" x1="4.814" y2="13.265" transform="translate(1939.17 -1759.977)" fill="none" stroke="#000" stroke-miterlimit="10" stroke-width="2"/>
          </g>
          <g id="Group_703" data-name="Group 703">
            <path id="Path_1063" data-name="Path 1063" d="M1886.747-1543.1l-7.786,31.316a2.7,2.7,0,0,0,2.107,3.3l24.7,4.763a2.688,2.688,0,0,0,3.189-2.325c.668-5.69,4.636-21.755,6.629-29,9.016-32.783,10.211-34.5,5.013-49.228" fill="none" stroke="#000" stroke-linecap="square" stroke-miterlimit="10" stroke-width="2"/>
            <line id="Line_329" data-name="Line 329" x1="48.504" y2="24.439" transform="translate(1896.375 -1631.223)" fill="none" stroke="#000" stroke-linecap="square" stroke-miterlimit="10" stroke-width="2"/>
            <path id="Path_1064" data-name="Path 1064" d="M1980.905-1641.443l30.163-5.409a46.577,46.577,0,0,1-2.367,48.912c-16.961,25.639-81.379,24.409-83.746,25.593" fill="none" stroke="#000" stroke-linecap="square" stroke-miterlimit="10" stroke-width="2"/>
            <path id="Path_1065" data-name="Path 1065" d="M1941.673-1634.463" fill="none" stroke="#000" stroke-linecap="square" stroke-miterlimit="10" stroke-width="2"/>
            <path id="Path_1066" data-name="Path 1066" d="M1882.91-1636.743c8.36,10.089,5.236,14.845,17.079,36.879l-3.559,3.037-11.874,10.127,10.174,15.64" fill="none" stroke="#000" stroke-linecap="square" stroke-miterlimit="10" stroke-width="2"/>
            <path id="Path_1067" data-name="Path 1067" d="M1946.958-1639.666l-79.939-15.52c-7.246-1.492-13.259.2-17.878,5.265h0l-.161.178c-7.189,8.044-9.012,21.833-1.7,29.767l28.006,34.6a4.034,4.034,0,0,0,5.7.307l13.846-10.69" fill="none" stroke="#000" stroke-linecap="square" stroke-miterlimit="10" stroke-width="2"/>
            <g id="Group_701" data-name="Group 701">
              <path id="Path_1068" data-name="Path 1068" d="M1880.54-1491.4s-26.182,8.137-30.5,10.715-.84,7.807,3.234,7.807h45.783a6.3,6.3,0,0,0,6.3-6.305v-12.66Z" fill="none" stroke="#000" stroke-linecap="square" stroke-miterlimit="10" stroke-width="2"/>
              <path id="Path_1069" data-name="Path 1069" d="M1857.88-1484.247l.64.64,46.083-.331v-7.105l-24.064.589Z"/>
            </g>
            <g id="Group_702" data-name="Group 702">
              <path id="Path_1070" data-name="Path 1070" d="M1888.11-1569.487s-14.261,23.416-15.8,28.207,4.532,6.411,7.588,3.718l34.346-30.273a6.3,6.3,0,0,0,.561-8.9l-8.372-9.5Z" fill="none" stroke="#000" stroke-linecap="square" stroke-miterlimit="10" stroke-width="2"/>
              <path id="Path_1071" data-name="Path 1071" d="M1875.839-1549.141l.9.057,34.352-30.719-4.7-5.33-17.663,16.353Z"/>
            </g>
          </g>
          <path id="Path_1072" data-name="Path 1072" d="M1885.106-1507.708v16.367l20.253-.5v-11.527" fill="none" stroke="#000" stroke-linecap="square" stroke-miterlimit="10" stroke-width="2"/>
          <line id="Line_330" data-name="Line 330" x1="8.408" y1="10.452" transform="translate(1898.029 -1596.684)" fill="none" stroke="#000" stroke-linecap="square" stroke-miterlimit="10" stroke-width="2"/>
          <path id="Path_1073" data-name="Path 1073" d="M1936.383-1643.071" fill="none" stroke="#000" stroke-linecap="square" stroke-miterlimit="10" stroke-width="2"/>
          <g id="Group_704" data-name="Group 704">
            <path id="Path_1074" data-name="Path 1074" d="M1984.331-1715.506" fill="none" stroke="#000" stroke-linecap="square" stroke-miterlimit="10" stroke-width="2"/>
          </g>
          <path id="Path_1075" data-name="Path 1075" d="M1952.35-1702.623c-4.583-1.261-6.289-5.242,1.85-10.515" fill="none" stroke="#000" stroke-linecap="square" stroke-miterlimit="10" stroke-width="2"/>
          <path id="Path_1076" data-name="Path 1076" d="M1982.364-1721.431s5.922-.384,6.9,2.564c1.268,3.816-8.839,8.979-18.663,12.648" fill="none" stroke="#000" stroke-linecap="square" stroke-miterlimit="10" stroke-width="2"/>
          <path id="Path_1077" data-name="Path 1077" d="M1981.615-1696.118c6.325.083,15.038,2.037,19.931,11.064a12.039,12.039,0,0,1,.785,10.01,67.2,67.2,0,0,1-6.454,12.482,5.33,5.33,0,0,1-5.986,2.213l-18.269-13.276a1.716,1.716,0,0,1-1.024-2.463l.445-13.842A11.832,11.832,0,0,1,1981.615-1696.118Z" fill="none" stroke="#000" stroke-linecap="square" stroke-miterlimit="10" stroke-width="2"/>
          <path id="Path_1078" data-name="Path 1078" d="M1990.171-1717.865c.973.973,8.7,8.792,11.044,14.908,2.377,6.214,2.218,16.547,2.728,23.18l3.542,21.61" fill="none" stroke="#000" stroke-linecap="square" stroke-miterlimit="10" stroke-width="2"/>
          <path id="Path_1079" data-name="Path 1079" d="M1967.083-1763.628c-2.217,1.706,14.762-18.414,7.46-26.671,0,0-.511-1.124-.1-1.328.233-.117,4.356,1.795,7.855,3.458a6.435,6.435,0,0,1,3.325,7.8c-3.116,9.714-4.969,14.593-10.6,21.978" fill="#fff"/>
          <path id="Path_1080" data-name="Path 1080" d="M1970.528-1666" fill="none" stroke="#000" stroke-linecap="square" stroke-miterlimit="10" stroke-width="2"/>
          <g id="Group_705" data-name="Group 705">
            <circle id="Ellipse_202" data-name="Ellipse 202" cx="4.513" cy="4.513" r="4.513" transform="translate(1867.147 -1795.236)" fill="none" stroke="#000" stroke-linecap="square" stroke-miterlimit="10" stroke-width="2"/>
            <circle id="Ellipse_203" data-name="Ellipse 203" cx="4.513" cy="4.513" r="4.513" transform="translate(1883.278 -1795.236)" fill="none" stroke="#000" stroke-linecap="square" stroke-miterlimit="10" stroke-width="2"/>
            <path id="Path_1081" data-name="Path 1081" d="M1876.173-1791.528v-16.6H1892.3v15.787" fill="none" stroke="#000" stroke-linecap="square" stroke-miterlimit="10" stroke-width="2"/>
          </g>
          <g id="Group_706" data-name="Group 706">
            <path id="Path_1082" data-name="Path 1082" d="M1913.877-1769.967" fill="#49e9fb"/>
            <circle id="Ellipse_204" data-name="Ellipse 204" cx="4.513" cy="4.513" r="4.513" transform="translate(1918.03 -1776.264)" fill="none" stroke="#000" stroke-linecap="square" stroke-miterlimit="10" stroke-width="2"/>
            <path id="Path_1083" data-name="Path 1083" d="M1927.057-1773.368v-15.787h5.207" fill="none" stroke="#000" stroke-linecap="square" stroke-miterlimit="10" stroke-width="2"/>
          </g>
          <g id="Group_708" data-name="Group 708">
            <g id="Group_707" data-name="Group 707">
              <path id="Path_1084" data-name="Path 1084" d="M1856.9-1724.415l-5.556-13.408-4.787-11.554,35.362-14.652a13.51,13.51,0,0,1,17.653,7.309h0a13.509,13.509,0,0,1-7.309,17.652Z" fill="none" stroke="#000" stroke-linecap="square" stroke-miterlimit="10" stroke-width="2"/>
              <path id="Path_1085" data-name="Path 1085" d="M1860.47-1732.036l-6-14.477,29.122-12.067a7.835,7.835,0,0,1,10.238,4.239h0a7.835,7.835,0,0,1-4.239,10.237"/>
            </g>
            <path id="Path_1086" data-name="Path 1086" d="M1851.216-1737.921l-30.365,10.944-24.888,62.538" fill="none" stroke="#000" stroke-linecap="square" stroke-miterlimit="10" stroke-width="2"/>
            <circle id="Ellipse_205" data-name="Ellipse 205" cx="3.194" cy="3.194" r="3.194" transform="translate(1818.128 -1730.539)"/>
          </g>
          <path id="Path_1087" data-name="Path 1087" d="M1948.4-1705.34l-7.509,6.049a6.076,6.076,0,0,0-.662,8.844l7.473,8.132" fill="none" stroke="#000" stroke-linecap="square" stroke-miterlimit="10" stroke-width="2"/>
          <line id="Line_331" data-name="Line 331" x1="14.243" y2="7.672" transform="translate(1924.739 -1692.156)" fill="none" stroke="#000" stroke-linecap="square" stroke-miterlimit="10" stroke-width="2"/>
          <line id="Line_332" data-name="Line 332" x1="13.487" y1="11.647" transform="translate(1918.282 -1689.771)" fill="none" stroke="#000" stroke-linecap="square" stroke-miterlimit="10" stroke-width="2"/>
          <line id="Line_333" data-name="Line 333" y2="41.853" transform="translate(2032.892 -1637.467)" stroke="#000" stroke-linecap="square" stroke-miterlimit="10" stroke-width="2"/>
          <line id="Line_334" data-name="Line 334" x2="1.222" y2="0.796" transform="translate(1990.717 -1669.261)" fill="none" stroke="#000" stroke-linecap="square" stroke-miterlimit="10" stroke-width="2"/>
          <path id="Path_1088" data-name="Path 1088" d="M1902.487-1527.278c-2.093-7.958,7.232-34.777,7.232-34.777" fill="none" stroke="#000" stroke-linecap="square" stroke-miterlimit="10" stroke-width="2"/>
          <line id="Line_335" data-name="Line 335" x1="14.827" y1="10.152" transform="translate(1970.177 -1683.109)" fill="none" stroke="#000" stroke-linecap="square" stroke-miterlimit="10" stroke-width="2"/>
          <path id="Path_1089" data-name="Path 1089" d="M1794.164-1663.119H1768.45l.328-20.847h6.827Z" fill="none" stroke="#000" stroke-linecap="square" stroke-miterlimit="10" stroke-width="2"/>
          <path id="Path_1090" data-name="Path 1090" d="M1980.9-1729.32l8.063,1.262a6.8,6.8,0,0,0,7.773-5.691l1.15-7.532a6.8,6.8,0,0,1,1.077-2.764l4.707-7.009a6.8,6.8,0,0,0-.4-8.113l-3.63-4.409a6.8,6.8,0,0,1-1.47-3.277l-1.486-9.549a6.8,6.8,0,0,0-5.773-5.689l-10.239-1.437a6.8,6.8,0,0,1-3.775-1.84l-4.921-4.748a6.8,6.8,0,0,0-7.392-1.359l-4.347,1.857a6.8,6.8,0,0,1-6.365-.544h0a6.8,6.8,0,0,0-8.652,1.056l-2.745,2.924a6.8,6.8,0,0,0,.267,9.575l6.123,5.772,8.862-2.941a4.9,4.9,0,0,1,5.747,2.137l4.19,7.014,12.325,17.229Z" fill="#fff" stroke="#000" stroke-linecap="square" stroke-miterlimit="10" stroke-width="2"/>
          <path id="Path_1091" data-name="Path 1091" d="M1975.732-1758.537a49.98,49.98,0,0,0,9.889-21.836c.56-3.176-.413-6.411-3.325-7.8-3.5-1.663-7.622-3.575-7.855-3.458-.409.2.1,1.328.1,1.328,7.3,8.257-9.1,27.381-6.88,25.674" fill="none" stroke="#000" stroke-linecap="square" stroke-miterlimit="10" stroke-width="2"/>
          <path id="Path_1092" data-name="Path 1092" d="M1962.674-1742.94a9.881,9.881,0,0,1,1.325-4.426,11.077,11.077,0,0,1,3.064-3.157,15.212,15.212,0,0,1,3.292-1.681,23.3,23.3,0,0,1,2.735-.9,3.535,3.535,0,0,1,2.655.331l.891-.689a11.026,11.026,0,0,0-11.026-11.025,11.025,11.025,0,0,0-11.026,11.025,11.022,11.022,0,0,0,8.1,10.62C1962.682-1742.871,1962.671-1742.908,1962.674-1742.94Z" fill="#fff"/>
          <path id="Path_1093" data-name="Path 1093" d="M1962.838-1742.783a11.031,11.031,0,0,1-8.254-10.674,11.026,11.026,0,0,1,11.026-11.026,11.025,11.025,0,0,1,11.025,11.026" fill="none" stroke="#000" stroke-linecap="square" stroke-miterlimit="10" stroke-width="2"/>
          <path id="Path_1094" data-name="Path 1094" d="M1987.82-1660.244c-11.075,8.86-23.432,23.115-36.065,22.771a4.24,4.24,0,0,1-4.142-3.79c-2.075-20.523.785-48.189,8.511-73.312a13.12,13.12,0,0,0-.29-8.86,7.92,7.92,0,0,1-.123-5.974l5.261-6.138,2.021-8.518c2.072-4.972,5.783-9.349,11.166-9.543l.944.541-4.23,31.689-1.784,58.973" fill="#fff" stroke="#000" stroke-linecap="square" stroke-miterlimit="10" stroke-width="2"/>
        </g>
        <path id="Path_1095" data-name="Path 1095" d="M1924.955-1572.347h107.937v-8.357H1985.8Z" stroke="#000" stroke-linecap="square" stroke-miterlimit="10" stroke-width="2"/>
        <rect id="Rectangle_561" data-name="Rectangle 561" width="8.904" height="53.581" transform="translate(2023.988 -1678.033)" stroke="#000" stroke-linecap="square" stroke-miterlimit="10" stroke-width="2"/>
        <path id="Path_1096" data-name="Path 1096" d="M1777.748-1789.615h-8.9v88.016h8.9Z" stroke="#000" stroke-linecap="square" stroke-miterlimit="10" stroke-width="2"/>
        <line id="Line_336" data-name="Line 336" x2="0.966" y2="11.007" transform="translate(1981.08 -1722.311)" fill="none" stroke="#000" stroke-linecap="square" stroke-miterlimit="10" stroke-width="2"/>
        <rect id="Rectangle_562" data-name="Rectangle 562" width="68.312" height="9.361" transform="translate(1767.058 -1663.119)"/>
        <line id="Line_337" data-name="Line 337" y1="10.425" transform="translate(1768.843 -1694.856)" stroke="#000" stroke-linecap="square" stroke-miterlimit="10" stroke-width="2"/>
        <g id="Group_710" data-name="Group 710">
          <path id="Path_1097" data-name="Path 1097" d="M1898.479-1710.439l2.5,1.2a7.663,7.663,0,0,1,4.026,6.047h0a2.22,2.22,0,0,0,.738,1.457l8.525,7.579" fill="none" stroke="#000" stroke-miterlimit="10" stroke-width="2"/>
          <path id="Path_1098" data-name="Path 1098" d="M1878.428-1711.3l6.707,9.676a9.581,9.581,0,0,0,2.545,2.549l9.065,6.172a12.675,12.675,0,0,1,1.688,1.377l25.861,29.989a5.658,5.658,0,0,0,6.875,1.621l14.728-6.976" fill="none" stroke="#000" stroke-miterlimit="10" stroke-width="2"/>
          <path id="Path_1099" data-name="Path 1099" d="M1881.649-1716.58l3.387,8.183a3.162,3.162,0,0,0,3.247,1.935h0L1897.3-1710A2.316,2.316,0,0,0,1898.6-1713l-8.729-22.185a.979.979,0,0,0-1.267-.551l-11.646,4.583a.976.976,0,0,0-.551,1.266l5.237,13.311" fill="none" stroke="#000" stroke-miterlimit="10" stroke-width="2"/>
          <path id="Path_1100" data-name="Path 1100" d="M1901.806-1699.66l-.566-1.353c-.794-1.9-1.311-3.884-3.323-4.3h0a5.313,5.313,0,0,1-3.076-1.887l-1.751-2.192a2.789,2.789,0,0,0-1.048-.809h0a2.789,2.789,0,0,0-2.666.222l-.055.036a.7.7,0,0,0-.233.908l4.122,7.855" fill="#fff" stroke="#000" stroke-miterlimit="10" stroke-width="2"/>
        </g>
      </g>
      <g id="Group_713" data-name="Group 713">
        <g id="Group_712" data-name="Group 712">
          <rect id="Rectangle_563" data-name="Rectangle 563" width="154.534" height="93.576" rx="7.337" transform="translate(2171.067 -1799.894)" fill="none" stroke="#000" stroke-miterlimit="10" stroke-width="2"/>
          <circle id="Ellipse_206" data-name="Ellipse 206" cx="2.082" cy="2.082" r="2.082" transform="translate(2177.049 -1793.762)"/>
          <circle id="Ellipse_207" data-name="Ellipse 207" cx="2.082" cy="2.082" r="2.082" transform="translate(2185.112 -1793.762)"/>
          <circle id="Ellipse_208" data-name="Ellipse 208" cx="2.082" cy="2.082" r="2.082" transform="translate(2193.175 -1793.762)"/>
        </g>
        <line id="Line_338" data-name="Line 338" x2="21.56" transform="translate(2190.229 -1778.411)" fill="none" stroke="#000" stroke-miterlimit="10" stroke-width="2"/>
        <line id="Line_339" data-name="Line 339" x2="50.295" transform="translate(2205.014 -1768.768)" fill="none" stroke="#000" stroke-miterlimit="10" stroke-width="2"/>
        <line id="Line_340" data-name="Line 340" x2="22.976" transform="translate(2264.078 -1768.768)" fill="none" stroke="#000" stroke-miterlimit="10" stroke-width="2"/>
        <line id="Line_341" data-name="Line 341" x2="8.64" transform="translate(2295.626 -1768.768)" fill="none" stroke="#000" stroke-miterlimit="10" stroke-width="2"/>
        <line id="Line_342" data-name="Line 342" x2="57.661" transform="translate(2205.014 -1749.481)" fill="none" stroke="#000" stroke-miterlimit="10" stroke-width="2"/>
        <line id="Line_343" data-name="Line 343" x2="8.64" transform="translate(2271.246 -1749.481)" fill="none" stroke="#000" stroke-miterlimit="10" stroke-width="2"/>
        <line id="Line_344" data-name="Line 344" x2="26.747" transform="translate(2205.014 -1759.124)" fill="none" stroke="#000" stroke-miterlimit="10" stroke-width="2"/>
        <line id="Line_345" data-name="Line 345" x2="30.751" transform="translate(2240.53 -1759.124)" fill="none" stroke="#000" stroke-miterlimit="10" stroke-width="2"/>
        <line id="Line_346" data-name="Line 346" x2="25.083" transform="translate(2279.852 -1759.124)" fill="none" stroke="#000" stroke-miterlimit="10" stroke-width="2"/>
        <line id="Line_347" data-name="Line 347" x2="21.56" transform="translate(2190.229 -1740.46)" fill="none" stroke="#000" stroke-miterlimit="10" stroke-width="2"/>
        <line id="Line_348" data-name="Line 348" x2="50.295" transform="translate(2205.014 -1730.817)" fill="none" stroke="#000" stroke-miterlimit="10" stroke-width="2"/>
        <line id="Line_349" data-name="Line 349" x2="22.976" transform="translate(2264.078 -1730.817)" fill="none" stroke="#000" stroke-miterlimit="10" stroke-width="2"/>
        <line id="Line_350" data-name="Line 350" x2="8.64" transform="translate(2295.626 -1730.817)" fill="none" stroke="#000" stroke-miterlimit="10" stroke-width="2"/>
        <line id="Line_351" data-name="Line 351" x2="26.747" transform="translate(2205.014 -1721.173)" fill="none" stroke="#000" stroke-miterlimit="10" stroke-width="2"/>
        <line id="Line_352" data-name="Line 352" x2="30.751" transform="translate(2240.53 -1721.173)" fill="none" stroke="#000" stroke-miterlimit="10" stroke-width="2"/>
        <line id="Line_353" data-name="Line 353" x2="25.083" transform="translate(2279.852 -1721.173)" fill="none" stroke="#000" stroke-miterlimit="10" stroke-width="2"/>
      </g>
      <g id="Group_718" data-name="Group 718">
        <rect id="Rectangle_564" data-name="Rectangle 564" width="151.694" height="9.361" transform="translate(2456.566 -1501.737)"/>
        <g id="Group_715" data-name="Group 715">
          <g id="Group_714" data-name="Group 714">
            <path id="Path_1101" data-name="Path 1101" d="M2344.136-1407.81s-19.1,19.671-21.657,24,3,7.257,6.574,5.308l40.2-21.905a6.305,6.305,0,0,0,2.519-8.553l-6.057-11.117Z" fill="none" stroke="#000" stroke-linecap="square" stroke-miterlimit="10" stroke-width="2"/>
            <path id="Path_1102" data-name="Path 1102" d="M2327.659-1390.691l.868.256,40.308-22.339-3.4-6.239-20.849,12.03Z"/>
          </g>
          <path id="Path_1103" data-name="Path 1103" d="M2340.342-1424.318l7.831,14.372,17.545-10.129L2360.2-1430.2" fill="none" stroke="#000" stroke-linecap="square" stroke-miterlimit="10" stroke-width="2"/>
        </g>
        <g id="Group_717" data-name="Group 717">
          <g id="Group_716" data-name="Group 716">
            <path id="Path_1104" data-name="Path 1104" d="M2390.322-1382.33s-26.18,8.141-30.5,10.721-.839,7.806,3.235,7.805l45.784-.009a6.306,6.306,0,0,0,6.3-6.306l0-12.66Z" fill="none" stroke="#000" stroke-linecap="square" stroke-miterlimit="10" stroke-width="2"/>
            <path id="Path_1105" data-name="Path 1105" d="M2367.665-1375.177l.64.64,46.083-.341v-7.105l-24.063.594Z"/>
          </g>
          <path id="Path_1106" data-name="Path 1106" d="M2394.886-1398.642l0,16.367,20.253-.5,0-11.527" fill="none" stroke="#000" stroke-linecap="square" stroke-miterlimit="10" stroke-width="2"/>
        </g>
        <path id="Path_1107" data-name="Path 1107" d="M2380.847-1598.432l-33.182-77.806a4.071,4.071,0,0,0-3.744-2.474h-90.049a2.025,2.025,0,0,0-1.894,2.738l29.288,77.725a4.072,4.072,0,0,0,3.809,2.635h93.91A2.024,2.024,0,0,0,2380.847-1598.432Z" stroke="#000" stroke-miterlimit="10" stroke-width="2"/>
        <path id="Path_1108" data-name="Path 1108" d="M2375.421-1602.18h42.532l14.335,6.009a.289.289,0,0,1-.1.557h-54" fill="none" stroke="#000" stroke-miterlimit="10" stroke-width="2"/>
        <path id="Path_1109" data-name="Path 1109" d="M2378.526-1628.636l22.356-52.294c3.167-7.095,7-11.947,13.966-15.381" fill="none" stroke="#000" stroke-miterlimit="10" stroke-width="2"/>
        <path id="Path_1110" data-name="Path 1110" d="M2497.632-1685.389l7.462,9.73a59.985,59.985,0,0,1,12,29.694l5.756,50.351" fill="none" stroke="#000" stroke-miterlimit="10" stroke-width="2"/>
        <line id="Line_354" data-name="Line 354" x1="58.512" y1="11.2" transform="translate(2454.921 -1629.707)" fill="none" stroke="#000" stroke-miterlimit="10" stroke-width="2"/>
        <path id="Path_1111" data-name="Path 1111" d="M2410.226-1662.39l-6.093,23.689,3.047,20.929" fill="none" stroke="#000" stroke-miterlimit="10" stroke-width="2"/>
        <path id="Path_1112" data-name="Path 1112" d="M2455.574-1627.494l-23.627-2.854a11.82,11.82,0,0,0-7.8,1.784l-18.066,11.578a1.632,1.632,0,0,0,.561,2.973l1.8.361,7.649-2.6a.04.04,0,0,1,.049.056l-5.407,10.323a2.343,2.343,0,0,0,2.075,3.43h4.707c1.837,0,11.55,1.483,13.441-2.532l3.443-11.44a1.593,1.593,0,0,1,1.8-1.11l19.37,3.382" fill="none" stroke="#000" stroke-miterlimit="10" stroke-width="2"/>
        <path id="Path_1113" data-name="Path 1113" d="M2369.344-1624.175l.646-1.053a4.418,4.418,0,0,1,4.561-2.037l.047.009a4.421,4.421,0,0,0,4.38-1.765h0a4.418,4.418,0,0,1,3.585-1.837h0a5.312,5.312,0,0,1,5.067,3.72l3,9.544a2.579,2.579,0,0,1-2.01,3.312h0c-3.264,1.184-6.75-6.383-6.747-5.128l.012,5.188a4.192,4.192,0,0,1-3.86,4.19l-2.05.164" fill="none" stroke="#000" stroke-miterlimit="10" stroke-width="2"/>
        <path id="Path_1114" data-name="Path 1114" d="M2456.309-1630.433l-1.39,25.048a3.125,3.125,0,0,1-2.286,2.839h0a3.125,3.125,0,0,1-3.952-3.2l.415-6.9" fill="none" stroke="#000" stroke-miterlimit="10" stroke-width="2"/>
        <line id="Line_355" data-name="Line 355" x2="1.625" y2="13.892" transform="translate(2410.332 -1580.864)" fill="none" stroke="#000" stroke-miterlimit="10" stroke-width="2"/>
        <path id="Path_1115" data-name="Path 1115" d="M2468.6-1557.034l-38.2-5.775a37.158,37.158,0,0,0-16.286,1.165l-8.935,2.7a37.167,37.167,0,0,0-23.758,21.734l-49.551,123.4,41.331,6.711a26.409,26.409,0,0,1,14.68,7.635h0a26.409,26.409,0,0,0,28.778,6.064l17.806-7.17a26.423,26.423,0,0,1,12.511-1.779l36.467,3.672-17.626-91.867a7.623,7.623,0,0,1,8.782-8.948h0a44.643,44.643,0,0,0,36.378-9.877h0a44.642,44.642,0,0,0,15.8-36.076l-1.428-32.5" fill="#fff" stroke="#000" stroke-miterlimit="10" stroke-width="2"/>
        <path id="Path_778" data-name="Path 778" d="M2455.674-1773.172" fill="none" stroke="#000" stroke-miterlimit="10" stroke-width="2"/>
        <path id="Path_779-3" data-name="Path 779" d="M2458.828-1753.83c-12.547-3.312-25.275-4.069-38.363,0,0,0,1.578-9.709,17.261-9.709,10.79,0,19.037,7.279,23.133,11.821a11.2,11.2,0,0,1,2.862,7.514v16.122a20.094,20.094,0,0,1-20.092,20.1h-3.079a20.093,20.093,0,0,1-20.093-20.093v-25.757" fill="none" stroke="#000" stroke-miterlimit="10" stroke-width="2"/>
        <path id="Path_1116" data-name="Path 1116" d="M2423.4-1758.867l7.786-7.141a29.715,29.715,0,0,1,25.455-7.327l2.9.531a26.931,26.931,0,0,1,17.587,11.617l2.532,4.772a49.269,49.269,0,0,1,5.749,23.1v3.558c0,24.094-15.468,33.749-28.521,40.978-4.587,2.541-22.779,4.363-28.072,2.836" fill="none" stroke="#000" stroke-miterlimit="10" stroke-width="2"/>
        <path id="Path_1117" data-name="Path 1117" d="M2471.622-1748.227l.508,5.434a24,24,0,0,1-5.069,17.119l-6.016,7.609" fill="none" stroke="#000" stroke-miterlimit="10" stroke-width="2"/>
        <path id="Path_1118" data-name="Path 1118" d="M2428.822-1711.769v5.973c0,14.4,28.8,7.453,34.9,1.631l2.792-2.667" fill="none" stroke="#000" stroke-miterlimit="10" stroke-width="2"/>
        <path id="Path_1119" data-name="Path 1119" d="M2427.468-1712.832l-5.44,4.942a26.445,26.445,0,0,0-8.636,20.744h0c.314,7.1,7.065,12.947,12.457,14.362,12.162,3.192,27.082-.076,33.526-3.881l16.538-9.769" fill="none" stroke="#000" stroke-miterlimit="10" stroke-width="2"/>
        <path id="Path_1120" data-name="Path 1120" d="M2472.235-1676.692l-8.513,17.835-19.082,26.874" fill="none" stroke="#000" stroke-miterlimit="10" stroke-width="2"/>
        <path id="Path_1121" data-name="Path 1121" d="M2483.513-1716.352l9.833,21.012a88.213,88.213,0,0,1,9.16,47.739l-1.4,15.617-15.4-4.161a50.718,50.718,0,0,0-23.6-.687l-10.349,2.161" fill="none" stroke="#000" stroke-miterlimit="10" stroke-width="2"/>
        <line id="Line_226-2" data-name="Line 226" x1="0.428" y2="15.861" transform="translate(2435.561 -1742.271)" fill="none" stroke="#000" stroke-miterlimit="10" stroke-width="2"/>
        <rect id="Rectangle_565" data-name="Rectangle 565" width="308.699" height="9.361" transform="translate(2254.332 -1585.545)"/>
      </g>
      <circle id="Ellipse_209" data-name="Ellipse 209" cx="5.693" cy="5.693" r="5.693" transform="translate(2061.379 -1759.291)" fill="none" stroke="#000" stroke-miterlimit="10" stroke-width="2"/>
      <circle id="Ellipse_210" data-name="Ellipse 210" cx="7.856" cy="7.856" r="7.856" transform="translate(2082.161 -1658.779)" fill="none" stroke="#000" stroke-miterlimit="10" stroke-width="2"/>
      <g id="Group_719" data-name="Group 719">
        <line id="Line_356" data-name="Line 356" y2="22.335" transform="translate(2143.851 -1689.623)" fill="none" stroke="#000" stroke-miterlimit="10" stroke-width="2"/>
        <line id="Line_357" data-name="Line 357" x1="22.335" transform="translate(2132.683 -1678.456)" fill="none" stroke="#000" stroke-miterlimit="10" stroke-width="2"/>
      </g>
      <g id="Group_721" data-name="Group 721">
        <path id="Path_1122" data-name="Path 1122" d="M2161.9-1456.594h-48.586a5.114,5.114,0,0,1-5.114-5.114v-131.914a5.115,5.115,0,0,1,5.114-5.115h65.564a5.115,5.115,0,0,1,5.114,5.115v96.566" fill="none" stroke="#000" stroke-miterlimit="10" stroke-width="2"/>
        <path id="Path_1123" data-name="Path 1123" d="M2145.3-1448.775l.7,9.6a40.144,40.144,0,0,0,20.413,32.115h0a11.673,11.673,0,0,1,5.412,6.628l18.2,56.917" fill="none" stroke="#000" stroke-miterlimit="10" stroke-width="2"/>
        <path id="Path_1124" data-name="Path 1124" d="M2192.03-1537.454l24.058,38.576a50.336,50.336,0,0,1,6.808,17.6l10.311,56.515a66.127,66.127,0,0,0,3.008,11l18.117,49.142" fill="none" stroke="#000" stroke-miterlimit="10" stroke-width="2"/>
        <path id="Path_1125" data-name="Path 1125" d="M2184.745-1410.59l-5.274-5.584a32.618,32.618,0,0,1-8.162-29.311h0a27.829,27.829,0,0,0-2.505-18.738l-6.78-13.037a14.605,14.605,0,0,1-1.647-6.738h0a14.6,14.6,0,0,1,6.723-12.295l.287-.184a3.659,3.659,0,0,1,4.844.808l35.375,44.633" fill="none" stroke="#000" stroke-miterlimit="10" stroke-width="2"/>
        <circle id="Ellipse_211" data-name="Ellipse 211" cx="14.775" cy="14.775" r="14.775" transform="translate(2139.028 -1537.695)" fill="none" stroke="#000" stroke-miterlimit="10" stroke-width="2"/>
        <circle id="Ellipse_212" data-name="Ellipse 212" cx="7.856" cy="7.856" r="7.856" transform="translate(2120.285 -1561.104)" fill="none" stroke="#000" stroke-miterlimit="10" stroke-width="2"/>
        <g id="Group_720" data-name="Group 720">
          <line id="Line_358" data-name="Line 358" y2="19.912" transform="translate(2153.803 -1581.016)" fill="none" stroke="#000" stroke-miterlimit="10" stroke-width="2"/>
          <path id="Path_1126" data-name="Path 1126" d="M2162.16-1572.659l-8.357-8.357-8.357,8.357" fill="none" stroke="#000" stroke-miterlimit="10" stroke-width="2"/>
        </g>
      </g>
      <g id="Group_722" data-name="Group 722">
        <path id="Path_1127" data-name="Path 1127" d="M2081.345-1697.76c7.371,0,11.976.225,18.31-3.3,6.853-3.817,10.479-3.3,18.31-3.3a2.84,2.84,0,0,0,2.841-2.841v-14.734a2.84,2.84,0,0,0-2.841-2.841c-7.831,0-11.457-.514-18.31,3.3-6.334,3.528-10.939,3.3-18.31,3.3a2.841,2.841,0,0,0-2.841,2.841v14.734A2.841,2.841,0,0,0,2081.345-1697.76Z" fill="none" stroke="#000" stroke-miterlimit="10" stroke-width="2"/>
      </g>
      <g id="Group_726" data-name="Group 726">
        <path id="Path_1128" data-name="Path 1128" d="M1964.574-1423.652v-89.757a4.326,4.326,0,0,1,4.326-4.326h72.6a4.326,4.326,0,0,1,4.326,4.326v143.734a4.326,4.326,0,0,1-4.326,4.326h-27.941" fill="none" stroke="#000" stroke-miterlimit="10" stroke-width="2"/>
        <g id="Group_723" data-name="Group 723">
          <path id="Path_1129" data-name="Path 1129" d="M1894.526-1298.3l19.038-79.727a9.991,9.991,0,0,1,4.3-5.228l23.5-13.99c3.241-1.93,10.573-.2,10.573-.2a19.187,19.187,0,0,1,12.814,2.185l5.159,2.916h0a10.721,10.721,0,0,1,6.818,1.366l2.654,1.548" fill="none" stroke="#000" stroke-miterlimit="10" stroke-width="2"/>
          <path id="Path_1130" data-name="Path 1130" d="M1963.834-1368.788l40.826-55.856a6.014,6.014,0,0,1,8.16-1.475h0a6.015,6.015,0,0,1,2.082,7.7l-41.447,83.565a3.715,3.715,0,0,0,.565,4.134h0a3.715,3.715,0,0,0,6.024-.708l3.2-10.7-.915-10.627" fill="none" stroke="#000" stroke-miterlimit="10" stroke-width="2"/>
          <path id="Path_1131" data-name="Path 1131" d="M1992.7-1373.665l10.727,35.308a22.052,22.052,0,0,1-3.046,16.477l-16.461,25.545a17.2,17.2,0,0,1-4.5,4.7l-40.122,28.5" fill="none" stroke="#000" stroke-miterlimit="10" stroke-width="2"/>
        </g>
        <g id="Group_724" data-name="Group 724">
          <line id="Line_359" data-name="Line 359" y2="22.335" transform="translate(2005.201 -1505.679)" fill="none" stroke="#000" stroke-miterlimit="10" stroke-width="2"/>
          <line id="Line_360" data-name="Line 360" x1="22.335" transform="translate(1994.034 -1494.512)" fill="none" stroke="#000" stroke-miterlimit="10" stroke-width="2"/>
        </g>
        <g id="Group_725" data-name="Group 725">
          <path id="Path_1132" data-name="Path 1132" d="M1987.065-1441.7c7.372,0,11.977.225,18.311-3.3,6.853-3.817,10.479-3.3,18.31-3.3a2.841,2.841,0,0,0,2.841-2.841v-14.735a2.841,2.841,0,0,0-2.841-2.841c-7.831,0-11.457-.514-18.31,3.3-6.334,3.528-10.939,3.3-18.311,3.3a2.841,2.841,0,0,0-2.841,2.842v14.734A2.841,2.841,0,0,0,1987.065-1441.7Z" fill="none" stroke="#000" stroke-miterlimit="10" stroke-width="2"/>
        </g>
      </g>
    </g>
  </g>
</svg>
