<?xml version="1.0" encoding="utf-8"?>
<!-- Generator: Adobe Illustrator 25.1.0, SVG Export Plug-In . SVG Version: 6.00 Build 0)  -->
<svg version="1.1" id="Layer_1" xmlns="http://www.w3.org/2000/svg" xmlns:xlink="http://www.w3.org/1999/xlink" x="0px" y="0px"
	 viewBox="0 0 957.8 702.4" style="enable-background:new 0 0 957.8 702.4;" xml:space="preserve">
<style type="text/css">
	.st0{opacity:0.313;fill:#CFEDAB;enable-background:new    ;}
	.st1{fill:none;stroke:#000000;stroke-width:1.9452;stroke-miterlimit:10;}
	.st2{stroke:#000000;stroke-width:1.9452;stroke-miterlimit:10;}
	.st3{fill:none;stroke:#000000;stroke-width:1.9076;stroke-miterlimit:10;}
</style>
<circle id="Ellipse_165" class="st0" cx="349" cy="296" r="283"/>
<g id="Group_886">
	<path id="Path_1427" class="st1" d="M924.3,661.8c-5,20.9-23.3,35.8-44.8,36.6l-3.3,0.1c-15.2,0.5-30.1-4.2-42.1-13.5l-32.5-24.9
		l-64,27.5l-23.8-37.1l62.1-46.8c11.7-11.8,30.1-13.7,43.9-4.5l61.3,40.7"/>
	<path id="Path_1428" class="st1" d="M920.8,583.7l-73.2-7.3c-7.7-0.8-15.4,0.7-22.2,4.2l-25.1,12.8"/>
	<path id="Path_1429" class="st1" d="M950.9,540.4l-1,73.9c-0.3,1.7-0.9,3.4-1.9,4.8c-7.5,12.4-23.5,16.8-36.6,10.5l-61.5-33.2
		c-4.4-2.4-9.8-1.5-13.2,2.1l-7,7.1"/>
	<path id="Path_1430" class="st1" d="M885.8,442.7l27.1,10.7c11.5,4.6,21,13.2,26.6,24.3l4.5,8.8c2.4,4.7,4.2,9.6,5.4,14.7"/>
	<path id="Path_1431" class="st1" d="M662.2,578l-29.6-8.5c-10.1-2.9-20.9,3.8-21.7,14.3c0,0.5-0.1,1-0.1,1.6l0,0
		c0,12.4,5.4,24.3,14.8,32.4l35.2,30.4"/>
	<path id="Path_1432" class="st1" d="M643,597.7l11.5,2.6c11.8,2.7,22.3,9.1,30.1,18.3l31.1,31.8"/>
	<path id="Path_1433" class="st2" d="M781.6,598.3l-24.7-76.1c-0.8-2.3-2.9-4-5.4-4l-112.6-3.9c-1.1,0-2.1,0.8-2.1,2
		c0,0.3,0,0.6,0.1,0.8l34.3,84c0.8,2.1,2.8,3.5,5,3.6l90.1,6.2"/>
	<path id="Path_1434" class="st1" d="M795.2,498.1l8.8-21.2c4.1-10.9,13.8-18.6,25.2-20.2L849,454"/>
	<path id="Path_1435" class="st1" d="M800.2,580.6l-3.6-6.5c-2-3.6-5.5-6-9.5-6.7c-4.2-0.6-8.3-1.9-12-3.9l-2.9-1.6l11.6-30.9"/>
	<line id="Line_575" class="st1" x1="903.5" y1="511.2" x2="903.5" y2="582"/>
	<path id="Path_1436" class="st1" d="M827.2,679.7l-16.5,5.4c-12.3,3.6-25.4,3.2-37.5-1.2l-14-5"/>
	<path id="Path_792" class="st1" d="M758.5,678.6l13.5,5.9c3.2,1.4,4.6,5.1,3.2,8.2c-0.6,1.5-1.8,2.6-3.3,3.3l0,0
		c-16.7,7-35.6,6.9-52.2-0.3l-17.4-7.4"/>
	<path id="Path_1437" class="st1" d="M713.8,650.5l-11,4.3l-9.1-5.4c-4-2.4-8.6-3.4-13.3-3c-15,1.3-48.8,4.6-54.8,9.4l-2.3,1.9
		c-4.1,3.3-4.8,9.3-1.4,13.5c1.2,1.5,2.9,2.7,4.8,3.2l47.9,13.7c11.4,3.3,23.6,2.6,34.5-1.9l21.8-8.9"/>
	<path id="Path_794" class="st1" d="M873.2,362l11.8,27c6.7,17.7-2.2,37.5-20,44.2l0,0l-4.9,1.9c-17.7,6.7-37.5-2.2-44.2-20l0,0
		L800.4,374"/>
	<path id="Path_794-2" class="st1" d="M800.3,374"/>
	<line id="Line_232" class="st1" x1="879" y1="423.8" x2="890.4" y2="453.8"/>
	<line id="Line_233" class="st1" x1="843.9" y1="443.4" x2="852.4" y2="466"/>
	<path id="Path_1438" class="st1" d="M884.1,433.7c5-2.5,12.8-0.6,17.1-4.1s3.9-11.6,7.2-16s11.2-6.1,13.5-11.2
		c2.3-5-1.6-12.1-0.4-17.5c1.1-5.3,7.5-10.2,7.5-15.8c0-5.5-6.4-9.9-7.5-14.7c-1.2-5.3,2.5-12.1,0.1-16.5
		c-2.5-4.6-10.3-5.2-13.9-8.9c-3.6-3.6-4.2-11.3-8.7-14c-4.3-2.5-11.4,0.8-16.5-0.8c-4.8-1.5-8.5-8.4-13.8-9.1
		c-5-0.7-10.5,4.8-15.8,4.8s-10.9-5.5-15.9-4.8c-5.3,0.7-9.1,7.6-13.9,9.1c-5.1,1.6-12.2-1.7-16.6,0.7c-4.6,2.6-5.3,10.4-9,13.9
		c-3.7,3.6-11.5,4.1-14.1,8.7c-2.5,4.4,1.1,11.3-0.1,16.6c-1.1,4.8-7.5,9.3-7.5,14.8c0,5.7,6.5,10.6,7.7,16c1.3,5.5-2.4,12.7,0,17.7
		c2.4,5.1,10.4,6.7,13.9,11c3.5,4.4,3.3,12.5,7.7,16c4.3,3.5,12.2,1.5,17.3,4c5,2.4,8.3,9.8,13.9,11.1"/>
	<path id="Path_1439" class="st1" d="M870.5,444.7"/>
	<path id="Path_1440" class="st1" d="M853.4,440.7"/>
	<path id="Path_1441" class="st1" d="M880.3,376.7l-10.1-7.2c-4-2.8-9-3.5-13.6-1.8l0,0c-4.7,1.8-10.1,1-14.1-2.1l-2.2-1.7
		c-3.7-2.8-8.4-3.8-12.9-2.5l0,0c-5.4,3-12.2,1.8-16.3-2.8l-3.2-3.6"/>
	<path id="Path_1442" class="st1" d="M808.7,355.9l4.5,10.9c1.5,2.4,0.9,5.5-1.4,7.2l0,0c-2.4,1.8-2.9,5.2-1.1,7.6
		c0.1,0.1,0.2,0.3,0.3,0.4l0.7,0.8c2,2.2,1.8,5.7-0.4,7.7c-0.1,0.1-0.3,0.2-0.4,0.4l-3.9,2.8"/>
	<path id="Path_1443" class="st1" d="M902.6,449.4l-6.8,12c-5.9,10.7-17.2,17.4-29.4,17.4l0,0c-14.2,0-26.8-8.9-31.6-22.3l-0.3-0.8"
		/>
	<path id="Path_1444" class="st1" d="M903.5,543.9l48.5-3.1c2.8-0.2,4.9-2.6,4.7-5.4c0-0.3-0.1-0.5-0.1-0.8l-8.7-38.6"/>
	<path id="Path_1445" class="st1" d="M814.1,506.2l-6.2,26.3l-23.4-1.4c-1.8-0.1-3.1-1.6-3-3.4c0-0.4,0.1-0.8,0.3-1.2l13.4-28.4"/>
	<line id="Line_576" class="st1" x1="807.9" y1="532.5" x2="801.9" y2="561.9"/>
</g>
<g id="Group_888">
	<g id="Group_887">
		<g id="Group_227">
			<path id="Path_242" class="st3" d="M530.4,364c-44.9,142.7-197,222.1-339.7,177.2s-222.1-197-177.2-339.7s197-222.1,339.7-177.2
				C496,69.1,575.3,221.2,530.4,364z"/>
			<path id="Path_243" class="st3" d="M99,74.4l1.4,33.4c0,3.7,2.4,6.9,5.9,8l18.5,5.8c2.3,0.7,4.2,2.4,5.2,4.6l8,17.8
				c1,2.3,1,4.9-0.1,7.2l-13.5,27.6c-0.9,1.8-1.1,3.8-0.6,5.7l9.7,39.4l5.1,19.5c0.2,0.7,0.5,1.4,0.8,2.1l17.5,30.7
				c1.6,2.7,1.5,6.1-0.2,8.7l-12.5,19.6c-5.2,8.1-6.8,17.9-4.5,27.2l5.1,20.7c0.1,0.4,0.2,0.9,0.2,1.3l3,35.1
				c0.4,4.6,4.5,8.1,9.1,7.7c3.2-0.3,6-2.4,7.1-5.4l15.2-39.5c0.7-1.8,2-3.3,3.6-4.3l27.9-16.2c0.9-0.5,1.7-1.2,2.3-2l20.1-24.6
				c1.3-1.6,3.2-2.7,5.3-3l35-5.2c3.2-0.5,5.8-2.7,6.8-5.8l9.2-29.4c0.5-1.5,1.3-2.8,2.5-3.8l14.6-12.8c3.5-3.1,3.9-8.4,0.8-11.9
				c-0.1-0.1-0.1-0.1-0.2-0.2l-32.1-34.5c-0.6-0.7-1.1-1.4-1.5-2.2l-12.9-27.8c-0.4-1-1.1-1.9-1.9-2.6l-32.3-30.6
				c-1.4-1.3-3.1-2.1-5-2.3l-54.3-5.1c-4.2-0.4-7.4-3.8-7.6-7.9l-0.9-17.4c-0.1-2.7-1.6-5.2-3.8-6.6l-12.1-7.9
				c-3.9-2.5-5-7.7-2.5-11.7c0.9-1.3,2.1-2.4,3.5-3.1l13.6-6.4c3.5-1.6,7.6-0.7,10.1,2.3l10.9,13.3c2.7,3.2,7.3,4,10.8,1.9l2.7-1.6
				c1.8-1.1,3.1-2.7,3.7-4.7l3.3-10.7c0.7-2.2,2.3-4.1,4.4-5.1l50.4-23.9c1.2-0.6,2.6-0.9,4-0.8l47.7,2.2c4.7,0.2,8.6-3.4,8.8-8l0,0
				c0-1-0.1-2-0.4-3l-5.5-15.6"/>
			<path id="Path_244" class="st3" d="M424.9,59.2l-11,10.1c-4.4,4.4-4.4,11.6,0,16.1l0,0c0.7,0.7,1.4,1.2,2.2,1.7l24,14.4
				c3.3,2,5.3,5.4,5.5,9.2l2,45.2c0.1,2.6-0.6,5.1-2.1,7.2l-30.3,41.8c-2.6,3.5-2.9,8.2-0.8,12.1l12.7,23.2c1,1.8,1.5,3.8,1.4,5.9
				l-0.9,22.9c-0.2,5.8,3.9,10.8,9.6,11.7l33.5,5.3c6.2,1,10.4,6.8,9.5,13c-0.1,0.6-0.2,1.2-0.4,1.8l-23.7,72.7
				c-0.4,1.2-0.9,2.2-1.7,3.2l-18.2,24.7c-0.9,1.3-1.6,2.7-1.9,4.3l-8.3,37.5c-0.4,1.8-1.2,3.4-2.4,4.8l-10.8,12.9
				c-4,4.8-3.4,12,1.4,16l0,0c3,2.5,7.2,3.3,10.9,2.1l47.5-13.7"/>
			<path id="Path_245" class="st3" d="M92.2,484.3l14.7-14.9c1.2-1.2,2.8-2,4.4-2.3l27.3-5.5c0.2,0,0.5-0.1,0.7-0.2l17.6-5.1
				c4.7-1.4,9.6,1.3,11,6c0.8,2.7,0.3,5.5-1.4,7.7l-8,10.8c-2.9,3.9-2.1,9.5,1.8,12.4c0.8,0.6,1.7,1,2.6,1.3l32,10.1
				c1.7,0.5,3.4,0.5,5.1,0.1l30.5-8.9c2.8-0.8,5.8-0.2,8,1.6l21.3,17.1c0.8,0.6,1.7,1.1,2.6,1.4l29.8,10.5c3.5,1.2,5.8,4.5,5.9,8.2
				l0.6,17.3"/>
		</g>
	</g>
</g>
<g id="Group_891">
	<path id="Path_1446_2_" class="st3" d="M355.9,114.4c3.5,1,7,2.1,10.5,3.4c59.9,22.4,84.2,75.5,90.6,92.5"/>
	<path id="Path_1446_1_" class="st3" d="M223.3,132.3c15.3-7.7,63.7-29.1,115.1-21.5"/>
	<g id="Group_889">
		<path id="Path_1447" d="M226.4,137.5c-2.9,1.5-6.5,0.4-8.1-2.6c-1.5-2.9-0.4-6.5,2.6-8.1c2.9-1.5,6.5-0.4,8.1,2.6l0,0
			C230.5,132.3,229.3,136,226.4,137.5z"/>
	</g>
	<g id="Group_890">
		<path id="Path_1448" d="M451.2,212.1c1.1,3.1,4.5,4.7,7.7,3.6c3.1-1.1,4.7-4.5,3.6-7.7c-1.1-3.1-4.5-4.7-7.7-3.6l0,0
			C451.7,205.6,450,209,451.2,212.1z"/>
	</g>
</g>
<g id="Group_894">
	<path id="Path_1449_2_" class="st3" d="M563.4,239.7c-0.1,0.8-0.2,1.7-0.3,2.5c-2.8,20.7-13.6,34.9-19.6,41.4"/>
	<path id="Path_1449_1_" class="st3" d="M485.9,158.1c13.6,0,47.9,3,66.1,31.4c0.3,0.5,0.6,1,0.9,1.5"/>
	<g id="Group_892">
		<path id="Path_1450" d="M486.3,164.2c-3.3,0.1-6-2.6-6.1-5.9c-0.1-3.3,2.6-6,5.9-6.1s6,2.6,6.1,5.9
			C492.3,161.4,489.6,164.1,486.3,164.2z"/>
	</g>
	<g id="Group_893">
		<path id="Path_1451" d="M539.5,279.1c-2.3,2.3-2.3,6.1,0,8.5c2.3,2.3,6.1,2.3,8.5,0c2.3-2.3,2.3-6.1,0-8.5
			C545.6,276.8,541.8,276.8,539.5,279.1z"/>
	</g>
</g>
<g id="Group_897">
	<path id="Path_1452_2_" class="st3" d="M63.3,242.1c-37.5-40.7-28-83.7-23.2-98.5"/>
	<path id="Path_1452_1_" class="st3" d="M176,256.6c-15,7.5-60.9,25.9-99.6-2.5"/>
	<g id="Group_895">
		<path id="Path_1453" d="M173,251.4c2.9-1.5,6.5-0.4,8.1,2.6c1.5,2.9,0.4,6.5-2.6,8.1c-2.9,1.5-6.5,0.4-8.1-2.6
			C168.9,256.5,170.1,252.9,173,251.4z"/>
	</g>
	<g id="Group_896">
		<path id="Path_1454" d="M45.7,146c1.1-3.1-0.5-6.5-3.6-7.7c-3.1-1.1-6.5,0.5-7.7,3.6c-1.1,3.1,0.5,6.5,3.6,7.7
			C41.2,150.8,44.6,149.2,45.7,146z"/>
	</g>
</g>
<g id="Group_900">
	<path id="Path_1455" class="st3" d="M176,538.9c-16.5,8.2-70.4,29.7-111-12.6C25.5,485.1,35.2,441,40.1,426"/>
	<g id="Group_898">
		<path id="Path_1456" d="M173,533.7c2.9-1.5,6.5-0.4,8.1,2.6c1.5,2.9,0.4,6.5-2.6,8.1c-2.9,1.5-6.5,0.4-8.1-2.6
			C168.9,538.8,170.1,535.2,173,533.7z"/>
	</g>
	<g id="Group_899">
		<path id="Path_1457" d="M45.7,428.4c1.1-3.1-0.5-6.5-3.6-7.7c-3.1-1.1-6.5,0.5-7.7,3.6c-1.1,3.1,0.5,6.5,3.6,7.7
			C41.2,433.1,44.6,431.5,45.7,428.4z"/>
	</g>
</g>
<g id="Group_903">
	<path id="Path_1458" class="st3" d="M485.9,449c18.4-1.4,75.7-10.2,89.2-67.3c13.1-55.6-17.8-88.7-29.7-99"/>
	<g id="Group_901">
		<path id="Path_1459" d="M486.5,454.9c-3.3,0.2-6.1-2.3-6.3-5.6c-0.2-3.3,2.3-6.1,5.6-6.3c3.3-0.2,6.1,2.3,6.3,5.6
			C492.4,451.9,489.8,454.7,486.5,454.9z"/>
	</g>
	<g id="Group_902">
		<path id="Path_1460" d="M549.4,278.3c-2.6-2.1-6.3-1.7-8.4,0.8c-2.1,2.6-1.7,6.3,0.8,8.4l0,0c2.6,2.1,6.3,1.7,8.4-0.8
			S551.9,280.4,549.4,278.3L549.4,278.3z"/>
	</g>
</g>
<g id="Group_906">
	<path id="Path_1461" class="st3" d="M254.7,268.9c15.7-8.3,67.3-28.9,125.9,17.9c61,48.7,64.8,139.9,64.7,163.5"/>
	<g id="Group_904">
		<path id="Path_1462" d="M257.9,274.1c-2.9,1.6-6.5,0.6-8.1-2.3s-0.6-6.5,2.3-8.1s6.5-0.6,8.1,2.3
			C261.8,268.9,260.8,272.5,257.9,274.1z"/>
	</g>
	<g id="Group_905">
		<path id="Path_1463" d="M439.2,449.9c-0.1,3.3,2.6,6,5.9,6.1s6-2.6,6.1-5.9s-2.6-6-5.9-6.1S439.3,446.6,439.2,449.9z"/>
	</g>
</g>
<g id="Group_909">
	<path id="Path_1464" class="st3" d="M258,11.5c-21.8-5.7-102.8-21.6-139.2,47.7c-36.5,69.6,31.5,123.9,50.4,137.3"/>
	<g id="Group_907">
		<path id="Path_1465" d="M259.3,5.7c3.2,0.9,5,4.2,4.2,7.4c-0.9,3.2-4.2,5-7.4,4.2c-3.2-0.9-5-4.2-4.2-7.4
			C252.8,6.7,256.1,4.8,259.3,5.7z"/>
	</g>
	<g id="Group_908">
		<path id="Path_1466" d="M165.6,201.2c2.7,1.9,6.5,1.2,8.3-1.6c1.9-2.7,1.2-6.5-1.6-8.3c-2.7-1.9-6.5-1.2-8.3,1.6
			S162.9,199.4,165.6,201.2z"/>
	</g>
</g>
<g id="Group_912">
	<path id="Path_1467_2_" class="st3" d="M293.2,417.4c-32.8,44.6-34,97.4-33.3,114.5"/>
	<path id="Path_1467_1_" class="st3" d="M489.2,365.6c-19.7-5.7-89.4-22.3-148.6,10.1"/>
	<g id="Group_910">
		<path id="Path_1468" d="M490.7,359.9c3.2,1,4.9,4.3,4,7.5l0,0c-1,3.2-4.3,4.9-7.5,4c-3.2-1-4.9-4.3-4-7.5
			C484.2,360.7,487.5,358.9,490.7,359.9z"/>
	</g>
	<g id="Group_911">
		<path id="Path_1469" d="M253.9,531.9c0.2,3.3,3,5.8,6.3,5.7c3.3-0.2,5.8-3,5.7-6.3c-0.2-3.3-3-5.8-6.3-5.7
			C256.2,525.8,253.7,528.6,253.9,531.9z"/>
	</g>
</g>
<g id="Group_915">
	<path id="Path_1470" class="st3" d="M237,199.2c1-31.8,10.7-186.5,104.3-197.8c39.5-4.8,71.2,42.2,80.6,57.8"/>
	<g id="Group_913">
		<path id="Path_1471" d="M243,199c-0.1,3.3-2.8,5.9-6.1,5.8c-3.3-0.1-5.9-2.8-5.8-6.1s2.8-5.9,6.1-5.8
			C240.4,193,243.1,195.7,243,199z"/>
	</g>
	<g id="Group_914">
		<path id="Path_1472" d="M416.5,62c1.7,2.9,5.3,3.8,8.2,2.1l0,0c2.9-1.7,3.8-5.3,2.1-8.2l0,0c-1.7-2.9-5.3-3.8-8.2-2.1l0,0
			C415.8,55.5,414.9,59.2,416.5,62z"/>
	</g>
</g>
<circle id="Ellipse_299" class="st3" cx="347.2" cy="111.7" r="8.8"/>
<circle id="Ellipse_300" class="st3" cx="69.5" cy="248.4" r="8.8"/>
<g id="Group_917">
	<path id="Path_1473" class="st3" d="M286.3,417.4c11.4,0,18.5,0.3,28.3-5.1c10.6-5.9,16.2-5.1,28.3-5.1c2.4,0,4.4-2,4.4-4.4v-22.7
		c0-2.4-2-4.4-4.4-4.4c-12.1,0-17.7-0.8-28.3,5.1c-9.8,5.4-16.9,5.1-28.3,5.1c-2.4,0-4.4,2-4.4,4.4V413
		C281.9,415.5,283.9,417.4,286.3,417.4z"/>
</g>
<g id="Group_918">
	<path id="Path_1474" class="st3" d="M546.4,193.8c-0.9,8.2-1.7,13.2,1.4,20.7c3.4,8.1,2.4,12,1.4,20.7c-0.2,1.7,1.1,3.3,2.8,3.5
		l16.3,1.8c1.7,0.2,3.3-1.1,3.5-2.8l0,0c1-8.7,2-12.6-1.4-20.7c-3.1-7.4-2.3-12.5-1.4-20.7c0.2-1.7-1.1-3.3-2.8-3.5l-16.3-1.8
		C548.2,190.8,546.6,192.1,546.4,193.8z"/>
</g>
<line id="Line_579" class="st1" x1="829.6" y1="387.9" x2="836.2" y2="407.4"/>
<path class="st3" d="M563.3,240.5"/>
</svg>
