<svg xmlns="http://www.w3.org/2000/svg" viewBox="0 0 93.57 90.7"><defs><style>.cls-1{fill:#fff;}</style></defs><g id="Layer_2" data-name="Layer 2"><g id="Layer_1-2" data-name="Layer 1"><path id="Path_1630" data-name="Path 1630" class="cls-1" d="M46.78,0C21,0,0,20.35,0,45.35S21,90.7,46.78,90.7,93.57,70.35,93.57,45.35,72.57,0,46.78,0Zm.41,71.75c-15.34,0-27.82-11.84-27.82-26.4S31.85,19,47.19,19a29.2,29.2,0,0,1,12.88,3v3.43c-17.43-9.66-21.93,6-21.93,20,0,13.78,4.77,23.38,9,23.38s9-9.6,9-23.38a54.24,54.24,0,0,0-.34-6.24.91.91,0,0,0-.9-.8H47.8c.14-1.06.3-2.09.5-3.07H72.89A25.16,25.16,0,0,1,75,45.36C75,59.91,62.53,71.75,47.19,71.75ZM68.77,55H58.94a.61.61,0,0,0-.59.5A31.45,31.45,0,0,1,54,67.29a.3.3,0,0,0,.08.42.28.28,0,0,0,.25,0,24.57,24.57,0,0,0,15-11.82.6.6,0,0,0-.23-.83.61.61,0,0,0-.3-.08Zm1.4-16.71H59.51a.6.6,0,0,0-.6.6V39a58.7,58.7,0,0,1,0,12.36.6.6,0,0,0,.53.66H70.29a.91.91,0,0,0,.87-.66A22,22,0,0,0,71,39a.91.91,0,0,0-.87-.64ZM25.69,35.26h9.86a.6.6,0,0,0,.59-.48c1-5,3-9.24,6-11.94a.31.31,0,0,0,0-.43.28.28,0,0,0-.31-.09A25.68,25.68,0,0,0,25.29,34.59a.45.45,0,0,0,.17.61.46.46,0,0,0,.23.06Zm9.74,16.06a59.89,59.89,0,0,1,0-12.36.6.6,0,0,0-.52-.67H24.27a.88.88,0,0,0-.86.62,21,21,0,0,0-1,6.43,22,22,0,0,0,.82,6,.91.91,0,0,0,.88.65H34.83a.58.58,0,0,0,.6-.58v-.07Zm.6,4.23a.6.6,0,0,0-.59-.5H25.63a.6.6,0,0,0-.53.9,24.58,24.58,0,0,0,15,11.79.32.32,0,0,0,.38-.21.31.31,0,0,0,0-.25A31.68,31.68,0,0,1,36,55.55Z"/></g></g></svg>