<svg xmlns="http://www.w3.org/2000/svg" viewBox="0 0 113.37 105.36"><defs><style>.cls-1{fill:none;stroke:#96fee5;stroke-miterlimit:10;stroke-width:2.5px;}</style></defs><g id="Layer_2" data-name="Layer 2"><g id="Layer_1-2" data-name="Layer 1"><g id="Group_1054" data-name="Group 1054"><path id="Path_1620" data-name="Path 1620" class="cls-1" d="M46,38.05H38.29A27.79,27.79,0,0,0,10.51,65.84h0v1.68A27.78,27.78,0,0,0,38.29,95.3H69.18A27.79,27.79,0,0,0,97,67.52h0V65.84A27.79,27.79,0,0,0,69.18,38.05H60.77"/><circle id="Ellipse_364" data-name="Ellipse 364" class="cls-1" cx="23.55" cy="56.31" r="4.5"/><line id="Line_692" data-name="Line 692" class="cls-1" x1="67.66" y1="45" x2="39.06" y2="45"/><path id="Path_1621" data-name="Path 1621" class="cls-1" d="M65.39,95.22v5.83a3.06,3.06,0,0,0,3.06,3.06h6.76a3.06,3.06,0,0,0,3.05-3.06V93.79"/><path id="Path_1622" data-name="Path 1622" class="cls-1" d="M40.91,95.22v5.83a3.05,3.05,0,0,1-3,3.06H31.1a3.06,3.06,0,0,1-3.06-3h0V93.79"/><path id="Path_1623" data-name="Path 1623" class="cls-1" d="M10.75,62.15H5.64a4.38,4.38,0,0,0-4.39,4.38v9.79a4.39,4.39,0,0,0,4.39,4.39h7.82"/><path id="Path_1624" data-name="Path 1624" class="cls-1" d="M25.9,37.1l-5.62-5.62a1.35,1.35,0,0,0-1.91,0,1.36,1.36,0,0,0-.39,1V46.91"/><circle id="Ellipse_365" data-name="Ellipse 365" class="cls-1" cx="53.36" cy="31.08" r="10.17"/><circle id="Ellipse_366" data-name="Ellipse 366" class="cls-1" cx="62.34" cy="9.21" r="7.96"/><path id="Path_1625" data-name="Path 1625" class="cls-1" d="M104,61V59.6a4,4,0,0,1,4-4.05h0a4,4,0,0,1,4.05,4.05v.92a4,4,0,0,1-4.05,4H97"/><line id="Line_693" data-name="Line 693" class="cls-1" x1="4.96" y1="67.05" x2="4.96" y2="75.96"/></g></g></g></svg>