<svg xmlns="http://www.w3.org/2000/svg" viewBox="0 0 79.41 79.62"><defs><style>.cls-1,.cls-2{fill:none;stroke:#96fee5;stroke-width:2.5px;}.cls-2{stroke-miterlimit:10;}</style></defs><g id="Layer_2" data-name="Layer 2"><g id="Layer_1-2" data-name="Layer 1"><g id="Group_1053" data-name="Group 1053"><g id="Group_227" data-name="Group 227"><path id="Path_245" data-name="Path 245" class="cls-1" d="M14.18,68.53l2.09-2.11a1.24,1.24,0,0,1,.63-.33l3.87-.78.1,0,2.49-.72a1.27,1.27,0,0,1,1.56.85h0a1.27,1.27,0,0,1-.2,1.1L23.58,68a1.25,1.25,0,0,0,.26,1.76,1.43,1.43,0,0,0,.37.19l4.54,1.42a1.21,1.21,0,0,0,.73,0l4.31-1.26a1.26,1.26,0,0,1,1.14.23l3,2.42a1.36,1.36,0,0,0,.37.21l4.23,1.49a1.24,1.24,0,0,1,.83,1.16l.08,2.46s-8.72.59-16-1.78A41,41,0,0,1,14.18,68.53Z"/><path id="Path_244" data-name="Path 244" class="cls-1" d="M61.36,8.26,59.8,9.69a1.63,1.63,0,0,0,0,2.28h0a2.34,2.34,0,0,0,.31.24l3.4,2a1.59,1.59,0,0,1,.78,1.31L64.58,22a1.58,1.58,0,0,1-.3,1L60,28.91a1.6,1.6,0,0,0-.11,1.72l1.79,3.29a1.59,1.59,0,0,1,.2.83L61.74,38a1.61,1.61,0,0,0,1.36,1.65l4.75.75a1.62,1.62,0,0,1,1.34,1.84h0l-.06.25L65.77,52.81a1.76,1.76,0,0,1-.24.45L63,56.77a1.54,1.54,0,0,0-.28.61L61.49,62.7a1.64,1.64,0,0,1-.33.69l-1.53,1.83a1.6,1.6,0,0,0,.2,2.26h0a1.62,1.62,0,0,0,1.54.3l6.73-2s11-10.07,10-29.32S61.36,8.26,61.36,8.26Z"/><path id="Path_243" data-name="Path 243" class="cls-1" d="M15.15,10.42l.2,4.74a1.2,1.2,0,0,0,.84,1.14l2.62.82a1.18,1.18,0,0,1,.73.65l1.13,2.52a1.21,1.21,0,0,1,0,1l-1.92,3.91a1.19,1.19,0,0,0-.08.81L20,31.61l.72,2.77a1.21,1.21,0,0,0,.11.3L23.35,39a1.18,1.18,0,0,1,0,1.23L21.55,43a5,5,0,0,0-.64,3.86l.72,2.94a.57.57,0,0,1,0,.18l.43,5a1.2,1.2,0,0,0,2.31.33l2.16-5.6a1.14,1.14,0,0,1,.52-.6l4-2.29a1.29,1.29,0,0,0,.33-.28l2.84-3.48a1.2,1.2,0,0,1,.75-.43l5-.74a1.21,1.21,0,0,0,1-.82l1.31-4.16a1.16,1.16,0,0,1,.35-.55l2.07-1.8a1.21,1.21,0,0,0,.11-1.69l0,0L40.16,28a1,1,0,0,1-.21-.32l-1.83-3.94a1,1,0,0,0-.26-.36L33.28,19a1.16,1.16,0,0,0-.71-.32L24.87,18a1.18,1.18,0,0,1-1.08-1.12l-.14-2.46a1.17,1.17,0,0,0-.54-.94l-1.72-1.12A1.19,1.19,0,0,1,21,10.67a1.16,1.16,0,0,1,.5-.43l1.93-.9a1.2,1.2,0,0,1,1.43.32l1.55,1.89a1.2,1.2,0,0,0,1.54.26l.38-.23a1.14,1.14,0,0,0,.52-.66l.48-1.52A1.24,1.24,0,0,1,30,8.68L37.14,5.3a1.24,1.24,0,0,1,.57-.11l6.75.31a1.2,1.2,0,0,0,1.25-1.14,1.21,1.21,0,0,0-.05-.42l-.79-2.2S39.62,0,28.82,3.1,15.15,10.42,15.15,10.42Z"/><path id="Path_242" data-name="Path 242" class="cls-2" d="M76.31,51.47A38.41,38.41,0,1,1,51.19,3.31h0A38.4,38.4,0,0,1,76.31,51.47Z"/><path id="Path_243-2" data-name="Path 243-2" class="cls-2" d="M15.15,10.42l.2,4.74a1.2,1.2,0,0,0,.84,1.14l2.62.82a1.18,1.18,0,0,1,.73.65l1.13,2.52a1.21,1.21,0,0,1,0,1l-1.92,3.91a1.19,1.19,0,0,0-.08.81L20,31.61l.72,2.77a1.21,1.21,0,0,0,.11.3L23.35,39a1.18,1.18,0,0,1,0,1.23L21.55,43a5,5,0,0,0-.64,3.86l.72,2.94a.57.57,0,0,1,0,.18l.43,5a1.2,1.2,0,0,0,2.31.33l2.16-5.6a1.14,1.14,0,0,1,.52-.6l4-2.29a1.29,1.29,0,0,0,.33-.28l2.84-3.48a1.2,1.2,0,0,1,.75-.43l5-.74a1.21,1.21,0,0,0,1-.82l1.31-4.16a1.16,1.16,0,0,1,.35-.55l2.07-1.8a1.21,1.21,0,0,0,.11-1.69l0,0L40.16,28a1,1,0,0,1-.21-.32l-1.83-3.94a1,1,0,0,0-.26-.36L33.28,19a1.16,1.16,0,0,0-.71-.32L24.87,18a1.18,1.18,0,0,1-1.08-1.12l-.14-2.46a1.17,1.17,0,0,0-.54-.94l-1.72-1.12A1.19,1.19,0,0,1,21,10.67a1.16,1.16,0,0,1,.5-.43l1.93-.9a1.2,1.2,0,0,1,1.43.32l1.55,1.89a1.2,1.2,0,0,0,1.54.26l.38-.23a1.14,1.14,0,0,0,.52-.66l.48-1.52A1.24,1.24,0,0,1,30,8.68L37.14,5.3a1.24,1.24,0,0,1,.57-.11l6.75.31a1.2,1.2,0,0,0,1.25-1.14,1.21,1.21,0,0,0-.05-.42l-.79-2.2"/><path id="Path_244-2" data-name="Path 244-2" class="cls-2" d="M61.36,8.26,59.8,9.69a1.63,1.63,0,0,0,0,2.28h0a2.34,2.34,0,0,0,.31.24l3.4,2a1.59,1.59,0,0,1,.78,1.31L64.58,22a1.58,1.58,0,0,1-.3,1L60,28.91a1.6,1.6,0,0,0-.11,1.72l1.79,3.29a1.59,1.59,0,0,1,.2.83L61.74,38a1.61,1.61,0,0,0,1.36,1.65l4.75.75a1.62,1.62,0,0,1,1.34,1.84h0l-.06.25L65.77,52.81a1.76,1.76,0,0,1-.24.45L63,56.77a1.54,1.54,0,0,0-.28.61L61.49,62.7a1.64,1.64,0,0,1-.33.69l-1.53,1.83a1.6,1.6,0,0,0,.2,2.26h0a1.62,1.62,0,0,0,1.54.3l6.73-2"/><path id="Path_245-2" data-name="Path 245-2" class="cls-2" d="M14.18,68.53l2.09-2.11a1.24,1.24,0,0,1,.63-.33l3.87-.78.1,0,2.49-.72a1.27,1.27,0,0,1,1.56.85h0a1.27,1.27,0,0,1-.2,1.1L23.58,68a1.25,1.25,0,0,0,.26,1.76,1.43,1.43,0,0,0,.37.19l4.54,1.42a1.21,1.21,0,0,0,.73,0l4.31-1.26a1.26,1.26,0,0,1,1.14.23l3,2.42a1.36,1.36,0,0,0,.37.21l4.23,1.49a1.24,1.24,0,0,1,.83,1.16l.08,2.46"/></g><path id="Path_243-3" data-name="Path 243-3" class="cls-2" d="M37.7,5.19l6.76.31a1.2,1.2,0,0,0,1.25-1.14"/></g></g></g></svg>