<svg xmlns="http://www.w3.org/2000/svg" width="99" height="99" viewBox="0 0 99 99">
  <g id="Group_1" data-name="Group 1" transform="translate(-546 -239)">
    <rect id="Rectangle_3" data-name="Rectangle 3" width="99" height="99" transform="translate(546 239)" fill="none"/>
    <g id="Layer_2" data-name="Layer 2" transform="translate(551.75 262.75)">
      <g id="Layer_1" data-name="Layer 1">
        <g id="Group_1052" data-name="Group 1052">
          <rect id="Rectangle_682" data-name="Rectangle 682" width="85.8" height="49.57" transform="translate(1.25 1.25)" fill="none" stroke="#96fee5" stroke-miterlimit="10" stroke-width="2.5"/>
          <line id="Line_690" data-name="Line 690" x2="34.99" y2="20.97" transform="translate(50.52 29.85)" fill="none" stroke="#96fee5" stroke-miterlimit="10" stroke-width="2.5"/>
          <line id="Line_691" data-name="Line 691" y1="20.97" x2="34.98" transform="translate(2.81 29.85)" fill="none" stroke="#96fee5" stroke-miterlimit="10" stroke-width="2.5"/>
          <path id="Path_1611" data-name="Path 1611" d="M87.05,12.85l-42.89,20-42.91-20" fill="none" stroke="#96fee5" stroke-miterlimit="10" stroke-width="2.5"/>
          <path id="Path_1612" data-name="Path 1612" d="M52.94,8.6a6.21,6.21,0,0,0-8.38-.38.64.64,0,0,1-.82,0,6.22,6.22,0,0,0-8.38,9.17h0l8.42,8.42a.48.48,0,0,0,.68,0l8.42-8.42h0a6.21,6.21,0,0,0,.06-8.79Z" fill="none" stroke="#96fee5" stroke-miterlimit="10" stroke-width="2.5"/>
        </g>
      </g>
    </g>
  </g>
</svg>
