<svg xmlns="http://www.w3.org/2000/svg" width="99" height="99" viewBox="0 0 99 99">
  <g id="Group_3" data-name="Group 3" transform="translate(-659 -74)">
    <rect id="Rectangle_2" data-name="Rectangle 2" width="99" height="99" transform="translate(659 74)" fill="none"/>
    <g id="Layer_2" data-name="Layer 2" transform="translate(663.75 79.772)">
      <g id="Layer_1" data-name="Layer 1" transform="translate(1.25 1.25)">
        <g id="Group_1054" data-name="Group 1054">
          <path id="Path_1620" data-name="Path 1620" d="M38.491,38.05H32.412a21.91,21.91,0,0,0-21.9,21.91h0v1.325a21.9,21.9,0,0,0,21.9,21.9H56.766A21.91,21.91,0,0,0,78.7,61.285h0V59.96A21.91,21.91,0,0,0,56.766,38.05H50.136" transform="translate(-3.209 -9.036)" fill="none" stroke="#96fee5" stroke-miterlimit="10" stroke-width="2.5"/>
          <circle id="Ellipse_364" data-name="Ellipse 364" cx="3.548" cy="3.548" r="3.548" transform="translate(14.034 39.862)" fill="none" stroke="#96fee5" stroke-miterlimit="10" stroke-width="2.5"/>
          <line id="Line_692" data-name="Line 692" x1="22.549" transform="translate(29.81 34.493)" fill="none" stroke="#96fee5" stroke-miterlimit="10" stroke-width="2.5"/>
          <path id="Path_1621" data-name="Path 1621" d="M65.39,94.917v4.6a2.413,2.413,0,0,0,2.413,2.413h5.33a2.413,2.413,0,0,0,2.4-2.413V93.79" transform="translate(-14.821 -20.83)" fill="none" stroke="#96fee5" stroke-miterlimit="10" stroke-width="2.5"/>
          <path id="Path_1622" data-name="Path 1622" d="M38.187,94.917v4.6a2.4,2.4,0,0,1-2.365,2.413H30.453a2.413,2.413,0,0,1-2.413-2.366h0V93.79" transform="translate(-6.918 -20.83)" fill="none" stroke="#96fee5" stroke-miterlimit="10" stroke-width="2.5"/>
          <path id="Path_1623" data-name="Path 1623" d="M8.74,62.15H4.711A3.453,3.453,0,0,0,1.25,65.6v7.719a3.461,3.461,0,0,0,3.461,3.461h6.165" transform="translate(-1.25 -14.136)" fill="none" stroke="#96fee5" stroke-miterlimit="10" stroke-width="2.5"/>
          <path id="Path_1624" data-name="Path 1624" d="M24.224,35.827,19.793,31.4a1.061,1.061,0,0,0-1.813.788V43.561" transform="translate(-4.79 -7.563)" fill="none" stroke="#96fee5" stroke-miterlimit="10" stroke-width="2.5"/>
          <circle id="Ellipse_365" data-name="Ellipse 365" cx="8.018" cy="8.018" r="8.018" transform="translate(33.066 15.5)" fill="none" stroke="#96fee5" stroke-miterlimit="10" stroke-width="2.5"/>
          <circle id="Ellipse_366" data-name="Ellipse 366" cx="6.276" cy="6.276" r="6.276" transform="translate(41.888)" fill="none" stroke="#96fee5" stroke-miterlimit="10" stroke-width="2.5"/>
          <path id="Path_1625" data-name="Path 1625" d="M102.519,59.847v-1.1a3.154,3.154,0,0,1,3.154-3.193h0a3.154,3.154,0,0,1,3.193,3.193v.725a3.154,3.154,0,0,1-3.193,3.154H97" transform="translate(-21.509 -12.739)" fill="none" stroke="#96fee5" stroke-miterlimit="10" stroke-width="2.5"/>
          <line id="Line_693" data-name="Line 693" y2="7.025" transform="translate(2.925 51.878)" fill="none" stroke="#96fee5" stroke-miterlimit="10" stroke-width="2.5"/>
        </g>
      </g>
    </g>
  </g>
</svg>
