<svg xmlns="http://www.w3.org/2000/svg" viewBox="0 0 88.3 52.07"><defs><style>.cls-1{fill:none;stroke:#96fee5;stroke-miterlimit:10;stroke-width:2.5px;}</style></defs><g id="Layer_2" data-name="Layer 2"><g id="Layer_1-2" data-name="Layer 1"><g id="Group_1052" data-name="Group 1052"><rect id="Rectangle_682" data-name="Rectangle 682" class="cls-1" x="1.25" y="1.25" width="85.8" height="49.57"/><line id="Line_690" data-name="Line 690" class="cls-1" x1="50.52" y1="29.85" x2="85.51" y2="50.82"/><line id="Line_691" data-name="Line 691" class="cls-1" x1="2.81" y1="50.82" x2="37.79" y2="29.85"/><path id="Path_1611" data-name="Path 1611" class="cls-1" d="M87.05,12.85l-42.89,20-42.91-20"/><path id="Path_1612" data-name="Path 1612" class="cls-1" d="M52.94,8.6a6.21,6.21,0,0,0-8.38-.38.64.64,0,0,1-.82,0,6.22,6.22,0,0,0-8.38,9.17l0,0,8.42,8.42a.48.48,0,0,0,.68,0l8.42-8.42,0,0A6.21,6.21,0,0,0,52.94,8.6Z"/></g></g></g></svg>