<svg xmlns="http://www.w3.org/2000/svg" viewBox="0 0 721.16 712.01"><defs><style>.cls-1{fill:none;}</style></defs><g id="Layer_2" data-name="Layer 2"><g id="Layer_1-2" data-name="Layer 1"><path class="cls-1" d="M368.56,204.48l5.2,12.26a6.76,6.76,0,0,1-.11,5.55l-5.71,12.07A6.79,6.79,0,0,1,363.5,238l-20.4,5.25a4.77,4.77,0,0,0-2.69,1.83l-16.25,22.57L316.23,279a5,5,0,0,0-.58,1.12L307.45,303a6.75,6.75,0,0,1-5.44,4.42l-15.77,2.18a23.17,23.17,0,0,0-15.53,9.37l-8.55,11.89a7.28,7.28,0,0,1-.67.8l-17,17.22a4.78,4.78,0,0,0,.06,6.76,4.82,4.82,0,0,0,4.94,1.11l27.38-9.63a6.84,6.84,0,0,1,4.51,0l20.87,7.38a4.93,4.93,0,0,0,1.7.28l21.74-.47a6.74,6.74,0,0,1,4.61,1.67l18.32,16a4.8,4.8,0,0,0,5,.79l19.43-8.25a6.73,6.73,0,0,1,3.63-.47l13.14,1.91a4.79,4.79,0,0,0,5.42-4l0-.15L399,329.57a6.66,6.66,0,0,1,.57-2.05l8.78-19.09a4.69,4.69,0,0,0,.43-1.75l1.57-30.47a4.79,4.79,0,0,0-.86-3L388,242.62a6.82,6.82,0,0,1,.88-8.82l8.63-8.22a4.79,4.79,0,0,0,1.45-4.1l-1.31-9.84a6.78,6.78,0,0,1,9.53-7.07l9.37,4.26a6.78,6.78,0,0,1,3.87,7.36l-2.07,11.63a4.82,4.82,0,0,0,3.19,5.37l2,.69a4.77,4.77,0,0,0,3.39-.13l7.06-3a6.83,6.83,0,0,1,5.43.06l34.9,15.69a6.7,6.7,0,0,1,2.57,2L497,274.36a4.78,4.78,0,0,0,7.85-.42l4.89-8.49a185.2,185.2,0,0,0-123.32-81.82L369.88,199A4.78,4.78,0,0,0,368.56,204.48Z"/><path class="cls-1" d="M686.81,323.59a30.76,30.76,0,0,1-15.48-54.69,30.86,30.86,0,0,1,9.13-5A343.62,343.62,0,0,0,621.8,153q-10.5-13.31-22.11-25.38a9.78,9.78,0,0,1-5.6,1.76,9.41,9.41,0,0,1-1.17-.07,9.74,9.74,0,0,1-6.6-3.69,9.88,9.88,0,0,1-.46-11.61A340.56,340.56,0,0,0,418.18,28.77,4.87,4.87,0,0,1,417.09,30a5.1,5.1,0,0,1-3.17,1.11c-.2,0-.4,0-.6,0a5.12,5.12,0,0,1-3.43-1.91,5.2,5.2,0,0,1-1-2q-8.35-1.39-16.85-2.39a349.1,349.1,0,0,0-40.73-2.39,342.6,342.6,0,0,0-69.47,7.11,38.52,38.52,0,0,1-72.95,24A347.88,347.88,0,0,0,74,163.67,22.44,22.44,0,0,1,60.52,204a21.7,21.7,0,0,1-2.66-.16,22.28,22.28,0,0,1-7.77-2.4,346.79,346.79,0,0,0-39.36,207l.31,0a9.88,9.88,0,0,1,2.54,19A345.32,345.32,0,0,0,201.44,675.4a13.27,13.27,0,0,1,13.31-7,13.29,13.29,0,0,1,11,17.65A346,346,0,0,0,312,707.62a342.35,342.35,0,0,0,158.34-18.47,9.58,9.58,0,0,1,0-2.51,9.89,9.89,0,0,1,17.58-5c.09.11.17.24.26.36a345.76,345.76,0,0,0,77-46.09q9.72-7.68,18.78-15.95a22.92,22.92,0,0,1,31-32.2,341.41,341.41,0,0,0,78.5-181.57,346.36,346.36,0,0,0-.18-82.55c-.95.09-1.9.15-2.85.15A32.06,32.06,0,0,1,686.81,323.59Zm-42.4,117.63a2.87,2.87,0,0,1-2.88,2.66h-.09l-34.82-1.2a257.63,257.63,0,0,1-18.84,46,5.06,5.06,0,0,1,1.44,2.7,5,5,0,0,1-4.06,5.8,5.33,5.33,0,0,1-.88.08,4.57,4.57,0,0,1-1.16-.16q-5.82,10.13-12.59,19.82a263.8,263.8,0,0,1-20.41,25.57A33.47,33.47,0,0,1,504,589.83a33.92,33.92,0,0,1-4.82-4.09,256.92,256.92,0,0,1-76,33.16,25.64,25.64,0,1,1-50.43,7.81q-7.33.42-14.64.43a255.66,255.66,0,0,1-88.56-15.8L248.16,642a2.91,2.91,0,0,1-3.93.78A549.7,549.7,0,0,1,139.9,569.62a2.9,2.9,0,0,1-.59-3.93l21.48-30.64a256.61,256.61,0,0,1-54.9-112.22c-.64.16-1.28.3-1.93.41A28.87,28.87,0,1,1,100,366a256,256,0,0,1,8.06-61.91,4.55,4.55,0,0,1-.95-.5,5,5,0,0,1,2-9,4.93,4.93,0,0,1,1.58,0,257.69,257.69,0,0,1,19-46.4c-.3-.19-.61-.37-.9-.58A29,29,0,1,1,162.17,200l.16.12a256,256,0,0,1,87.74-66.48l-6.81-34.21A2.93,2.93,0,0,1,245.39,96a426.41,426.41,0,0,1,125-24.86,2.9,2.9,0,0,1,3.26,2.31l7.4,37.18a256.83,256.83,0,0,1,121.74,43,28.46,28.46,0,0,1,39-6.22h0a28.46,28.46,0,0,1,7,39.6,27.94,27.94,0,0,1-2.55,3.14,256.35,256.35,0,0,1,64.44,119.7L646,311.05A2.87,2.87,0,0,1,648.8,314,752.78,752.78,0,0,1,644.41,441.22Z"/><path class="cls-1" d="M504.9,276.79a6.79,6.79,0,0,1-9.52-1.21l-20.06-25.84a4.86,4.86,0,0,0-1.81-1.43l-34.9-15.69a4.81,4.81,0,0,0-3.83,0l-7.06,3a6.76,6.76,0,0,1-4.81.18l-2-.68a6.83,6.83,0,0,1-4.52-7.62l2.07-11.63a4.79,4.79,0,0,0-2.73-5.19l-9.37-4.26a4.78,4.78,0,0,0-6.72,5l1.31,9.84a6.78,6.78,0,0,1-2.05,5.81l-8.64,8.22a4.81,4.81,0,0,0-.61,6.22l21.51,30.59a6.81,6.81,0,0,1,1.23,4.25l-1.57,30.47a6.75,6.75,0,0,1-.61,2.49l-8.78,19.08a4.91,4.91,0,0,0-.41,1.45l-3.73,32.3a6.78,6.78,0,0,1-7.69,5.75l-13.14-1.91a4.68,4.68,0,0,0-2.56.33l-19.42,8.25a6.78,6.78,0,0,1-7.11-1.13L329,357.44a4.69,4.69,0,0,0-3.26-1.18l-21.74.47a6.84,6.84,0,0,1-2.41-.39L280.74,349a4.82,4.82,0,0,0-3.18,0l-27.39,9.62a6.8,6.8,0,0,1-7-1.56,6.69,6.69,0,0,1-2-4.78,6.76,6.76,0,0,1,2-4.82l17-17.21a4.39,4.39,0,0,0,.48-.57l8.55-11.89A25.12,25.12,0,0,1,286,307.57l15.77-2.18a4.76,4.76,0,0,0,3.84-3.12l8.2-22.81a6.4,6.4,0,0,1,.83-1.6l7.93-11.35,16.25-22.57a6.79,6.79,0,0,1,3.83-2.61L363,236.08a4.74,4.74,0,0,0,3.13-2.58l5.71-12.07a4.72,4.72,0,0,0,.08-3.91l-5.2-12.26a6.74,6.74,0,0,1,1.83-7.8l15.35-14.25A183.62,183.62,0,0,0,282.09,195.5c-68.54,29.14-110.41,95.06-112.41,165.05l13.9,1a7.08,7.08,0,0,1,3.73,1.48l15,11.82a2.62,2.62,0,0,0,.34.24L213.18,382a7.06,7.06,0,0,1,2,9.78,7.11,7.11,0,0,1-5.43,3.17l-9.2.62a5,5,0,0,0-4.71,5.38,5.11,5.11,0,0,0,.39,1.64l9,21.19a5,5,0,0,0,1.88,2.25L225.33,438a7.07,7.07,0,0,1,3.18,5.7l.54,18.69a5,5,0,0,0,.34,1.67l7.78,20.22a7.1,7.1,0,0,1-1.92,7.83l-8.14,7.43a186,186,0,0,0,117.51,50.55l-25.05-16.53a8.79,8.79,0,0,1-1.71-13.66,8.71,8.71,0,0,1,6.19-2.63l11.53-.12a6.69,6.69,0,0,0,3.12-.79L362,504a8.73,8.73,0,0,1,3.49-1l21-1.5a7,7,0,0,0,2.11-.49l48.48-20a7.61,7.61,0,0,0,.81-.4h0l.16-.09a6.81,6.81,0,0,0,2.22-9.33l-12.17-19.8a8.8,8.8,0,0,1,2.06-11.51l12.38-9.72a6.87,6.87,0,0,0,2.14-2.91l6.47-16.94a8.83,8.83,0,0,1,7.51-5.62L494,401.77A6.82,6.82,0,0,0,498,400l22.68-21.16a6.78,6.78,0,0,0,2.06-6.09l-3.17-18.89a9.46,9.46,0,0,1-.09-2.13,8.81,8.81,0,0,1,9.45-8.08l9.08,1.1a185.33,185.33,0,0,0-13.55-51.26l0,0-.06-.18a185.59,185.59,0,0,0-13.51-25.9L506.53,275A7,7,0,0,1,504.9,276.79Z"/><path class="cls-1" d="M521.51,351.86a6.92,6.92,0,0,0,.08,1.64l3.17,18.89a8.8,8.8,0,0,1-2.67,7.88L499.4,401.43a8.74,8.74,0,0,1-5.29,2.33l-35.28,2.84a6.83,6.83,0,0,0-5.8,4.34l-6.47,16.94a8.76,8.76,0,0,1-2.78,3.77l-12.37,9.72a6.78,6.78,0,0,0-1.59,8.89L442,470.06a8.79,8.79,0,0,1-2.72,12l-.17.11a9.63,9.63,0,0,1-1.24.63l-48.49,20a8.69,8.69,0,0,1-2.73.64l-21,1.51a6.72,6.72,0,0,0-2.7.77L339.64,518.1a8.77,8.77,0,0,1-4,1l-11.53.12a6.78,6.78,0,0,0-6.72,6.85,6.82,6.82,0,0,0,3.29,5.75l27.87,18.38A184.94,184.94,0,0,0,538.28,346.76l-9.51-1.15A6.78,6.78,0,0,0,521.51,351.86Z"/><path class="cls-1" d="M235.3,485l-7.78-20.22a6.86,6.86,0,0,1-.47-2.33l-.54-18.7a5.07,5.07,0,0,0-2.28-4.08L206,427.71a7.07,7.07,0,0,1-2.62-3.15l-9-21.18a7.06,7.06,0,0,1,6-9.81l9.2-.62a5.06,5.06,0,0,0,2.43-9.28l-10.48-6.88a5.74,5.74,0,0,1-.5-.36l-15-11.8a5,5,0,0,0-2.66-1.06l-13.79-1a184.71,184.71,0,0,0,56,135.58l8.26-7.54A5.07,5.07,0,0,0,235.3,485Z"/><path class="cls-1" d="M579.91,440.94a2.81,2.81,0,0,1-.76-2v-.14a750.22,750.22,0,0,0,4.38-127,2.8,2.8,0,0,1,2.83-2.83l22.2.76a254.36,254.36,0,0,0-63.78-118.21,28.42,28.42,0,0,1-43.17-36.3,254.92,254.92,0,0,0-120.2-42.55l3.83,19.24a2.78,2.78,0,0,1-2.14,3.28l-.26,0A424.7,424.7,0,0,0,258.37,160l-.1,0a2.48,2.48,0,0,1-.66.08,2.72,2.72,0,0,1-1.44-.4,2.77,2.77,0,0,1-1.25-1.72l0-.12-4.42-22.24a254.31,254.31,0,0,0-86.55,65.68,29,29,0,0,1-32.47,47.85,255.1,255.1,0,0,0-18.83,46l.28.16h0a5,5,0,0,1-2.84,9.1,254.23,254.23,0,0,0-8,61.64,28.87,28.87,0,0,1,5.78,56.19A254.59,254.59,0,0,0,162,533.36l11.55-16.49a2.78,2.78,0,0,1,3.86-.71l.11.08a548.17,548.17,0,0,0,104,72.93,2.78,2.78,0,0,1,.89,3.9l-.06.09-11.55,16.48a254,254,0,0,0,102,15.07,25.64,25.64,0,0,1,40.36-20.39h0A25.44,25.44,0,0,1,422.67,617a255,255,0,0,0,75.18-32.75,33.48,33.48,0,1,1,51-43.37,261.29,261.29,0,0,0,20-25.14c4.46-6.36,8.58-12.87,12.42-19.52a5,5,0,0,1,2.11-8.93,5,5,0,0,1,2.67.27,255.59,255.59,0,0,0,18.46-44.95l-22.68-.78A2.77,2.77,0,0,1,579.91,440.94Zm-52.33-5.49a186.77,186.77,0,0,1-173,116.89c-72.72,0-142-42.69-172.16-113.72-40.28-94.78,4.05-204.67,98.84-245,85-36.13,182.19-4.17,230.38,71.21l.49.29-.15.25a186.3,186.3,0,0,1,14.16,26.91h0l.09.2A185.57,185.57,0,0,1,527.58,435.45Z"/><path d="M526.19,292.32h0A186.3,186.3,0,0,0,512,265.41l-1.12,1.95a185.59,185.59,0,0,1,13.51,25.9l.06.18,0,0a185.33,185.33,0,0,1,13.55,51.26l1.09.13-.24,2-.62-.08A184.8,184.8,0,0,1,348.51,550.22l.44.3-1.1,1.67-3.23-2.13a186,186,0,0,1-117.51-50.55l-.63.57-1.35-1.48.53-.47a184.71,184.71,0,0,1-56-135.58l-.54,0,.15-2,.44,0c2-70,43.87-135.91,112.41-165A183.62,183.62,0,0,1,383.9,183.21l1.44-1.34,1.36,1.47-.32.29A185.2,185.2,0,0,1,509.7,265.45l.75-1.29,1.24.71c-48.19-75.38-145.36-107.34-230.38-71.21-94.79,40.29-139.12,150.18-98.84,245,30.19,71,99.44,113.72,172.16,113.72A186.79,186.79,0,0,0,526.28,292.52Z"/><path d="M504.81,273.94a4.78,4.78,0,0,1-7.85.42L476.9,248.52a6.7,6.7,0,0,0-2.57-2l-34.9-15.69a6.83,6.83,0,0,0-5.43-.06l-7.06,3a4.77,4.77,0,0,1-3.39.13l-2-.69a4.82,4.82,0,0,1-3.19-5.37l2.07-11.63a6.78,6.78,0,0,0-3.87-7.36l-9.37-4.26a6.78,6.78,0,0,0-9.53,7.07l1.31,9.84a4.79,4.79,0,0,1-1.45,4.1l-8.63,8.22a6.82,6.82,0,0,0-.88,8.82l21.52,30.59a4.79,4.79,0,0,1,.86,3l-1.57,30.47a4.69,4.69,0,0,1-.43,1.75l-8.78,19.09a6.66,6.66,0,0,0-.57,2.05l-3.71,32.11,0,.15a4.79,4.79,0,0,1-5.42,4L376.71,364a6.73,6.73,0,0,0-3.63.47l-19.43,8.25a4.8,4.8,0,0,1-5-.79l-18.32-16a6.74,6.74,0,0,0-4.61-1.67l-21.74.47a4.93,4.93,0,0,1-1.7-.28l-20.87-7.38a6.84,6.84,0,0,0-4.51,0l-27.38,9.63a4.82,4.82,0,0,1-4.94-1.11,4.78,4.78,0,0,1-.06-6.76l17-17.22a7.28,7.28,0,0,0,.67-.8l8.55-11.89a23.17,23.17,0,0,1,15.53-9.37L302,307.37a6.75,6.75,0,0,0,5.44-4.42l8.2-22.82a5,5,0,0,1,.58-1.12l7.93-11.34,16.25-22.57a4.77,4.77,0,0,1,2.69-1.83L363.5,238a6.79,6.79,0,0,0,4.44-3.66l5.71-12.07a6.76,6.76,0,0,0,.11-5.55l-5.2-12.26a4.78,4.78,0,0,1,1.32-5.53l16.5-15.32c-.82-.14-1.65-.29-2.48-.42l-15.35,14.25a6.74,6.74,0,0,0-1.83,7.8l5.2,12.26a4.72,4.72,0,0,1-.08,3.91l-5.71,12.07a4.74,4.74,0,0,1-3.13,2.58l-20.39,5.25a6.79,6.79,0,0,0-3.83,2.61l-16.25,22.57-7.93,11.35a6.4,6.4,0,0,0-.83,1.6l-8.2,22.81a4.76,4.76,0,0,1-3.84,3.12L286,307.57a25.12,25.12,0,0,0-16.87,10.18l-8.55,11.89a4.39,4.39,0,0,1-.48.57l-17,17.21a6.76,6.76,0,0,0-2,4.82,6.69,6.69,0,0,0,2,4.78,6.8,6.8,0,0,0,7,1.56L277.56,349a4.82,4.82,0,0,1,3.18,0l20.86,7.39a6.84,6.84,0,0,0,2.41.39l21.74-.47a4.69,4.69,0,0,1,3.26,1.18l18.32,15.95a6.78,6.78,0,0,0,7.11,1.13l19.42-8.25a4.68,4.68,0,0,1,2.56-.33l13.14,1.91a6.78,6.78,0,0,0,7.69-5.75L401,329.8a4.91,4.91,0,0,1,.41-1.45l8.78-19.08a6.75,6.75,0,0,0,.61-2.49l1.57-30.47a6.81,6.81,0,0,0-1.23-4.25l-21.51-30.59a4.81,4.81,0,0,1,.61-6.22l8.64-8.22a6.78,6.78,0,0,0,2.05-5.81l-1.31-9.84a4.78,4.78,0,0,1,6.72-5l9.37,4.26a4.79,4.79,0,0,1,2.73,5.19l-2.07,11.63a6.83,6.83,0,0,0,4.52,7.62l2,.68a6.76,6.76,0,0,0,4.81-.18l7.06-3a4.81,4.81,0,0,1,3.83,0l34.9,15.69a4.86,4.86,0,0,1,1.81,1.43l20.06,25.84a6.79,6.79,0,0,0,9.52,1.21,7,7,0,0,0,1.63-1.82l4.38-7.61c-.4-.64-.8-1.28-1.21-1.91Z"/><path d="M512.18,265.16l-.49-.29c.12.18.23.36.34.54Z"/><path d="M509.7,265.45c.41.63.81,1.27,1.21,1.91l1.12-1.95c-.11-.18-.22-.36-.34-.54l-1.24-.71Z"/><path d="M386.7,183.34l-1.36-1.47-1.44,1.34c.83.13,1.66.28,2.48.42Z"/><path d="M519.52,351.7a9.46,9.46,0,0,0,.09,2.13l3.17,18.89a6.78,6.78,0,0,1-2.06,6.09L498,400a6.82,6.82,0,0,1-4.09,1.8l-35.28,2.84a8.83,8.83,0,0,0-7.51,5.62l-6.47,16.94a6.87,6.87,0,0,1-2.14,2.91l-12.38,9.72a8.8,8.8,0,0,0-2.06,11.51l12.17,19.8a6.81,6.81,0,0,1-2.22,9.33l-.16.09h0a7.61,7.61,0,0,1-.81.4L388.6,501a7,7,0,0,1-2.11.49l-21,1.5a8.73,8.73,0,0,0-3.49,1L338.7,516.33a6.69,6.69,0,0,1-3.12.79l-11.53.12a8.77,8.77,0,0,0-8.7,8.87,8.82,8.82,0,0,0,4.22,7.42l25.05,16.53c1.3.07,2.59.12,3.89.16l-27.87-18.38a6.82,6.82,0,0,1-3.29-5.75,6.78,6.78,0,0,1,6.72-6.85l11.53-.12a8.77,8.77,0,0,0,4-1l23.28-12.38a6.72,6.72,0,0,1,2.7-.77l21-1.51a8.69,8.69,0,0,0,2.73-.64l48.49-20a9.63,9.63,0,0,0,1.24-.63l.17-.11a8.79,8.79,0,0,0,2.72-12l-12.16-19.8a6.78,6.78,0,0,1,1.59-8.89l12.37-9.72a8.76,8.76,0,0,0,2.78-3.77L453,410.94a6.83,6.83,0,0,1,5.8-4.34l35.28-2.84a8.74,8.74,0,0,0,5.29-2.33l22.69-21.16a8.8,8.8,0,0,0,2.67-7.88l-3.17-18.89a6.92,6.92,0,0,1-.08-1.64,6.78,6.78,0,0,1,7.26-6.25l9.51,1.15c-.08-.68-.15-1.36-.23-2l-9.08-1.1A8.81,8.81,0,0,0,519.52,351.7Z"/><path d="M347.85,552.19l1.1-1.67-.44-.3c-1.3,0-2.59-.09-3.89-.16Z"/><path d="M538.9,346.84l.24-2-1.09-.13c.08.68.15,1.36.23,2Z"/><path d="M237.17,484.25,229.39,464a5,5,0,0,1-.34-1.67l-.54-18.69a7.07,7.07,0,0,0-3.18-5.7L207.14,426a5,5,0,0,1-1.88-2.25l-9-21.19a5.11,5.11,0,0,1-.39-1.64,5,5,0,0,1,4.71-5.38l9.2-.62a7.11,7.11,0,0,0,5.43-3.17,7.06,7.06,0,0,0-2-9.78l-10.49-6.89a2.62,2.62,0,0,1-.34-.24l-15-11.82a7.08,7.08,0,0,0-3.73-1.48l-13.9-1c0,.66,0,1.33-.05,2l13.79,1a5,5,0,0,1,2.66,1.06l15,11.8a5.74,5.74,0,0,0,.5.36l10.48,6.88a5.06,5.06,0,0,1-2.43,9.28l-9.2.62a7.08,7.08,0,0,0-6,9.81l9,21.18a7.07,7.07,0,0,0,2.62,3.15l18.19,11.93a5.07,5.07,0,0,1,2.28,4.08l.54,18.7a6.86,6.86,0,0,0,.47,2.33L235.3,485a5.07,5.07,0,0,1-1.38,5.62l-8.26,7.54,1.45,1.38,8.14-7.43A7.1,7.1,0,0,0,237.17,484.25Z"/><path d="M225.13,498.6l1.35,1.48.63-.57-1.45-1.38Z"/><path d="M169.24,360.51l-.15,2,.54,0c0-.67,0-1.34.05-2Z"/><path d="M351.35,22.32a349.1,349.1,0,0,1,40.73,2.39q8.49,1,16.85,2.39a5.14,5.14,0,0,1,0-2q-8.22-1.37-16.57-2.35a346.37,346.37,0,0,0-111,4.78c.19.64.37,1.29.52,1.93A342.6,342.6,0,0,1,351.35,22.32Z"/><path d="M583.94,620q-9.08,8.26-18.78,15.95a345.76,345.76,0,0,1-77,46.09,10.1,10.1,0,0,1,1,1.74A347.58,347.58,0,0,0,566.4,637.5q9.68-7.65,18.71-15.88l0,0C584.67,621.07,584.3,620.53,583.94,620Z"/><path d="M585.86,114.05a9.78,9.78,0,0,1,1.27-1.55,342.49,342.49,0,0,0-168.2-85.61,5,5,0,0,1-.75,1.88A340.56,340.56,0,0,1,585.86,114.05Z"/><path d="M599.69,127.66Q611.27,139.74,621.8,153a343.62,343.62,0,0,1,58.66,110.87c.63-.21,1.27-.4,1.92-.58a345.71,345.71,0,0,0-59-111.53q-10.53-13.34-22.16-25.44a8.13,8.13,0,0,1-1,.93C600,127.42,599.87,127.54,599.69,127.66Z"/><path d="M138.91,96.4a345.73,345.73,0,0,1,70-43c-.26-.62-.5-1.24-.72-1.87a349.93,349.93,0,0,0-135.84,111A18.61,18.61,0,0,1,74,163.67,344.94,344.94,0,0,1,138.91,96.4Z"/><path d="M312,707.62a346,346,0,0,1-86.24-21.57,12.48,12.48,0,0,1-.8,1.84,348.16,348.16,0,0,0,86.81,21.72,353.21,353.21,0,0,0,41,2.4A342.58,342.58,0,0,0,470.79,691.1a10.08,10.08,0,0,1-.47-2A342.35,342.35,0,0,1,312,707.62Z"/><path d="M82.27,579.29A342.16,342.16,0,0,1,13.58,427.48a9.73,9.73,0,0,1-1.93.56,347.29,347.29,0,0,0,189,249.19,12.37,12.37,0,0,1,.8-1.83A342.51,342.51,0,0,1,82.27,579.29Z"/><path d="M693.49,406.21A341.41,341.41,0,0,1,615,587.78c.58.34,1.13.71,1.68,1.11a343.44,343.44,0,0,0,78.81-182.44,348.36,348.36,0,0,0-.18-83c-.66.11-1.32.19-2,.25A346.36,346.36,0,0,1,693.49,406.21Z"/><path d="M10.73,408.47a346.79,346.79,0,0,1,39.36-207c-.6-.31-1.17-.65-1.73-1A348.72,348.72,0,0,0,8.72,408.5,9.65,9.65,0,0,1,10.73,408.47Z"/><path d="M221.19,9.09a37.53,37.53,0,0,1,59.2,18.62c.32-.07.64-.15,1-.21a38.52,38.52,0,1,0-73.15,24.07l.9-.42A37.53,37.53,0,0,1,221.19,9.09Z"/><path d="M244.5,77.05a38.49,38.49,0,0,0,37.38-47.62l-1,.2A37.52,37.52,0,0,1,209.84,53l-.91.42A38.46,38.46,0,0,0,244.5,77.05Z"/><path d="M209.84,53c-.26-.62-.5-1.24-.73-1.87l-.9.42c.22.63.46,1.25.72,1.87Z"/><path d="M280.91,29.63l1-.2c-.15-.64-.33-1.29-.52-1.93-.33.06-.65.14-1,.21C280.58,28.35,280.75,29,280.91,29.63Z"/><path d="M221.81,9.87A36.28,36.28,0,0,1,244.38,2a37.1,37.1,0,0,1,4.33.25A36.5,36.5,0,0,1,279.4,27.92l1-.21a37.53,37.53,0,1,0-71.28,23.44l.92-.43A36.58,36.58,0,0,1,221.81,9.87Z"/><path d="M267.72,68a37.51,37.51,0,0,0,13.19-38.35l-1,.21a36.52,36.52,0,0,1-64.13,31.34,36.15,36.15,0,0,1-5-8.58l-.91.42a37.52,37.52,0,0,0,57.88,15Z"/><path d="M210,50.72l-.92.43c.23.63.47,1.25.73,1.87l.91-.42C210.49,52,210.25,51.35,210,50.72Z"/><path d="M279.92,29.84l1-.21c-.16-.64-.33-1.28-.52-1.92l-1,.21C279.59,28.56,279.77,29.2,279.92,29.84Z"/><path d="M60.52,204a22.23,22.23,0,0,0,13.87-4.84A22.37,22.37,0,0,0,74,163.67l-.59.81a21.93,21.93,0,0,1,3.88,3.77,21.45,21.45,0,0,1-26.75,32.31l-.47.88a22.28,22.28,0,0,0,7.77,2.4A21.7,21.7,0,0,0,60.52,204Z"/><path d="M43.64,194.85a21.44,21.44,0,0,1,28.15-31.5c.19-.27.38-.55.58-.82a22.43,22.43,0,0,0-24,37.9l.47-.88A21.75,21.75,0,0,1,43.64,194.85Z"/><path d="M50.56,200.56c-.59-.31-1.16-.65-1.73-1l-.47.88c.56.36,1.13.7,1.73,1Z"/><path d="M73.43,164.48l.59-.81a18.61,18.61,0,0,0-1.65-1.14c-.2.27-.39.55-.58.82C72.35,163.7,72.9,164.08,73.43,164.48Z"/><path d="M73.77,198.38a21.45,21.45,0,0,0,3.54-30.13,21.93,21.93,0,0,0-3.88-3.77l-.57.81a21,21,0,0,1,3.66,3.58A20.44,20.44,0,0,1,51,199.68l-.48.88A21.45,21.45,0,0,0,73.77,198.38Z"/><path d="M44.43,194.22a20.44,20.44,0,0,1,16-33.12,19.8,19.8,0,0,1,2.43.14,20.34,20.34,0,0,1,8.35,2.92l.58-.81a21.44,21.44,0,0,0-28.15,31.5,21.75,21.75,0,0,0,5.19,4.7l.48-.88A20.39,20.39,0,0,1,44.43,194.22Z"/><path d="M49.31,198.67l-.48.88c.57.36,1.14.7,1.73,1l.48-.88C50.45,199.37,49.87,199,49.31,198.67Z"/><path d="M72.86,165.29l.57-.81c-.53-.4-1.08-.78-1.64-1.13l-.58.81C71.77,164.51,72.32,164.89,72.86,165.29Z"/><path d="M223.65,673.37a13.32,13.32,0,0,0-18.71-2.19,13.14,13.14,0,0,0-3.5,4.22l.9.43a12.31,12.31,0,0,1,22.48,9.86l.92.36A13.33,13.33,0,0,0,223.65,673.37Z"/><path d="M220.83,691.29a12.31,12.31,0,0,1-19.28-13.62l-.91-.44a13.45,13.45,0,0,0-.67,2.85,13.32,13.32,0,0,0,11.68,14.77,12,12,0,0,0,1.58.1,13.29,13.29,0,0,0,11.71-7.06l-.93-.37A12.13,12.13,0,0,1,220.83,691.29Z"/><path d="M224.82,685.69a11.45,11.45,0,0,1-.81,1.83l.93.37a12.48,12.48,0,0,0,.8-1.84Z"/><path d="M202.34,675.83l-.9-.43a12.37,12.37,0,0,0-.8,1.83l.91.44A11.46,11.46,0,0,1,202.34,675.83Z"/><path d="M220.21,690.51A11.32,11.32,0,0,1,202,680.31a11.59,11.59,0,0,1,.48-2.21l-.89-.43a12.31,12.31,0,0,0,19.28,13.62,12.13,12.13,0,0,0,3.18-3.77l-.94-.37A11.26,11.26,0,0,1,220.21,690.51Z"/><path d="M222.86,674a12.29,12.29,0,0,0-20.52,1.84l.9.43a11.3,11.3,0,0,1,9.94-6,12.19,12.19,0,0,1,1.34.08,11.29,11.29,0,0,1,9.36,14.93l.94.37A12.31,12.31,0,0,0,222.86,674Z"/><path d="M223.07,687.15l.94.37a11.45,11.45,0,0,0,.81-1.83l-.94-.37A10.3,10.3,0,0,1,223.07,687.15Z"/><path d="M203.24,676.26l-.9-.43a11.46,11.46,0,0,0-.79,1.84l.89.43A11.13,11.13,0,0,1,203.24,676.26Z"/><path d="M5,412.12a7.88,7.88,0,0,0,6.32,13.94Q10,418.32,9,410.5A7.9,7.9,0,0,0,5,412.12Z"/><path d="M14.78,424.5a7.87,7.87,0,0,0-3.81-14c.64,5,1.41,10,2.27,14.93A7.94,7.94,0,0,0,14.78,424.5Z"/><path d="M9,410.5q1,7.81,2.36,15.56a7.55,7.55,0,0,0,1.92-.62c-.86-4.95-1.63-9.93-2.27-14.93a7.88,7.88,0,0,0-1.09-.08A7,7,0,0,0,9,410.5Z"/><path d="M2.92,423.82a8.88,8.88,0,0,1,5.92-14.33l-.12-1a9.88,9.88,0,0,0,0,19.63,9.18,9.18,0,0,0,1.17.07,10.05,10.05,0,0,0,1.74-.16c-.06-.33-.11-.66-.17-1A8.85,8.85,0,0,1,2.92,423.82Z"/><path d="M19.71,419.46a9.88,9.88,0,0,0-8.67-11l-.31,0c0,.34.08.67.12,1a8.88,8.88,0,0,1,4.55,15.8,8.63,8.63,0,0,1-2,1.18c.06.34.11.68.17,1a9.86,9.86,0,0,0,6.13-8Z"/><path d="M13.41,426.46a9,9,0,0,1-1.93.59c.06.33.11.66.17,1a9.73,9.73,0,0,0,1.93-.56C13.52,427.14,13.47,426.8,13.41,426.46Z"/><path d="M10.85,409.48c0-.34-.07-.67-.12-1a9.65,9.65,0,0,0-2,0l.12,1A9.65,9.65,0,0,1,10.85,409.48Z"/><path d="M3.7,423.2A7.85,7.85,0,0,1,9,410.5c-.05-.33-.08-.67-.12-1a8.88,8.88,0,1,0,2.64,17.56c-.06-.33-.11-.66-.16-1A7.88,7.88,0,0,1,3.7,423.2Z"/><path d="M16.86,412.8a8.81,8.81,0,0,0-6-3.32c.05.34.08.69.12,1a7.87,7.87,0,0,1,3.81,14,7.94,7.94,0,0,1-1.54.94c.06.34.11.68.17,1a8.63,8.63,0,0,0,2-1.18A8.88,8.88,0,0,0,16.86,412.8Z"/><path d="M11.32,426.06c0,.33.1.66.16,1a9,9,0,0,0,1.93-.59c-.06-.34-.11-.68-.17-1A7.55,7.55,0,0,1,11.32,426.06Z"/><path d="M9.88,410.43a7.88,7.88,0,0,1,1.09.08c0-.34-.07-.69-.12-1a9.65,9.65,0,0,0-2,0c0,.34.07.68.12,1A7,7,0,0,1,9.88,410.43Z"/><path d="M587.35,115.43a7.88,7.88,0,0,0,10.92,10.78Q592.92,120.69,587.35,115.43Z"/><path d="M599.82,124.93a7.89,7.89,0,0,0-10.63-11.59c-.21.17-.4.34-.59.52Q594.33,119.25,599.82,124.93Z"/><path d="M599.82,124.93q-5.51-5.67-11.22-11.07a7.85,7.85,0,0,0-1.25,1.57q5.58,5.25,10.92,10.78a6.63,6.63,0,0,0,.69-.49A8.05,8.05,0,0,0,599.82,124.93Z"/><path d="M586.32,125.66a9.74,9.74,0,0,0,6.6,3.69,9.41,9.41,0,0,0,1.17.07,9.78,9.78,0,0,0,5.6-1.76c-.23-.24-.47-.48-.7-.73a8.88,8.88,0,0,1-12.39-12.2l-.74-.68A9.88,9.88,0,0,0,586.32,125.66Z"/><path d="M588.57,112.56a8.88,8.88,0,0,1,11.95,13.08l.69.72A9.88,9.88,0,0,0,588,111.78a9.38,9.38,0,0,0-.82.72l.73.68C588.09,113,588.32,112.76,588.57,112.56Z"/><path d="M599.59,126.51q-.3.22-.6.42c.23.25.47.49.7.73.18-.12.35-.24.51-.37a8.13,8.13,0,0,0,1-.93l-.69-.72A9.65,9.65,0,0,1,599.59,126.51Z"/><path d="M586.6,114.73a9.29,9.29,0,0,1,1.26-1.55l-.73-.68a9.78,9.78,0,0,0-1.27,1.55Z"/><path d="M587.1,125A8.88,8.88,0,0,0,599,126.93l-.72-.72a7.88,7.88,0,0,1-10.92-10.78l-.75-.7A8.9,8.9,0,0,0,587.1,125Z"/><path d="M589.19,113.34a7.88,7.88,0,0,1,10.63,11.59l.7.71a8.88,8.88,0,0,0-11.95-13.08c-.25.2-.48.4-.71.62l.74.68C588.79,113.68,589,113.51,589.19,113.34Z"/><path d="M588.6,113.86l-.74-.68a9.29,9.29,0,0,0-1.26,1.55l.75.7A7.85,7.85,0,0,1,588.6,113.86Z"/><path d="M599,125.72a6.63,6.63,0,0,1-.69.49l.72.72q.3-.2.6-.42a9.65,9.65,0,0,0,.93-.87l-.7-.71A8.05,8.05,0,0,1,599,125.72Z"/><path d="M481,680c-.31,0-.62-.05-.93-.05a7.89,7.89,0,0,0-7.85,8.52q7-2.64,14-5.58A7.83,7.83,0,0,0,481,680Z"/><path d="M473.91,692.68a7.88,7.88,0,0,0,13.38-8.12q-7.25,3.09-14.62,5.85A7.88,7.88,0,0,0,473.91,692.68Z"/><path d="M487.29,684.56a7.41,7.41,0,0,0-1-1.66l-.05-.06q-6.94,2.94-14,5.58a8.14,8.14,0,0,0,.43,2Q480.05,687.67,487.29,684.56Z"/><path d="M481.25,678a9.88,9.88,0,0,0-11,8.67,9.58,9.58,0,0,0,0,2.51l1-.37a8.88,8.88,0,0,1,15.8-6.5.71.71,0,0,0,.1.14l.94-.4c-.09-.12-.17-.25-.26-.36A9.76,9.76,0,0,0,481.25,678Z"/><path d="M485.61,694.76a8.89,8.89,0,0,1-12.48-1.46,9.07,9.07,0,0,1-1.4-2.54l-.94.34a10,10,0,0,0,1.55,2.82,9.86,9.86,0,0,0,6.61,3.69,11.48,11.48,0,0,0,1.17.07,9.89,9.89,0,0,0,9-13.92l-.92.4A8.89,8.89,0,0,1,485.61,694.76Z"/><path d="M471.28,688.78l-1,.37a10.08,10.08,0,0,0,.47,2l.94-.34A8.48,8.48,0,0,1,471.28,688.78Z"/><path d="M487.18,682.42a8.85,8.85,0,0,1,1,1.74l.92-.4a10.1,10.1,0,0,0-1-1.74Z"/><path d="M487.94,688.71a7.88,7.88,0,0,1-15.27,1.7l-.94.35a9.07,9.07,0,0,0,1.4,2.54,8.89,8.89,0,0,0,15.08-9.14l-.92.4A7.92,7.92,0,0,1,487.94,688.71Z"/><path d="M474.59,680.81a8.87,8.87,0,0,0-3.31,8l1-.36a7.89,7.89,0,0,1,7.85-8.52c.31,0,.62,0,.93.05a7.83,7.83,0,0,1,5.22,2.89l.94-.42a.71.71,0,0,1-.1-.14A8.9,8.9,0,0,0,474.59,680.81Z"/><path d="M472.24,688.42l-1,.36a8.48,8.48,0,0,0,.45,2l.94-.35A8.14,8.14,0,0,1,472.24,688.42Z"/><path d="M486.29,682.9a7.41,7.41,0,0,1,1,1.66l.92-.4a8.85,8.85,0,0,0-1-1.74l-.94.42Z"/><path d="M417,26.34a3.13,3.13,0,0,0-2.73-3.47l-.37,0a3.08,3.08,0,0,0-3.05,2.56c2,.35,4.08.71,6.12,1.1A1,1,0,0,0,417,26.34Z"/><path d="M411.46,27.91a3.15,3.15,0,0,0,2.09,1.17,3.19,3.19,0,0,0,2.3-.66l.07-.07-4.72-.85A3.54,3.54,0,0,0,411.46,27.91Z"/><path d="M410.86,25.41a3.13,3.13,0,0,0,.34,2.09l4.72.85A3.07,3.07,0,0,0,417,26.51C414.94,26.12,412.9,25.76,410.86,25.41Z"/><path d="M411.36,22.74a4.11,4.11,0,0,1,6.6,4l1,.2c0-.11.06-.21.07-.32a5.11,5.11,0,0,0-10.11-1.5l1,.16A4.06,4.06,0,0,1,411.36,22.74Z"/><path d="M413.32,31.06c.2,0,.4,0,.6,0A5.1,5.1,0,0,0,417.09,30a4.87,4.87,0,0,0,1.09-1.22c-.36-.06-.71-.14-1.07-.21a3.94,3.94,0,0,1-.64.65A4.09,4.09,0,0,1,410,27.29l-1.09-.19a5.2,5.2,0,0,0,1,2A5.12,5.12,0,0,0,413.32,31.06Z"/><path d="M408.93,27.1l1.09.19a4.12,4.12,0,0,1-.14-2.06l-1-.16A5.14,5.14,0,0,0,408.93,27.1Z"/><path d="M417.11,28.56c.36.07.71.15,1.07.21a5,5,0,0,0,.75-1.88l-1-.2A4.08,4.08,0,0,1,417.11,28.56Z"/><path d="M412,23.52a3.08,3.08,0,0,1,1.93-.67l.37,0A3.13,3.13,0,0,1,417,26.34a1,1,0,0,1,0,.17l1,.18a4.11,4.11,0,0,0-6.6-4,4.06,4.06,0,0,0-1.48,2.49l1,.18A3.09,3.09,0,0,1,412,23.52Z"/><path d="M416.47,29.21a3.94,3.94,0,0,0,.64-.65l-1.19-.21-.07.07a3.19,3.19,0,0,1-2.3.66,3.15,3.15,0,0,1-2.09-1.17,3.54,3.54,0,0,1-.26-.41L410,27.29a4.09,4.09,0,0,0,6.45,1.92Z"/><path d="M410.86,25.41l-1-.18a4.12,4.12,0,0,0,.14,2.06l1.18.21A3.13,3.13,0,0,1,410.86,25.41Z"/><path d="M415.92,28.35l1.19.21a4.08,4.08,0,0,0,.85-1.87l-1-.18A3.07,3.07,0,0,1,415.92,28.35Z"/><path d="M667,311.49a29.78,29.78,0,0,1,13.72-46.61l-.3-1a30.8,30.8,0,0,0-14.2,48.2,30.54,30.54,0,0,0,20.55,11.48,32.06,32.06,0,0,0,3.65.22c.95,0,1.9-.06,2.85-.15,0-.33-.07-.66-.12-1A29.72,29.72,0,0,1,667,311.49Z"/><path d="M714.53,274a30.82,30.82,0,0,0-32.15-10.64c.1.32.2.64.29,1a29.76,29.76,0,1,1,12.51,58.12c0,.34.07.67.12,1A30.76,30.76,0,0,0,714.53,274Z"/><path d="M693.19,322.66c0,.34.08.67.12,1,.67-.06,1.33-.14,2-.25,0-.33-.08-.66-.12-1C694.52,322.52,693.86,322.6,693.19,322.66Z"/><path d="M680.76,264.88c.63-.22,1.27-.41,1.91-.59-.09-.32-.19-.64-.29-1-.65.18-1.29.37-1.92.58Z"/><path d="M667.83,310.87a28.79,28.79,0,0,1,13.21-45c-.09-.32-.18-.64-.28-.95a29.76,29.76,0,0,0,12.43,57.78c0-.33-.07-.67-.11-1A28.76,28.76,0,0,1,667.83,310.87Z"/><path d="M690.34,264.27a30.13,30.13,0,0,1,3.41.2,28.75,28.75,0,0,1,1.31,56.94c.05.33.08.67.12,1a29.76,29.76,0,1,0-12.51-58.12c.1.32.19.64.29,1A28.53,28.53,0,0,1,690.34,264.27Z"/><path d="M693.08,321.66c0,.33.07.67.11,1,.67-.06,1.33-.14,2-.25,0-.33-.07-.67-.12-1C694.4,321.52,693.74,321.6,693.08,321.66Z"/><path d="M681,265.83c.63-.22,1.27-.41,1.92-.58-.1-.32-.19-.64-.29-1-.64.18-1.28.37-1.91.59C680.86,265.19,681,265.51,681,265.83Z"/><path d="M685.91,283.67l.18.56c-.05-.19-.09-.38-.14-.57Z"/><path d="M691.8,301.07l1.48-.47-3-9.57-.53.17Q690.85,296.12,691.8,301.07Z"/><path d="M689.71,289.12,688,283.71c.45,1.84.9,3.68,1.32,5.52Z"/><path d="M689.34,289.23c-.42-1.84-.87-3.68-1.32-5.52l-.2-.63-1.87.58c0,.19.09.38.14.57l1.71,5.48Z"/><path d="M688.39,291.62l3,9.58.42-.13q-.94-4.95-2-9.87Z"/><path d="M686.77,290a10,10,0,0,1-6.3-.13l-7.87-2.84a1.3,1.3,0,0,0-.85,0,1.36,1.36,0,0,0-.78.65,1.32,1.32,0,0,0-.08,1l5.36,17.21,1.91-.59-5-15.92,6.59,2.38a12,12,0,0,0,7.58.16l.48-.15c-.15-.65-.28-1.31-.43-2Z"/><path d="M698.31,288.54a5.47,5.47,0,0,1,6.84,3.59l1.36,4.35,1.91-.6-1.36-4.35a7.48,7.48,0,0,0-9.35-4.91l-8,2.5.59,1.91Z"/><path d="M687.8,289.71l-.38.12c.15.65.28,1.31.43,2l.54-.17Z"/><path d="M689.77,291.2l.53-.17-.59-1.91-.37.11C689.49,289.89,689.62,290.54,689.77,291.2Z"/><path d="M689.34,289.23l-1.54.48.59,1.91,1.38-.42C689.62,290.54,689.49,289.89,689.34,289.23Z"/><path d="M588.86,589.36A23,23,0,0,0,583.94,620l.75-.67a21.93,21.93,0,0,1,29.66-30.76l.64-.77A23,23,0,0,0,588.86,589.36Z"/><path d="M620.31,593.76A21.95,21.95,0,0,1,585.86,621v0c-.24.23-.5.45-.74.67a22.94,22.94,0,0,0,36-28.48,22.46,22.46,0,0,0-4.42-4.25c-.22.26-.42.52-.64.77A21.81,21.81,0,0,1,620.31,593.76Z"/><path d="M584.69,619.31l-.75.67c.36.55.73,1.09,1.14,1.61l0,0c.24-.22.5-.44.74-.67C585.43,620.42,585.05,619.87,584.69,619.31Z"/><path d="M614.35,588.55a18.76,18.76,0,0,1,1.68,1.11c.22-.25.42-.51.64-.77-.55-.4-1.1-.77-1.68-1.11Z"/><path d="M589.48,590.14a21.94,21.94,0,0,0-4.79,29.17l.73-.69a20.94,20.94,0,0,1,28.28-29.31l.65-.76A21.93,21.93,0,0,0,589.48,590.14Z"/><path d="M619.52,594.38a20.95,20.95,0,1,1-32.87,26l-.06-.08-.74.68v0A21.95,21.95,0,1,0,616,589.66l-.64.76A20.59,20.59,0,0,1,619.52,594.38Z"/><path d="M615.39,590.42l.64-.76a18.76,18.76,0,0,0-1.68-1.11l-.65.76C614.28,589.65,614.84,590,615.39,590.42Z"/><path d="M585.42,618.62l-.73.69c.36.56.74,1.11,1.16,1.64l.74-.68Q586,619.46,585.42,618.62Z"/><rect x="597.5" y="596.07" width="2.09" height="3.92" transform="translate(-241.86 499.94) rotate(-38.32)"/><path d="M602.61,604.86l1.64-1.3-.32-.4c-.48.51-1,1-1.46,1.52Z"/><path d="M602.68,601.57l-.86-1.08-1.64,1.3,1,1.3C601.7,602.58,602.2,602.09,602.68,601.57Z"/><path d="M601.21,603.09l1.26,1.59c.48-.51,1-1,1.46-1.52l-1.25-1.59C602.2,602.09,601.7,602.58,601.21,603.09Z"/><path d="M599.05,605.33l-1.29-1.63-1.64,1.3,1.46,1.85C598.08,606.35,598.56,605.84,599.05,605.33Z"/><rect x="593.44" y="599.28" width="2.09" height="3.92" transform="translate(-244.72 498.11) rotate(-38.32)"/><path d="M598.54,608.07l1.65-1.3-1.14-1.44c-.49.51-1,1-1.47,1.52Z"/><path d="M610.73,600.6l4,5,1.57-1.24-3.91-4.94-.1-.13a7.6,7.6,0,0,0-2.82-2.18L608,598.74A5.61,5.61,0,0,1,610.73,600.6Z"/><path d="M596.58,620l1.57-1.24-4-5c-.1-.13-.17-.27-.26-.4-.49.47-1,1-1.46,1.43.06.07.1.15.16.22Z"/><path d="M595.11,605.79l1-.79-1.24-1.57-1,.79a7.67,7.67,0,0,0-2.41,8.7c.56-.53,1.09-1.08,1.64-1.61A5.64,5.64,0,0,1,595.11,605.79Z"/><path d="M602.83,599.69a5.49,5.49,0,0,1,2.61-1.11l1.87-2a7.62,7.62,0,0,0-5.72,1.58l-1,.79,1.24,1.57Z"/><rect x="596.81" y="600.96" width="3.09" height="2" transform="translate(-244.32 500.57) rotate(-38.31)"/><path d="M608,598.74l1.45-1.58a7.76,7.76,0,0,0-2.15-.61l-1.87,2A5.59,5.59,0,0,1,608,598.74Z"/><path d="M593.1,611.31c-.55.53-1.08,1.08-1.64,1.61a7.9,7.9,0,0,0,1,1.82c.5-.47,1-1,1.46-1.43A5.69,5.69,0,0,1,593.1,611.31Z"/><rect x="599.34" y="599.35" width="2.09" height="2" transform="translate(-242.9 501.56) rotate(-38.32)"/><rect x="595.27" y="602.56" width="2.09" height="2" transform="translate(-245.76 499.73) rotate(-38.32)"/><rect x="223.02" y="33.86" width="9.47" height="2" transform="translate(27.41 148.67) rotate(-38.3)"/><path d="M241.89,38.19c.76-.26,1.53-.49,2.29-.74l.88-3.07-1.53-1.93Z"/><rect x="246.72" y="45.76" width="7.14" height="2" transform="matrix(0.78, -0.62, 0.62, 0.78, 24.91, 165.23)"/><rect x="232.27" y="27.48" width="7.14" height="2" transform="matrix(0.78, -0.62, 0.62, 0.78, 33.13, 152.33)"/><path d="M239.45,54.05,242,45.22l-1.53-1.94-3.38,11.86a1.45,1.45,0,0,0,1,1.79,1.73,1.73,0,0,0,.38,0,1.49,1.49,0,0,0,.91-.31L246.53,51l-1.24-1.57Z"/><path d="M246.76,21.13l-2.56,9L245.73,32l3.42-12a1.47,1.47,0,0,0-.26-1.29,1.43,1.43,0,0,0-1-.54,1.4,1.4,0,0,0-1.07.3l-7.26,5.73,1.24,1.57Z"/><path d="M241.22,40.54l-.11.37,1.53,1.94.88-3.08Z"/><rect x="253.51" y="39.01" width="10.65" height="2" transform="translate(30.92 169.04) rotate(-38.3)"/><path d="M243.52,39.77l.66-2.32c-.76.25-1.53.48-2.29.74l-.67,2.35Z"/><rect x="254.95" y="44.21" width="2" height="4.72" transform="translate(26.27 168.73) rotate(-38.32)"/><path d="M252.47,43.76,254,42.52l-3.86-4.89-2,.64Z"/><rect x="236.18" y="20.19" width="2" height="5.23" transform="translate(36.95 151.98) rotate(-38.32)"/><path d="M245.06,34.38l1.74,2.22,2-.66L245.73,32Z"/><polygon points="244.2 30.08 240.83 25.81 239.26 27.05 243.53 32.45 244.2 30.08"/><path d="M248.12,38.27l2-.64-1.34-1.69-2,.66Z"/><rect x="238.42" y="24.64" width="2" height="2" transform="translate(35.67 153.97) rotate(-38.32)"/><polygon points="243.53 32.45 245.06 34.38 245.73 32.01 244.2 30.08 243.53 32.45"/><rect x="252.87" y="42.93" width="2" height="2" transform="translate(27.42 166.81) rotate(-38.3)"/><rect x="229.01" y="25.86" width="2" height="5.23" transform="translate(31.9 148.75) rotate(-38.32)"/><polygon points="241.97 45.22 245.29 49.43 246.86 48.19 242.64 42.84 241.97 45.22"/><rect x="247.78" y="49.87" width="2" height="4.72" transform="translate(21.21 165.51) rotate(-38.32)"/><path d="M233.66,31.47l-1.57,1.24,5.51,7,2-.7Z"/><path d="M240.9,40.65l-2,.68,1.54,2,.67-2.37Z"/><path d="M239.6,39l-2,.7,1.3,1.64,2-.68Z"/><rect x="245.7" y="48.59" width="2" height="2" transform="matrix(0.78, -0.62, 0.62, 0.78, 22.38, 163.61)"/><rect x="231.25" y="30.31" width="2" height="2" transform="translate(30.61 150.74) rotate(-38.31)"/><polygon points="242.64 42.84 241.11 40.91 240.44 43.28 241.97 45.22 242.64 42.84"/><path d="M586.09,487.55a5.21,5.21,0,0,1,1.07.56h0a5.25,5.25,0,0,1,.62.53,257.63,257.63,0,0,0,18.84-46l-2.07-.08A255.59,255.59,0,0,1,586.09,487.55Z"/><path d="M270.82,609.64l-1.2,1.7a255.66,255.66,0,0,0,88.56,15.8q7.31,0,14.64-.43c0-.67-.05-1.33,0-2A254,254,0,0,1,270.82,609.64Z"/><path d="M501.62,155.24c.19-.3.38-.59.58-.88s.37-.51.56-.75a256.83,256.83,0,0,0-121.74-43l.4,2A254.92,254.92,0,0,1,501.62,155.24Z"/><path d="M250.47,135.63l-.4-2a256,256,0,0,0-87.74,66.48c.55.39,1.07.79,1.59,1.21A254.31,254.31,0,0,1,250.47,135.63Z"/><path d="M107.82,422.29c-.64.2-1.28.38-1.93.54a256.61,256.61,0,0,0,54.9,112.22l1.19-1.69A254.59,254.59,0,0,1,107.82,422.29Z"/><path d="M581.31,496.21c-3.84,6.65-8,13.16-12.42,19.52a261.29,261.29,0,0,1-20,25.14c.44.51.86,1,1.26,1.58a263.8,263.8,0,0,0,20.41-25.57q6.78-9.67,12.59-19.82a4.79,4.79,0,0,1-1.7-.75Z"/><path d="M422.67,617c.22.63.41,1.27.58,1.91a256.92,256.92,0,0,0,76-33.16c-.47-.49-.93-1-1.37-1.5A255,255,0,0,1,422.67,617Z"/><path d="M110.06,304.46h0a5,5,0,0,1-1.92-.4A256,256,0,0,0,100,366c.67,0,1.34.06,2,.13A254.23,254.23,0,0,1,110.06,304.46Z"/><path d="M131.45,249.16c-.58-.33-1.15-.67-1.72-1a257.69,257.69,0,0,0-19,46.4,5.13,5.13,0,0,1,1.88.68A255.1,255.1,0,0,1,131.45,249.16Z"/><path d="M608.57,309.75l2.08.08a256.35,256.35,0,0,0-64.44-119.7c-.46.49-.93,1-1.42,1.41A254.36,254.36,0,0,1,608.57,309.75Z"/><path d="M169.28,240.43a29,29,0,0,0-5.36-39.12l-.64.77a28,28,0,0,1-31.38,46.2c-.16.29-.3.59-.45.88a29,29,0,0,0,37.83-8.73Z"/><path d="M129.4,246.72a28,28,0,1,1,32.19-45.92l.1.06c.21-.25.42-.51.64-.76l-.16-.12a29,29,0,1,0-33.34,47.56c.29.21.6.39.9.58l.46-.88Z"/><path d="M163.28,202.08l.64-.77c-.52-.42-1-.82-1.59-1.21-.22.25-.43.51-.64.76C162.24,201.25,162.76,201.66,163.28,202.08Z"/><path d="M131.9,248.28c-.58-.32-1.15-.67-1.71-1l-.46.88c.57.37,1.14.71,1.72,1C131.6,248.87,131.74,248.57,131.9,248.28Z"/><path d="M130,245.9a27,27,0,0,1,31-44.28h0c.22-.25.43-.51.65-.77l-.1-.06a28,28,0,1,0-32.19,45.92l.79.52c.15-.29.32-.58.48-.88C130.44,246.21,130.2,246.06,130,245.9Z"/><path d="M168.46,239.85a28,28,0,0,0-5.18-37.77l-.64.77a27,27,0,0,1,5,36.43,27.08,27.08,0,0,1-35.26,8.13c-.16.29-.33.58-.48.87A28,28,0,0,0,168.46,239.85Z"/><path d="M130.67,246.36c-.16.3-.33.59-.48.88.56.37,1.13.72,1.71,1,.15-.29.32-.58.48-.87Q131.51,246.92,130.67,246.36Z"/><path d="M162.64,202.85l.64-.77c-.52-.42-1-.83-1.59-1.22-.22.26-.43.52-.65.77C161.59,202,162.12,202.43,162.64,202.85Z"/><path d="M122.61,411.38A28.87,28.87,0,0,0,102,366.1c0,.33,0,.66,0,1a27.88,27.88,0,0,1,5.58,54.21c.06.32.14.65.21,1A28.7,28.7,0,0,0,122.61,411.38Z"/><path d="M83,417.63A27.87,27.87,0,0,1,100,367c0-.33,0-.66,0-1A28.87,28.87,0,1,0,104,423.24c.65-.11,1.29-.25,1.93-.41l-.21-1A27.8,27.8,0,0,1,83,417.63Z"/><path d="M107.61,421.31c-.64.2-1.28.38-1.93.54l.21,1c.65-.16,1.29-.34,1.93-.54C107.75,422,107.67,421.63,107.61,421.31Z"/><path d="M102,367.1c0-.34,0-.67,0-1-.66-.07-1.33-.11-2-.13,0,.32,0,.65,0,1C100.7,367,101.37,367,102,367.1Z"/><path d="M103.61,421.27A26.87,26.87,0,1,1,99,367.94c.34,0,.68,0,1,0,0-.35,0-.69,0-1a27.87,27.87,0,1,0,5.65,54.9l-.21-1C104.86,421,104.24,421.16,103.61,421.27Z"/><path d="M121.79,410.8A27.88,27.88,0,0,0,102,367.1c0,.34,0,.68,0,1a26.62,26.62,0,0,1,12.37,4.67h0a26.89,26.89,0,0,1-7,47.53c.06.32.14.65.21,1A27.81,27.81,0,0,0,121.79,410.8Z"/><path d="M102,368.13c0-.35,0-.69,0-1-.66-.08-1.33-.12-2-.15,0,.34,0,.68,0,1C100.69,368,101.36,368.05,102,368.13Z"/><path d="M105.47,420.87l.21,1c.65-.16,1.29-.34,1.93-.54-.07-.33-.15-.66-.21-1C106.76,420.53,106.12,420.71,105.47,420.87Z"/><path d="M541.23,148.21a27.42,27.42,0,0,1,4.28,41.2l.7.72a27.94,27.94,0,0,0,2.55-3.14,28.46,28.46,0,0,0-7-39.6h0a28.46,28.46,0,0,0-39,6.22l.82.56A27.44,27.44,0,0,1,541.23,148.21Z"/><path d="M497.48,175.6a28.43,28.43,0,0,0,47.31,15.94l-.7-.72a27.42,27.42,0,0,1-41.65-35l-.82-.56A28.22,28.22,0,0,0,497.48,175.6Z"/><path d="M501.62,155.24l.82.56.58-.87c.18-.26.37-.51.56-.76l-.82-.56c-.19.24-.38.49-.56.75S501.81,154.94,501.62,155.24Z"/><path d="M544.09,190.82l.7.72c.49-.45,1-.92,1.42-1.41l-.7-.72C545.05,189.9,544.58,190.37,544.09,190.82Z"/><path d="M525.52,144.25a26.42,26.42,0,0,1,21.6,41.59,25.77,25.77,0,0,1-2.31,2.86l.7.71a27.43,27.43,0,1,0-41.93-35.24l.83.57A26.45,26.45,0,0,1,525.52,144.25Z"/><path d="M509.74,193.14a27.43,27.43,0,0,0,34.35-2.32l-.7-.71a26.42,26.42,0,0,1-40.12-33.74l-.83-.57A27.44,27.44,0,0,0,509.74,193.14Z"/><path d="M503.84,155.51c.18-.27.38-.52.57-.77l-.83-.57c-.19.25-.38.5-.56.76l-.58.87.83.57C503.45,156.08,503.64,155.79,503.84,155.51Z"/><path d="M543.39,190.11l.7.71c.49-.45,1-.92,1.42-1.41l-.7-.71C544.36,189.19,543.88,189.66,543.39,190.11Z"/><path d="M542.46,535a33.48,33.48,0,0,0-44.61,49.23l.85-.55a32.47,32.47,0,1,1,49.47-42.08c.23-.25.47-.49.69-.74A33.42,33.42,0,0,0,542.46,535Z"/><path d="M549.84,581.06a32.47,32.47,0,0,1-45.23,8,33.1,33.1,0,0,1-4.53-3.85l-.86.57a33.92,33.92,0,0,0,4.82,4.09,33.48,33.48,0,0,0,46.08-47.38c-.23.26-.47.5-.7.76A32.47,32.47,0,0,1,549.84,581.06Z"/><path d="M548.17,541.61c.44.52.85,1,1.25,1.6.23-.26.47-.5.7-.76-.4-.54-.82-1.07-1.26-1.58C548.64,541.12,548.4,541.36,548.17,541.61Z"/><path d="M498.7,583.69l-.85.55c.44.51.9,1,1.37,1.5l.86-.57C499.61,584.69,499.14,584.2,498.7,583.69Z"/><path d="M554.24,557a31.48,31.48,0,0,1-49.06,31.23,32.59,32.59,0,0,1-4.25-3.58l-.85.55a33.1,33.1,0,0,0,4.53,3.85,32.47,32.47,0,0,0,44.81-45.81c-.22.25-.45.49-.68.74A31.35,31.35,0,0,1,554.24,557Z"/><path d="M541.89,535.83a32.48,32.48,0,0,0-43.19,47.86l.84-.55a31.48,31.48,0,0,1,41.77-46.49h0a31.39,31.39,0,0,1,6.18,5.7c.23-.25.46-.49.68-.74A32.74,32.74,0,0,0,541.89,535.83Z"/><path d="M548.74,544c.23-.25.46-.49.68-.74-.4-.55-.81-1.08-1.25-1.6-.22.25-.45.49-.68.74C547.92,542.87,548.34,543.4,548.74,544Z"/><path d="M499.54,583.14l-.84.55c.44.51.91,1,1.38,1.48l.85-.55C500.45,584.14,500,583.65,499.54,583.14Z"/><path d="M525.24,561.33l-.39.55,3.87-1.07c1.17-1,2.34-2.08,3.49-3.14l-6.68,1.85-1.31-17.88-2.09.15,1.36,18.55.11-.16Z"/><path d="M542.66,557l-.55-2-5.74,1.58c-1.09,1-2.19,2.08-3.3,3.09Z"/><path d="M533.07,559.6c1.11-1,2.21-2.05,3.3-3.09l-4.16,1.16c-1.15,1.06-2.32,2.1-3.49,3.14Z"/><polygon points="524.85 561.88 523.62 562.22 523.49 560.34 521.29 563.47 522.93 564.62 524.85 561.88"/><path d="M511.54,580.88l5.38-7.68q-2.56,2-5.18,3.9l-1.84,2.63Z"/><path d="M521,567.42l.76-1.09-1.64-1.15-3.51,5,.5.35C518.39,569.53,519.68,568.48,521,567.42Z"/><path d="M517.08,570.55l1.13.8,2.76-3.93C519.68,568.48,518.39,569.53,517.08,570.55Z"/><path d="M517,573.06l-1.64-1.14-3.63,5.18q2.61-1.92,5.18-3.9Z"/><polygon points="524.85 561.88 525.24 561.33 523.6 560.18 523.49 560.34 523.62 562.22 524.85 561.88"/><rect x="516.89" y="559.02" width="2.09" height="6.74" transform="translate(-239.88 663.67) rotate(-54.97)"/><path d="M527.35,570.27l1.2-1.71-3.16-2.22c-.55.46-1.1.94-1.66,1.4Z"/><path d="M523.69,565.15l-.76-.53-1.2,1.71.31.22C522.6,566.09,523.14,565.62,523.69,565.15Z"/><path d="M522,566.55l1.69,1.19c.56-.46,1.11-.94,1.66-1.4l-1.7-1.19C523.14,565.62,522.6,566.09,522,566.55Z"/><rect x="520.47" y="563.9" width="2.09" height="2" transform="translate(-240.4 667.76) rotate(-54.98)"/><path d="M522.63,577l1.21-1.71-5.06-3.54-1.73,1.34Z"/><path d="M516.58,570.2l-5.53-3.87-1.2,1.72,5.49,3.84.12-.1Z"/><path d="M517,573.06l0,0,1.73-1.34-.57-.4Z"/><path d="M515.34,571.89l0,0,.09-.13Z"/><path d="M517.08,570.55l-.5-.35-1.12,1.59Z"/><path d="M518.21,571.35l-1.13-.8-1.62,1.24-.09.13,1.64,1.14Z"/><path d="M160,221.21l-11.94,17-7.36-5.16c-.18.28-.35.57-.52.85l8.13,5.7L161.37,221l-8.42-5.9-.6.8Z"/><path d="M129.63,226.55l8.89,6.23c.17-.28.34-.57.52-.85l-8-5.62,11.93-17,7.76,5.44c.2-.27.41-.53.6-.8l-8.6-6Z"/><path d="M139,231.93c-.18.28-.35.57-.52.85l1.64,1.15c.17-.28.34-.57.52-.85Z"/><path d="M152.35,215.87l.6-.8-1.64-1.15c-.19.27-.4.53-.6.8Z"/><path d="M132.41,226.06l10.79-15.39,6.93,4.86c.19-.27.38-.55.58-.81L143,209.28l-11.93,17,8,5.62.52-.86Z"/><path d="M158.59,221.46,147.8,236.85l-6.59-4.63-.53.86,7.36,5.16,11.94-17-7.63-5.34c-.2.26-.39.54-.59.81Z"/><path d="M141.21,232.22l-1.65-1.15-.52.86,1.64,1.15Z"/><path d="M151.76,216.68c.2-.27.39-.55.59-.81l-1.64-1.15c-.2.26-.39.54-.58.81Z"/><path d="M282.43,593.07a2.78,2.78,0,0,0-.89-3.9,548.17,548.17,0,0,1-104-72.93l-.11-.08a2.78,2.78,0,0,0-3.86.71L162,533.36l.66.79,11.71-16.7a1.78,1.78,0,0,1,2.48-.46l.06,0a548,548,0,0,0,104.18,73,1.78,1.78,0,0,1,.52,2.47l0,.07-11.7,16.69,1,.36,11.55-16.48Z"/><path d="M247.34,641.39a1.92,1.92,0,0,1-2.6.5,548.1,548.1,0,0,1-104.18-73,1.92,1.92,0,0,1-.42-2.61l21.32-30.42c-.23-.26-.45-.53-.67-.79l-21.48,30.64a2.9,2.9,0,0,0,.59,3.93,549.7,549.7,0,0,0,104.33,73.13,2.91,2.91,0,0,0,3.93-.78l21.46-30.63-1-.35Z"/><path d="M162.64,534.15l-.66-.79-1.19,1.69c.22.26.44.53.67.79Z"/><path d="M269.85,609.28l-1.2,1.71,1,.35,1.2-1.7Z"/><path d="M281.59,592.52a1.78,1.78,0,0,0-.52-2.47,548,548,0,0,1-104.18-73l-.06,0a1.78,1.78,0,0,0-2.48.46l-11.71,16.7.67.78L175.17,518a.82.82,0,0,1,.66-.34.71.71,0,0,1,.4.11,549.14,549.14,0,0,0,104.29,73.11.74.74,0,0,1,.34.5.76.76,0,0,1-.13.62l-11.85,16.91c.32.13.64.24,1,.36l11.7-16.69Z"/><path d="M246.53,640.81a.93.93,0,0,1-1.25.24l-.07,0a548.29,548.29,0,0,1-104-72.94.9.9,0,0,1-.2-1.24l21.16-30.2-.66-.79-21.32,30.42a1.92,1.92,0,0,0,.42,2.61,548.1,548.1,0,0,0,104.18,73,1.92,1.92,0,0,0,2.6-.5L268.65,611c-.32-.13-.64-.24-1-.36Z"/><path d="M163.31,534.93l-.67-.78-1.18,1.69.66.79Z"/><path d="M267.68,610.63c.33.12.65.23,1,.36l1.2-1.71c-.33-.12-.65-.23-1-.36Z"/><path d="M254.92,158a2.77,2.77,0,0,0,1.25,1.72,2.72,2.72,0,0,0,1.44.4,2.48,2.48,0,0,0,.66-.08l.1,0a424.7,424.7,0,0,1,124.48-24.76l.26,0a2.78,2.78,0,0,0,2.14-3.28l-3.83-19.24-1-.09.8,4.05,3.08,15.48a1.78,1.78,0,0,1-1.37,2.1h-.09A426.09,426.09,0,0,0,258,159.06a1.77,1.77,0,0,1-2.14-1.3s0-.06,0-.09L251.4,135.2l-.93.43,4.42,22.24Z"/><path d="M244.24,99.21A1.92,1.92,0,0,1,245.68,97,425.77,425.77,0,0,1,370.46,72.16a1.91,1.91,0,0,1,2.18,1.51L380,110.56l1,.09-7.4-37.18a2.9,2.9,0,0,0-3.26-2.31A426.41,426.41,0,0,0,245.39,96a2.93,2.93,0,0,0-2.13,3.39l6.81,34.21.93-.43Z"/><path d="M251.4,135.2l-.4-2-.93.43.4,2Z"/><path d="M380.39,112.6l1,.09-.4-2-1-.09Z"/><path d="M255.89,157.76a1.77,1.77,0,0,0,2.14,1.3,426.09,426.09,0,0,1,124.78-24.82h.09a1.78,1.78,0,0,0,1.37-2.1l-3.08-15.48-.8-4.05-1-.09,3.94,19.82a.76.76,0,0,1-.57.91h0a426,426,0,0,0-125,24.85.79.79,0,0,1-.54-.1.8.8,0,0,1-.36-.53l-4.52-22.7-.93.43,4.47,22.47S255.88,157.73,255.89,157.76Z"/><path d="M245.22,99a.94.94,0,0,1,.7-1.08l.1,0A424.12,424.12,0,0,1,370.5,73.16h.12l.15,0a.92.92,0,0,1,.89.73L379,110.48l1,.08-7.34-36.89a1.91,1.91,0,0,0-2.18-1.51A425.77,425.77,0,0,0,245.68,97a1.92,1.92,0,0,0-1.44,2.23l6.76,34,.93-.43Z"/><path d="M251.93,132.76l-.93.43.4,2,.93-.43Z"/><path d="M379.35,112.51l1,.09-.41-2-1-.08Z"/><path d="M268.24,125.05l-.86-4.31a6.7,6.7,0,0,1,4.09-7.26c1.66-.65,2.48-1,4.14-1.66a4.32,4.32,0,0,1,5.78,2,4.73,4.73,0,0,1,.38,1.21l.86,4.31a6.82,6.82,0,0,1,0,1.86l1-.3a8.59,8.59,0,0,0-.08-1.75l-.85-4.28a6.14,6.14,0,0,0-.47-1.49,5.31,5.31,0,0,0-7.05-2.46l-4.15,1.66a7.68,7.68,0,0,0-4.69,8.37l.85,4.27a6,6,0,0,0,.32,1.12l.93-.35A4.83,4.83,0,0,1,268.24,125.05Z"/><path d="M278.59,126.76c-1.66.68-2.49,1-4.15,1.66a4.44,4.44,0,0,1-4.75-.75l-1,.38a5.52,5.52,0,0,0,2,1.38,5.44,5.44,0,0,0,2,.38,5.32,5.32,0,0,0,2.15-.46c1.67-.65,2.5-1,4.16-1.67h0a8,8,0,0,0,4.25-4.57c-.43.12-.84.27-1.27.4A6.92,6.92,0,0,1,278.59,126.76Z"/><path d="M268.57,126.14s0-.11-.07-.17l-.93.35.08.23a5.49,5.49,0,0,0,1,1.5l1-.38A4.31,4.31,0,0,1,268.57,126.14Z"/><path d="M282.65,121.18a6.84,6.84,0,0,1-.68,2.32c.43-.13.84-.28,1.27-.4a8.34,8.34,0,0,0,.45-2.22Z"/><path d="M278.19,125.84c-1.64.67-2.46,1-4.16,1.67a3.45,3.45,0,0,1-2.64.06,4.37,4.37,0,0,1-.61-.31l-1.09.41a4.44,4.44,0,0,0,4.75.75c1.66-.65,2.49-1,4.15-1.66A6.92,6.92,0,0,0,282,123.5l-1.44.46A6,6,0,0,1,278.19,125.84Z"/><path d="M282.63,119.32l-.86-4.31a4.73,4.73,0,0,0-.38-1.21,4.32,4.32,0,0,0-5.78-2c-1.66.68-2.48,1-4.14,1.66a6.7,6.7,0,0,0-4.09,7.26l.86,4.31a4.83,4.83,0,0,0,.26.92l.94-.35a3.32,3.32,0,0,1-.22-.77l-.85-4.27a5.66,5.66,0,0,1,3.46-6.16c1.67-.66,2.5-1,4.22-1.7a3.28,3.28,0,0,1,1.45-.34,3.34,3.34,0,0,1,3,1.86,3.67,3.67,0,0,1,.3,1l.85,4.27a5.81,5.81,0,0,1,0,2l1-.34A6.82,6.82,0,0,0,282.63,119.32Z"/><path d="M280.53,124l1.44-.46a6.84,6.84,0,0,0,.68-2.32l-1,.34A5.89,5.89,0,0,1,280.53,124Z"/><path d="M269.48,125.74a.56.56,0,0,1,0-.12l-.94.35c0,.06,0,.12.07.17a4.31,4.31,0,0,0,1.12,1.53l1.09-.41A3.5,3.5,0,0,1,269.48,125.74Z"/><path d="M360.48,104.57l-.87-4.35a7.75,7.75,0,0,0-7.54-6c-1.79,0-2.67,0-4.4,0a5.3,5.3,0,0,0-5.51,6.49l.86,4.35A8,8,0,0,0,346.6,110l2.25-.09a6.92,6.92,0,0,1-4.85-5l-.86-4.31a4.3,4.3,0,0,1,4.47-5.29c1.79,0,2.68,0,4.47,0a6.77,6.77,0,0,1,6.56,5.18l.85,4.31a4.41,4.41,0,0,1-2.32,5l1.73,0a5.43,5.43,0,0,0,.92-1.1A5.36,5.36,0,0,0,360.48,104.57Z"/><path d="M356.23,110.09a4.64,4.64,0,0,1-1.18.12c-1.78,0-2.69,0-4.47,0a6.67,6.67,0,0,1-1.73-.29l-2.25.09a8,8,0,0,0,4,1.2h1.2l3.26,0a5.62,5.62,0,0,0,1.42-.15,5.33,5.33,0,0,0,2.44-1.34l-1.73,0A4.56,4.56,0,0,1,356.23,110.09Z"/><path d="M359.49,104.76l-.85-4.31a6.77,6.77,0,0,0-6.56-5.18c-1.79,0-2.68,0-4.47,0a4.3,4.3,0,0,0-4.47,5.29l.86,4.31a6.92,6.92,0,0,0,4.85,5q4.17-.16,8.32-.2A4.41,4.41,0,0,0,359.49,104.76Zm-4.4,4.45h0l-3.27,0h-1.16a5.94,5.94,0,0,1-5.63-4.52l-.87-4.35a3.28,3.28,0,0,1,.4-2.5,3.24,3.24,0,0,1,2-1.48,3.35,3.35,0,0,1,.79-.09h.27c1.8,0,2.69,0,4.47,0a5.74,5.74,0,0,1,5.58,4.38l.86,4.35a3.41,3.41,0,0,1-2.52,4.11A3.14,3.14,0,0,1,355.09,109.21Z"/><path d="M355.05,110.21a4.64,4.64,0,0,0,1.18-.12,4.56,4.56,0,0,0,.94-.35q-4.16,0-8.32.2a6.67,6.67,0,0,0,1.73.29C352.36,110.23,353.27,110.23,355.05,110.21Z"/><path d="M646,311.05l-35.37-1.22c.07.33.16.67.24,1L646,312A1.9,1.9,0,0,1,647.8,314a748.2,748.2,0,0,1-4.39,127.15,1.89,1.89,0,0,1-1.94,1.78l-34.56-1.19c-.1.33-.19.66-.29,1l34.82,1.2h.09a2.87,2.87,0,0,0,2.88-2.66A752.78,752.78,0,0,0,648.8,314,2.87,2.87,0,0,0,646,311.05Z"/><path d="M581.9,440.82a1.8,1.8,0,0,1-1.75-1.86v0a748.08,748.08,0,0,0,4.39-127.14,1.81,1.81,0,0,1,1.82-1.78h.06l22.39.77c-.07-.34-.16-.67-.24-1l-22.2-.76a2.8,2.8,0,0,0-2.83,2.83,750.22,750.22,0,0,1-4.38,127v.14a2.81,2.81,0,0,0,.76,2,2.77,2.77,0,0,0,2,.88l22.68.78.3-1-7.18-.24Z"/><path d="M608.81,310.76l2.08.07c-.08-.33-.17-.67-.24-1l-2.08-.08C608.65,310.09,608.74,310.42,608.81,310.76Z"/><path d="M604.85,441.61l-.3,1,2.07.08c.1-.33.19-.66.29-1Z"/><path d="M581.93,439.82a.77.77,0,0,1-.56-.25.83.83,0,0,1-.22-.57,752.38,752.38,0,0,0,4.39-127.22.8.8,0,0,1,.24-.56.76.76,0,0,1,.6-.23l22.67.78-.24-1L586.42,310h-.06a1.81,1.81,0,0,0-1.82,1.78,748.08,748.08,0,0,1-4.39,127.14v0a1.8,1.8,0,0,0,1.75,1.86l15.77.55,7.18.24c.1-.32.19-.66.28-1Z"/><path d="M646,313a.9.9,0,0,1,.85,1,751.23,751.23,0,0,1-4.38,127,.87.87,0,0,1-.92.84l-34.31-1.19c-.09.33-.18.67-.28,1l34.56,1.19a1.89,1.89,0,0,0,1.94-1.78A748.2,748.2,0,0,0,647.8,314,1.9,1.9,0,0,0,646,312l-35.1-1.21c.07.34.14.68.22,1Z"/><path d="M605.13,440.62c-.09.33-.18.67-.28,1l2.06.08c.1-.33.19-.67.28-1Z"/><path d="M609.05,311.77l2.06.07c-.08-.33-.15-.67-.22-1l-2.08-.07Z"/><path d="M617.35,375.56l.55,0,.35-7.49a2.37,2.37,0,0,1,2.28-2.41l7.57.35a2.4,2.4,0,0,1,2.11,2.67l-.34,7.43,2,.1.34-7.38a4.42,4.42,0,0,0-4-4.82l-7.71-.35a4.39,4.39,0,0,0-3.16,1.44C617.45,368.61,617.44,372.08,617.35,375.56Z"/><path d="M616.79,387.32a4.25,4.25,0,0,0,.67-2.32l.35-7.42-.53,0C617.17,380.82,617,384.07,616.79,387.32Z"/><rect x="625.6" y="382.12" width="9.9" height="2" transform="translate(218.89 995.42) rotate(-87.37)"/><rect x="596.68" y="368.61" width="10.46" height="2" transform="translate(205.06 953.92) rotate(-87.37)"/><path d="M613.18,387.38l-8.84-.41a2.42,2.42,0,0,1-2.11-2.68l.34-7.41-2-.1-.34,7.36a4.42,4.42,0,0,0,3.95,4.82l9,.41a4,4,0,0,0,1.48-.3c.07-.82.14-1.64.2-2.46A2.34,2.34,0,0,1,613.18,387.38Z"/><path d="M616.79,387.32c.23-3.25.38-6.5.49-9.77l-1.47-.06-.35,7.47a2.42,2.42,0,0,1-.63,1.65c-.06.82-.13,1.64-.2,2.46A4.44,4.44,0,0,0,616.79,387.32Z"/><path d="M617.39,365.12a4.34,4.34,0,0,0-1.14,2.94l-.35,7.43,1.45.07C617.44,372.08,617.45,368.61,617.39,365.12Z"/><path d="M615.28,377.46c0-.66.05-1.33.07-2l-12.69-.58-.09,2Z"/><rect x="622.84" y="370.86" width="2" height="11.98" transform="translate(218.3 982.44) rotate(-87.33)"/><rect x="597.84" y="373.92" width="2" height="3.56" transform="translate(196.05 956.67) rotate(-87.37)"/><rect x="632.87" y="375.26" width="2" height="4.11" transform="translate(227.86 993.21) rotate(-87.37)"/><path d="M615.81,377.49l.09-2-.55,0c0,.67-.05,1.34-.07,2Z"/><rect x="600.62" y="374.83" width="2" height="2" transform="translate(198.42 959.46) rotate(-87.35)"/><rect x="629.82" y="376.18" width="2" height="2" transform="translate(225.07 990.01) rotate(-87.37)"/><path d="M617.35,375.56c0,.66-.05,1.33-.07,2l.53,0,.09-2Z"/><path d="M617.28,377.55c0-.66.05-1.33.07-2l-1.45-.07-.09,2Z"/><rect x="106.96" y="397.19" width="3.83" height="2" transform="translate(-279.69 258.82) rotate(-54.98)"/><path d="M110,389.24a3.25,3.25,0,0,1,.79,4.52l-.46.65,1.64,1.15.46-.65a5.24,5.24,0,0,0-1.28-7.3l-8.74-6.13c.05.85.11,1.71.17,2.56Z"/><path d="M95.88,384.3l1.63,1.15,2.32-3.31.62.43c0-.85-.09-1.69-.13-2.53l-1-.69Z"/><rect x="79.69" y="396.79" width="15.89" height="2" transform="translate(-288.37 241.16) rotate(-54.96)"/><rect x="92.53" y="387.08" width="3.83" height="2" transform="translate(-277.55 242.67) rotate(-54.97)"/><path d="M101,402l-7.81-5.47-1.15,1.64,7.81,5.47a5.19,5.19,0,0,0,2.75.94c-.1-.68-.2-1.36-.29-2A3.12,3.12,0,0,1,101,402Z"/><path d="M105.55,401.19a3.27,3.27,0,0,1-1.22,1c.09.68.19,1.37.28,2a5.22,5.22,0,0,0,2.58-1.93l.25-.37-1.63-1.14Z"/><path d="M103.46,402.52a3.18,3.18,0,0,1-1.11,0c.09.68.19,1.36.29,2a5.18,5.18,0,0,0,1.17-.07,5.57,5.57,0,0,0,.8-.22c-.09-.68-.19-1.37-.28-2A2.9,2.9,0,0,1,103.46,402.52Z"/><path d="M102.55,384c-.06-.85-.12-1.71-.17-2.56L100.32,380c0,.84.08,1.68.13,2.53Z"/><path d="M418.62,639.48a24.65,24.65,0,0,1-44.81-12.82l-1,.05a25.64,25.64,0,1,0,50.43-7.81l-1,.26A24.59,24.59,0,0,1,418.62,639.48Z"/><path d="M413.15,604.32h0a25.64,25.64,0,0,0-40.36,20.39l1-.06a24.65,24.65,0,0,1,47.93-7.41l1-.25A25.44,25.44,0,0,0,413.15,604.32Z"/><path d="M373.78,624.65l-1,.06c0,.67,0,1.33,0,2l1-.05Q373.75,625.66,373.78,624.65Z"/><path d="M421.71,617.24c.22.63.41,1.27.58,1.92l1-.26c-.17-.64-.36-1.28-.58-1.91Z"/><path d="M412.58,605.14a24.65,24.65,0,0,0-38.8,19.51l1-.07A23.65,23.65,0,0,1,412,606h0a23.44,23.44,0,0,1,8.72,11.51l1-.23A24.53,24.53,0,0,0,412.58,605.14Z"/><path d="M417.8,638.91a23.65,23.65,0,0,1-43-12.31l-1,.06a24.65,24.65,0,1,0,48.48-7.5l-1,.23A23.65,23.65,0,0,1,417.8,638.91Z"/><path d="M374.79,624.58l-1,.07q0,1,0,2l1-.06C374.78,625.93,374.77,625.26,374.79,624.58Z"/><path d="M421.31,619.39l1-.23c-.17-.65-.36-1.29-.58-1.92l-1,.23C421,618.1,421.14,618.74,421.31,619.39Z"/><path d="M101,390.34c-.07-.87-.16-1.74-.23-2.6l-3.27-2.29-1.14,1.64Z"/><path d="M103.15,391.84l6,4.21,1.15-1.64-7.38-5.17C103,390.11,103.07,391,103.15,391.84Z"/><rect x="92.72" y="382.08" width="2" height="3.86" transform="translate(-274.6 240.52) rotate(-55)"/><rect x="111.75" y="395.66" width="2" height="3.37" transform="translate(-277.41 261.79) rotate(-55)"/><path d="M102.92,389.24l-2.14-1.5c.07.86.16,1.73.23,2.6l2.14,1.5C103.07,391,103,390.11,102.92,389.24Z"/><rect x="95.12" y="384.69" width="2" height="2" transform="translate(-274.88 243.02) rotate(-54.97)"/><rect x="109.55" y="394.8" width="2" height="2" transform="translate(-277.03 259.17) rotate(-54.98)"/><path d="M104,399.54l1.83,1.29,1.15-1.64-3.29-2.3C103.77,397.77,103.87,398.66,104,399.54Z"/><rect x="108.4" y="400.44" width="2" height="3.37" transform="translate(-282.75 261.08) rotate(-55)"/><path d="M94.17,390.22,93,391.86l8.77,6.15c-.1-.89-.21-1.77-.3-2.65Z"/><rect x="89.37" y="386.86" width="2" height="3.86" transform="translate(-279.93 239.81) rotate(-55)"/><path d="M103.67,396.89l-2.18-1.53c.09.88.2,1.76.3,2.65l2.19,1.53C103.87,398.66,103.77,397.77,103.67,396.89Z"/><rect x="91.77" y="389.47" width="2" height="2" transform="translate(-280.22 242.33) rotate(-54.97)"/><rect x="106.2" y="399.58" width="2" height="2" transform="translate(-282.33 258.38) rotate(-54.96)"/><path d="M206.47,562a18.09,18.09,0,0,1,16.91,24.51l1.73,1.07A20.13,20.13,0,0,0,218,563.6h0a20.12,20.12,0,0,0-24.55,1.16l1.54,1.29A18.23,18.23,0,0,1,206.47,562Z"/><path d="M194.9,596.55a20.12,20.12,0,0,0,28-4.93,19.14,19.14,0,0,0,1.35-2.25c-.58-.34-1.15-.69-1.72-1a16.72,16.72,0,0,1-1.27,2.14,18.11,18.11,0,1,1-27.79-23.05L192,566.14a20,20,0,0,0,2.93,30.41Z"/><path d="M195,566.05l-1.54-1.29a19.07,19.07,0,0,0-1.47,1.38l1.52,1.28C194,566.93,194.47,566.48,195,566.05Z"/><path d="M222.55,588.33c.57.35,1.14.7,1.72,1q.47-.9.84-1.83l-1.73-1.07A17,17,0,0,1,222.55,588.33Z"/><path d="M394.32,641.23,391.47,625c-.66.09-1.33.16-2,.24l2.87,16.34Z"/><path d="M402.76,626a2.7,2.7,0,0,1-3.75.67l-3.29-2.31-2.9.41,5.06,3.55h0a.57.57,0,0,0,.13.08l.1.08h0a4.67,4.67,0,0,0,3.23.59,4.61,4.61,0,0,0,3-1.93l.66-.94-1.64-1.14Z"/><path d="M404.57,623.47l1.64,1.15.89-1.27a5.4,5.4,0,0,0,.5-1l-2.63.49Z"/><path d="M390.81,621a1.2,1.2,0,0,0-.9-.21,1.22,1.22,0,0,0-.76.47,1.15,1.15,0,0,0-.21.92l.19,1.12c1.4-.17,2.79-.35,4.18-.54Z"/><path d="M411.3,623l1.11-1.59c-.86.19-1.72.38-2.58.55Z"/><path d="M406,616.81h0l-1.15,1.64a2.67,2.67,0,0,1,1.14,2.22c1.45-.27,2.89-.54,4.33-.83Z"/><path d="M405,622.89l2.63-.49a4.66,4.66,0,0,0,.34-1.75l1.89,1.32c.86-.17,1.72-.36,2.58-.55l0,0-2.18-1.53c-1.44.29-2.88.56-4.33.83a2.69,2.69,0,0,1-.48,1.53Z"/><path d="M391.24,623.71l1.58,1.1,2.9-.41-2.41-1.68c-1.39.19-2.78.37-4.18.54l.35,2c.66-.08,1.33-.15,2-.24Z"/><rect x="405.96" y="624.74" width="2" height="3.25" transform="translate(-339.55 600.45) rotate(-55)"/><path d="M404.57,623.47l-.57-.4-.48.09c-.77.14-1.55.26-2.32.39l2.22,1.56Z"/><path d="M393.78,615.9l-1.15,1.64,6.22,4.36,2.82-.46Z"/><path d="M403.52,623.16l.48-.09-2.33-1.63-2.82.46,2.35,1.65C402,623.42,402.75,623.3,403.52,623.16Z"/><rect x="403.81" y="623.86" width="2" height="2" transform="translate(-339.22 597.74) rotate(-54.98)"/><path d="M586.75,493.93a3,3,0,0,0,.5-2.24,2.92,2.92,0,0,0-.48-1.16c-.84,1.56-1.69,3.13-2.57,4.68A3,3,0,0,0,586.75,493.93Z"/><path d="M584.29,489.21a3,3,0,0,0-2,5.25q1.44-2.55,2.82-5.13A3,3,0,0,0,584.29,489.21Z"/><path d="M584.2,495.21c.88-1.55,1.73-3.12,2.57-4.68a2.82,2.82,0,0,0-.76-.78,2.92,2.92,0,0,0-.87-.42q-1.38,2.58-2.82,5.13a2.41,2.41,0,0,0,.24.21A3,3,0,0,0,584.2,495.21Z"/><path d="M587.57,494.51a4,4,0,0,1-3.92,1.64c-.17.31-.35.61-.53.91a4.57,4.57,0,0,0,1.16.16,5.33,5.33,0,0,0,.88-.08,5,5,0,0,0,4.06-5.8,5.06,5.06,0,0,0-1.44-2.7c-.17.31-.32.63-.49.94A4,4,0,0,1,587.57,494.51Z"/><path d="M583.42,487.28a5,5,0,0,0-2.11,8.93c.16-.29.34-.58.5-.87a4,4,0,0,1,3.81-6.89l.47-.9A5,5,0,0,0,583.42,487.28Z"/><path d="M582,495.49l-.18-.15c-.16.29-.34.58-.5.87l.11.1a4.79,4.79,0,0,0,1.7.75c.18-.3.36-.6.53-.91A3.89,3.89,0,0,1,582,495.49Z"/><path d="M587.16,488.11a5.21,5.21,0,0,0-1.07-.56l-.47.9a4.17,4.17,0,0,1,1,.48,3.94,3.94,0,0,1,.7.65c.17-.31.32-.63.49-.94a5.25,5.25,0,0,0-.62-.53Z"/><path d="M581,489.91a4,4,0,0,0,.8,5.43c.17-.3.35-.59.51-.88a3,3,0,0,1,2.82-5.13c.16-.29.33-.58.48-.88A4,4,0,0,0,581,489.91Z"/><path d="M587.25,491.69a3,3,0,0,1-3,3.52c-.18.31-.37.62-.55.94a4,4,0,0,0,3.64-6.57l-.52.95A2.92,2.92,0,0,1,587.25,491.69Z"/><path d="M586,489.75a2.82,2.82,0,0,1,.76.78l.52-.95a3.94,3.94,0,0,0-.7-.65,4.17,4.17,0,0,0-1-.48c-.15.3-.32.59-.48.88A2.92,2.92,0,0,1,586,489.75Z"/><path d="M582.56,494.67a2.41,2.41,0,0,1-.24-.21c-.16.29-.34.58-.51.88l.18.15a3.89,3.89,0,0,0,1.66.66c.18-.32.37-.63.55-.94A3,3,0,0,1,582.56,494.67Z"/><path d="M110,296.45a3,3,0,0,0-1.73,5.47,2.38,2.38,0,0,0,.31.17q.75-2.82,1.57-5.63Z"/><path d="M112.49,301.18a3,3,0,0,0-.45-3.94q-.75,2.58-1.44,5.16A3,3,0,0,0,112.49,301.18Z"/><path d="M110.18,296.46q-.83,2.81-1.57,5.63a3,3,0,0,0,2,.31q.69-2.58,1.44-5.16a3.36,3.36,0,0,0-.29-.24A3,3,0,0,0,110.18,296.46Z"/><path d="M114.12,302.33a5,5,0,0,0-1.22-7h0l-.28-.16c-.1.33-.18.66-.28,1a4,4,0,0,1-2,7.24l-.27,1A5,5,0,0,0,114.12,302.33Z"/><path d="M107.73,302.74a4,4,0,0,1,2.73-7.25c.09-.32.18-.64.28-1a4.93,4.93,0,0,0-4.81,2.06,5,5,0,0,0,1.22,7,4.55,4.55,0,0,0,.95.5l.25-1A4.26,4.26,0,0,1,107.73,302.74Z"/><path d="M112.33,296.18h0c.1-.33.18-.66.28-1a5.13,5.13,0,0,0-1.88-.68c-.1.33-.19.65-.28,1A4,4,0,0,1,112.33,296.18Z"/><path d="M110.06,304.46l.27-1a4,4,0,0,1-2-.34l-.25,1a5,5,0,0,0,1.92.4Z"/><path d="M108.3,301.92a3,3,0,0,1,1.73-5.47h.15c.09-.32.18-.64.28-1a4,4,0,0,0-2.73,7.25,4.26,4.26,0,0,0,.62.35c.09-.34.17-.67.26-1A2.38,2.38,0,0,1,108.3,301.92Z"/><path d="M113.31,301.76a4,4,0,0,0-1-5.57l-.3,1.05a3,3,0,0,1,.45,3.94,3,3,0,0,1-1.89,1.22l-.27,1A4,4,0,0,0,113.31,301.76Z"/><path d="M111.75,297a3.36,3.36,0,0,1,.29.24l.3-1.05h0a4,4,0,0,0-1.87-.69c-.1.33-.19.65-.28,1A3,3,0,0,1,111.75,297Z"/><path d="M108.61,302.09c-.09.33-.17.66-.26,1a4,4,0,0,0,2,.34l.27-1A3,3,0,0,1,108.61,302.09Z"/><path d="M305.06,111.91l5.65-1-.37-2-5.64,1-2.38-12.83,5.64-1-.37-2L300,95.51l3.76,20.2,1.95-.42Z"/><path d="M322.81,118.39a3.4,3.4,0,0,1-2.72,4l-5,.94.37,2,5-.94a5.4,5.4,0,0,0,4.32-6.29l-.72-3.89-2,.29Z"/><path d="M307.44,124.7l-1.38-7.44c-.66.13-1.31.28-2,.42l1.74,9.35,7.61-1.41-.36-2Z"/><path d="M320.63,108a5.37,5.37,0,0,0,1.4-4.71l-1.15-6.18a5.39,5.39,0,0,0-6.28-4.3l-5,.94.37,2,5-.94a3.39,3.39,0,0,1,4,2.72l1.15,6.16a3.41,3.41,0,0,1-2.29,3.85l-.45.06v0l-5,.93.37,2,5-.94a3.13,3.13,0,0,0,.44-.1,3.39,3.39,0,0,1,3.51,2.78l0,.22,2-.28-.06-.34A5.38,5.38,0,0,0,320.63,108Z"/><path d="M305.69,115.29l-1.95.42.36,2c.65-.14,1.3-.29,2-.42Z"/><path d="M322.07,114.43l2-.29-.37-2-2,.28Z"/><rect x="307.23" y="90.16" width="2" height="3.78" transform="translate(-11.63 57.82) rotate(-10.52)"/><rect x="313.64" y="125.42" width="2" height="2.29" transform="translate(-17.82 59.57) rotate(-10.52)"/><path d="M311.69,116.15l1.4,7.5,2-.36-1.39-7.51C313,115.89,312.35,116,311.69,116.15Z"/><rect x="309.14" y="95.77" width="2" height="13.06" transform="translate(-13.46 58.34) rotate(-10.52)"/><path d="M311.33,114.18l2-.37-.61-3.31-2,.36Z"/><path d="M313.66,115.78l-.37-2-2,.37.36,2C312.35,116,313,115.89,313.66,115.78Z"/><rect x="310.51" y="108.7" width="2" height="2" transform="translate(-14.78 58.64) rotate(-10.51)"/><rect x="307.76" y="93.89" width="2" height="2" transform="translate(-12.14 57.97) rotate(-10.52)"/><rect x="313.25" y="123.45" width="2" height="2" transform="translate(-17.46 59.55) rotate(-10.53)"/><path d="M510.17,178.29l1.64,1.15,7.72-11L518,167.16Z"/><path d="M526.64,171.09l.13-.64,2,.38-.3,1.51,1.21.84a5.22,5.22,0,0,0,7.28-1.27l3.09-4.4a5.25,5.25,0,0,0-1.29-7.29l-10.65-7.47-9,12.77c1,.8,2,1.6,3,2.41Zm1.92-15.55,9,6.32a3.24,3.24,0,0,1,.79,4.5l-3.09,4.4a3.24,3.24,0,0,1-4.5.79l-9-6.32Z"/><path d="M522.15,167.93c-1-.81-2-1.61-3-2.41L518,167.16l1.56,1.25,1.09-1.55Z"/><path d="M526.64,171.09l-.1.51c.59.49,1.17,1,1.75,1.49l.14-.75Z"/><path d="M523.31,188l2,.39,2.57-13-1.74-1.53Z"/><path d="M526.1,173.83l1.74,1.53.45-2.27c-.58-.5-1.16-1-1.75-1.49Z"/><polygon points="526.77 170.45 526.64 171.09 528.43 172.34 528.73 170.84 526.77 170.45"/></g></g></svg>