<svg xmlns="http://www.w3.org/2000/svg" xmlns:xlink="http://www.w3.org/1999/xlink" width="853.144" height="653" viewBox="0 0 853.144 653">
  <defs>
    <clipPath id="clip-path">
      <rect id="Rectangle_632" data-name="Rectangle 632" width="261.679" height="168.75" rx="3.868" transform="translate(1895.343 1021.615)" fill="none"/>
    </clipPath>
  </defs>
  <g id="Group_1283" data-name="Group 1283" transform="translate(-6185 -3830)">
    <circle id="Ellipse_392" data-name="Ellipse 392" cx="326.5" cy="326.5" r="326.5" transform="translate(6186 3830)" fill="#f0eef8"/>
    <g id="Group_1282" data-name="Group 1282" transform="translate(4570.727 2955.947)" style="mix-blend-mode: darken;isolation: isolate">
      <rect id="Rectangle_627" data-name="Rectangle 627" width="261.679" height="168.75" rx="3.868" transform="translate(1895.343 1021.615)" stroke="#000" stroke-miterlimit="10" stroke-width="2"/>
      <path id="Path_1475" data-name="Path 1475" d="M2318.366,1282.556H2027.337l14.638,42.453h374.548a3.051,3.051,0,0,0,1.055-5.914Z" fill="#fff" stroke="#000" stroke-miterlimit="10" stroke-width="2"/>
      <ellipse id="Ellipse_302" data-name="Ellipse 302" cx="13.222" cy="23.966" rx="13.222" ry="23.966" transform="translate(2204.042 1163.848)" fill="#fff" stroke="#000" stroke-miterlimit="10" stroke-width="2"/>
      <g id="Group_925" data-name="Group 925">
        <g id="Group_924" data-name="Group 924" clip-path="url(#clip-path)">
          <g id="Group_923" data-name="Group 923">
            <g id="Group_921" data-name="Group 921">
              <rect id="Rectangle_628" data-name="Rectangle 628" width="178.2" height="124.262" rx="8.461" transform="translate(2144.577 1179.522) rotate(180)" fill="#fff" stroke="#000" stroke-miterlimit="10" stroke-width="2"/>
              <line id="Line_580" data-name="Line 580" x2="34.911" transform="translate(2091.882 1082.473)" fill="none" stroke="#000" stroke-miterlimit="10" stroke-width="2"/>
              <line id="Line_581" data-name="Line 581" x2="62.478" transform="translate(2068.651 1098.225)" fill="none" stroke="#000" stroke-miterlimit="10" stroke-width="2"/>
              <line id="Line_582" data-name="Line 582" x2="62.478" transform="translate(2068.651 1113.977)" fill="none" stroke="#000" stroke-miterlimit="10" stroke-width="2"/>
              <line id="Line_583" data-name="Line 583" x2="20.042" transform="translate(2091.882 1131.801)" fill="none" stroke="#000" stroke-miterlimit="10" stroke-width="2"/>
              <rect id="Rectangle_629" data-name="Rectangle 629" width="35.45" height="9.106" rx="4.553" transform="translate(2096.266 1155.938)" fill="none" stroke="#000" stroke-miterlimit="10" stroke-width="2"/>
              <line id="Line_584" data-name="Line 584" y2="11.545" transform="translate(2116.568 1122.05)" fill="none" stroke="#000" stroke-miterlimit="10" stroke-width="2"/>
            </g>
            <g id="Group_922" data-name="Group 922">
              <line id="Line_585" data-name="Line 585" x2="26.426" transform="translate(2030.648 1091.691)" fill="none" stroke="#000" stroke-miterlimit="10" stroke-width="2"/>
              <line id="Line_586" data-name="Line 586" x2="49.657" transform="translate(2030.648 1103.493)" fill="none" stroke="#000" stroke-miterlimit="10" stroke-width="2"/>
              <line id="Line_587" data-name="Line 587" x2="26.426" transform="translate(2030.648 1113.924)" fill="none" stroke="#000" stroke-miterlimit="10" stroke-width="2"/>
              <line id="Line_588" data-name="Line 588" x2="26.426" transform="translate(2030.648 1124.354)" fill="none" stroke="#000" stroke-miterlimit="10" stroke-width="2"/>
              <line id="Line_589" data-name="Line 589" x2="49.657" transform="translate(2030.648 1136.157)" fill="none" stroke="#000" stroke-miterlimit="10" stroke-width="2"/>
              <line id="Line_590" data-name="Line 590" x2="26.426" transform="translate(2030.648 1146.588)" fill="none" stroke="#000" stroke-miterlimit="10" stroke-width="2"/>
              <rect id="Rectangle_630" data-name="Rectangle 630" width="178.2" height="124.262" rx="8.461" transform="translate(2084.023 1157.482) rotate(180)" fill="#fff" stroke="#000" stroke-miterlimit="10" stroke-width="2"/>
              <circle id="Ellipse_303" data-name="Ellipse 303" cx="2.401" cy="2.401" r="2.401" transform="translate(1932.81 1040.291)"/>
              <circle id="Ellipse_304" data-name="Ellipse 304" cx="2.401" cy="2.401" r="2.401" transform="translate(1923.513 1040.291)"/>
              <circle id="Ellipse_305" data-name="Ellipse 305" cx="2.401" cy="2.401" r="2.401" transform="translate(1914.215 1040.291)"/>
              <rect id="Rectangle_631" data-name="Rectangle 631" width="141.706" height="40.092" rx="2.841" transform="translate(1923.513 1055.259)" stroke="#000" stroke-miterlimit="10" stroke-width="2"/>
              <line id="Line_591" data-name="Line 591" x2="51.144" transform="translate(1923.513 1108.123)" fill="none" stroke="#000" stroke-miterlimit="10" stroke-width="4"/>
              <line id="Line_592" data-name="Line 592" x2="37.76" transform="translate(1985.066 1108.123)" fill="none" stroke="#000" stroke-miterlimit="10" stroke-width="4"/>
              <line id="Line_593" data-name="Line 593" x2="26.426" transform="translate(1923.513 1121.527)" fill="none" stroke="#000" stroke-miterlimit="10" stroke-width="2"/>
              <line id="Line_594" data-name="Line 594" x2="62.478" transform="translate(1960.348 1121.527)" fill="none" stroke="#000" stroke-miterlimit="10" stroke-width="2"/>
              <line id="Line_595" data-name="Line 595" x2="49.657" transform="translate(1923.513 1133.33)" fill="none" stroke="#000" stroke-miterlimit="10" stroke-width="2"/>
              <line id="Line_596" data-name="Line 596" x2="39.247" transform="translate(1983.579 1133.33)" fill="none" stroke="#000" stroke-miterlimit="10" stroke-width="2"/>
              <line id="Line_597" data-name="Line 597" x2="26.426" transform="translate(1923.513 1143.76)" fill="none" stroke="#000" stroke-miterlimit="10" stroke-width="2"/>
              <line id="Line_598" data-name="Line 598" x2="62.478" transform="translate(1960.348 1143.76)" fill="none" stroke="#000" stroke-miterlimit="10" stroke-width="2"/>
              <circle id="Ellipse_306" data-name="Ellipse 306" cx="10.592" cy="10.592" r="10.592" transform="translate(2038.441 1105.99)" fill="none" stroke="#000" stroke-miterlimit="10" stroke-width="2"/>
              <line id="Line_599" data-name="Line 599" x2="20.828" transform="translate(2038.898 1135.511)" fill="none" stroke="#000" stroke-miterlimit="10" stroke-width="2"/>
              <line id="Line_600" data-name="Line 600" x2="14.677" transform="translate(2041.973 1143.06)" fill="none" stroke="#000" stroke-miterlimit="10" stroke-width="2"/>
            </g>
          </g>
        </g>
      </g>
      <rect id="Rectangle_633" data-name="Rectangle 633" width="290.294" height="198.192" rx="7.107" transform="translate(1881.035 1006.894)" fill="none" stroke="#000" stroke-miterlimit="10" stroke-width="2"/>
      <rect id="Rectangle_634" data-name="Rectangle 634" width="23.223" height="13.075" transform="translate(2014.372 1205.085)" fill="none" stroke="#000" stroke-miterlimit="10" stroke-width="2"/>
      <path id="Path_1476" data-name="Path 1476" d="M2074.015,1238.67h-95.741a2.927,2.927,0,0,1-1.681-5.322l21.63-15.187h55.522l21.935,15.175A2.927,2.927,0,0,1,2074.015,1238.67Z" stroke="#000" stroke-miterlimit="10" stroke-width="2"/>
      <path id="Path_1477" data-name="Path 1477" d="M2104.522,1132.626" fill="none" stroke="#000" stroke-miterlimit="10" stroke-width="2"/>
      <path id="Path_1478" data-name="Path 1478" d="M1789.325,1223.842H1682.442v-5.528h134.994v31.206a5.949,5.949,0,0,1-5.95,5.949H1682.442v-6.644H1809.3" fill="none" stroke="#000" stroke-miterlimit="10" stroke-width="2"/>
      <line id="Line_601" data-name="Line 601" x2="46.612" transform="translate(1688.302 1232.846)" fill="none" stroke="#000" stroke-miterlimit="10" stroke-width="2"/>
      <line id="Line_602" data-name="Line 602" x2="19.466" transform="translate(1688.302 1240.868)" fill="none" stroke="#000" stroke-miterlimit="10" stroke-width="2"/>
      <line id="Line_603" data-name="Line 603" x2="46.612" transform="translate(1745.79 1241.78)" fill="none" stroke="#000" stroke-miterlimit="10" stroke-width="2"/>
      <line id="Line_604" data-name="Line 604" y2="37.155" transform="translate(1809.302 1218.314)" fill="none" stroke="#000" stroke-miterlimit="10" stroke-width="2"/>
      <path id="Path_1479" data-name="Path 1479" d="M1789.325,1126.43H1682.442V1120.9H1812.3a5.141,5.141,0,0,1,5.141,5.141v26.065a5.949,5.949,0,0,1-5.95,5.949H1682.442v-6.644h118.509" fill="none" stroke="#000" stroke-miterlimit="10" stroke-width="2"/>
      <line id="Line_605" data-name="Line 605" x2="46.612" transform="translate(1688.302 1135.433)" fill="none" stroke="#000" stroke-miterlimit="10" stroke-width="2"/>
      <line id="Line_606" data-name="Line 606" x2="19.466" transform="translate(1688.302 1143.456)" fill="none" stroke="#000" stroke-miterlimit="10" stroke-width="2"/>
      <line id="Line_607" data-name="Line 607" x2="46.612" transform="translate(1745.79 1144.367)" fill="none" stroke="#000" stroke-miterlimit="10" stroke-width="2"/>
      <line id="Line_608" data-name="Line 608" y2="23.586" transform="translate(1809.302 1127.826)" fill="none" stroke="#000" stroke-miterlimit="10" stroke-width="2"/>
      <path id="Path_1480" data-name="Path 1480" d="M1800.58,1173.306H1693.7v-5.529h129.044a5.95,5.95,0,0,1,5.95,5.949v38.639a5.95,5.95,0,0,1-5.95,5.949H1693.7v-6.644h126.86" fill="none" stroke="#000" stroke-miterlimit="10" stroke-width="2"/>
      <rect id="Rectangle_635" data-name="Rectangle 635" width="126.86" height="5.834" transform="translate(1693.698 1211.67)" stroke="#000" stroke-miterlimit="10" stroke-width="2"/>
      <rect id="Rectangle_636" data-name="Rectangle 636" width="126.86" height="5.834" transform="translate(1693.698 1167.999)" stroke="#000" stroke-miterlimit="10" stroke-width="2"/>
      <line id="Line_609" data-name="Line 609" x2="9.733" transform="translate(1699.557 1195.691)" fill="none" stroke="#000" stroke-miterlimit="10" stroke-width="2"/>
      <line id="Line_610" data-name="Line 610" x2="35.357" transform="translate(1699.557 1203.713)" fill="none" stroke="#000" stroke-miterlimit="10" stroke-width="2"/>
      <line id="Line_611" data-name="Line 611" x2="11.255" transform="translate(1792.403 1204.625)" fill="none" stroke="#000" stroke-miterlimit="10" stroke-width="2"/>
      <line id="Line_612" data-name="Line 612" x1="19.466" transform="translate(1784.192 1183.775)" fill="none" stroke="#000" stroke-miterlimit="10" stroke-width="2"/>
      <line id="Line_613" data-name="Line 613" x1="46.612" transform="translate(1699.557 1184.687)" fill="none" stroke="#000" stroke-miterlimit="10" stroke-width="2"/>
      <line id="Line_614" data-name="Line 614" y1="50.537" transform="translate(1820.557 1167.777)" fill="none" stroke="#000" stroke-miterlimit="10" stroke-width="2"/>
      <path id="Path_1481" data-name="Path 1481" d="M1682.139,1155.579a20.105,20.105,0,0,0-12.277,18.522v4.766l12.145,12.145a2.027,2.027,0,0,0,3.46-1.434v-12.292a9.556,9.556,0,0,1,9.556-9.555h0" fill="none" stroke="#000" stroke-miterlimit="10" stroke-width="2"/>
      <path id="Path_1482" data-name="Path 1482" d="M1804.855,1155.625" fill="none" stroke="#000" stroke-miterlimit="10" stroke-width="2"/>
      <path id="Path_1483" data-name="Path 1483" d="M1817.739,1167.777a20.108,20.108,0,0,0,12.277-18.522v-4.766l-12.145-12.145" fill="none" stroke="#000" stroke-miterlimit="10" stroke-width="2"/>
      <path id="Path_1484" data-name="Path 1484" d="M1891.945,1284.2h-82.831a.434.434,0,0,1-.254-.785l36.539-26.424h82.831a.434.434,0,0,1,.254.785Z" fill="#fff" stroke="#000" stroke-miterlimit="10" stroke-width="2"/>
      <path id="Path_1485" data-name="Path 1485" d="M1754.068,1384.484h81.226l4.046,6.845H1864l5.875-6.845h90.361l54.134-39.613" fill="#fff" stroke="#000" stroke-miterlimit="10" stroke-width="2"/>
      <path id="Path_1486" data-name="Path 1486" d="M1758.044,1376.035v-7.7l60.169-30.784,22.838-3.915a122.91,122.91,0,0,1,51.795,2.213l6.524,1.7-50.2,37.955" fill="#fff" stroke="#000" stroke-miterlimit="10" stroke-width="2"/>
      <path id="Path_1487" data-name="Path 1487" d="M1873.838,1376.035h80.09l47.619-33.935a2.6,2.6,0,0,0-1.244-4.711l-27.869-2.874c-15.7-1.75-64.811,3.581-64.811,3.581" fill="#fff" stroke="#000" stroke-miterlimit="10" stroke-width="2"/>
      <line id="Line_615" data-name="Line 615" x2="57.093" transform="translate(1773.052 1369.149)" fill="#fff" stroke="#000" stroke-miterlimit="10" stroke-width="2"/>
      <line id="Line_616" data-name="Line 616" x2="57.093" transform="translate(1886.684 1363.229)" fill="#fff" stroke="#000" stroke-miterlimit="10" stroke-width="2"/>
      <line id="Line_617" data-name="Line 617" x2="57.093" transform="translate(1906.271 1352.914)" fill="#fff" stroke="#000" stroke-miterlimit="10" stroke-width="2"/>
      <line id="Line_618" data-name="Line 618" x2="15.263" transform="translate(1925.024 1344.865)" fill="#fff" stroke="#000" stroke-miterlimit="10" stroke-width="2"/>
      <line id="Line_619" data-name="Line 619" x2="15.263" transform="translate(1953.928 1344.865)" fill="#fff" stroke="#000" stroke-miterlimit="10" stroke-width="2"/>
      <line id="Line_620" data-name="Line 620" x2="40.708" transform="translate(1802.129 1358.072)" fill="#fff" stroke="#000" stroke-miterlimit="10" stroke-width="2"/>
      <line id="Line_621" data-name="Line 621" x2="10.224" transform="translate(1849.925 1358.072)" fill="#fff" stroke="#000" stroke-miterlimit="10" stroke-width="2"/>
      <line id="Line_622" data-name="Line 622" x2="13.24" transform="translate(1826.651 1346.34)" fill="#fff" stroke="#000" stroke-miterlimit="10" stroke-width="2"/>
      <line id="Line_623" data-name="Line 623" x2="33.269" transform="translate(1832.244 1346.34)" fill="#fff" stroke="#000" stroke-miterlimit="10" stroke-width="2"/>
      <line id="Line_624" data-name="Line 624" x2="50.252" transform="translate(1849.442 1265.326)" fill="none" stroke="#000" stroke-miterlimit="10" stroke-width="2"/>
      <line id="Line_625" data-name="Line 625" x2="33.928" transform="translate(1835.42 1273.987)" fill="none" stroke="#000" stroke-miterlimit="10" stroke-width="2"/>
      <line id="Line_626" data-name="Line 626" x2="13.566" transform="translate(1877.966 1273.987)" fill="none" stroke="#000" stroke-miterlimit="10" stroke-width="2"/>
      <rect id="Rectangle_637" data-name="Rectangle 637" width="127.525" height="173.73" rx="59.231" transform="translate(2223.981 1108.826)" fill="#fff" stroke="#000" stroke-miterlimit="10" stroke-width="2"/>
      <path id="Path_1488" data-name="Path 1488" d="M2351.506,1222.128v96.285h-78.8v-67" fill="#fff" stroke="#000" stroke-miterlimit="10" stroke-width="2"/>
      <path id="Path_1489" data-name="Path 1489" d="M2276.2,1184.5l-2.122,36.5a11.549,11.549,0,0,0,11.529,12.218h39.724a30.115,30.115,0,0,0,30.115-30.114v-45.458l5.542-18.393c0-5.234-6.1-9.5-7.123-14.046-1.131-5.029,2.37-11.59.116-15.771-2.375-4.4-9.8-5.007-13.272-8.468-3.439-3.433-3.981-10.839-8.338-13.342-4.148-2.383-10.932.784-15.774-.755-4.543-1.444-8.122-7.991-13.162-8.69-4.731-.657-10.044,4.622-15.119,4.622-5.1,0-10.452-5.276-15.236-4.613-5.066.7-8.7,7.252-13.292,8.7-4.879,1.532-11.685-1.66-15.893.707-4.417,2.486-5.082,9.909-8.594,13.313-3.556,3.446-11.023,3.964-13.478,8.35-2.344,4.188,1.055,10.825-.129,15.869-1.073,4.573-7.2,8.853-7.2,14.128h34.8a6.2,6.2,0,0,1,2.981,11.636l-8.553,4.69-.66,16.534,13.774-2.88a18.045,18.045,0,0,1,11.445,1.363A14.383,14.383,0,0,1,2276.2,1184.5Z" fill="#fff" stroke="#000" stroke-miterlimit="10" stroke-width="2"/>
      <path id="Path_1490" data-name="Path 1490" d="M2251.627,1184.515l4.674-1.45a4.342,4.342,0,0,1,5.63,4.147v16.4a4.788,4.788,0,0,1-4.788,4.788h-3.028" fill="#fff" stroke="#000" stroke-miterlimit="10" stroke-width="2"/>
      <line id="Line_627" data-name="Line 627" y1="3.488" x2="43.715" transform="translate(2204.362 1181.886)" fill="#fff" stroke="#000" stroke-miterlimit="10" stroke-width="2"/>
      <path id="Path_1491" data-name="Path 1491" d="M1746.4,1330.635H1615.273v-14.229H1746.4l13.272,7.115Z" fill="#fff" stroke="#000" stroke-miterlimit="10" stroke-width="2"/>
      <line id="Line_628" data-name="Line 628" y2="7.115" transform="translate(1626.606 1323.52)" fill="#fff" stroke="#000" stroke-miterlimit="10" stroke-width="2"/>
      <path id="Path_1492" data-name="Path 1492" d="M1629.28,1316.406v-8.159h35.7" fill="none" stroke="#000" stroke-miterlimit="10" stroke-width="2"/>
      <path id="Path_1493" data-name="Path 1493" d="M2065.735,1336.475" fill="#fff" stroke="#000" stroke-miterlimit="10" stroke-width="2"/>
      <line id="Line_629" data-name="Line 629" x1="121.669" transform="translate(1839.891 1232.536)" fill="#fff" stroke="#000" stroke-miterlimit="10" stroke-width="2"/>
      <line id="Line_630" data-name="Line 630" x1="121.669" transform="translate(2084.888 1232.536)" fill="#fff" stroke="#000" stroke-miterlimit="10" stroke-width="2"/>
      <path id="Path_1494" data-name="Path 1494" d="M2466.71,1359.391l-24.662-24.662a91.922,91.922,0,0,0-65-26.923H2243.384a135.322,135.322,0,0,0-95.688,39.635l-62.808,62.282" fill="#fff" stroke="#000" stroke-miterlimit="10" stroke-width="2"/>
      <path id="Path_1495" data-name="Path 1495" d="M2148.456,1337.945l2.382-15.518a7.171,7.171,0,0,0-7.089-8.26h0a7.17,7.17,0,0,0-7.04,5.8l-3.269,16.824-1.2-1.632-17.646-23.994a7.176,7.176,0,0,0-5.778-2.923h-32.034a7.172,7.172,0,0,0-6.991,8.773l4.615,20.159a16.644,16.644,0,0,0,1.93,4.814l12.327,20.67a16.655,16.655,0,0,1,2.054,11.657l-5.829,30.48" fill="#fff" stroke="#000" stroke-miterlimit="10" stroke-width="2"/>
      <line id="Line_631" data-name="Line 631" x2="10.546" transform="translate(2037.718 1290.404)" fill="#fff" stroke="#000" stroke-miterlimit="10" stroke-width="2"/>
      <path id="Path_1496" data-name="Path 1496" d="M2052.723,1299.323" fill="#fff" stroke="#000" stroke-miterlimit="10" stroke-width="2"/>
      <path id="Path_1497" data-name="Path 1497" d="M2042.177,1299.323" fill="#fff" stroke="#000" stroke-miterlimit="10" stroke-width="2"/>
      <line id="Line_632" data-name="Line 632" x2="10.546" transform="translate(2045.633 1308.242)" fill="#fff" stroke="#000" stroke-miterlimit="10" stroke-width="2"/>
      <line id="Line_633" data-name="Line 633" x2="10.546" transform="translate(2050.427 1317.161)" fill="#fff" stroke="#000" stroke-miterlimit="10" stroke-width="2"/>
      <line id="Line_634" data-name="Line 634" x2="10.546" transform="translate(2056.782 1290.404)" fill="#fff" stroke="#000" stroke-miterlimit="10" stroke-width="2"/>
      <line id="Line_635" data-name="Line 635" x2="10.546" transform="translate(2061.241 1299.323)" fill="#fff" stroke="#000" stroke-miterlimit="10" stroke-width="2"/>
      <path id="Path_1498" data-name="Path 1498" d="M2075.243,1308.242" fill="#fff" stroke="#000" stroke-miterlimit="10" stroke-width="2"/>
      <path id="Path_1499" data-name="Path 1499" d="M2087.952,1290.4" fill="#fff" stroke="#000" stroke-miterlimit="10" stroke-width="2"/>
      <path id="Path_1500" data-name="Path 1500" d="M2077.407,1290.4" fill="#fff" stroke="#000" stroke-miterlimit="10" stroke-width="2"/>
      <line id="Line_636" data-name="Line 636" x2="10.546" transform="translate(2081.866 1299.323)" fill="#fff" stroke="#000" stroke-miterlimit="10" stroke-width="2"/>
      <line id="Line_637" data-name="Line 637" x2="10.546" transform="translate(2096.471 1290.404)" fill="#fff" stroke="#000" stroke-miterlimit="10" stroke-width="2"/>
      <line id="Line_638" data-name="Line 638" x2="10.546" transform="translate(2116.473 1290.404)" fill="#fff" stroke="#000" stroke-miterlimit="10" stroke-width="2"/>
      <path id="Path_1501" data-name="Path 1501" d="M2131.478,1299.323" fill="#fff" stroke="#000" stroke-miterlimit="10" stroke-width="2"/>
      <path id="Path_1502" data-name="Path 1502" d="M2120.933,1299.323" fill="#fff" stroke="#000" stroke-miterlimit="10" stroke-width="2"/>
      <line id="Line_639" data-name="Line 639" x2="10.546" transform="translate(2124.389 1308.242)" fill="#fff" stroke="#000" stroke-miterlimit="10" stroke-width="2"/>
      <line id="Line_640" data-name="Line 640" x2="10.546" transform="translate(2129.183 1317.161)" fill="#fff" stroke="#000" stroke-miterlimit="10" stroke-width="2"/>
      <line id="Line_641" data-name="Line 641" x2="10.546" transform="translate(2135.537 1290.404)" fill="#fff" stroke="#000" stroke-miterlimit="10" stroke-width="2"/>
      <line id="Line_642" data-name="Line 642" x2="10.546" transform="translate(2139.997 1299.323)" fill="#fff" stroke="#000" stroke-miterlimit="10" stroke-width="2"/>
      <path id="Path_1503" data-name="Path 1503" d="M2154,1308.242" fill="#fff" stroke="#000" stroke-miterlimit="10" stroke-width="2"/>
      <path id="Path_1504" data-name="Path 1504" d="M2143.453,1308.242" fill="#fff" stroke="#000" stroke-miterlimit="10" stroke-width="2"/>
      <line id="Line_643" data-name="Line 643" x2="10.546" transform="translate(2148.247 1317.161)" fill="#fff" stroke="#000" stroke-miterlimit="10" stroke-width="2"/>
      <g id="Group_926" data-name="Group 926">
        <path id="Path_1505" data-name="Path 1505" d="M2186.81,1336.475" fill="#fff" stroke="#000" stroke-miterlimit="10" stroke-width="2"/>
        <line id="Line_644" data-name="Line 644" x1="10.546" transform="translate(2158.792 1290.404)" fill="#fff" stroke="#000" stroke-miterlimit="10" stroke-width="2"/>
        <path id="Path_1506" data-name="Path 1506" d="M2173.8,1299.323" fill="#fff" stroke="#000" stroke-miterlimit="10" stroke-width="2"/>
        <path id="Path_1507" data-name="Path 1507" d="M2163.252,1299.323" fill="#fff" stroke="#000" stroke-miterlimit="10" stroke-width="2"/>
        <line id="Line_645" data-name="Line 645" x2="10.546" transform="translate(2166.708 1308.242)" fill="#fff" stroke="#000" stroke-miterlimit="10" stroke-width="2"/>
        <line id="Line_646" data-name="Line 646" x2="10.546" transform="translate(2171.501 1317.161)" fill="#fff" stroke="#000" stroke-miterlimit="10" stroke-width="2"/>
        <line id="Line_647" data-name="Line 647" x2="10.546" transform="translate(2177.856 1290.404)" fill="#fff" stroke="#000" stroke-miterlimit="10" stroke-width="2"/>
        <line id="Line_648" data-name="Line 648" x2="10.546" transform="translate(2182.316 1299.323)" fill="#fff" stroke="#000" stroke-miterlimit="10" stroke-width="2"/>
        <path id="Path_1508" data-name="Path 1508" d="M2196.317,1308.242" fill="#fff" stroke="#000" stroke-miterlimit="10" stroke-width="2"/>
        <path id="Path_1509" data-name="Path 1509" d="M2209.027,1290.4" fill="#fff" stroke="#000" stroke-miterlimit="10" stroke-width="2"/>
        <path id="Path_1510" data-name="Path 1510" d="M2198.481,1290.4" fill="#fff" stroke="#000" stroke-miterlimit="10" stroke-width="2"/>
        <line id="Line_649" data-name="Line 649" x2="10.546" transform="translate(2202.941 1299.323)" fill="#fff" stroke="#000" stroke-miterlimit="10" stroke-width="2"/>
        <line id="Line_650" data-name="Line 650" x2="10.546" transform="translate(2217.545 1290.404)" fill="#fff" stroke="#000" stroke-miterlimit="10" stroke-width="2"/>
        <line id="Line_651" data-name="Line 651" x2="10.546" transform="translate(2222.005 1299.323)" fill="#fff" stroke="#000" stroke-miterlimit="10" stroke-width="2"/>
        <line id="Line_652" data-name="Line 652" x2="10.546" transform="translate(2237.548 1290.404)" fill="#fff" stroke="#000" stroke-miterlimit="10" stroke-width="2"/>
        <path id="Path_1511" data-name="Path 1511" d="M2252.553,1299.323" fill="#fff" stroke="#000" stroke-miterlimit="10" stroke-width="2"/>
        <path id="Path_1512" data-name="Path 1512" d="M2242.007,1299.323" fill="#fff" stroke="#000" stroke-miterlimit="10" stroke-width="2"/>
        <line id="Line_653" data-name="Line 653" x2="10.546" transform="translate(2256.612 1290.404)" fill="#fff" stroke="#000" stroke-miterlimit="10" stroke-width="2"/>
        <line id="Line_654" data-name="Line 654" x2="10.546" transform="translate(2261.071 1299.323)" fill="#fff" stroke="#000" stroke-miterlimit="10" stroke-width="2"/>
      </g>
      <line id="Line_655" data-name="Line 655" y2="18.878" transform="translate(2026.145 1281.255)" fill="#fff" stroke="#000" stroke-miterlimit="10" stroke-width="2"/>
      <path id="Path_1513" data-name="Path 1513" d="M2042.177,1323.236v10.926h22.528" fill="none" stroke="#000" stroke-miterlimit="10" stroke-width="2"/>
      <circle id="Ellipse_307" data-name="Ellipse 307" cx="14.355" cy="14.355" r="14.355" transform="translate(1687.2 984.602)" fill="none" stroke="#000" stroke-miterlimit="10" stroke-width="2"/>
      <circle id="Ellipse_308" data-name="Ellipse 308" cx="17.014" cy="17.014" r="17.014" transform="translate(2344.597 1025.268)" fill="none" stroke="#000" stroke-miterlimit="10" stroke-width="2"/>
      <circle id="Ellipse_309" data-name="Ellipse 309" cx="10.454" cy="10.454" r="10.454" transform="translate(1818.237 1027.793)" fill="none" stroke="#000" stroke-miterlimit="10" stroke-width="2"/>
      <circle id="Ellipse_310" data-name="Ellipse 310" cx="8.542" cy="8.542" r="8.542" transform="translate(2028.604 954.989)" fill="none" stroke="#000" stroke-miterlimit="10" stroke-width="2"/>
      <circle id="Ellipse_311" data-name="Ellipse 311" cx="10.454" cy="10.454" r="10.454" transform="translate(2256.704 982.628)" fill="none" stroke="#000" stroke-miterlimit="10" stroke-width="2"/>
      <g id="Group_927" data-name="Group 927">
        <line id="Line_656" data-name="Line 656" y2="20.288" transform="translate(1753.442 918.116)" fill="none" stroke="#000" stroke-miterlimit="10" stroke-width="2"/>
        <line id="Line_657" data-name="Line 657" x1="20.288" transform="translate(1743.298 928.26)" fill="none" stroke="#000" stroke-miterlimit="10" stroke-width="2"/>
      </g>
      <g id="Group_928" data-name="Group 928">
        <line id="Line_658" data-name="Line 658" y2="10.144" transform="translate(2208.414 1038.247)" fill="none" stroke="#000" stroke-miterlimit="10" stroke-width="2"/>
        <line id="Line_659" data-name="Line 659" x1="10.144" transform="translate(2203.342 1043.319)" fill="none" stroke="#000" stroke-miterlimit="10" stroke-width="2"/>
      </g>
      <g id="Group_929" data-name="Group 929">
        <line id="Line_660" data-name="Line 660" y2="16.371" transform="translate(1994.178 913.053)" fill="none" stroke="#000" stroke-miterlimit="10" stroke-width="2"/>
        <line id="Line_661" data-name="Line 661" x1="16.371" transform="translate(1985.993 921.238)" fill="none" stroke="#000" stroke-miterlimit="10" stroke-width="2"/>
      </g>
      <g id="Group_930" data-name="Group 930">
        <path id="Path_1514" data-name="Path 1514" d="M1773.174,1002.533c8.172,0,13.278.249,20.3-3.662,7.6-4.232,11.617-3.662,20.3-3.662a3.149,3.149,0,0,0,3.149-3.15V975.724a3.149,3.149,0,0,0-3.149-3.15c-8.683,0-12.7-.57-20.3,3.662-7.022,3.911-12.128,3.662-20.3,3.662a3.15,3.15,0,0,0-3.15,3.15v16.335A3.15,3.15,0,0,0,1773.174,1002.533Z" fill="#fff" stroke="#000" stroke-miterlimit="10" stroke-width="2"/>
      </g>
      <g id="Group_931" data-name="Group 931">
        <path id="Path_1515" data-name="Path 1515" d="M2175.043,928.67c7.173,0,11.655-.219,17.818,3.214,6.669,3.715,10.2,3.215,17.819,3.215a2.764,2.764,0,0,1,2.765,2.764V952.2a2.765,2.765,0,0,1-2.765,2.765c-7.621,0-11.15.5-17.819-3.214-6.163-3.434-10.645-3.215-17.818-3.215a2.765,2.765,0,0,1-2.765-2.765V931.435A2.765,2.765,0,0,1,2175.043,928.67Z" fill="#fff" stroke="#000" stroke-miterlimit="10" stroke-width="2"/>
      </g>
      <path id="Path_1516" data-name="Path 1516" d="M1746.4,1317.494v12.053a.651.651,0,0,0,.959.574l11.242-6.027a.651.651,0,0,0,0-1.148l-11.242-6.026A.651.651,0,0,0,1746.4,1317.494Z" stroke="#000" stroke-miterlimit="10" stroke-width="2"/>
      <path id="Path_1517" data-name="Path 1517" d="M1767.882,1318.584" stroke="#000" stroke-miterlimit="10" stroke-width="2"/>
    </g>
  </g>
</svg>
