<?xml version="1.0" encoding="utf-8"?>
<!-- Generator: Adobe Illustrator 25.1.0, SVG Export Plug-In . SVG Version: 6.00 Build 0)  -->
<svg version="1.1" id="Layer_1" xmlns="http://www.w3.org/2000/svg" xmlns:xlink="http://www.w3.org/1999/xlink" x="0px" y="0px"
	 viewBox="0 0 1011.7 589.9" style="enable-background:new 0 0 1011.7 589.9;" xml:space="preserve">
<style type="text/css">
	.st0{fill:none;}
</style>
<path class="st0" d="M501.4,69c5,0,9.1-4.1,9.1-9.1c0-5-4.1-9.1-9.1-9.1c-5,0-9.1,4.1-9.1,9.1C492.3,64.9,496.4,69,501.4,69z"/>
<path class="st0" d="M652.2,345.4c4.1,0,7.4-3.3,7.4-7.4V119.8c0-4.1-3.3-7.4-7.4-7.4H324.7c-4.1,0-7.4,3.3-7.4,7.4V338
	c0,4.1,3.3,7.4,7.4,7.4L652.2,345.4L652.2,345.4z M337.8,330c-3.1,0-5.6-2.5-5.6-5.6v-191c0-3.1,2.5-5.6,5.6-5.6H639
	c3.1,0,5.6,2.5,5.6,5.6v191c0,3.1-2.5,5.6-5.6,5.6l0,0H337.8z"/>
<polygon class="st0" points="615.1,500.2 617.3,489.1 606.9,489.1 "/>
<rect x="475.4" y="347.4" class="st0" width="25.5" height="12.5"/>
<path class="st0" d="M245.5,310.3v42.9l0,0v7.9h1.6c3.3,0,6-2.7,6-6.1v-45.8c0-3.3-2.7-6.1-6.1-6.1h-1.6L245.5,310.3L245.5,310.3z"
	/>
<path class="st0" d="M94.8,301.2c0.3,0,0.5,0,0.8,0l0,0H241c8.4-3.6,13.8-11.9,13.8-21V275l-13-13v21.6c0,4.4-3.6,8-8.1,8.1H79.7
	v-2.6c-7.9,3.8-12.9,11.8-12.9,20.6v5.2L80.9,329c0.3,0.3,0.6,0.4,1,0.4l0,0c0.4,0,0.7-0.1,1-0.4c0.3-0.3,0.4-0.6,0.4-1v-14.5
	c0-5.8,4-10.8,9.7-12.1v-0.2H94.8z"/>
<rect x="81.7" y="399.3" class="st0" width="148.5" height="5.9"/>
<path class="st0" d="M232.2,405.2h1.6c3.3,0,6-2.7,6.1-6.1v-36h-7.6V405.2z"/>
<path class="st0" d="M774.3,106.3c6.3,0,11.4-5.1,11.4-11.4c0-6.3-5.1-11.4-11.4-11.4s-11.4,5.1-11.4,11.4c0,0,0,0,0,0
	C762.9,101.2,768,106.3,774.3,106.3z"/>
<polygon points="606.9,489.1 617.3,489.1 617.5,488 606.1,488 "/>
<path d="M636.9,488l-0.2,1.2h28.1c0.7-0.4,1.4-0.8,2-1.2H636.9z"/>
<path d="M918.8,468.2c2,0.3,4,0.6,5.9,0.9l-49.4-18.2v1.3L918.8,468.2z"/>
<path d="M507.2,486.6l-16.9-49h287.4c-1.5-0.4-3.1-0.7-4.6-1.2H488.6l17.8,51.5v-1.3H507.2z"/>
<polygon points="508.4,488 508.4,489.1 541.4,489.1 541.1,488 "/>
<path d="M508.5,486.8l-16.5-48h287.9V438c-0.7-0.1-1.5-0.3-2.2-0.5H490.3l16.9,49h1.2v1.5h32.7l-0.3-1.2L508.5,486.8z"/>
<path d="M637.1,486.8l-0.2,1.2h30c0.7-0.4,1.4-0.8,2.2-1.2H637.1z"/>
<path d="M914,467.7c1.6,0.1,3.2,0.3,4.8,0.5l-43.4-16v1.3L914,467.7z"/>
<polygon points="617.5,488 617.7,486.8 605.2,486.8 606.1,488 "/>
<path d="M473.4,362.9v-0.6h-17.3l-25.4,17.8c-1,0.7-1.3,2.1-0.6,3.2c0.4,0.6,1.1,1,1.9,1h113.6c1.3,0,2.3-1,2.3-2.3
	c0-0.8-0.4-1.5-1-1.9l-25.7-17.8H503v0.6H473.4z"/>
<path d="M521.6,361.1l26,18c1.6,1.1,2,3.2,0.9,4.8c-0.7,1-1.7,1.5-2.9,1.5H432.1c-1.9,0-3.5-1.5-3.5-3.4c0-1.1,0.6-2.2,1.5-2.9
	l25.7-18h17.7V360h-18l-26,18.2c-2.1,1.5-2.6,4.4-1.1,6.5c0.9,1.2,2.3,2,3.8,2h113.6c2.6,0,4.7-2.1,4.7-4.7c0-1.5-0.8-3-2-3.8
	L522,360h-19v1.2L521.6,361.1z"/>
<rect x="475.4" y="360" width="25.5" height="1"/>
<path d="M430.1,379.2c-1.6,1.1-2,3.3-0.9,4.8c0.7,0.9,1.7,1.5,2.9,1.5h113.6c1.9,0,3.5-1.5,3.5-3.4c0-1.2-0.6-2.2-1.5-2.9l-26-18
	H503v1.2h18.3l25.7,17.8c1,0.7,1.3,2.1,0.6,3.2c-0.4,0.6-1.1,1-1.9,1H432.1c-1.3,0-2.3-1-2.3-2.3c0-0.7,0.4-1.4,1-1.9l25.4-17.8
	h17.3v-1.2h-17.7L430.1,379.2z"/>
<path d="M642.6,324.4v-191c0-2-1.6-3.6-3.6-3.6l0,0H337.8c-2,0-3.6,1.6-3.6,3.6v191c0,2,1.6,3.6,3.6,3.6H639
	C641,327.9,642.6,326.3,642.6,324.4L642.6,324.4z M629.9,306.1c0,6.1-4.9,11-11,11H427.5c-6.1,0-11-4.9-11-11V291h-60.8
	c-6.1,0-11-4.9-11-11V152.6c0-6.1,4.9-11,11-11H547c6.1,0,11,4.9,11,11v15.1h60.8c6.1,0,11,4.9,11,11L629.9,306.1z"/>
<path d="M644.6,324.4v-191c0-3.1-2.5-5.6-5.6-5.6H337.8c-3.1,0-5.6,2.5-5.6,5.6v191c0,3.1,2.5,5.6,5.6,5.6H639
	C642.1,329.9,644.6,327.4,644.6,324.4C644.6,324.4,644.6,324.4,644.6,324.4z M333.2,324.4v-191c0-2.5,2-4.6,4.6-4.6c0,0,0,0,0,0H639
	c2.5,0,4.6,2.1,4.6,4.6v0v191c0,2.5-2.1,4.6-4.6,4.6l0,0H337.8C335.3,329,333.2,326.9,333.2,324.4
	C333.2,324.4,333.2,324.4,333.2,324.4z"/>
<path d="M643.6,324.4v-191c0-2.5-2.1-4.6-4.6-4.6l0,0H337.8c-2.5,0-4.6,2-4.6,4.6c0,0,0,0,0,0v191c0,2.5,2,4.6,4.6,4.6c0,0,0,0,0,0
	H639C641.6,328.9,643.6,326.9,643.6,324.4C643.6,324.4,643.6,324.4,643.6,324.4z M337.8,328c-2,0-3.6-1.6-3.6-3.6v-191
	c0-2,1.6-3.6,3.6-3.6H639c2,0,3.6,1.6,3.6,3.6c0,0,0,0,0,0v191c0,2-1.6,3.6-3.6,3.6l0,0H337.8z"/>
<path d="M715.1,354.4c-8.7,0-15.7-12.7-15.7-28.4s7-28.4,15.7-28.4c2.6,0.1,5.1,1.2,7,3c0-0.4,0-0.8,0-1.2c-1.9-1.7-4.4-2.7-7-2.8
	c-9.2,0-16.7,13.2-16.7,29.4s7.5,29.4,16.7,29.4c2.6-0.1,5.1-1,7-2.7v-1.2C720.2,353.2,717.7,354.3,715.1,354.4z"/>
<path d="M715.1,353.4c-8.1,0-14.7-12.3-14.7-27.4c0-0.6,0-1.3,0-2h-0.6l-0.2-2l0.9-0.1c1-13.2,7.2-23.5,14.5-23.5
	c2.7,0.1,5.2,1.3,7,3.3v-1.3c-1.9-1.8-4.4-2.9-7-3c-8.7,0-15.7,12.7-15.7,28.4s7,28.4,15.7,28.4c2.6-0.1,5.1-1.1,7-3V350
	C720.3,352,717.8,353.2,715.1,353.4z"/>
<path d="M618.8,167.7H558v1h60.8c5.5,0,10,4.5,10,10v127.4c0,5.5-4.5,10-10,10H427.5c-5.5,0-10-4.5-10-10V291h-1v15.1
	c0,6.1,4.9,11,11,11l0,0h191.3c6.1,0,11-4.9,11-11l0,0V178.7C629.9,172.7,625,167.7,618.8,167.7
	C618.9,167.7,618.9,167.7,618.8,167.7z"/>
<path d="M618.8,169.7c5,0,9,4,9,9v127.4c0,5-4,9-9,9H427.5c-5,0-9-4-9-9V291h-1v15.1c0,5.5,4.5,10,10,10h191.3c5.5,0,10-4.5,10-10
	V178.7c0-5.5-4.5-10-10-10H558v1L618.8,169.7z"/>
<rect x="566.4" y="200" width="41.4" height="2"/>
<rect x="558" y="218.7" width="54.9" height="2"/>
<rect x="558" y="237.3" width="54.9" height="2"/>
<rect x="566.4" y="258.5" width="23.8" height="2"/>
<path d="M608.2,287.1H577c-3.5,0-6.4,2.9-6.4,6.4s2.9,6.4,6.4,6.4c0,0,0,0,0,0h31.2c3.5,0,6.4-2.9,6.4-6.4S611.8,287.1,608.2,287.1
	C608.3,287.1,608.2,287.1,608.2,287.1L608.2,287.1z M608.2,297.9H577c-2.4,0-4.4-2-4.4-4.4c0-2.4,2-4.4,4.4-4.4c0,0,0,0,0,0h31.2
	c2.4,0,4.4,2,4.4,4.4C612.7,295.9,610.7,297.9,608.2,297.9C608.2,297.9,608.2,297.9,608.2,297.9L608.2,297.9z"/>
<rect x="594.7" y="247.9" width="2" height="13.7"/>
<path d="M355.7,290c-5.5,0-10-4.5-10-10V152.6c0-5.5,4.5-10,10-10H547c5.5,0,10,4.5,10,10v15.1h1v-15.1c0-6.1-4.9-11-11-11H355.7
	c-6.1,0-11,4.9-11,11v127.3c0,6.1,4.9,11,11,11h60.8v-1L355.7,290z"/>
<rect x="557" y="169.7" width="1" height="49"/>
<path d="M558,279.9v-40.6h-1v40.6c0,5.5-4.5,10-10,10H418.5v1H547C553.1,290.9,558,286,558,279.9z"/>
<rect x="557" y="220.7" width="1" height="16.7"/>
<rect x="416.5" y="290" width="1" height="1"/>
<rect x="557" y="167.7" width="1" height="1"/>
<rect x="557" y="168.7" width="1" height="1"/>
<rect x="417.5" y="290" width="1" height="1"/>
<rect x="557" y="218.7" width="1" height="2"/>
<rect x="557" y="237.3" width="1" height="2"/>
<path d="M355.7,289c-5,0-9-4-9-9V152.6c0-5,4-9,9-9H547c5,0,9,4,9,9v15.1h1v-15.1c0-5.5-4.5-10-10-10H355.7c-5.5,0-10,4.5-10,10
	v127.3c0,5.5,4.5,10,10,10h60.8v-1L355.7,289z"/>
<rect x="556" y="220.7" width="1" height="16.7"/>
<rect x="556" y="169.7" width="1" height="49"/>
<path d="M557,279.9v-40.6h-1v40.6c0,5-4,9-9,9H418.5v1H547C552.5,289.9,557,285.4,557,279.9z"/>
<rect x="556" y="167.7" width="1" height="1"/>
<rect x="416.5" y="289" width="1" height="1"/>
<rect x="556" y="168.7" width="1" height="1"/>
<rect x="417.5" y="289" width="1" height="1"/>
<rect x="556" y="218.7" width="1" height="2"/>
<rect x="556" y="237.3" width="1" height="2"/>
<circle cx="380.5" cy="153.8" r="2.9"/>
<circle cx="369.5" cy="153.8" r="2.9"/>
<circle cx="358.5" cy="153.8" r="2.9"/>
<path d="M421.2,169.7H370c-1.3,0-2.4,1.1-2.4,2.4v40.8c0,1.3,1.1,2.4,2.4,2.4h46.5v-36.5C416.5,175.1,418.2,171.7,421.2,169.7z"/>
<path d="M418.5,178.7v36.5h112.9c1.3,0,2.4-1.1,2.4-2.4v-40.8c0-1.3-1.1-2.4-2.4-2.4H427.5C422.6,169.7,418.5,173.7,418.5,178.7
	C418.5,178.7,418.5,178.7,418.5,178.7z M493.7,210.9h31.3v2h-31.3L493.7,210.9z"/>
<path d="M416.5,178.7v36.5h1v-36.5c0-3.8,2.2-7.3,5.7-9h-2C418.2,171.8,416.5,175.1,416.5,178.7z"/>
<path d="M417.5,178.7v36.5h1v-36.5c0-5,4-9,9-9h-4.4C419.7,171.4,417.5,174.9,417.5,178.7z"/>
<rect x="493.7" y="210.9" width="31.4" height="2"/>
<path d="M370,216.2c-1.9,0-3.4-1.5-3.4-3.4v-40.8c0-1.9,1.5-3.4,3.4-3.4h53c1.4-0.7,3-1,4.6-1H370c-2.4,0-4.4,2-4.4,4.4v40.8
	c0,2.4,2,4.4,4.4,4.4h46.5v-1H370z"/>
<path d="M534.7,172.1v40.8c0,1.9-1.5,3.4-3.4,3.4H418.5v1h112.9c2.4,0,4.4-2,4.4-4.4v-40.8c0-0.8-0.2-1.7-0.7-2.4h-1.3
	C534.4,170.3,534.7,171.2,534.7,172.1z"/>
<path d="M427.5,168.7h106.6c-0.8-0.6-1.7-1-2.7-1H427.5c-1.6,0-3.1,0.3-4.6,1H427.5z"/>
<rect x="416.5" y="216.2" width="1" height="1"/>
<rect x="417.5" y="216.2" width="1" height="1"/>
<path d="M534.1,168.7h-2.7c0.9,0,1.8,0.4,2.4,1h1.2C534.8,169.3,534.5,169,534.1,168.7z"/>
<path d="M370,215.2c-1.3,0-2.4-1.1-2.4-2.4v-40.8c0-1.3,1.1-2.4,2.4-2.4h51.2c0.6-0.4,1.1-0.7,1.8-1h-53c-1.9,0-3.4,1.5-3.4,3.4
	v40.8c0,1.9,1.5,3.4,3.4,3.4h46.5v-1H370z"/>
<path d="M533.7,172.1v40.8c0,1.3-1.1,2.4-2.4,2.4H418.5v1h112.9c1.9,0,3.4-1.5,3.4-3.4v-40.8c0-0.9-0.4-1.7-1-2.4h-2.4
	C532.7,169.7,533.7,170.7,533.7,172.1C533.7,172.1,533.7,172.1,533.7,172.1z"/>
<path d="M423.2,169.7c1.4-0.7,2.8-1,4.4-1H423c-0.6,0.3-1.2,0.6-1.8,1H423.2z"/>
<rect x="416.5" y="215.2" width="1" height="1"/>
<rect x="417.5" y="215.2" width="1" height="1"/>
<path d="M423.2,169.7h110.6c-0.6-0.6-1.5-1-2.4-1H427.5C426,168.7,424.5,169,423.2,169.7z"/>
<rect x="366.6" y="229" width="49.9" height="4.7"/>
<rect x="418.5" y="229" width="8.8" height="4.7"/>
<rect x="416.5" y="229" width="1" height="4.7"/>
<rect x="417.5" y="229" width="1" height="4.7"/>
<rect x="439.7" y="229" width="44.8" height="4.7"/>
<rect x="366.6" y="246.3" width="31.4" height="2"/>
<rect x="410.3" y="246.3" width="6.1" height="2"/>
<rect x="418.5" y="246.3" width="66" height="2"/>
<rect x="416.5" y="246.3" width="1" height="2"/>
<rect x="417.5" y="246.3" width="1" height="2"/>
<rect x="366.6" y="260.3" width="49.9" height="2"/>
<rect x="418.5" y="260.3" width="7.1" height="2"/>
<rect x="416.5" y="260.3" width="1" height="2"/>
<rect x="417.5" y="260.3" width="1" height="2"/>
<rect x="437.9" y="260.3" width="46.6" height="2"/>
<rect x="366.6" y="272.7" width="31.4" height="2"/>
<rect x="410.3" y="272.7" width="6.1" height="2"/>
<rect x="418.5" y="272.7" width="66" height="2"/>
<rect x="416.5" y="272.7" width="1" height="2"/>
<rect x="417.5" y="272.7" width="1" height="2"/>
<path d="M515.5,253c-1.9,0-3.7-0.5-5.4-1.4h-3.5c5.1,4.5,12.7,4.5,17.8,0h-3.5C519.3,252.5,517.4,253,515.5,253z"/>
<path d="M504,241.4c0-0.7,0.1-1.4,0.2-2.1h-2c-0.1,0.7-0.2,1.4-0.2,2.1c0,3,1,5.9,2.8,8.2h2.6C505.3,247.5,504,244.5,504,241.4z"/>
<path d="M515.5,229.9c6.4,0,11.6,5.2,11.6,11.5c0,3.1-1.2,6.1-3.4,8.2h1.4v1.4c5.3-5.3,5.4-13.9,0.1-19.2
	c-5.3-5.3-13.9-5.4-19.2-0.1c-1.6,1.5-2.7,3.4-3.4,5.5h2.1C506.5,232.8,510.8,229.9,515.5,229.9z"/>
<path d="M504.8,237.3h-2.1c-0.2,0.7-0.4,1.3-0.5,2h2C504.3,238.6,504.5,237.9,504.8,237.3z"/>
<path d="M506.6,251.6h3.5c-1-0.5-1.9-1.2-2.7-2h-2.6C505.3,250.4,506,251,506.6,251.6z"/>
<path d="M523.7,249.6c-0.8,0.8-1.7,1.5-2.7,2h3.5c0.2-0.2,0.4-0.4,0.7-0.6v-1.4H523.7z"/>
<rect x="503.5" y="262.9" width="24.7" height="0.8"/>
<rect x="503.5" y="263.6" width="24.7" height="1.2"/>
<rect x="507.2" y="271.8" width="17.4" height="2"/>
<path d="M324.7,347.4h148.7v-2H324.7c-4.1,0-7.4-3.3-7.4-7.4V119.8c0-4.1,3.3-7.4,7.4-7.4h327.5c4.1,0,7.4,3.3,7.4,7.4V338
	c0,4.1-3.3,7.4-7.4,7.4H503v2h149.2c5.2,0,9.4-4.2,9.4-9.4V119.8c0-5.2-4.2-9.4-9.4-9.4H324.7c-5.2,0-9.4,4.2-9.4,9.4V338
	C315.3,343.2,319.5,347.4,324.7,347.4z"/>
<rect x="501" y="347.4" width="2" height="12.5"/>
<rect x="473.4" y="347.4" width="2" height="12.5"/>
<rect x="473.4" y="362.3" width="29.5" height="0.6"/>
<polygon points="501,360.9 475.4,360.9 475.4,360 473.4,360 473.4,361.1 503,361.1 503,360 501,360 "/>
<rect x="473.4" y="361.1" width="29.5" height="1.2"/>
<polygon points="473.4,345.4 473.4,347.4 475.4,347.4 501,347.4 503,347.4 503,345.4 "/>
<path d="M239.8,399.1c0,3.3-2.7,6-6.1,6.1h-1.6v1h-2v-1H81.7v-5.9h148.5v-2H79.7v9.9h154.1c4.4,0,8-3.6,8.1-8.1v-36h-2V399.1z"/>
<polygon points="93,362.1 93,361.1 79.7,361.1 79.7,369.7 207.5,369.7 207.5,367.7 81.7,367.7 81.7,363.1 93,363.1 93,362.1 "/>
<rect x="87.6" y="378.4" width="55.3" height="2"/>
<rect x="87.6" y="387.9" width="23.1" height="2"/>
<rect x="155.8" y="389" width="55.3" height="2"/>
<polygon points="231.2,399.3 230.2,399.3 230.2,405.2 232.2,405.2 232.2,363.1 230.2,363.1 230.2,397.3 231.2,397.3 "/>
<rect x="230.2" y="405.2" width="2" height="1"/>
<rect x="230.2" y="397.3" width="1" height="2"/>
<path d="M80.7,288.6c-0.3,0.1-0.7,0.3-1,0.5v2.6h154c4.4,0,8-3.6,8.1-8.1V262l-1.2-1.2l1.2-1.2v-7c0-3.9-3.2-7.1-7.1-7.1h-155v8.6
	h127.8v-2H81.7v-4.6h153c2.8,0,5.1,2.3,5.1,5.1v30.9c0,3.3-2.7,6.1-6.1,6.1h-152v-5.9h139.6v-2H79.7v5.1l0.2-0.1L80.7,288.6z"/>
<rect x="87.6" y="262.8" width="55.3" height="2"/>
<rect x="87.6" y="272.3" width="23.1" height="2"/>
<rect x="155.8" y="273.4" width="55.3" height="2"/>
<rect x="230.2" y="254.8" width="2" height="28"/>
<path d="M93,301.2v0.2c0.6-0.1,1.2-0.2,1.8-0.2H93z"/>
<path d="M245.5,301.4v1.7h1.6c3.3,0,6.1,2.7,6.1,6.1V355c0,3.3-2.7,6-6,6.1h-1.6v1h-3.7v1h5.3c4.4,0,8-3.6,8-8.1v-45.8
	c0-4.4-3.6-8-8-8.1h-2l-0.4,0.3H245.5z"/>
<polygon points="232.2,363.1 239.8,363.1 239.8,363.1 "/>
<path d="M95.6,301.4h145.3l-0.1-0.2l0.2-0.1H95.6V301.4z"/>
<polygon points="93,363.1 230.2,363.1 230.2,363.1 "/>
<polygon points="232.2,362.1 232.2,363.1 239.8,363.1 239.8,363.1 241.8,363.1 241.8,362.1 "/>
<rect x="93" y="362.1" width="137.1" height="1"/>
<polygon points="230.2,363.1 232.2,363.1 232.2,363.1 "/>
<rect x="230.2" y="362.1" width="2" height="1"/>
<rect x="95" y="355.2" width="148.5" height="4.9"/>
<polygon points="95,360.1 95,360.1 95,355.2 243.5,355.2 243.5,355.2 95,355.2 "/>
<rect x="245.5" y="353.2" width="0" height="7.9"/>
<polygon points="93,353.2 243.5,353.2 243.5,353.2 93,353.2 93,361.1 93,361.1 "/>
<rect x="93" y="361.1" width="0" height="1"/>
<polygon points="245.5,362.1 243.5,362.1 243.5,361.1 241.8,361.1 241.8,362.1 245.5,362.1 245.5,361.1 245.5,361.1 "/>
<polygon points="94,354.2 243.5,354.2 243.5,353.2 93,353.2 93,361.1 94,361.1 "/>
<polygon points="94,361.1 94,361.1 93,361.1 93,362.1 230.2,362.1 230.2,362.1 232.2,362.1 232.2,362.1 241.8,362.1 241.8,361.1 "/>
<rect x="230.2" y="362.1" width="2" height="0"/>
<polygon points="95,361.1 241.8,361.1 241.8,361.1 243.5,361.1 243.5,360.1 95,360.1 "/>
<polygon points="95,361.1 241.8,361.1 241.8,361.1 "/>
<rect x="241.8" y="361.1" width="1.7" height="0"/>
<polygon points="95,360.1 95,360.1 95,355.2 243.5,355.2 243.5,354.2 94,354.2 94,361.1 95,361.1 "/>
<polygon points="95,361.1 95,361.1 94,361.1 94,361.1 241.8,361.1 241.8,361.1 "/>
<polygon points="95,307.7 220.8,307.7 220.8,308.4 243.5,308.4 243.5,303.4 95,303.4 "/>
<polygon points="95,307.7 95,303.4 95,303.4 95,308.4 220.8,308.4 220.8,307.7 "/>
<rect x="245.5" y="303.2" width="0" height="7.2"/>
<polygon points="220.8,309.4 220.8,309.7 93,309.7 93,303.5 93,303.5 93,310.4 243.5,310.4 243.5,309.4 "/>
<path d="M94,303.2c-0.3,0-0.7,0.1-1,0.2v6.3h127.8v-0.4H94V303.2z"/>
<path d="M243.5,302.4v-0.3h2v1l0,0v-1.7h-0.7c-0.6,0.4-1.2,0.7-1.8,1H243.5z"/>
<polygon points="95.6,302.4 241.3,302.4 240.9,301.4 95.6,301.4 "/>
<rect x="95" y="303.2" width="148.5" height="0.3"/>
<rect x="220.8" y="308.3" width="22.7" height="1"/>
<path d="M95,308.3v-4.9l0,0v-0.3h148.5v-0.7H243c-0.5,0.2-0.9,0.5-1.4,0.7l-0.3-0.7H95.6v0.7c-0.5,0-1.1,0-1.6,0.1v6.1h126.8v-1H95z
	"/>
<rect x="101" y="334.3" width="11.5" height="2"/>
<rect x="101" y="343.8" width="41.9" height="2"/>
<rect x="211.1" y="344.9" width="13.4" height="2"/>
<rect x="201.4" y="320.1" width="23.1" height="2"/>
<rect x="101" y="321.2" width="55.3" height="2"/>
<rect x="243.5" y="310.3" width="2" height="42.9"/>
<rect x="243.5" y="355.2" width="0" height="4.9"/>
<rect x="243.5" y="355.2" width="0" height="0"/>
<polygon points="244.5,353.2 244.5,355.2 244.5,355.2 244.5,361.1 245.5,361.1 245.5,353.2 243.5,353.2 243.5,353.2 "/>
<polygon points="244.5,354.2 244.5,355.2 244.5,355.2 244.5,353.2 243.5,353.2 243.5,354.2 "/>
<polygon points="243.5,361.1 243.5,362.1 245.5,362.1 245.5,361.1 244.5,361.1 244.5,361.1 "/>
<polygon points="243.5,360.1 243.5,360.1 243.5,361.1 244.5,361.1 244.5,355.2 243.5,355.2 "/>
<rect x="243.5" y="361.1" width="1" height="0"/>
<polygon points="243.5,354.2 243.5,355.2 243.5,355.2 243.5,355.2 244.5,355.2 244.5,354.2 "/>
<rect x="243.5" y="303.4" width="0" height="4.9"/>
<polygon points="245.5,303.2 244.5,303.2 244.5,309.4 243.5,309.4 243.5,310.4 245.5,310.4 "/>
<polygon points="243.5,302.2 243.5,302.4 244.5,302.4 244.5,303.2 245.5,303.2 245.5,302.2 "/>
<polygon points="243.5,303.4 243.5,303.4 243.5,308.4 243.5,308.4 243.5,309.4 244.5,309.4 244.5,303.2 243.5,303.2 "/>
<rect x="243.5" y="302.4" width="1" height="0.7"/>
<path d="M94.8,301.2h0.8l0,0C95.3,301.1,95.1,301.1,94.8,301.2z"/>
<path d="M81.9,331.4L81.9,331.4c0.9,0,1.8-0.4,2.4-1c0.6-0.6,1-1.5,1-2.4v-14.6c0-4.7,3.2-8.8,7.8-10v-2l0,0l0,0
	c-5.7,1.2-9.8,6.2-9.8,12.1V328c0,0.4-0.2,0.7-0.4,1c-0.3,0.3-0.6,0.4-1,0.4l0,0c-0.4,0-0.7-0.1-1-0.4l-14.1-14.1v-5.2
	c0-8.8,5-16.8,12.9-20.6v-2.2c-9.1,3.9-14.9,12.9-14.9,22.8v6.1l14.7,14.7C80.1,331.1,81,331.4,81.9,331.4z"/>
<path d="M80.7,288.6l-0.8-1.8l-0.2,0.1v2.2C80,288.9,80.4,288.8,80.7,288.6z"/>
<path d="M95.6,301.2h-0.8c-0.6,0-1.2,0.1-1.8,0.2l0,0h2.6V301.2z"/>
<polygon points="93,301.4 93,301.4 93,303.5 93,303.5 "/>
<path d="M94,303.2v-0.8h1.6v-1H93v2C93.4,303.4,93.7,303.3,94,303.2z"/>
<path d="M95.6,302.4H94v0.8c0.5-0.1,1-0.1,1.6-0.1L95.6,302.4z"/>
<path d="M254.7,275v5.2c0,9.1-5.4,17.4-13.8,21h4.2c7.2-4.6,11.6-12.5,11.5-21v-6.1L242,259.4l-0.2,0.2v2.3L254.7,275z"/>
<polygon points="241.8,262 241.8,259.6 240.6,260.8 "/>
<path d="M240.8,301.2l0.1,0.2h3.9l0.4-0.3H241L240.8,301.2z"/>
<path d="M243,302.4c0.6-0.3,1.2-0.6,1.8-1h-3.9l0.4,1H243z"/>
<path d="M243,302.4h-1.7l0.3,0.7C242,302.9,242.5,302.6,243,302.4z"/>
<path d="M273.7,407l-43.6,31.5c-0.4,0.3-0.6,0.7-0.6,1.2c0,0.8,0.7,1.5,1.5,1.5h98.6l43.6-31.5c0.4-0.3,0.6-0.7,0.6-1.2
	c0-0.8-0.7-1.5-1.5-1.5H273.7z M372.8,408.5c0,0.2-0.1,0.3-0.2,0.4l-43.4,31.3h-98.2c-0.3,0-0.5-0.2-0.5-0.5c0,0,0,0,0,0
	c0-0.2,0.1-0.3,0.2-0.4L274,408h98.3C372.5,408,372.7,408.2,372.8,408.5L372.8,408.5z"/>
<path d="M230.6,439.3c-0.1,0.1-0.2,0.3-0.2,0.4c0,0.3,0.2,0.5,0.5,0.5c0,0,0,0,0,0h98.2l43.4-31.3c0.1-0.1,0.2-0.3,0.2-0.4
	c0-0.3-0.2-0.5-0.5-0.5c0,0,0,0,0,0H274L230.6,439.3z M370.7,409l-41.9,30.3h-96.4l41.9-30.3H370.7z"/>
<polygon points="472.3,512.6 474.4,512.2 410.2,559.2 303,559.2 296,567.3 266.8,567.3 262,559.2 165.6,559.2 172.2,558.2 
	165.6,558.2 165.6,560.2 261.4,560.2 266.2,568.3 296.5,568.3 303.5,560.2 410.5,560.2 475,513 473.8,511.4 "/>
<polygon points="262,559.2 266.8,567.3 296,567.3 303,559.2 410.2,559.2 474.4,512.2 472.3,512.6 409.9,558.2 302.5,558.2 
	295.6,566.3 267.4,566.3 262.6,558.2 172.2,558.2 165.6,559.2 "/>
<polygon points="171.4,549.2 171.4,549.2 170.4,549.2 "/>
<path d="M241.7,503.5l27.1-4.6c20.4-3.5,41.4-2.6,61.4,2.6l7.7,2l-48.8,36.9l2.1-0.3l48.9-37l-9.7-2.5c-20.2-5.3-41.3-6.2-61.9-2.6
	l-27.1,4.6h-0.1l-71.5,36.6l-0.5,0.3v9.7h1v-9.1L241.7,503.5z"/>
<polygon points="278.5,548.6 279.1,549.4 291.3,540.1 289.2,540.4 "/>
<path d="M242.1,504.5l26.9-4.6c20.3-3.5,41.1-2.6,61,2.6l5.7,1.5l-48.6,36.7l2.1-0.3l48.8-36.9l-7.7-2c-20.1-5.2-41-6.1-61.4-2.6
	l-27.1,4.6l-71.4,36.5v9.1h1v-8.5L242.1,504.5z"/>
<polygon points="287.2,540.7 277.9,547.8 278.5,548.6 289.2,540.4 "/>
<line class="st0" x1="307.7" y1="549.2" x2="307.7" y2="549.2"/>
<path d="M424.7,500l33.1,3.4c1.7,0.2,2.9,1.7,2.8,3.4c-0.1,0.9-0.6,1.7-1.3,2.2l-10,7.1l2.2-0.3l8.4-6c1.8-1.3,2.2-3.9,0.9-5.7
	c-0.7-1-1.8-1.6-2.9-1.7l-33-3.4c-18.5-2.1-74.7,4-77.1,4.2l0.1,1l0,0C347.8,504.2,406.1,497.9,424.7,500z"/>
<polygon points="402.7,549.2 307.7,549.2 307.7,550.2 403,550.2 451.4,515.7 449.2,516.1 "/>
<polygon points="307.7,548.2 307.7,549.2 308.6,548.2 "/>
<path d="M424.6,501l33.1,3.4c0.6,0.1,1.1,0.4,1.5,0.9c0.7,0.9,0.5,2.2-0.5,2.9l-11.6,8.2l2.2-0.3l10-7.1c1.4-1,1.7-2.9,0.7-4.3
	c-0.5-0.7-1.3-1.2-2.2-1.3l-33-3.4c-18.6-2.1-76.9,4.2-76.9,4.2l0,0l0.1,1C348.5,505.1,406.3,498.9,424.6,501z"/>
<polygon points="449.2,516.1 447,516.4 402.4,548.2 308.6,548.2 307.7,549.2 402.7,549.2 "/>
<rect x="188.2" y="540" width="67.7" height="2"/>
<polygon points="323,535 324.8,535 337.9,533 323,533 "/>
<polygon points="390.7,535 390.7,533 337.9,533 324.8,535 "/>
<polygon points="346.2,520.8 346.2,522.8 405.1,522.8 413.9,521.4 413.9,520.8 "/>
<polygon points="413.9,522.8 413.9,521.4 405.1,522.8 "/>
<rect x="368.4" y="511.2" width="18.1" height="2"/>
<rect x="402.7" y="511.2" width="18.1" height="2"/>
<rect x="222.6" y="526.9" width="48.3" height="2"/>
<rect x="279.4" y="526.9" width="12.1" height="2"/>
<rect x="251.7" y="513" width="6.6" height="2"/>
<rect x="267.5" y="513" width="30.4" height="2"/>
<rect x="258.4" y="513" width="9.1" height="2"/>
<rect x="278.8" y="416.9" width="59.6" height="2"/>
<rect x="262.1" y="427.1" width="40.2" height="2"/>
<rect x="312.6" y="427.1" width="16.1" height="2"/>
<path d="M874.3,366.6h1V362c-0.3,0.6-0.7,1.1-1,1.7V366.6z"/>
<path d="M723.1,368v-16.3c-0.3,0.3-0.7,0.6-1,0.9v15.4c0,31.6,20.8,59.3,51.1,68.3h3.9C745.4,428.8,723.1,400.6,723.1,368z"/>
<path d="M731.4,269.4h-1.1c-4.9,9.2-7.7,19.5-8.1,29.9c0.3,0.3,0.7,0.6,1,0.9C723.5,289.4,726.3,278.8,731.4,269.4z"/>
<path d="M779.9,437.6V437c-1-0.2-1.9-0.4-2.9-0.6h-3.8c1.5,0.5,3,0.8,4.6,1.2L779.9,437.6z"/>
<path d="M779.9,437.6h-2.2c0.7,0.2,1.5,0.3,2.2,0.5V437.6z"/>
<path d="M722.1,322.3v27.8c0.4-0.4,0.7-0.7,1-1.1v-26.8L722.1,322.3z"/>
<path d="M722.1,320.2l1-0.1v-17.3c-0.3-0.4-0.6-0.8-1-1.1c0,0.2,0,0.5,0,0.7V320.2z"/>
<path d="M723.1,301.5v-1.3c-0.3-0.3-0.6-0.6-1-0.9c0,0.4,0,0.8,0,1.2C722.5,300.8,722.8,301.1,723.1,301.5z"/>
<path d="M723.1,350.4c-0.3,0.4-0.7,0.7-1,1v1.3c0.3-0.3,0.7-0.6,1-0.9V350.4z"/>
<path d="M723.1,302.9v-0.4c0-0.4,0-0.7,0-1c-0.3-0.3-0.6-0.7-1-1v1.3C722.4,302.1,722.7,302.5,723.1,302.9z"/>
<path d="M722.1,350.1v1.3c0.3-0.3,0.7-0.6,1-1V349C722.7,349.4,722.4,349.7,722.1,350.1z"/>
<path d="M732.5,269.4h-1.2c-5.1,9.5-7.9,20-8.2,30.8c0.3,0.3,0.7,0.7,1,1C724.3,290,727.2,279.1,732.5,269.4z"/>
<path d="M873.3,366.6h1v-3c-0.3,0.5-0.7,1-1,1.5V366.6z"/>
<path d="M779.9,436c-32.4-6.5-55.8-34.9-55.8-67.9v-17.3c-0.3,0.3-0.7,0.7-1,1V368c0,32.5,22.3,60.8,53.9,68.4h2.9L779.9,436z"/>
<path d="M777,436.4c1,0.2,1.9,0.5,2.9,0.6v-0.6H777z"/>
<path d="M724.1,320.1v-15.9c-0.3-0.5-0.7-0.9-1-1.3v17.3L724.1,320.1z"/>
<path d="M723.1,322.2V349c0.4-0.4,0.7-0.9,1-1.3v-25.6L723.1,322.2z"/>
<path d="M724.1,302.5c0-0.5,0-0.9,0-1.3c-0.3-0.4-0.6-0.7-1-1v1.3c0.3,0.4,0.7,0.7,1,1.1V302.5z"/>
<path d="M724.1,349.2c-0.3,0.4-0.7,0.8-1,1.2v1.4c0.3-0.3,0.7-0.7,1-1V349.2z"/>
<path d="M723.1,302.9c0.3,0.4,0.7,0.9,1,1.3v-1.6c-0.3-0.4-0.6-0.8-1-1.1c0,0.3,0,0.7,0,1V302.9z"/>
<path d="M724.1,347.6c-0.3,0.5-0.6,0.9-1,1.3v1.5c0.3-0.4,0.7-0.8,1-1.2V347.6z"/>
<path d="M874.3,450.5l1,0.4V368c0,4-0.3,7.9-1,11.8V450.5z"/>
<rect x="779.9" y="438.8" width="1" height="28.5"/>
<polygon points="875.3,467.3 875.3,453.4 874.3,453.1 874.3,467.3 "/>
<polygon points="874.3,451.8 875.3,452.2 875.3,450.9 874.3,450.5 "/>
<path d="M780.9,438.2l-1-0.2v0.7h1V438.2z"/>
<polygon points="875.3,453.4 875.3,452.2 874.3,451.8 874.3,453.1 "/>
<path d="M780.9,401.4h-1V436c0.3,0.1,0.7,0.1,1,0.2V401.4z"/>
<path d="M874.3,368L874.3,368v11.8c0.7-3.9,1-7.9,1-11.8v-1.4h-1V368z"/>
<path d="M780.9,437.2l-1-0.2v0.5h1V437.2z"/>
<path d="M780.9,438.2v-0.6h-1v0.4L780.9,438.2z"/>
<path d="M779.9,436v0.4h1v-0.2C780.5,436.1,780.2,436.1,779.9,436z"/>
<polygon points="874.3,366.6 873.3,366.6 873.3,367 "/>
<polygon points="874.3,368.1 874.3,368.1 874.3,366.6 874.3,366.6 "/>
<path d="M780.9,436.4h-1v0.6l1,0.2V436.4z"/>
<path d="M873.3,450.2l1,0.4v-70.7c-0.3,1.6-0.6,3.3-1,4.9V450.2z"/>
<rect x="780.9" y="438.8" width="1" height="28.5"/>
<polygon points="874.3,467.3 874.3,453.1 873.3,452.7 873.3,467.3 "/>
<polygon points="873.3,451.4 874.3,451.8 874.3,450.5 873.3,450.2 "/>
<path d="M781.9,438.8v-0.4c-0.3,0-0.7-0.1-1-0.2v0.5H781.9z"/>
<polygon points="873.3,452.7 874.3,453.1 874.3,451.8 873.3,451.4 "/>
<path d="M780.9,401.4v34.8c0.3,0.1,0.7,0.1,1,0.2v-35L780.9,401.4z"/>
<path d="M873.3,384.8c0.4-1.6,0.7-3.2,1-4.9v-11.8c0,3.9-0.3,7.9-1,11.8V384.8z"/>
<path d="M781.9,437.4c-0.3,0-0.7-0.1-1-0.2v0.4h1V437.4z"/>
<path d="M781.9,437.6h-1v0.6c0.3,0.1,0.7,0.1,1,0.2V437.6z"/>
<path d="M874.3,366.6l-1,0.4v12.8c0.7-3.9,1-7.8,1-11.8V366.6z"/>
<path d="M781.9,436.4c-0.3,0-0.7-0.1-1-0.2v0.2L781.9,436.4L781.9,436.4z"/>
<path d="M781.9,436.4h-1v0.8c0.3,0.1,0.7,0.1,1,0.2V436.4z"/>
<path d="M711.8,268.4c0-6.3,7.3-11.3,8.5-16.8c1.4-6-2.6-13.9,0.2-18.8c2.9-5.2,11.8-5.8,16-9.9s5-12.8,10.2-15.8
	c5-2.8,13,1,18.8-0.8c5.5-1.7,9.8-9.5,15.8-10.3c5.7-0.8,12,5.5,18.1,5.5s12.3-6.3,17.9-5.5c6,0.8,10.2,8.6,15.6,10.3
	c5.8,1.8,13.8-1.9,18.7,0.9c5.2,3,5.8,11.7,9.9,15.8s12.9,4.8,15.8,10c2.7,5-1.5,12.7-0.1,18.7c1.2,5.4,8.4,10.5,8.4,16.7l-6.6,21.9
	v53.9l0,0c0,5.5-1.2,10.8-3.7,15.7v2.2c3.1-5.5,4.7-11.6,4.7-17.9v-53.8l6.5-21.7v-0.3c0-3.8-2.4-7.1-4.7-10.2
	c-1.7-2.3-3.3-4.5-3.8-6.6c-0.6-2.5-0.1-5.5,0.4-8.3c0.6-3.7,1.3-7.6-0.4-10.6c-1.8-3.3-5.5-4.9-9.1-6.4c-2.7-1.1-5.2-2.2-6.8-3.9
	s-2.7-4.2-3.8-6.9c-1.5-3.6-3-7.3-6.2-9.1c-2.9-1.7-6.7-1.3-10.4-0.9c-3,0.3-6,0.6-8.5-0.1c-2.2-0.7-4.3-2.6-6.5-4.6
	c-2.8-2.6-5.7-5.2-9.2-5.7c-3.2-0.4-6.6,1.2-9.8,2.7c-2.8,1.3-5.6,2.7-8.3,2.7s-5.5-1.4-8.3-2.7c-3.3-1.6-6.7-3.2-9.9-2.7
	c-3.6,0.5-6.5,3.1-9.3,5.7c-2.2,2-4.4,4-6.6,4.7c-2.5,0.8-5.5,0.4-8.5,0.1c-3.7-0.4-7.5-0.9-10.5,0.8c-3.2,1.8-4.9,5.5-6.4,9.1
	c-1.2,2.7-2.3,5.2-4,6.8s-4.2,2.7-6.9,3.8c-3.6,1.5-7.4,3.1-9.2,6.3c-1.7,3.1-1.1,6.9-0.5,10.7c0.4,2.9,0.9,5.9,0.3,8.4
	c-0.5,2.2-2.1,4.3-3.8,6.6c-2.3,3.2-4.8,6.5-4.8,10.4v1h19.5l0.5-1H711.8z"/>
<path d="M871.3,367.8c0.7-0.8,1.4-1.7,2-2.6v-1.8c-1.2,1.8-2.5,3.5-4,5.1L871.3,367.8z"/>
<path d="M759.4,275.7c0,2.3-1.3,4.5-3.3,5.6l-10.6,5.8l-0.8,21.5l17.6-3.7c4.4-0.9,8.9-0.4,12.9,1.5c5.8,2.9,9.3,9,8.8,15.5
	l-2.5,43.3c-0.5,8.1,5.7,15,13.8,15.5h0.9h40.1l2.7-1h-42.7h-0.8c-7.5-0.4-13.3-6.9-12.9-14.5c0,0,0,0,0,0L785,322
	c0.5-6.9-3.2-13.4-9.4-16.5c-4.2-2-9-2.6-13.6-1.6l-16.3,3.4l0.8-19.6l10.2-5.6c3.6-2,4.8-6.4,2.9-10c-1.3-2.3-3.7-3.8-6.4-3.8h-20
	c-0.2,0.3-0.4,0.7-0.6,1H753C756.6,269.3,759.4,272.2,759.4,275.7C759.4,275.7,759.4,275.7,759.4,275.7z"/>
<path d="M731.9,268.4h-1.1l-0.5,1h1.1C731.5,269,731.7,268.7,731.9,268.4z"/>
<path d="M874.3,361.7v1.9c0.3-0.5,0.7-1.1,1-1.7v-2.1C875,360.5,874.7,361.1,874.3,361.7z"/>
<path d="M733.1,268.4h-1.2c-0.2,0.3-0.4,0.7-0.5,1h1.2C732.7,269,732.9,268.7,733.1,268.4z"/>
<path d="M873.3,365.1c0.3-0.5,0.7-1,1-1.5v-1.9c-0.3,0.6-0.7,1.1-1,1.6V365.1z"/>
<path d="M871.3,367.8l-2,0.7c-6.7,7.2-16.2,11.3-26.1,11.3h-4.4l-2.7,1h7.1C854.1,380.8,864.3,376,871.3,367.8z"/>
<path d="M712.9,267.4c0.4-2.8,2.4-5.5,4.3-8.2s3.5-4.8,4.1-7.4c0.7-2.9,0.2-6-0.3-9.1c-0.5-3.6-1-7,0.3-9.5c1.5-2.6,4.8-4,8.3-5.4
	c2.8-1.1,5.6-2.3,7.5-4.2s3.2-4.7,4.4-7.5c1.4-3.3,2.9-6.7,5.6-8.2c2.4-1.4,5.8-1,9.3-0.6c3.2,0.4,6.5,0.7,9.3-0.2
	c2.7-0.9,5.1-3,7.4-5.1c2.6-2.3,5.3-4.8,8.2-5.2c2.7-0.4,5.6,1.1,8.8,2.6c3,1.4,6.1,2.9,9.2,2.9s6.2-1.5,9.1-2.9s6-2.9,8.7-2.6
	c3,0.4,5.6,2.8,8.2,5.2c2.3,2.1,4.6,4.2,7.3,5.1c2.8,0.9,6.1,0.6,9.3,0.2c3.5-0.4,6.8-0.7,9.2,0.6c2.6,1.5,4,4.7,5.4,8.1
	c1.2,2.8,2.3,5.6,4.3,7.5s4.7,3.1,7.4,4.3c3.5,1.5,6.7,2.9,8.2,5.5c1.3,2.4,0.8,5.8,0.2,9.3c-0.5,3.1-1,6.2-0.4,9.1
	c0.6,2.6,2.3,4.9,4.1,7.4c2.1,2.9,4.2,5.8,4.3,8.9L878,290v54.1c0,4.6-0.9,9.1-2.7,13.3v2.4c2.4-4.9,3.7-10.3,3.7-15.7l0,0v-53.9
	l6.6-21.8c0-6.2-7.2-11.3-8.4-16.7c-1.3-6,2.8-13.8,0.1-18.7c-2.8-5.2-11.6-5.9-15.8-10s-4.7-12.9-9.9-15.8
	c-4.9-2.8-13,0.9-18.7-0.9c-5.4-1.7-9.6-9.5-15.6-10.3c-5.6-0.8-11.9,5.5-17.9,5.5s-12.4-6.3-18.1-5.5c-6,0.8-10.3,8.6-15.8,10.3
	c-5.8,1.8-13.9-2-18.8,0.8c-5.2,3-6,11.8-10.2,15.8s-13.1,4.7-16,9.9c-2.8,5,1.2,12.8-0.2,18.8c-1.3,5.4-8.5,10.5-8.5,16.8h19
	c0.2-0.3,0.4-0.7,0.6-1L712.9,267.4z"/>
<path d="M869.3,368.5c1.5-1.6,2.8-3.3,4-5.1v-1.9c-1.7,2.9-3.8,5.6-6.3,7.9L869.3,368.5z"/>
<path d="M760.4,275.7c0,2.7-1.5,5.1-3.8,6.4l-10.2,5.6l-0.8,19.6l16.3-3.4c4.6-1,9.3-0.4,13.6,1.6c6.2,3.1,9.9,9.6,9.4,16.5
	l-2.5,43.3c-0.4,7.5,5.3,14,12.9,14.5c0,0,0,0,0,0h0.8h42.8l2.7-1h-45.4h-0.8c-7-0.4-12.3-6.4-11.9-13.4l2.5-43.3
	c0.5-7.3-3.4-14.2-10-17.4c-4.4-2.1-9.4-2.7-14.2-1.7l-15.1,3.2l0.7-17.8l9.7-5.3c4-2.2,5.5-7.3,3.3-11.4c-1.5-2.7-4.3-4.3-7.3-4.3
	h-19.4c-0.2,0.3-0.4,0.7-0.6,1h20C757.2,268.4,760.4,271.7,760.4,275.7L760.4,275.7z"/>
<path d="M874.3,359.6v2.1c0.3-0.6,0.7-1.2,1-1.9v-2.4C875,358.1,874.7,358.9,874.3,359.6z"/>
<path d="M731.4,267.4c-0.2,0.3-0.4,0.7-0.6,1h1.1c0.2-0.3,0.4-0.7,0.6-1H731.4z"/>
<path d="M873.3,361.4v1.9c0.3-0.5,0.7-1.1,1-1.6v-2.1C874,360.2,873.7,360.8,873.3,361.4z"/>
<path d="M733.7,267.4h-1.2c-0.2,0.3-0.4,0.7-0.6,1h1.2C733.3,268,733.5,267.7,733.7,267.4z"/>
<path d="M869.3,368.5l-2.3,0.9c-6.4,6.1-14.9,9.5-23.8,9.5h-1.7l-2.7,1h4.4C853.2,379.8,862.6,375.7,869.3,368.5z"/>
<path d="M761.1,319.3l-5.5,1.7l0.3,1l0,0l5.5-1.7c2.7-0.8,5.6,0.7,6.4,3.4c0,0,0,0,0,0c0.2,0.5,0.2,1,0.2,1.5v19.5
	c0,3.1-2.5,5.7-5.7,5.7h-3.6v1h3.6c3.7,0,6.7-3,6.7-6.7v-19.5c0-0.6-0.1-1.2-0.3-1.8C767.8,320.1,764.4,318.3,761.1,319.3z"/>
<path d="M762.4,350.4c3.1,0,5.7-2.5,5.7-5.7v-19.5c0-0.5-0.1-1-0.2-1.5c-0.8-2.7-3.7-4.2-6.4-3.4c0,0,0,0,0,0l-5.5,1.7l0,0l0.3,1
	l5.5-1.7c2.2-0.7,4.5,0.5,5.2,2.7c0.1,0.4,0.2,0.8,0.2,1.2v19.5c0,2.6-2.1,4.7-4.7,4.7h-3.6v1L762.4,350.4L762.4,350.4z"/>
<path d="M722.1,320.2l-21.5,1.8c0,0.7-0.1,1.3-0.1,2l21.6-1.7V320.2z"/>
<path d="M699.7,322l0.2,2h0.6c0-0.7,0.1-1.4,0.1-2H699.7z"/>
<path d="M751.7,319.9l-0.2-2l-20.2,1.6c0.1,0.7,0.2,1.3,0.2,2L751.7,319.9z"/>
<path d="M724.1,320.1v2l5.5-0.4c0-0.7-0.1-1.3-0.2-2L724.1,320.1z"/>
<path d="M730.6,321.6l1-0.1c-0.1-0.7-0.1-1.3-0.2-2l-1,0.1C730.5,320.2,730.5,320.9,730.6,321.6z"/>
<path d="M729.4,319.7c0.1,0.7,0.2,1.3,0.2,2l1-0.1c-0.1-0.7-0.1-1.3-0.2-2L729.4,319.7z"/>
<polygon points="722.1,320.2 722.1,322.3 723.1,322.2 723.1,320.2 "/>
<polygon points="723.1,320.2 723.1,322.2 724.1,322.1 724.1,320.1 "/>
<path d="M171.5,485.4c0.3,0.2,0.5,0.4,0.7,0.7c0.2,0.4,0.3,0.9,0.1,1.4c-0.1,0.4-0.4,0.8-0.9,1l-13.3,7.1c-0.3,0.1-0.5,0.2-0.8,0.2
	l0,0c-0.4,0-0.9-0.2-1.2-0.5H1v-16.9h155.1c0.2-0.2,0.4-0.3,0.7-0.4c0.4-0.1,0.9-0.1,1.3,0.1l-1.3-0.7H18.6v1h-2v-1H0v18.9h156.8
	l17.6-9.4L171.5,485.4z"/>
<path d="M15.4,494.4v1h-2v-1H2v-14.9h153.6c0-0.2,0.1-0.4,0.2-0.5c0.1-0.2,0.2-0.3,0.4-0.5H1v16.9h155.1c-0.3-0.3-0.5-0.6-0.6-1
	L15.4,494.4z"/>
<rect x="13.4" y="486.9" width="2" height="7.5"/>
<rect x="13.4" y="494.4" width="2" height="1"/>
<polygon points="18.6,469.8 60,469.8 60,467.8 16.6,467.8 16.6,477.5 18.6,477.5 "/>
<rect x="16.6" y="477.5" width="2" height="1"/>
<rect x="267.5" y="378" width="144.3" height="2"/>
<rect x="558.1" y="378" width="144.3" height="2"/>
<polygon points="558.8,589.9 559.7,589 558.1,589.2 "/>
<path d="M667,489.1h-2.1c-12,7-23.1,15.6-33,25.5l-74.5,73.9l0.7,0.7l74.5-73.9C642.8,505.1,654.4,496.3,667,489.1z"/>
<path d="M982.5,499.5c-15.7-15.8-35.9-26.4-57.8-30.4l7.2,2.6c7.1,1.8,14,4.4,20.5,7.6l1.4,0.5c0.6,0.2,1.2,0.6,1.7,1.1
	c9.7,5.1,18.5,11.6,26.2,19.3l29.3,29.3l-1.2,0.2l0.5,0.5l1.4-1.4L982.5,499.5z"/>
<path d="M875.3,467.3v1h29.3c4.4,0,8.8,0.3,13.1,0.8l-3.8-1.4c-3.1-0.3-6.2-0.4-9.3-0.4H875.3z"/>
<path d="M779.9,468.3v-1h-33.8c-26.9-0.1-53.4,6.6-77,19.5h2.3c23.1-12.1,48.7-18.5,74.8-18.5H779.9z"/>
<path d="M953.8,479.8l-1.4-0.5c1,0.5,2.1,1,3.1,1.6C955,480.4,954.5,480,953.8,479.8z"/>
<path d="M669.1,488h-2.2c-0.7,0.4-1.4,0.8-2,1.2h2.1C667.7,488.7,668.4,488.3,669.1,488z"/>
<path d="M923.5,469.9c2.8,0.5,5.6,1.1,8.3,1.8l-7.2-2.6c-2-0.4-4-0.7-5.9-0.9L923.5,469.9z"/>
<path d="M669,486.8c-0.7,0.4-1.4,0.8-2.2,1.2h2.2l2.2-1.2H669z"/>
<path d="M917.8,469.1c1.9,0.2,3.8,0.5,5.7,0.9l-4.8-1.8c-1.6-0.2-3.2-0.4-4.8-0.5L917.8,469.1z"/>
<rect x="781.9" y="467.3" width="91.5" height="1"/>
<rect x="779.9" y="467.3" width="1" height="1"/>
<rect x="874.3" y="467.3" width="1" height="1"/>
<rect x="780.9" y="467.3" width="1" height="1"/>
<rect x="873.3" y="467.3" width="1" height="1"/>
<path d="M981.8,500.2c-7.7-7.7-16.6-14.2-26.2-19.3c0.5,0.5,0.9,1,1.1,1.7c8.9,4.9,17.2,11.1,24.4,18.4l28.7,28.7l1.2-0.2
	L981.8,500.2z"/>
<path d="M668.9,489.1H667c-12.6,7.1-24.2,15.9-34.4,26.2l-74.5,73.9l0,0l1.6-0.2l73.6-73C643.9,505.4,655.8,496.4,668.9,489.1z"/>
<path d="M931.9,471.7l20.5,7.6C945.8,476.1,938.9,473.6,931.9,471.7z"/>
<path d="M779.9,469.3v-1h-33.8c-26.1,0-51.7,6.3-74.8,18.5h2c22.5-11.5,47.5-17.5,72.8-17.5H779.9z"/>
<path d="M875.3,468.3v1h29.3c5.9,0,11.7,0.5,17.5,1.4l-4.4-1.6c-4.4-0.5-8.7-0.8-13.1-0.8H875.3z"/>
<path d="M669.1,488c-0.7,0.4-1.4,0.8-2.2,1.2h1.9c0.7-0.4,1.4-0.8,2.2-1.2H669.1z"/>
<path d="M929.6,472.2c9.4,2.2,18.5,5.7,27,10.4c-0.2-0.6-0.6-1.2-1.1-1.7c-1-0.5-2.1-1.1-3.1-1.6l-20.5-7.6
	c-2.8-0.7-5.5-1.3-8.3-1.8L929.6,472.2z"/>
<path d="M922.2,470.7c2.5,0.4,5,0.9,7.4,1.5l-6.1-2.2c-1.9-0.3-3.8-0.6-5.7-0.9L922.2,470.7z"/>
<path d="M673.3,486.8h-2l-2.2,1.2h1.9C671.8,487.5,672.6,487.1,673.3,486.8z"/>
<rect x="781.9" y="468.3" width="91.5" height="1"/>
<rect x="779.9" y="468.3" width="1" height="1"/>
<rect x="874.3" y="468.3" width="1" height="1"/>
<rect x="873.3" y="468.3" width="1" height="1"/>
<rect x="780.9" y="468.3" width="1" height="1"/>
<polygon points="615.1,500.2 606.9,489.1 605.7,489.1 614.2,500.7 615.7,502.7 618.3,489.1 617.3,489.1 "/>
<path d="M562.5,533.3l-14.6-24.5c-1.1-1.8-1.8-3.7-2.3-5.7l-3.2-14h-1l3.2,14.2c0.5,2.1,1.3,4.1,2.4,6l14.6,24.5
	c2.4,4,3.2,8.6,2.3,13.2l-6.9,36.2l1,0.2l6.9-36.2C565.9,542.4,565,537.5,562.5,533.3z"/>
<polygon points="559,583.5 559.3,582 558.1,583.3 "/>
<polygon points="633.5,504 634.5,504.2 636.8,489.1 635.8,489.1 "/>
<path d="M629.3,474.9c-0.5-0.1-1-0.1-1.4-0.1c-3.1,0-6,1.5-7.8,4v1.5h-0.9c-0.3,0.7-0.6,1.4-0.7,2.1l-0.8,4.2h1l0.8-4.1
	c0.8-4,4.3-6.9,8.3-6.9c0.4,0,0.9,0,1.3,0.1c4.6,0.7,7.8,5.1,7.1,9.7l-0.2,1.1h1l0.2-1C638,480.6,634.5,475.7,629.3,474.9z"/>
<path d="M539.9,477.3c0-4.7,3.8-8.5,8.5-8.5l0,0h38c2.7,0,5.2,1.3,6.8,3.5l10.7,14.5h1.2l-11.1-15.1c-1.8-2.4-4.6-3.9-7.7-3.9h-38
	c-5.3,0-9.5,4.3-9.5,9.5c0,0.7,0.1,1.4,0.2,2.1l1.7,7.3h1l-1.7-7.5C540,478.6,539.9,477.9,539.9,477.3z"/>
<polygon points="635.9,488 635.8,489.1 636.8,489.1 636.9,488 "/>
<polygon points="542.2,488 541.1,488 541.4,489.1 542.4,489.1 "/>
<polygon points="617.3,489.1 618.3,489.1 618.5,488 617.5,488 "/>
<polygon points="606.1,488 604.8,488 605.7,489.1 606.9,489.1 "/>
<polygon points="540.8,486.8 541.1,488 542.2,488 541.9,486.8 "/>
<polygon points="617.7,486.8 617.5,488 618.5,488 618.7,486.8 "/>
<polygon points="605.2,486.8 604,486.8 604.8,488 606.1,488 "/>
<polygon points="636.1,486.8 635.9,488 636.9,488 637.1,486.8 "/>
<polygon points="615.7,502.7 614.2,500.7 605.7,489.1 604.5,489.1 616.2,505.1 619.3,489.1 618.3,489.1 "/>
<polygon points="634.7,489.1 632.5,503.9 633.5,504 635.8,489.1 "/>
<path d="M563.4,532.8l-14.6-24.5c-1-1.7-1.7-3.5-2.2-5.4l-3.2-13.8h-1l3.2,14c0.5,2,1.2,3.9,2.3,5.7l14.6,24.5
	c2.5,4.1,3.4,9.1,2.5,13.8l-6.9,36.2l0,0l1.3-1.3l6.6-34.6C566.9,542.4,566,537.2,563.4,532.8z"/>
<path d="M629.2,475.9c-0.4-0.1-0.9-0.1-1.3-0.1c-4.1,0-7.6,2.9-8.3,6.9l-0.8,4.1h1l0.8-3.9c0.7-3.5,3.8-6.1,7.4-6.1
	c0.4,0,0.8,0,1.1,0.1c4.1,0.6,6.9,4.5,6.3,8.6l-0.2,1.3h1l0.2-1.1C637,481,633.8,476.6,629.2,475.9z"/>
<path d="M540.9,477.3c0-4.1,3.4-7.5,7.5-7.5l0,0h38c2.4,0,4.6,1.2,6,3.1l10.2,13.9h1.3l-10.7-14.5c-1.6-2.2-4.1-3.5-6.8-3.5h-38
	c-4.7,0-8.5,3.8-8.5,8.5c0,0,0,0,0,0c0,0.6,0.1,1.3,0.2,1.9l1.7,7.5h1l-1.8-7.8C541,478.4,540.9,477.9,540.9,477.3z"/>
<polygon points="634.7,489.1 635.8,489.1 635.9,488 634.9,488 "/>
<polygon points="542.2,488 542.4,489.1 543.5,489.1 543.2,488 "/>
<polygon points="618.5,488 618.3,489.1 619.3,489.1 619.5,488 "/>
<polygon points="604.8,488 603.6,488 604.5,489.1 605.7,489.1 "/>
<polygon points="602.7,486.8 603.6,488 604.8,488 604,486.8 "/>
<polygon points="635.1,486.8 634.9,488 635.9,488 636.1,486.8 "/>
<polygon points="542.9,486.8 541.9,486.8 542.2,488 543.2,488 "/>
<polygon points="618.7,486.8 618.5,488 619.5,488 619.8,486.8 "/>
<rect x="502.1" y="446.6" width="12.5" height="2"/>
<rect x="511.5" y="467.8" width="12.5" height="2"/>
<rect x="517.2" y="478.4" width="12.5" height="2"/>
<rect x="524.7" y="446.6" width="12.5" height="2"/>
<rect x="530" y="457.2" width="12.5" height="2"/>
<rect x="554.5" y="457.2" width="12.5" height="2"/>
<rect x="571.8" y="446.6" width="12.5" height="2"/>
<rect x="595.5" y="446.6" width="12.5" height="2"/>
<rect x="604.9" y="467.8" width="12.5" height="2"/>
<path d="M620.1,478.4h-12.5v2h11.6c0.2-0.5,0.5-1,0.9-1.5V478.4z"/>
<path d="M620.1,478.8c-0.3,0.5-0.6,1-0.9,1.5h0.9V478.8z"/>
<rect x="618.2" y="446.6" width="12.5" height="2"/>
<rect x="623.4" y="457.2" width="12.5" height="2"/>
<rect x="640.2" y="478.4" width="12.5" height="2"/>
<rect x="645.7" y="446.6" width="12.5" height="2"/>
<rect x="655.1" y="467.8" width="12.5" height="2"/>
<rect x="660.8" y="478.4" width="12.5" height="2"/>
<rect x="668.3" y="446.6" width="12.5" height="2"/>
<rect x="673.6" y="457.2" width="12.5" height="2"/>
<rect x="698.1" y="457.2" width="12.5" height="2"/>
<rect x="715.4" y="446.6" width="12.5" height="2"/>
<rect x="720.7" y="457.2" width="12.5" height="2"/>
<rect x="739.2" y="446.6" width="12.5" height="2"/>
<rect x="761.8" y="446.6" width="12.5" height="2"/>
<rect x="767.1" y="457.2" width="12.5" height="2"/>
<polygon points="506.4,487.9 506.4,500.5 534.1,500.5 534.1,498.5 508.4,498.5 508.4,489.1 506.8,489.1 "/>
<polygon points="507.7,488 507.2,486.6 506.4,486.6 506.4,487.9 506.8,489.1 508.4,489.1 508.4,488 "/>
<polygon points="507.2,486.6 507.7,488 508.4,488 508.4,486.6 "/>
<path d="M501.4,71c6.1,0,11.1-5,11.1-11.1c0-6.1-5-11.1-11.1-11.1c-6.1,0-11.1,5-11.1,11.1C490.3,66,495.3,71,501.4,71z M501.4,50.7
	c5,0,9.1,4.1,9.1,9.1c0,5-4.1,9.1-9.1,9.1c-5,0-9.1-4.1-9.1-9.1C492.3,54.8,496.4,50.7,501.4,50.7L501.4,50.7z"/>
<path d="M774.3,108.3c7.4,0,13.4-6,13.4-13.4c0-7.4-6-13.4-13.4-13.4s-13.4,6-13.4,13.4c0,0,0,0,0,0
	C760.9,102.3,766.9,108.3,774.3,108.3z M774.3,83.5c6.3,0,11.4,5.1,11.4,11.4s-5.1,11.4-11.4,11.4s-11.4-5.1-11.4-11.4c0,0,0,0,0,0
	C762.9,88.6,768,83.5,774.3,83.5z"/>
<rect x="163.9" y="19" width="2" height="11"/>
<rect x="163.9" y="6" width="2" height="11"/>
<rect x="165.9" y="17" width="11" height="2"/>
<rect x="152.9" y="17" width="11" height="2"/>
<rect x="163.9" y="17" width="2" height="2"/>
<path d="M188.3,107.2h3.1c8.2,0,13.9-0.2,21.5-4.5s12.2-4.3,20.3-4.2h3.3c2.6,0,4.7-2.1,4.7-4.7V74.3c0-2.6-2.1-4.7-4.7-4.7h-3.2
	c-8.2-0.1-13.1-0.1-21.3,4.5c-7.6,4.2-13.3,4.2-22,4.2h-1.6c-2.6,0-4.7,2.1-4.7,4.7v19.4C183.6,105,185.7,107.1,188.3,107.2
	C188.3,107.1,188.3,107.2,188.3,107.2z M184.6,83c0-2.1,1.7-3.7,3.7-3.7c0,0,0,0,0,0c9.7,0,15.8,0.3,24.1-4.3c9-5,13.8-4.3,24.1-4.3
	c2.1,0,3.7,1.7,3.7,3.7v19.4c0,2.1-1.7,3.7-3.7,3.7c-10.3,0-15.1-0.7-24.1,4.3c-8.3,4.6-14.4,4.3-24.1,4.3l0,0
	c-2.1,0-3.7-1.7-3.7-3.7c0,0,0,0,0,0V83z"/>
<path d="M188.3,106.2L188.3,106.2c9.7,0,15.7,0.3,24.1-4.3c9-5,13.8-4.3,24.1-4.3c2.1,0,3.7-1.7,3.7-3.7V74.3c0-2.1-1.7-3.7-3.7-3.7
	c-10.3,0-15.1-0.7-24.1,4.3c-8.3,4.6-14.4,4.3-24.1,4.3c-2.1,0-3.7,1.6-3.7,3.7v19.4C184.5,104.4,186.2,106.1,188.3,106.2
	C188.3,106.1,188.3,106.2,188.3,106.2z M185.6,83c0-1.5,1.2-2.7,2.7-2.7l0,0h1.7c9,0,14.9,0,22.9-4.5c7.8-4.3,12.2-4.3,20.3-4.2h3.3
	c1.5,0,2.7,1.2,2.7,2.7v19.4c0,1.5-1.2,2.7-2.7,2.7h-3.2c-8.2-0.1-13.1-0.1-21.3,4.5c-7.6,4.2-13.4,4.2-22,4.2h-1.6
	c-1.5,0-2.7-1.2-2.7-2.7L185.6,83z"/>
<path d="M665,43.1h1.5c7.6,0,12.5,0,19.2,3.7c6.5,3.6,10.6,4,16.5,4h2.3h2.8c2.4,0,4.3-1.9,4.3-4.3c0,0,0,0,0,0v-17
	c0-2.4-1.9-4.3-4.3-4.3l0,0h-2.9c-7.1,0-11,0.1-17.8-3.7c-7.1-4-12.3-4-20.2-3.9H665c-2.4,0-4.3,1.9-4.3,4.3c0,0,0,0,0,0v17
	C660.8,41.2,662.7,43.1,665,43.1z M661.7,21.8c0-1.8,1.5-3.3,3.3-3.3l0,0c8.5,0,13.8-0.3,21.1,3.8c7.9,4.4,12.1,3.8,21.1,3.8
	c1.8,0,3.3,1.5,3.3,3.3c0,0,0,0,0,0v17c0,1.8-1.5,3.3-3.3,3.3l0,0c-9,0-13.2,0.6-21.1-3.8c-7.3-4.1-12.6-3.8-21.1-3.8
	c-1.8,0-3.3-1.5-3.3-3.3c0,0,0,0,0,0V21.8z"/>
<path d="M665,42.1c8.5,0,13.8-0.3,21.1,3.8c7.9,4.4,12.1,3.8,21.1,3.8c1.8,0,3.3-1.5,3.3-3.3c0,0,0,0,0,0v-17c0-1.8-1.5-3.3-3.3-3.3
	l0,0c-9,0-13.2,0.6-21.1-3.8c-7.3-4.1-12.6-3.8-21.1-3.8c-1.8,0-3.3,1.5-3.3,3.3c0,0,0,0,0,0v17C661.7,40.6,663.2,42.1,665,42.1
	L665,42.1z M662.7,21.8c0-1.3,1-2.3,2.3-2.3h1.4c7.5,0,12.5,0,19.2,3.7c7.3,4.1,11.6,4,18.8,4h2.8c1.3,0,2.3,1,2.3,2.3v17
	c0,1.3-1,2.3-2.3,2.3h-2.9c-7.1,0-11,0.1-17.8-3.7s-11.6-4-18.8-4H665c-1.3,0-2.3-1-2.3-2.3V21.8z"/>
<polygon points="170.2,486.9 157.6,480.1 157.6,493.7 "/>
<rect x="163.9" y="476.4" width="0" height="14.3"/>
<path d="M171.5,485.4l-13.4-7.2l0,0L171.5,485.4L171.5,485.4z"/>
<path d="M156.6,479.8c0,0,0-0.1,0-0.1l-0.3-0.2h-0.7c0,0.1,0,0.2,0,0.3v14.3c0,0.1,0,0.2,0,0.3h0.7l0.3-0.1c0,0,0-0.1,0-0.1V479.8z"
	/>
<path d="M156.8,478.1c-0.3,0.1-0.5,0.2-0.7,0.4h0.4l1.1,0.6l0,0l13.3,7.2l0,0l1.3,0.7l-15.8,8.4h-0.4c0.3,0.3,0.7,0.5,1.2,0.5l0,0
	c0.3,0,0.6-0.1,0.8-0.2l13.3-7.1c0.4-0.2,0.7-0.6,0.9-1c0.1-0.5,0.1-0.9-0.1-1.4c-0.2-0.3-0.4-0.5-0.7-0.7l-13.4-7.2
	C157.7,478,157.2,477.9,156.8,478.1z"/>
<path d="M172.3,486.9l-1.3-0.7c0.1,0.1,0.2,0.2,0.3,0.3c0.2,0.4,0,0.8-0.3,1l-13.3,7.1c-0.1,0.1-0.2,0.1-0.4,0.1
	c-0.4,0-0.7-0.3-0.7-0.6l-0.3,0.1h-0.7c0.1,0.4,0.3,0.7,0.6,1h0.4L172.3,486.9z"/>
<path d="M155.6,479.5h0.7l0.3,0.2c0-0.1,0-0.2,0-0.2c0.2-0.4,0.6-0.5,1-0.3l-1.1-0.6H156c-0.1,0.1-0.3,0.3-0.4,0.5
	C155.6,479.1,155.6,479.3,155.6,479.5z"/>
<path d="M170.2,486.9l-12.6,6.8v-13.5l-1-0.5c0,0,0,0.1,0,0.1v14.3c0,0,0,0.1,0,0.1L170.2,486.9L170.2,486.9z"/>
<path d="M171,486.2l-13.3-7.1l0,0L171,486.2L171,486.2z"/>
<path d="M156.6,479.4c0,0.1,0,0.2,0,0.2l1,0.5l0,0l12.6,6.8l0,0l-13.6,7.3c0.1,0.4,0.4,0.6,0.7,0.6c0.1,0,0.2,0,0.4-0.1l13.3-7.1
	c0.4-0.2,0.5-0.6,0.3-1c-0.1-0.1-0.2-0.2-0.3-0.3l-13.4-7.2C157.3,478.9,156.8,479.1,156.6,479.4z"/>
</svg>
