<svg xmlns="http://www.w3.org/2000/svg" viewBox="0 0 170.52 82.01"><defs><style>.cls-1,.cls-2,.cls-3{fill:#fc865c;}.cls-1{opacity:0.56;}.cls-1,.cls-2{isolation:isolate;}.cls-2{opacity:0.52;}.cls-4{opacity:0.45;}.cls-5{opacity:0.59;}</style></defs><g id="Layer_2" data-name="Layer 2"><g id="Layer_1-2" data-name="Layer 1"><g id="Group_1005" data-name="Group 1005"><rect id="Rectangle_659" data-name="Rectangle 659" class="cls-1" x="29.35" y="16.06" width="89.21" height="65.96" rx="5.63"/><g id="Group_995" data-name="Group 995"><rect id="Rectangle_660" data-name="Rectangle 660" class="cls-2" x="47.06" width="42.46" height="31.75" rx="2.64"/><path id="Path_1577" data-name="Path 1577" class="cls-3" d="M89.52,10.33l13.63-2.17a.84.84,0,0,1,1,.7.62.62,0,0,1,0,.13V22.76a.85.85,0,0,1-.84.85h-.14L89.52,21.42"/><path id="Path_1578" data-name="Path 1578" class="cls-3" d="M62.26,8.22V23.89a.54.54,0,0,0,.54.54.5.5,0,0,0,.27-.07l13.57-7.84a.54.54,0,0,0,.2-.74.61.61,0,0,0-.2-.19L63.07,7.75a.54.54,0,0,0-.74.2A.64.64,0,0,0,62.26,8.22Z"/></g><g id="Group_999" data-name="Group 999" class="cls-4"><g id="Group_996" data-name="Group 996"><path id="Path_1579" data-name="Path 1579" class="cls-3" d="M50.14,61.22h-5v-7a15.94,15.94,0,0,0-31.87,0v7h-5v-7a20.9,20.9,0,0,1,41.8,0Z"/></g><g id="Group_997" data-name="Group 997"><path id="Rectangle_661" data-name="Rectangle 661" class="cls-3" d="M9.48,53.69h3.78v19H9.48A9.47,9.47,0,0,1,0,63.17H0a9.47,9.47,0,0,1,9.48-9.48Z"/></g><g id="Group_998" data-name="Group 998"><path id="Rectangle_662" data-name="Rectangle 662" class="cls-3" d="M49.08,72.65H45.3v-19h3.78a9.47,9.47,0,0,1,9.48,9.48h0a9.48,9.48,0,0,1-9.48,9.48Z"/></g></g><g id="Group_1004" data-name="Group 1004" class="cls-5"><g id="Group_1000" data-name="Group 1000"><path id="Path_1580" data-name="Path 1580" class="cls-3" d="M170.52,60.81H164A36.82,36.82,0,0,0,127.17,24V17.46A43.4,43.4,0,0,1,170.52,60.81Z"/></g><g id="Group_1001" data-name="Group 1001"><path id="Path_1581" data-name="Path 1581" class="cls-3" d="M158,60.81h-6.57a24.3,24.3,0,0,0-24.28-24.27V30A30.89,30.89,0,0,1,158,60.81Z"/></g><g id="Group_1002" data-name="Group 1002"><path id="Path_1582" data-name="Path 1582" class="cls-3" d="M145.27,60.81H138.7a11.52,11.52,0,0,0-11.52-11.53V42.71a18.08,18.08,0,0,1,18.09,18.1Z"/></g><g id="Group_1003" data-name="Group 1003"><circle id="Ellipse_344" data-name="Ellipse 344" class="cls-3" cx="126.99" cy="61" r="4.26"/></g></g><rect id="Rectangle_663" data-name="Rectangle 663" class="cls-3" x="73.73" y="38.34" width="14.65" height="6.03"/><rect id="Rectangle_664" data-name="Rectangle 664" class="cls-3" x="73.73" y="51.1" width="33.41" height="6.03"/><rect id="Rectangle_665" data-name="Rectangle 665" class="cls-3" x="73.73" y="63.86" width="33.41" height="6.03"/></g></g></g></svg>