<svg xmlns="http://www.w3.org/2000/svg" xmlns:xlink="http://www.w3.org/1999/xlink" viewBox="0 0 139.51 139.51"><defs><style>.cls-1{fill:none;}.cls-2{clip-path:url(#clip-path);}.cls-3,.cls-4,.cls-6{fill:#634aaf;}.cls-3{opacity:0.6;}.cls-3,.cls-4{isolation:isolate;}.cls-4{opacity:0.39;}.cls-5{opacity:0.87;}.cls-7{opacity:0.57;}</style><clipPath id="clip-path" transform="translate(2.22 10.25)"><circle class="cls-1" cx="65.55" cy="49.28" r="49.28"/></clipPath></defs><g id="Layer_2" data-name="Layer 2"><g id="Layer_1-2" data-name="Layer 1"><g id="Group_994" data-name="Group 994"><g id="Group_990" data-name="Group 990"><g class="cls-2"><g id="Group_989" data-name="Group 989"><circle id="Ellipse_339" data-name="Ellipse 339" class="cls-3" cx="69.76" cy="69.76" r="69.76"/><path id="Path_1572" data-name="Path 1572" class="cls-4" d="M46.61,1.38,40.4,22a18.58,18.58,0,0,0-.14,10.27l.88,3.27A6.23,6.23,0,0,0,48,40.06h0a18.65,18.65,0,0,1,20.9,14.81s3,19.47,2,23.95L70.13,83a7.7,7.7,0,0,1-10.8,5.46l-27-12.49a9.56,9.56,0,0,1-5.19-11.3L29,58.17A10.11,10.11,0,0,0,23.2,46.09l-8.07-3.43S9.77,31,25.76,15,46.61,1.38,46.61,1.38Z" transform="translate(2.22 10.25)"/><path id="Path_1573" data-name="Path 1573" class="cls-4" d="M78.69-2.25,92.52,18.34a21.4,21.4,0,0,1,2,20.14h0a21.36,21.36,0,0,0-.07,16.23l4.05,10a21.38,21.38,0,0,1-1.76,19.48l-6.09,9.61s28.23-11.16,28.23-46.24S78.69-2.25,78.69-2.25Z" transform="translate(2.22 10.25)"/></g></g></g><g id="Group_991" data-name="Group 991" class="cls-5"><path id="Path_1574" data-name="Path 1574" class="cls-6" d="M3,38.71c7.71,0,12.54.23,19.17-3.46,7.18-4,11-3.46,19.17-3.46a3,3,0,0,0,3-3h0V13.38a3,3,0,0,0-3-3h0c-8.2,0-12-.54-19.17,3.46C15.52,17.56,10.69,17.33,3,17.33a3,3,0,0,0-3,3H0V35.73a3,3,0,0,0,3,3Z" transform="translate(2.22 10.25)"/></g><g id="Group_992" data-name="Group 992" class="cls-5"><path id="Path_1575" data-name="Path 1575" class="cls-6" d="M129,56.26c-7.72,0-12.54-.24-19.18,3.46-7.17,4-11,3.46-19.17,3.46a3,3,0,0,0-3,3h0V81.58a3,3,0,0,0,3,3h0c8.2,0,12,.53,19.17-3.46,6.64-3.7,11.46-3.46,19.18-3.46a3,3,0,0,0,3-3h0V59.23a3,3,0,0,0-3-3Z" transform="translate(2.22 10.25)"/></g><g id="Group_993" data-name="Group 993" class="cls-7"><circle id="Ellipse_341" data-name="Ellipse 341" class="cls-6" cx="37.02" cy="59.53" r="6.45"/><circle id="Ellipse_342" data-name="Ellipse 342" class="cls-6" cx="67.78" cy="59.53" r="6.45"/><circle id="Ellipse_343" data-name="Ellipse 343" class="cls-6" cx="98.53" cy="59.53" r="6.45"/></g></g></g></g></svg>