<svg xmlns="http://www.w3.org/2000/svg" width="30" height="30" viewBox="0 0 30 30">
  <g id="Group_1282" data-name="Group 1282" transform="translate(2435 -5436)">
    <g id="Group_1082" data-name="Group 1082" transform="translate(-3324 721)">
      <path id="iconmonstr-linkedin-3" d="M21.375,0H5.625A5.626,5.626,0,0,0,0,5.625v15.75A5.626,5.626,0,0,0,5.625,27h15.75A5.625,5.625,0,0,0,27,21.375V5.625A5.625,5.625,0,0,0,21.375,0ZM9,21.375H5.625V9H9ZM7.313,7.574A1.985,1.985,0,1,1,9.281,5.589,1.977,1.977,0,0,1,7.313,7.574ZM22.5,21.375H19.125v-6.3c0-3.789-4.5-3.5-4.5,0v6.3H11.25V9h3.375v1.986C16.2,8.076,22.5,7.862,22.5,13.771Z" transform="translate(891 4717)"/>
    </g>
    <rect id="Rectangle_819" data-name="Rectangle 819" width="30" height="30" transform="translate(-2435 5436)" fill="none"/>
  </g>
</svg>
