<svg xmlns="http://www.w3.org/2000/svg" xmlns:xlink="http://www.w3.org/1999/xlink" width="30" height="30" viewBox="0 0 30 30">
  <defs>
    <clipPath id="clip-path">
      <rect id="Rectangle_743" data-name="Rectangle 743" width="25.242" height="20.584"/>
    </clipPath>
  </defs>
  <g id="Group_1281" data-name="Group 1281" transform="translate(2388 -5435)">
    <g id="Group_1083" data-name="Group 1083" transform="translate(-2386 5440)" clip-path="url(#clip-path)">
      <path id="Path_1654" data-name="Path 1654" d="M0,18.26a10.555,10.555,0,0,0,7.609-2.144A5.313,5.313,0,0,1,2.771,12.5a5.709,5.709,0,0,0,2.319-.109,5.224,5.224,0,0,1-2.979-1.84A5.1,5.1,0,0,1,.971,7.248a5.376,5.376,0,0,0,2.322.629A5.211,5.211,0,0,1,1.143,4.72,5.147,5.147,0,0,1,1.708.968,14.85,14.85,0,0,0,12.394,6.386c-.033-.339-.074-.647-.092-.956A5.185,5.185,0,0,1,18.348.08a5.1,5.1,0,0,1,2.749,1.4.384.384,0,0,0,.412.106A10.587,10.587,0,0,0,24.292.531c.071-.039.144-.075.255-.131a4.1,4.1,0,0,1-.839,1.585c-.385.442-.83.831-1.269,1.264.465-.1.938-.178,1.4-.3s.9-.3,1.407-.469a7.409,7.409,0,0,1-.593.781c-.585.589-1.189,1.16-1.8,1.725a.452.452,0,0,0-.169.376A15.041,15.041,0,0,1,17.949,16.72a13.518,13.518,0,0,1-7.2,3.612,15.057,15.057,0,0,1-7.955-.668A14.487,14.487,0,0,1,.115,18.349c-.025-.016-.047-.037-.115-.09" transform="translate(0 0)"/>
    </g>
    <rect id="Rectangle_820" data-name="Rectangle 820" width="30" height="30" transform="translate(-2388 5435)" fill="none"/>
  </g>
</svg>
