<svg xmlns="http://www.w3.org/2000/svg" xmlns:xlink="http://www.w3.org/1999/xlink" viewBox="0 0 537.96 560.13"><defs><style>.cls-1,.cls-3{fill:none;}.cls-2{clip-path:url(#clip-path);}.cls-3{stroke:#fff;stroke-miterlimit:10;stroke-width:2.31px;}.cls-4{fill:#56c1bf;}.cls-5{clip-path:url(#clip-path-2);}</style><clipPath id="clip-path" transform="translate(-0.63 -0.81)"><rect class="cls-1" width="539" height="539"/></clipPath><clipPath id="clip-path-2" transform="translate(-0.63 -0.81)"><rect class="cls-1" y="0.18" width="539.22" height="560.82"/></clipPath></defs><g id="Layer_2" data-name="Layer 2"><g id="Layer_1-2" data-name="Layer 1"><g id="Group_429" data-name="Group 429"><g id="Group_283" data-name="Group 283"><g class="cls-2"><g id="Group_282" data-name="Group 282"><path id="Path_321" data-name="Path 321" class="cls-3" d="M525,350.09C480.69,491.16,330.37,569.57,189.31,525.21S-30.16,330.55,14.19,189.49,208.85-30,349.91,14.37,569.39,209,525,350.09Z" transform="translate(-0.63 -0.81)"/><path id="Path_322" data-name="Path 322" class="cls-3" d="M98.68,63.92,100.05,97a8.35,8.35,0,0,0,5.84,7.94l18.3,5.75a8.37,8.37,0,0,1,5.1,4.54l7.88,17.55a8.32,8.32,0,0,1-.12,7.08L123.72,167.1a8.36,8.36,0,0,0-.61,5.65l9.54,38.93,5,19.31a8.09,8.09,0,0,0,.83,2l17.34,30.33a8.34,8.34,0,0,1-.21,8.62l-12.36,19.33a34.61,34.61,0,0,0-4.45,26.9l5,20.5a9.23,9.23,0,0,1,.21,1.28l3,34.7A8.33,8.33,0,0,0,163.14,377l15.07-39a8.31,8.31,0,0,1,3.6-4.22l27.61-16a8.53,8.53,0,0,0,2.29-1.94l19.82-24.27a8.32,8.32,0,0,1,5.23-3l34.64-5.15a8.32,8.32,0,0,0,6.72-5.74l9.13-29a8.35,8.35,0,0,1,2.46-3.77l14.4-12.61a8.35,8.35,0,0,0,.8-11.77h0l-.17-.18L273,186.23a8.24,8.24,0,0,1-1.46-2.18l-12.71-27.47A8.28,8.28,0,0,0,257,154L225,123.79a8.28,8.28,0,0,0-4.95-2.24l-53.66-5a8.32,8.32,0,0,1-7.55-7.84L158,91.5a8.34,8.34,0,0,0-3.8-6.55l-12-7.76a8.34,8.34,0,0,1,1-14.55l13.44-6.29a8.34,8.34,0,0,1,10,2.26l10.81,13.15a8.34,8.34,0,0,0,10.72,1.85L190.74,72a8.33,8.33,0,0,0,3.67-4.65l3.31-10.54a8.3,8.3,0,0,1,4.38-5L252,28.22a8.43,8.43,0,0,1,4-.79L303,29.62a8.35,8.35,0,0,0,8.72-7.94,8.54,8.54,0,0,0-.39-2.93L305.86,3.36" transform="translate(-0.63 -0.81)"/><path id="Path_323" data-name="Path 323" class="cls-3" d="M420.78,48.93,410,58.89a11.23,11.23,0,0,0,0,15.87,11.34,11.34,0,0,0,2.16,1.69l23.68,14.2a11.24,11.24,0,0,1,5.44,9.13l2,44.66a11.23,11.23,0,0,1-2.12,7.08l-29.9,41.33a11.23,11.23,0,0,0-.76,12l12.5,22.95a11.27,11.27,0,0,1,1.36,5.83l-.92,22.66a11.23,11.23,0,0,0,9.47,11.55L465.91,273a11.23,11.23,0,0,1,9.36,12.82,12.75,12.75,0,0,1-.42,1.75l-23.42,71.89a11,11,0,0,1-1.64,3.18l-18,24.45a11.21,11.21,0,0,0-1.92,4.23l-8.21,37.1a11.31,11.31,0,0,1-2.35,4.77l-10.67,12.75a11.23,11.23,0,0,0,12.17,17.85l46.91-13.55" transform="translate(-0.63 -0.81)"/><path id="Path_324" data-name="Path 324" class="cls-3" d="M91.91,469.05l14.57-14.72a8.72,8.72,0,0,1,4.38-2.31l27-5.43c.25,0,.49-.1.72-.17L156,441.36a8.74,8.74,0,0,1,9.46,13.6l-7.94,10.66a8.75,8.75,0,0,0,4.39,13.55l31.65,9.95a8.84,8.84,0,0,0,5.07.05l30.1-8.76a8.71,8.71,0,0,1,7.91,1.57l21,16.9a8.8,8.8,0,0,0,2.57,1.44l29.44,10.38a8.75,8.75,0,0,1,5.83,8.09l.57,17.12" transform="translate(-0.63 -0.81)"/><path id="Path_325" data-name="Path 325" class="cls-3" d="M291.34,289.71a53.78,53.78,0,1,1-53.78-53.78,53.77,53.77,0,0,1,53.78,53.78Z" transform="translate(-0.63 -0.81)"/><path id="Path_326" data-name="Path 326" class="cls-4" d="M243.22,289.71a7.38,7.38,0,1,1-7.38-7.38h0a7.37,7.37,0,0,1,7.38,7.38" transform="translate(-0.63 -0.81)"/><path id="Path_327" data-name="Path 327" class="cls-3" d="M454.1,166.8a24,24,0,1,1-24-24.05h0a24,24,0,0,1,24,24h0Z" transform="translate(-0.63 -0.81)"/><path id="Path_328" data-name="Path 328" class="cls-4" d="M435.56,166.8a6.15,6.15,0,1,1-6.15-6.15,6.15,6.15,0,0,1,6.15,6.15h0" transform="translate(-0.63 -0.81)"/></g></g></g><g id="Group_285" data-name="Group 285"><g class="cls-5"><g id="Group_284" data-name="Group 284"><path id="Path_329" data-name="Path 329" class="cls-3" d="M269.11,535.74a24,24,0,1,1-24.05-24.05h0a24,24,0,0,1,24,24Z" transform="translate(-0.63 -0.81)"/><path id="Path_330" data-name="Path 330" class="cls-4" d="M250.56,535.74a6.15,6.15,0,1,1-6.14-6.15,6.14,6.14,0,0,1,6.14,6.15h0" transform="translate(-0.63 -0.81)"/></g></g></g></g></g></g></svg>