<svg xmlns="http://www.w3.org/2000/svg" xmlns:xlink="http://www.w3.org/1999/xlink" viewBox="0 0 138.7 62.16"><defs><style>.cls-1{fill:none;}.cls-2,.cls-5{fill:#0065ff;}.cls-2{opacity:0.51;isolation:isolate;}.cls-3{opacity:0.43;}.cls-4{clip-path:url(#clip-path);}.cls-6{clip-path:url(#clip-path-2);}</style><clipPath id="clip-path"><rect class="cls-1" x="22.8" y="5.98" width="37.8" height="21.52"/></clipPath><clipPath id="clip-path-2"><rect class="cls-1" x="78.1" y="34.66" width="37.8" height="21.52"/></clipPath></defs><g id="Layer_2" data-name="Layer 2"><g id="Layer_1-2" data-name="Layer 1"><g id="Group_969" data-name="Group 969"><rect id="Rectangle_647" data-name="Rectangle 647" class="cls-2" width="35.53" height="62.16" rx="3.74"/><g id="Group_966" data-name="Group 966" class="cls-3"><g class="cls-4"><g id="Group_965" data-name="Group 965"><path id="Path_239" data-name="Path 239" class="cls-5" d="M59.46,24.91c-12.07-5.53-24.15,7.05-36.22.81A.82.82,0,0,1,22.8,25V9.3a.81.81,0,0,1,.81-.8.89.89,0,0,1,.33.08c12.08,5.52,24.15-7,36.23-.81a.8.8,0,0,1,.43.71v15.7a.8.8,0,0,1-.8.8.93.93,0,0,1-.33-.07"/></g></g></g><circle id="Ellipse_77" data-name="Ellipse 77" class="cls-5" cx="70.03" cy="16.34" r="3.13"/><circle id="Ellipse_94" data-name="Ellipse 94" class="cls-5" cx="81.66" cy="16.34" r="3.13"/><path id="Polygon_3" data-name="Polygon 3" class="cls-5" d="M91.93,14.1a.89.89,0,0,1,.89-.89h0a1,1,0,0,1,.46.14l4.49,2.76a.89.89,0,0,1,.29,1.23h0a.85.85,0,0,1-.33.32l-4.52,2.5A.9.9,0,0,1,92,19.82h0a1,1,0,0,1-.11-.44Z"/><rect id="Rectangle_649" data-name="Rectangle 649" class="cls-2" x="103.17" width="35.53" height="62.16" rx="3.74"/><g id="Group_968" data-name="Group 968" class="cls-3"><g class="cls-6"><g id="Group_967" data-name="Group 967"><path id="Path_239-2-2" data-name="Path 239-2-2" class="cls-5" d="M79.24,37.25c12.08,5.53,24.15-7,36.22-.81a.8.8,0,0,1,.44.71V52.86a.81.81,0,0,1-1.14.72c-12.07-5.53-24.15,7.05-36.22.81a.8.8,0,0,1-.44-.71V38a.81.81,0,0,1,1.14-.73"/></g></g></g><circle id="Ellipse_77-2" data-name="Ellipse 77-2" class="cls-5" cx="68.67" cy="45.82" r="3.13"/><circle id="Ellipse_94-2" data-name="Ellipse 94-2" class="cls-5" cx="57.04" cy="45.82" r="3.13"/><path id="Polygon_3-2" data-name="Polygon 3-2" class="cls-5" d="M46.78,48.06a.91.91,0,0,1-.9.89,1,1,0,0,1-.46-.14l-4.5-2.76a.93.93,0,0,1-.29-1.24A.89.89,0,0,1,41,44.5L45.48,42a.9.9,0,0,1,1.22.35h0a.87.87,0,0,1,.11.44Z"/></g></g></g></svg>