<svg xmlns="http://www.w3.org/2000/svg" xmlns:xlink="http://www.w3.org/1999/xlink" viewBox="0 0 138.69 99.62"><defs><style>.cls-1{fill:none;}.cls-2{opacity:0.38;}.cls-3{clip-path:url(#clip-path);}.cls-4{fill:#a5ce20;}.cls-5{opacity:0.28;}.cls-6{clip-path:url(#clip-path-2);}.cls-7{opacity:0.68;}.cls-8{clip-path:url(#clip-path-3);}.cls-9{clip-path:url(#clip-path-4);}.cls-10{opacity:0.53;}</style><clipPath id="clip-path" transform="translate(0)"><rect class="cls-1" x="19.59" width="49.81" height="99.61"/></clipPath><clipPath id="clip-path-2" transform="translate(0)"><rect class="cls-1" x="69.4" width="49.81" height="99.61"/></clipPath><clipPath id="clip-path-3" transform="translate(0)"><rect class="cls-1" x="82.93" y="52.5" width="55.77" height="29.01"/></clipPath><clipPath id="clip-path-4" transform="translate(0)"><rect class="cls-1" y="19.1" width="55.77" height="29.01"/></clipPath></defs><g id="Layer_2" data-name="Layer 2"><g id="Layer_1-2" data-name="Layer 1"><g id="Group_964" data-name="Group 964"><g id="Group_963" data-name="Group 963"><g id="Group_962" data-name="Group 962"><g id="Group_181" data-name="Group 181" class="cls-2"><g id="Group_180" data-name="Group 180"><g id="Group_955" data-name="Group 955"><g class="cls-3"><g id="Group_954" data-name="Group 954"><g id="Group_179" data-name="Group 179"><path id="Path_230" data-name="Path 230" class="cls-4" d="M69.39,99.61A49.81,49.81,0,0,1,20.26,49.14h0A49.81,49.81,0,0,1,69.39,0" transform="translate(0)"/></g></g></g></g></g></g><g id="Group_190" data-name="Group 190" class="cls-5"><g id="Group_189" data-name="Group 189"><g id="Group_957" data-name="Group 957"><g class="cls-6"><g id="Group_956" data-name="Group 956"><g id="Group_188" data-name="Group 188"><path id="Path_233" data-name="Path 233" class="cls-4" d="M69.39,99.61a49.81,49.81,0,0,0,50.48-49.13h0A49.81,49.81,0,0,0,70.73,0H69.39" transform="translate(0)"/></g></g></g></g></g></g><g id="Group_193" data-name="Group 193" class="cls-7"><g id="Group_192" data-name="Group 192"><g id="Group_959" data-name="Group 959"><g class="cls-8"><g id="Group_958" data-name="Group 958"><g id="Group_191" data-name="Group 191"><path id="Path_234" data-name="Path 234" class="cls-4" d="M86.4,79.77l31.2,1.72A7.58,7.58,0,0,0,123,79.67l12.11-8.39a8.45,8.45,0,0,0,2.13-11.76h0a8.49,8.49,0,0,0-5.7-3.54l-19.93-3a3,3,0,0,0-3.39,2.51,3.15,3.15,0,0,0,0,.44h0a4.16,4.16,0,0,0,2.62,3.88l3.72,1.5a2.58,2.58,0,0,1,1.68,2.44,2.49,2.49,0,0,1-2,2.35L85.8,72.51a3.68,3.68,0,0,0,.61,7.26" transform="translate(0)"/></g></g></g></g></g></g><g id="Group_193-2" data-name="Group 193-2" class="cls-7"><g id="Group_192-2" data-name="Group 192-2"><g id="Group_961" data-name="Group 961"><g class="cls-9"><g id="Group_960" data-name="Group 960"><g id="Group_191-2" data-name="Group 191-2"><path id="Path_234-2" data-name="Path 234-2" class="cls-4" d="M52.29,20.83l-31.2-1.71a7.51,7.51,0,0,0-5.34,1.82L3.64,29.32A8.46,8.46,0,0,0,7.2,44.63l19.94,3a3,3,0,0,0,3.39-2.51,3.15,3.15,0,0,0,0-.44h0a4.19,4.19,0,0,0-2.62-3.88l-3.73-1.5a2.58,2.58,0,0,1-1.68-2.44,2.49,2.49,0,0,1,1.95-2.35L52.89,28.1a3.68,3.68,0,0,0-.6-7.26" transform="translate(0)"/></g></g></g></g></g></g></g></g><g id="Group_210-2" data-name="Group 210-2" class="cls-10"><path id="Path_239-2" data-name="Path 239-2" class="cls-4" d="M94.91,60.9c-17.42-8-34.84,10.17-52.25,1.17A1.14,1.14,0,0,1,42,61V38.38a1.15,1.15,0,0,1,1.64-1c17.42,8,34.84-10.17,52.25-1.17a1.16,1.16,0,0,1,.63,1V59.86A1.15,1.15,0,0,1,95.39,61a1.13,1.13,0,0,1-.48-.11" transform="translate(0)"/></g></g></g></g></svg>