<svg xmlns="http://www.w3.org/2000/svg" viewBox="0 0 170.26 164.8"><defs><style>.cls-1{opacity:0.69;}.cls-2{fill:#56c1bf;}.cls-3{opacity:0.79;}.cls-4{opacity:0.68;}.cls-5{opacity:0.7;}.cls-6{opacity:0.57;}.cls-7{fill:none;}.cls-8{fill:#fff;opacity:0.59;isolation:isolate;}</style></defs><g id="Layer_2" data-name="Layer 2"><g id="Layer_1-2" data-name="Layer 1"><g id="Group_188" data-name="Group 188" class="cls-1"><path id="Path_233" data-name="Path 233" class="cls-2" d="M84.7,137A33.53,33.53,0,1,0,84.7,70h0"/></g><g id="Group_179" data-name="Group 179"><path id="Path_230" data-name="Path 230" class="cls-2" d="M84.7,137A33.53,33.53,0,1,1,84.7,70"/></g><g id="Group_145" data-name="Group 145" class="cls-3"><path id="Path_220" data-name="Path 220" class="cls-2" d="M99.73,14.05a14,14,0,1,1-14-14h0a14,14,0,0,1,14,14.05"/></g><g id="Group_367" data-name="Group 367" class="cls-4"><g id="Group_149" data-name="Group 149"><g id="Group_148" data-name="Group 148"><path id="Path_221" data-name="Path 221" class="cls-2" d="M56.54,57.68a29.64,29.64,0,1,1,59.28,0v0"/></g></g></g><g id="Group_145-2" data-name="Group 145-2" class="cls-5"><path id="Path_220-2" data-name="Path 220-2" class="cls-2" d="M154.17,104.08a14,14,0,1,1-14-14h0a14,14,0,0,1,14,14"/></g><g id="Group_148-2" data-name="Group 148-2" class="cls-5"><path id="Path_221-2" data-name="Path 221-2" class="cls-2" d="M111,147.72a29.64,29.64,0,1,1,59.28,0v0"/></g><g id="Group_145-3" data-name="Group 145-3" class="cls-5"><path id="Path_220-3" data-name="Path 220-3" class="cls-2" d="M43.2,104.08A14,14,0,1,1,29.15,90h0a14,14,0,0,1,14.05,14"/></g><g id="Group_148-3" data-name="Group 148-3" class="cls-5"><path id="Path_221-3" data-name="Path 221-3" class="cls-2" d="M0,147.72a29.65,29.65,0,1,1,59.29,0v0"/></g><g id="Path_478" data-name="Path 478" class="cls-6"><path class="cls-7" d="M121.38,56.09A60.44,60.44,0,1,1,36.74,68h0A60.44,60.44,0,0,1,121.38,56.09Z"/><path class="cls-2" d="M117.77,60.89a54.43,54.43,0,1,0,10.72,76.23,54.48,54.48,0,0,0-10.72-76.23m3.61-4.8A60.44,60.44,0,1,1,36.74,68,60.43,60.43,0,0,1,121.38,56.09Z"/></g><path id="Path_572" data-name="Path 572" class="cls-8" d="M87.27,84.42,91.5,93a2.93,2.93,0,0,0,2.2,1.6L103.15,96a2.93,2.93,0,0,1,1.62,5l-6.84,6.66a2.94,2.94,0,0,0-.84,2.59l1.61,9.42a2.92,2.92,0,0,1-4.24,3.08L86,118.25a3,3,0,0,0-2.72,0l-8.46,4.45a2.93,2.93,0,0,1-4.24-3.08l1.62-9.42a3,3,0,0,0-.84-2.59L64.53,101a2.92,2.92,0,0,1,1.62-5l9.45-1.37A2.94,2.94,0,0,0,77.8,93L82,84.42a2.93,2.93,0,0,1,5.25,0Z"/></g></g></svg>