<svg xmlns="http://www.w3.org/2000/svg" viewBox="0 0 126 158.56"><defs><style>.cls-1,.cls-2,.cls-3,.cls-4,.cls-5{fill:#634aaf;isolation:isolate;}.cls-1{opacity:0.17;}.cls-2{opacity:0.83;}.cls-3{opacity:0.43;}.cls-4{opacity:0.54;}.cls-5{opacity:0.42;}</style></defs><g id="Layer_2" data-name="Layer 2"><g id="Layer_1-2" data-name="Layer 1"><g id="Group_543" data-name="Group 543"><circle id="Ellipse_160" data-name="Ellipse 160" class="cls-1" cx="63" cy="63" r="63"/><g id="Group_427" data-name="Group 427"><path id="Path_569" data-name="Path 569" class="cls-2" d="M81.2,121.42H44.76A4.58,4.58,0,0,0,40.18,126h0a4.58,4.58,0,0,0,4.58,4.57H81.19a4.58,4.58,0,1,0,0-9.16Z"/><path id="Path_569-2" data-name="Path 569-2" class="cls-3" d="M81.2,130.58H44.76a4.58,4.58,0,0,0-4.58,4.58h0a4.58,4.58,0,0,0,4.58,4.57H81.19a4.58,4.58,0,1,0,0-9.16Z"/><path id="Path_570" data-name="Path 570" class="cls-2" d="M53.52,149.48v3.87a5.21,5.21,0,0,0,5.19,5.21h7.4a5.21,5.21,0,0,0,5.19-5.19v-3.78c6-.33,10.63-3.89,10.66-9.85H43.89C43.92,145.31,48,148.67,53.52,149.48Z"/><path id="Path_571" data-name="Path 571" class="cls-4" d="M63,16.14c-25.43,0-46,21.16-46,47.24a48.11,48.11,0,0,0,3.36,17.74c.28.7.57,1.39.88,2.09a47.44,47.44,0,0,0,6.14,10.08c1.44,1.81,2.8,3.68,4.06,5.62l9.4,14.44H85.19l9.4-14.44c1.26-1.94,2.62-3.81,4.06-5.62a47.44,47.44,0,0,0,6.14-10.08c.31-.68.6-1.38.88-2.09A48.12,48.12,0,0,0,109,63.38C109,37.28,88.41,16.14,63,16.14Z"/></g><path id="Path_788" data-name="Path 788" class="cls-4" d="M73.78,121.42h-22L40.18,73.11h45.6Z"/><path id="Path_789" data-name="Path 789" class="cls-5" d="M79.54,121.42H45.73l-4.92-8.07H85.05Z"/></g></g></g></svg>