<svg xmlns="http://www.w3.org/2000/svg" width="669.453" height="789" viewBox="0 0 669.453 789">
  <g id="Group_1276" data-name="Group 1276" transform="translate(-1041 -220)">
    <circle id="Ellipse_149" data-name="Ellipse 149" cx="125.5" cy="125.5" r="125.5" transform="translate(1268 220)" fill="#eef5ff"/>
    <circle id="Ellipse_151" data-name="Ellipse 151" cx="125.5" cy="125.5" r="125.5" transform="translate(1041 758)" fill="#ff7a7f" opacity="0.108"/>
    <circle id="Ellipse_150" data-name="Ellipse 150" cx="179.5" cy="179.5" r="179.5" transform="translate(1306 507)" fill="#c4dd73" opacity="0.209"/>
    <g id="Group_542" data-name="Group 542" transform="translate(1294.783 2167.648)" style="mix-blend-mode: darken;isolation: isolate">
      <g id="Group_510" data-name="Group 510">
        <path id="Path_763" data-name="Path 763" d="M233.044-1783.223,221.3-1781.76a9.8,9.8,0,0,0-5.5,2.588L175-1747.551" fill="none" stroke="#000" stroke-miterlimit="10" stroke-width="2"/>
        <path id="Path_764" data-name="Path 764" d="M226.934-1732.083l-2.5-2.256c-.03-.2,3.561-11.672,3.357-19.669-.2-7.629-4.188-11.8-4.188-11.8a.118.118,0,0,1,.117-.119.118.118,0,0,1,.1.06l14.49,25.225" fill="none" stroke="#000" stroke-miterlimit="10" stroke-width="2"/>
        <path id="Path_765" data-name="Path 765" d="M172.1-1730.265l-5.04,21.547a71.873,71.873,0,0,0-1.888,16.158l-.3,106.735,84.286-2.632-13.9-111.081a36.888,36.888,0,0,0-9.659-20.612h0" fill="none" stroke="#000" stroke-miterlimit="10" stroke-width="2"/>
        <path id="Path_766" data-name="Path 766" d="M226.934-1778.005l13.12-.89-4.933,11.261-8.188,1.349-11.1-.667L185.077-1731.2c-.11.126-.22.25-.333.372a8.918,8.918,0,0,1-8.145,2.7,9.252,9.252,0,0,1-6.765-5.106l-.38-.789a22,22,0,0,1-2.164-8.586l-.546-12.363" fill="none" stroke="#000" stroke-miterlimit="10" stroke-width="2"/>
        <path id="Path_767" data-name="Path 767" d="M165.589-1781.113h0a15.718,15.718,0,0,1,6.983-13.771l17-5.239" fill="none" stroke="#000" stroke-miterlimit="10" stroke-width="2"/>
        <path id="Path_768" data-name="Path 768" d="M228.563-1778.494l5.69-19.983a2.156,2.156,0,0,1,2.177-1.562l13.93.684a2.154,2.154,0,0,1,2.046,2.257,2.15,2.15,0,0,1-.065.428l-6.412,25.109a2.154,2.154,0,0,1-1.974,1.62l-8.2.428,4.635-9.781Z"/>
        <line id="Line_208" data-name="Line 208" y1="12.264" x2="0.591" transform="translate(209.298 -1810.858)" fill="none" stroke="#000" stroke-miterlimit="10" stroke-width="2"/>
        <path id="Path_769" data-name="Path 769" d="M236.109-1790.255l-35.041,7.76-34.744,1.356a4.366,4.366,0,0,0-4.168,3.88l-2.55,22.945,5.365-.5a9.332,9.332,0,0,1,3.478.335l4.276,1.244a9.394,9.394,0,0,0,4.585.165l4.381-.941,2.339-.972-.2-6.422" fill="none" stroke="#000" stroke-miterlimit="10" stroke-width="2"/>
        <path id="Path_770" data-name="Path 770" d="M227.794-1758.924l7.476-2.666a13.514,13.514,0,0,1,4.537-.785h3.7a13.511,13.511,0,0,0,9.482-3.886h0l-7.318-12.633" fill="none" stroke="#000" stroke-miterlimit="10" stroke-width="2"/>
        <path id="Path_771" data-name="Path 771" d="M176.17-1585.828v20.183h29.822a2.025,2.025,0,0,0,2.026-2.027,2.027,2.027,0,0,0-.56-1.4h0a21.533,21.533,0,0,0-15.577-6.665H176.17" fill="none" stroke="#000" stroke-miterlimit="10" stroke-width="2"/>
        <line id="Line_209" data-name="Line 209" y2="10.892" transform="translate(190.381 -1586.625)" fill="none" stroke="#000" stroke-miterlimit="10" stroke-width="2"/>
        <path id="Path_772" data-name="Path 772" d="M233.74-1587.919l9.457,20.938,27.179-12.276a2.027,2.027,0,0,0,1.012-2.682,2.034,2.034,0,0,0-1.087-1.044h0a21.536,21.536,0,0,0-16.938.338l-14.319,6.468" fill="none" stroke="#000" stroke-miterlimit="10" stroke-width="2"/>
        <line id="Line_210" data-name="Line 210" x2="2.878" y2="6.371" transform="translate(249.116 -1588.4)" fill="none" stroke="#000" stroke-miterlimit="10" stroke-width="2"/>
        <path id="Path_773" data-name="Path 773" d="M243.38-1744.189l-6.708,3.982a22.553,22.553,0,0,0-3.5,2.558l-6.242,5.561-4.551-4.113a8.034,8.034,0,0,0-8-1.632l-5.437,1.877a6.033,6.033,0,0,0,.378,8.525l.066.06,2.921,2.6a2.538,2.538,0,0,0,3.582-.212,2.652,2.652,0,0,0,.245-.325h0a2.529,2.529,0,0,1,3.491-.78,2.49,2.49,0,0,1,.442.357l5.526,5.583,24.4-13.616a10.771,10.771,0,0,0,5.233-6.923h0a10.77,10.77,0,0,0-1.482-8.4l-8.736-13.286" fill="none" stroke="#000" stroke-miterlimit="10" stroke-width="2"/>
        <line id="Line_211" data-name="Line 211" y2="9.493" transform="translate(206.217 -1830.54)" fill="none" stroke="#000" stroke-miterlimit="10" stroke-width="2"/>
        <path id="Path_774" data-name="Path 774" d="M215.523-1800.123l7.257,2.177a9.04,9.04,0,0,1,4.691,3.313l3.964,5.41" fill="none" stroke="#000" stroke-miterlimit="10" stroke-width="2"/>
        <path id="Path_775" data-name="Path 775" d="M216.757-1828.328l6.471-6.309a6.247,6.247,0,0,0,.1-8.834,6.234,6.234,0,0,0-.479-.442c-3.382-2.821-7.318-8.752-15.264-9.419a25.955,25.955,0,0,0-24.733,12.5" fill="none" stroke="#000" stroke-miterlimit="10" stroke-width="2"/>
        <path id="Path_776" data-name="Path 776" d="M222.854-1843.914a9.988,9.988,0,0,0-2.625-12.552c-1.949-1.627-8.069-3.975-16.881-3.975s-23.814,4.1-27.076,16.624c-.977,3.75.159,13.277,4.811,16.626" fill="none" stroke="#000" stroke-miterlimit="10" stroke-width="2"/>
        <path id="Path_777" data-name="Path 777" d="M213.824-1859.169c-.738-6.336-22.129-11.087-33.909.558" fill="none" stroke="#000" stroke-miterlimit="10" stroke-width="2"/>
        <path id="Path_778" data-name="Path 778" d="M202.721-1851.018" fill="none" stroke="#000" stroke-miterlimit="10" stroke-width="2"/>
        <path id="Path_779" data-name="Path 779" d="M191.865-1839.089c8.141-2.149,16.4-2.64,24.892,0,0,0-1.024-6.3-11.2-6.3s-16.867,9.979-16.867,9.979v13.028a13.038,13.038,0,0,0,13.037,13.039h2a13.037,13.037,0,0,0,13.039-13.037v-16.713" fill="none" stroke="#000" stroke-miterlimit="10" stroke-width="2"/>
        <path id="Path_780" data-name="Path 780" d="M190.3-1816.086s-12.694-9.975-9.753-17.778" fill="none" stroke="#000" stroke-miterlimit="10" stroke-width="2"/>
        <path id="Path_781" data-name="Path 781" d="M188.685-1795.97s3.215-14.706,3.4-17.625" fill="none" stroke="#000" stroke-miterlimit="10" stroke-width="2"/>
        <circle id="Ellipse_143" data-name="Ellipse 143" cx="3.568" cy="3.568" r="3.568" transform="translate(183.168 -1817.994)" fill="none" stroke="#000" stroke-miterlimit="10" stroke-width="2"/>
        <path id="Path_782" data-name="Path 782" d="M215.523-1817.994a3.567,3.567,0,0,1,3.568,3.568,3.568,3.568,0,0,1-3.568,3.568,3.561,3.561,0,0,1-2.894-1.481" fill="none" stroke="#000" stroke-miterlimit="10" stroke-width="2"/>
        <g id="Group_506" data-name="Group 506">
          <g id="Group_505" data-name="Group 505">
            <path id="Path_783" data-name="Path 783" d="M156.614-1872.734h-5.028a9.914,9.914,0,0,0-9.914-9.914H113.68a9.913,9.913,0,0,0-9.914,9.912v0H98.738a7.485,7.485,0,0,0-7.485,7.485h0a7.486,7.486,0,0,0,7.485,7.484h-.414a9.05,9.05,0,0,0,9.049,9.049h35.165a9.049,9.049,0,0,0,9.049-9.049h5.028a7.485,7.485,0,0,0,7.485-7.484h0a7.485,7.485,0,0,0-7.485-7.485Z" fill="none" stroke="#000" stroke-miterlimit="10" stroke-width="2"/>
            <path id="Path_784" data-name="Path 784" d="M102.024-1866.5l25.625,25.625,25.19-25.189" fill="none" stroke="#000" stroke-miterlimit="10" stroke-width="2"/>
            <line id="Line_212" data-name="Line 212" x2="6.272" transform="translate(103.38 -1858.868)" fill="none" stroke="#000" stroke-miterlimit="10" stroke-width="2"/>
            <line id="Line_213" data-name="Line 213" x2="10.256" y2="10.256" transform="translate(112.025 -1871.751)" fill="none" stroke="#000" stroke-miterlimit="10" stroke-width="2"/>
            <line id="Line_214" data-name="Line 214" y1="11.941" x2="11.941" transform="translate(114.836 -1865.625)" fill="none" stroke="#000" stroke-miterlimit="10" stroke-width="2"/>
            <line id="Line_215" data-name="Line 215" x2="13.25" y2="13.25" transform="translate(132.028 -1871.751)" fill="none" stroke="#000" stroke-miterlimit="10" stroke-width="2"/>
            <line id="Line_216" data-name="Line 216" x1="5.594" y2="5.594" transform="translate(136.775 -1872.599)" fill="none" stroke="#000" stroke-miterlimit="10" stroke-width="2"/>
            <path id="Path_785" data-name="Path 785" d="M130.749-1811.479l-6.146-3.534v-28.723l3.073,2.425,3.073-2.425Z" fill="none" stroke="#000" stroke-miterlimit="10" stroke-width="2"/>
          </g>
          <path id="Path_786" data-name="Path 786" d="M92.138-1828.135c23.916,0,30.054,25.465,78.378,25.465" fill="none" stroke="#000" stroke-miterlimit="10" stroke-width="2"/>
        </g>
        <path id="Path_787" data-name="Path 787" d="M140.887-1792.405H90.806a11.981,11.981,0,0,0-11.981,11.981h0a11.981,11.981,0,0,0,11.981,11.98h22.268a7.552,7.552,0,0,1,7.552,7.552h0a7.553,7.553,0,0,1-7.552,7.552h-57" fill="none" stroke="#000" stroke-miterlimit="10" stroke-width="2"/>
        <g id="Group_509" data-name="Group 509">
          <path id="Path_788" data-name="Path 788" d="M89.448-1791.857s.765-4.591-1.786-6.633" fill="none" stroke="#000" stroke-miterlimit="10" stroke-width="2"/>
          <path id="Path_789" data-name="Path 789" d="M119.463-1791.857s-.765-4.591,1.786-6.633" fill="none" stroke="#000" stroke-miterlimit="10" stroke-width="2"/>
          <line id="Line_217" data-name="Line 217" y1="9.807" transform="translate(92.138 -1801.664)" fill="none" stroke="#000" stroke-miterlimit="10" stroke-width="2"/>
          <line id="Line_218" data-name="Line 218" y1="12.765" transform="translate(95.128 -1804.622)" fill="none" stroke="#000" stroke-miterlimit="10" stroke-width="2"/>
          <line id="Line_219" data-name="Line 219" y1="13.105" transform="translate(116.81 -1804.963)" fill="none" stroke="#000" stroke-miterlimit="10" stroke-width="2"/>
          <line id="Line_220" data-name="Line 220" y1="16.51" transform="translate(100.918 -1808.367)" fill="none" stroke="#000" stroke-miterlimit="10" stroke-width="2"/>
          <path id="Rectangle_523" data-name="Rectangle 523" d="M100.918-1817.1h0a1.65,1.65,0,0,1,1.65,1.65v5.428a1.65,1.65,0,0,1-1.65,1.65h0a1.65,1.65,0,0,1-1.65-1.65v-5.428A1.65,1.65,0,0,1,100.918-1817.1Z" fill="none" stroke="#000" stroke-miterlimit="10" stroke-width="2"/>
          <line id="Line_221" data-name="Line 221" y2="2.25" transform="translate(100.918 -1819.435)" fill="none" stroke="#000" stroke-miterlimit="10" stroke-width="2"/>
          <g id="Group_507" data-name="Group 507">
            <line id="Line_222" data-name="Line 222" y1="9.24" transform="translate(106.774 -1801.098)" fill="none" stroke="#000" stroke-miterlimit="10" stroke-width="2"/>
            <path id="Rectangle_524" data-name="Rectangle 524" d="M106.774-1809.826h0a1.65,1.65,0,0,1,1.65,1.65v5.428a1.65,1.65,0,0,1-1.65,1.65h0a1.65,1.65,0,0,1-1.65-1.65v-5.428A1.65,1.65,0,0,1,106.774-1809.826Z" fill="none" stroke="#000" stroke-miterlimit="10" stroke-width="2"/>
            <line id="Line_223" data-name="Line 223" y2="2.25" transform="translate(106.774 -1812.166)" fill="none" stroke="#000" stroke-miterlimit="10" stroke-width="2"/>
          </g>
          <g id="Group_508" data-name="Group 508">
            <line id="Line_224" data-name="Line 224" y1="14.329" transform="translate(112.801 -1806.186)" fill="none" stroke="#000" stroke-miterlimit="10" stroke-width="2"/>
            <path id="Rectangle_525" data-name="Rectangle 525" d="M112.8-1814.914h0a1.65,1.65,0,0,1,1.65,1.65v5.428a1.65,1.65,0,0,1-1.65,1.65h0a1.65,1.65,0,0,1-1.65-1.65v-5.428A1.65,1.65,0,0,1,112.8-1814.914Z" fill="none" stroke="#000" stroke-miterlimit="10" stroke-width="2"/>
            <line id="Line_225" data-name="Line 225" y2="2.25" transform="translate(112.801 -1817.254)" fill="none" stroke="#000" stroke-miterlimit="10" stroke-width="2"/>
          </g>
        </g>
        <rect id="Rectangle_526" data-name="Rectangle 526" width="36.06" height="21.642" transform="translate(56.079 -1833.122)" fill="none" stroke="#000" stroke-miterlimit="10" stroke-width="2"/>
        <rect id="Rectangle_527" data-name="Rectangle 527" width="13.157" height="4.263" transform="translate(73.287 -1814.089)" fill="none" stroke="#000" stroke-miterlimit="10" stroke-width="2"/>
        <rect id="Rectangle_528" data-name="Rectangle 528" width="7.469" height="11.497" transform="translate(76.131 -1825.976)" fill="none" stroke="#000" stroke-miterlimit="10" stroke-width="2"/>
        <path id="Path_790" data-name="Path 790" d="M93.044-1838.959h-38.2l-2.585,5.841h43.8Z" fill="none" stroke="#000" stroke-miterlimit="10" stroke-width="2"/>
        <circle id="Ellipse_144" data-name="Ellipse 144" cx="3.072" cy="3.072" r="3.072" transform="translate(62.765 -1826.517)" fill="none" stroke="#000" stroke-miterlimit="10" stroke-width="2"/>
      </g>
      <g id="Group_518" data-name="Group 518">
        <path id="Path_810" data-name="Path 810" d="M368.54-1543.5l24.627,31.551a27.174,27.174,0,0,1,5.751,16.718v41.972a92.571,92.571,0,0,1-17.1,53.606l-13.283,18.7H295.711" fill="none" stroke="#000" stroke-miterlimit="10" stroke-width="2"/>
        <path id="Path_811" data-name="Path 811" d="M327.386-1430.728l-77.012,18.188a24.323,24.323,0,0,0-18.833,23.7h0a24.323,24.323,0,0,0,4.633,14.278l70.034,76.612L362.8-1327.48l-43.752-53.475" fill="none" stroke="#000" stroke-miterlimit="10" stroke-width="2"/>
        <path id="Path_812" data-name="Path 812" d="M348.414-1487.4l-5.588,28.511a9.41,9.41,0,0,1-7.856,7.531l-48.106,7.152-14.225-4.6a13.244,13.244,0,0,0-12.1,2.066l-10.949,8.343" fill="none" stroke="#000" stroke-miterlimit="10" stroke-width="2"/>
        <path id="Path_813" data-name="Path 813" d="M262.728-1439.037l11.6,8.309h15.534l-3-13.476" fill="none" stroke="#000" stroke-miterlimit="10" stroke-width="2"/>
        <path id="Path_814" data-name="Path 814" d="M291.641-1444.914l2.452,9.246a7.867,7.867,0,0,0,7.924,5.844l50.386-2.054a6.7,6.7,0,0,0,6.066-4.516l13.8-37.38a32.877,32.877,0,0,0,2.237-17.863h0a18.836,18.836,0,0,0-10.194-13.986h0" fill="none" stroke="#000" stroke-miterlimit="10" stroke-width="2"/>
        <path id="Path_815" data-name="Path 815" d="M341.568-1526.984l-11.134,27.593-3.2,7.63a39.779,39.779,0,0,0-3.093,15.377v27.592" fill="none" stroke="#000" stroke-miterlimit="10" stroke-width="2"/>
        <path id="Path_816" data-name="Path 816" d="M286.864-1444.2l16.459-71.164,3.1-11.9a8.11,8.11,0,0,1,8.963-5.991l9.852,1.366a4.329,4.329,0,0,1,3.3,5.156,4.127,4.127,0,0,1-.125.452l-3.124,9.3a4.328,4.328,0,0,1-4.718,2.906l-9.016-1.293" fill="none" stroke="#000" stroke-miterlimit="10" stroke-width="2"/>
        <path id="Path_817" data-name="Path 817" d="M314.829-1514.038l-.345,3.4-5.057,49.879h14.714" fill="none" stroke="#000" stroke-miterlimit="10" stroke-width="2"/>
        <path id="Path_818" data-name="Path 818" d="M262.851-1438.394H204.567v11.619h59.06Z" stroke="#000" stroke-miterlimit="10" stroke-width="2"/>
        <line id="Line_237" data-name="Line 237" x2="29.75" y2="49.64" transform="translate(174.816 -1488.034)" fill="none" stroke="#000" stroke-miterlimit="10" stroke-width="2"/>
        <path id="Path_819" data-name="Path 819" d="M273.414-1418.022H121.8v-8.754H304.337" fill="none" stroke="#000" stroke-miterlimit="10" stroke-width="2"/>
        <path id="Path_820" data-name="Path 820" d="M368.541-1380.954H414.67v15.226H331.109" fill="none" stroke="#000" stroke-miterlimit="10" stroke-width="2"/>
        <g id="Group_515" data-name="Group 515">
          <g id="Group_514" data-name="Group 514">
            <g id="Group_513" data-name="Group 513">
              <g id="Group_512" data-name="Group 512">
                <path id="Path_821" data-name="Path 821" d="M361.571-1542.912a81.629,81.629,0,0,1,1.927-9.61c1.038-3.743,1.562-9.162.029-16.478-3.4-16.214-18.619-19.54-25.728-18.456-16.162,2.464-19.675,15.458-19.675,15.458" fill="#fff" stroke="#000" stroke-miterlimit="10" stroke-width="2"/>
                <path id="Path_822" data-name="Path 822" d="M319.88-1552.562s-9.054-20.536,3.852-24.888c30.634-10.33,34.306,13.735,34.306,13.735" fill="#fff" stroke="#000" stroke-miterlimit="10" stroke-width="2"/>
                <path id="Path_823" data-name="Path 823" d="M363.96-1566.73c14.919,43.15,32.819,48.927,33.35,51.31a53.1,53.1,0,0,1-13.151,15.63c-7.386,6.021-40.064,6.384-51.891,6.314a2.536,2.536,0,0,1-2.525-2.547,2.525,2.525,0,0,1,.18-.929c3.175-8.016,7.513-27.044,7.513-27.044" fill="#fff" stroke="#000" stroke-miterlimit="10" stroke-width="2"/>
                <path id="Path_824" data-name="Path 824" d="M352.457-1560.77s-21.835-3.979-33.8,1.2a9.679,9.679,0,0,1,3.218-5.52,19.126,19.126,0,0,1,10.088-3.57A28.21,28.21,0,0,1,352.457-1560.77Z" fill="#fff" stroke="#000" stroke-miterlimit="10" stroke-width="2"/>
                <path id="Path_825" data-name="Path 825" d="M357.542-1543.258" fill="#fff" stroke="#000" stroke-miterlimit="10" stroke-width="2"/>
                <path id="Path_826" data-name="Path 826" d="M357.966-1540.477" fill="#fff" stroke="#000" stroke-miterlimit="10" stroke-width="2"/>
                <path id="Path_827" data-name="Path 827" d="M359.271-1543.521s6.344,20.688-9.42,27.385" fill="#fff" stroke="#000" stroke-miterlimit="10" stroke-width="2"/>
                <path id="Path_828" data-name="Path 828" d="M369.6-1520.017s-2.214,11.042-12.153,14.391" fill="#fff" stroke="#000" stroke-miterlimit="10" stroke-width="2"/>
              </g>
            </g>
            <path id="Path_829" data-name="Path 829" d="M329.478-1539.545" fill="#fff" stroke="#000" stroke-miterlimit="10" stroke-width="2"/>
            <path id="Path_830" data-name="Path 830" d="M336.387-1532.1" fill="#fff" stroke="#000" stroke-miterlimit="10" stroke-width="2"/>
          </g>
          <path id="Path_831" data-name="Path 831" d="M353.211-1565.09l5.643,19.8a16.824,16.824,0,0,1-11.48,20.841h0l-2.473.716c-5.8,1.029-15.479-3.065-18.064-11.991l-7.829-19.1" fill="none" stroke="#000" stroke-miterlimit="10" stroke-width="2"/>
          <path id="Path_832" data-name="Path 832" d="M318.619-1559.81" fill="none" stroke="#000" stroke-miterlimit="10" stroke-width="2"/>
          <line id="Line_238" data-name="Line 238" x2="1.345" y2="12.176" transform="translate(333.765 -1550.965)" fill="none" stroke="#000" stroke-miterlimit="10" stroke-width="2"/>
        </g>
        <g id="Group_516" data-name="Group 516">
          <path id="Path_833" data-name="Path 833" d="M361.825-1326.719l10.626.961-7.264,47.021a3.233,3.233,0,0,1-3.688,2.7,3.234,3.234,0,0,1-2.071-1.226h0a34.358,34.358,0,0,1-6.715-26.182l3.811-20.884" fill="none" stroke="#000" stroke-miterlimit="10" stroke-width="2"/>
          <line id="Line_239" data-name="Line 239" x2="8.35" y2="11.991" transform="translate(344.729 -1317.8)" fill="none" stroke="#000" stroke-miterlimit="10" stroke-width="2"/>
        </g>
        <g id="Group_517" data-name="Group 517">
          <path id="Path_834" data-name="Path 834" d="M333.126-1312l-4.765,34.244-46.177,5.4a3.232,3.232,0,0,1-3.793-2.552,3.232,3.232,0,0,1,.45-2.365h0a34.351,34.351,0,0,1,22.351-15.2l29.913-5" fill="none" stroke="#000" stroke-miterlimit="10" stroke-width="2"/>
          <line id="Line_240" data-name="Line 240" x1="2.662" y2="5.018" transform="translate(303.546 -1297.953)" fill="none" stroke="#000" stroke-miterlimit="10" stroke-width="2"/>
        </g>
        <line id="Line_241" data-name="Line 241" x2="11.593" y2="2.859" transform="translate(302.891 -1513.494)" fill="none" stroke="#000" stroke-miterlimit="10" stroke-width="2"/>
        <line id="Line_242" data-name="Line 242" y2="93.431" transform="translate(395.439 -1365.728)" fill="none" stroke="#000" stroke-miterlimit="10" stroke-width="2"/>
        <line id="Line_243" data-name="Line 243" y2="93.431" transform="translate(405.255 -1365.728)" fill="none" stroke="#000" stroke-miterlimit="10" stroke-width="2"/>
        <line id="Line_244" data-name="Line 244" y2="152.586" transform="translate(133.789 -1417.737)" fill="none" stroke="#000" stroke-miterlimit="10" stroke-width="2"/>
        <line id="Line_245" data-name="Line 245" y2="152.586" transform="translate(143.606 -1417.737)" fill="none" stroke="#000" stroke-miterlimit="10" stroke-width="2"/>
      </g>
      <g id="Group_519" data-name="Group 519">
        <line id="Line_141" data-name="Line 141" y2="96.866" transform="translate(108.403 -1551.605)" fill="none" stroke="#000" stroke-miterlimit="10" stroke-width="2"/>
        <path id="Path_642" data-name="Path 642" d="M153.308-1454.738s6.144-33.219-9.667-56.5-35.236-31.623-35.236-31.623" fill="none" stroke="#000" stroke-miterlimit="10" stroke-width="2"/>
        <path id="Path_643" data-name="Path 643" d="M146.588-1453.632s5.86-34.564-7.782-54.648-30.4-27.284-30.4-27.284" fill="none" stroke="#000" stroke-miterlimit="10" stroke-width="2"/>
        <path id="Path_644" data-name="Path 644" d="M103.256-1517.846h27.678a.154.154,0,0,1,.154.156.151.151,0,0,1-.045.108l-16.74,16.74" fill="none" stroke="#000" stroke-miterlimit="10" stroke-width="2"/>
        <path id="Path_645" data-name="Path 645" d="M114.3-1500.842h27.934a.219.219,0,0,1,.217.221.218.218,0,0,1-.064.152l-27.814,25.756" fill="none" stroke="#000" stroke-miterlimit="10" stroke-width="2"/>
        <path id="Path_646" data-name="Path 646" d="M114.3-1474.712h33.276a.261.261,0,0,1,.262.259.266.266,0,0,1-.076.185l-21.093,19.531" fill="none" stroke="#000" stroke-miterlimit="10" stroke-width="2"/>
        <line id="Line_142" data-name="Line 142" x2="9.109" transform="translate(138.73 -1517.845)" fill="none" stroke="#000" stroke-miterlimit="10" stroke-width="2"/>
        <line id="Line_143" data-name="Line 143" y2="77.394" transform="translate(114.574 -1532.133)" fill="none" stroke="#000" stroke-miterlimit="10" stroke-width="2"/>
        <rect id="Rectangle_483" data-name="Rectangle 483" width="65.857" height="6.898" transform="translate(96.485 -1454.739)" fill="#fff" stroke="#000" stroke-miterlimit="10" stroke-width="2"/>
      </g>
      <g id="Group_520" data-name="Group 520">
        <path id="Path_835" data-name="Path 835" d="M-1.465-1572.095s-4.477-6.992-2.4-21.335c3.2-22.1,28.187-27.112,28.361-36.447" fill="none" stroke="#000" stroke-miterlimit="10" stroke-width="2"/>
        <path id="Path_836" data-name="Path 836" d="M50.457-1572.094s4.477-6.992,2.4-21.335c-3.2-22.1-28.187-27.113-28.361-36.448v-17.3" fill="none" stroke="#000" stroke-miterlimit="10" stroke-width="2"/>
        <path id="Path_837" data-name="Path 837" d="M48.619-1547.951s-2.978-4.651-1.6-14.19c2.129-14.7,18.748-18.034,18.864-24.243" fill="none" stroke="#000" stroke-miterlimit="10" stroke-width="2"/>
        <path id="Path_838" data-name="Path 838" d="M83.154-1547.951s2.978-4.651,1.6-14.191c-2.129-14.7-18.748-18.035-18.864-24.242V-1597.9" fill="none" stroke="#000" stroke-miterlimit="10" stroke-width="2"/>
        <rect id="Rectangle_530" data-name="Rectangle 530" width="34.477" height="10.265" transform="translate(48.662 -1547.951)" fill="none" stroke="#000" stroke-miterlimit="10" stroke-width="2"/>
        <rect id="Rectangle_531" data-name="Rectangle 531" width="34.477" height="37.689" transform="translate(48.662 -1537.687)" fill="none" stroke="#000" stroke-miterlimit="10" stroke-width="2"/>
        <path id="Path_839" data-name="Path 839" d="M71.342-1526.489l-5.456-5.328-5.439,5.329a10.754,10.754,0,0,0-3.225,7.676V-1500h17.36v-18.8A10.741,10.741,0,0,0,71.342-1526.489Z" fill="none" stroke="#000" stroke-miterlimit="10" stroke-width="2"/>
        <path id="Path_840" data-name="Path 840" d="M-33.985-1547.951s-2.978-4.651-1.6-14.19c2.129-14.7,18.748-18.034,18.864-24.243" fill="none" stroke="#000" stroke-miterlimit="10" stroke-width="2"/>
        <path id="Path_841" data-name="Path 841" d="M.551-1547.951s2.978-4.651,1.6-14.191c-2.129-14.7-18.748-18.035-18.864-24.242V-1597.9" fill="none" stroke="#000" stroke-miterlimit="10" stroke-width="2"/>
        <rect id="Rectangle_532" data-name="Rectangle 532" width="34.477" height="10.265" transform="translate(-33.941 -1547.951)" fill="none" stroke="#000" stroke-miterlimit="10" stroke-width="2"/>
        <rect id="Rectangle_533" data-name="Rectangle 533" width="34.477" height="37.689" transform="translate(-33.941 -1537.687)" fill="none" stroke="#000" stroke-miterlimit="10" stroke-width="2"/>
        <path id="Path_842" data-name="Path 842" d="M-11.261-1526.489l-5.456-5.328-5.439,5.329a10.751,10.751,0,0,0-3.226,7.676V-1500h17.36v-18.8A10.74,10.74,0,0,0-11.261-1526.489Z" fill="none" stroke="#000" stroke-miterlimit="10" stroke-width="2"/>
        <rect id="Rectangle_534" data-name="Rectangle 534" width="51.835" height="15.432" transform="translate(-1.399 -1572.094)" fill="#fff" stroke="#000" stroke-miterlimit="10" stroke-width="2"/>
        <rect id="Rectangle_535" data-name="Rectangle 535" width="51.835" height="56.664" transform="translate(-1.399 -1556.661)" fill="#fff" stroke="#000" stroke-miterlimit="10" stroke-width="2"/>
        <path id="Path_843" data-name="Path 843" d="M32.7-1596.826l-8.2-8.01-8.178,8.014a16.155,16.155,0,0,0-4.849,11.54v13.188h26.1v-13.172A16.157,16.157,0,0,0,32.7-1596.826Z" fill="none" stroke="#000" stroke-miterlimit="10" stroke-width="2"/>
        <path id="Path_843-2" data-name="Path 843" d="M32.682-1539.941l-8.2-8.01-8.178,8.013a16.15,16.15,0,0,0-4.849,11.54v28.286h26.1v-28.27A16.155,16.155,0,0,0,32.682-1539.941Z" fill="none" stroke="#000" stroke-miterlimit="10" stroke-width="2"/>
      </g>
      <g id="Group_522" data-name="Group 522">
        <g id="Group_449" data-name="Group 449">
          <path id="Path_647" data-name="Path 647" d="M-212.983-1356.2" fill="none" stroke="#000" stroke-miterlimit="10" stroke-width="2"/>
          <path id="Path_648" data-name="Path 648" d="M-113.073-1304.551c5.5,0,5.5-4.348,11.009-4.348" fill="none" stroke="#000" stroke-miterlimit="10" stroke-width="2"/>
          <path id="Path_649" data-name="Path 649" d="M-157.1-1304.551c5.5,0,5.5-4.348,11.007-4.348s5.5,4.348,11.008,4.348,5.5-4.348,11.007-4.348" fill="none" stroke="#000" stroke-miterlimit="10" stroke-width="2"/>
          <path id="Path_650" data-name="Path 650" d="M-212.132-1308.9c5.5,0,5.5,4.348,11.006,4.348s5.5-4.348,11-4.348,5.5,4.348,11,4.348,5.5-4.348,11.005-4.348" fill="none" stroke="#000" stroke-miterlimit="10" stroke-width="2"/>
          <g id="Group_448" data-name="Group 448">
            <rect id="Rectangle_484" data-name="Rectangle 484" width="15.388" height="54.406" transform="translate(-89.254 -1398.13)"/>
            <rect id="Rectangle_485" data-name="Rectangle 485" width="6.46" height="20.847" transform="translate(-68.802 -1364.569)"/>
            <g id="Rectangle_486" data-name="Rectangle 486">
              <rect id="Rectangle_536" data-name="Rectangle 536" width="8.408" height="34.743" transform="translate(-62.342 -1378.821)" fill="#fff"/>
              <rect id="Rectangle_537" data-name="Rectangle 537" width="7.158" height="33.471" transform="translate(-61.717 -1378.186)" fill="none" stroke="#000" stroke-miterlimit="10" stroke-width="2"/>
            </g>
            <rect id="Rectangle_487" data-name="Rectangle 487" width="15.388" height="12.715" transform="translate(-126.082 -1356.987)"/>
            <g id="Group_447" data-name="Group 447">
              <rect id="Rectangle_489" data-name="Rectangle 489" width="42.202" height="6.653" rx="2.024" transform="translate(-195.676 -1376.624)" fill="none" stroke="#000" stroke-miterlimit="10" stroke-width="2"/>
              <path id="Path_651" data-name="Path 651" d="M-193.032-1334.252v-35.716h37.511v39.521" fill="none" stroke="#000" stroke-miterlimit="10" stroke-width="2"/>
              <path id="Path_652" data-name="Path 652" d="M-170.632-1334.415v-20.678a10.373,10.373,0,0,1,1.668-5.642l2.351-3.629a.454.454,0,0,1,.628-.135.458.458,0,0,1,.135.135l2.351,3.629a10.384,10.384,0,0,1,1.668,5.642v23.741" fill="none" stroke="#000" stroke-miterlimit="10" stroke-width="2"/>
              <path id="Path_653" data-name="Path 653" d="M-186.645-1334.008v-21.084a10.371,10.371,0,0,1,1.668-5.642l2.351-3.629a.454.454,0,0,1,.627-.135.439.439,0,0,1,.136.135l2.351,3.629a10.381,10.381,0,0,1,1.667,5.642v24.645" fill="none" stroke="#000" stroke-miterlimit="10" stroke-width="2"/>
              <path id="Path_654" data-name="Path 654" d="M-103.983-1344.368h-113.8c14.323-2.1,23.185-9.989,24.746-25.6" fill="none" stroke="#000" stroke-miterlimit="10" stroke-width="2"/>
              <path id="Path_655" data-name="Path 655" d="M-177.845-1347c-8.688-3.819-14.014-11.2-15.191-22.966" fill="none" stroke="#000" stroke-miterlimit="10" stroke-width="2"/>
              <path id="Path_656" data-name="Path 656" d="M-168.289-1344.368" fill="none" stroke="#000" stroke-miterlimit="10" stroke-width="2"/>
              <path id="Path_657" data-name="Path 657" d="M-130.783-1344.368c-14.324-2.1-23.186-9.989-24.747-25.6" fill="none" stroke="#000" stroke-miterlimit="10" stroke-width="2"/>
              <path id="Path_658" data-name="Path 658" d="M-170.632-1347.214c8.408-3.878,13.563-11.2,14.718-22.754" fill="none" stroke="#000" stroke-miterlimit="10" stroke-width="2"/>
              <path id="Path_659" data-name="Path 659" d="M-180.662-1344.368" fill="none" stroke="#000" stroke-miterlimit="10" stroke-width="2"/>
            </g>
            <path id="Path_660" data-name="Path 660" d="M-212.132-1334.8c5.5,0,5.5,4.348,11.006,4.348s5.5-4.348,11-4.348,5.5,4.348,11,4.348,5.5-4.348,11.005-4.348,5.5,4.348,11.008,4.348,5.5-4.348,11.007-4.348,5.5,4.348,11.008,4.348,5.5-4.348,11.007-4.348,5.5,4.348,11.01,4.348,5.5-4.348,11.008-4.348" fill="none" stroke="#000" stroke-miterlimit="10" stroke-width="2"/>
            <path id="Path_661" data-name="Path 661" d="M-135.09-1318.21c5.5,0,5.5-4.348,11.007-4.348s5.5,4.348,11.009,4.348,5.5-4.348,11.009-4.348" fill="none" stroke="#000" stroke-miterlimit="10" stroke-width="2"/>
            <path id="Path_662" data-name="Path 662" d="M-179.119-1318.21c5.5,0,5.5-4.348,11.006-4.348s5.5,4.348,11.008,4.348,5.5-4.348,11.006-4.348" fill="none" stroke="#000" stroke-miterlimit="10" stroke-width="2"/>
            <path id="Path_663" data-name="Path 663" d="M-212.132-1322.557c5.5,0,5.5,4.348,11.006,4.348s5.5-4.348,11-4.348" fill="none" stroke="#000" stroke-miterlimit="10" stroke-width="2"/>
            <rect id="Rectangle_490" data-name="Rectangle 490" width="9.752" height="32.614" transform="translate(-110.017 -1376.887)" fill="none" stroke="#000" stroke-miterlimit="10" stroke-width="2"/>
            <rect id="Rectangle_491" data-name="Rectangle 491" width="15.388" height="47.933" transform="translate(-100.266 -1392.791)" fill="none" stroke="#000" stroke-miterlimit="10" stroke-width="2"/>
            <line id="Line_155" data-name="Line 155" y1="5.959" transform="translate(-81.56 -1404.089)" fill="none" stroke="#000" stroke-miterlimit="10" stroke-width="2"/>
          </g>
        </g>
        <g id="Group_450" data-name="Group 450">
          <line id="Line_156" data-name="Line 156" x2="8.152" transform="translate(-96.49 -1388.301)" fill="none" stroke="#000" stroke-miterlimit="10" stroke-width="2"/>
          <line id="Line_157" data-name="Line 157" x2="8.152" transform="translate(-96.49 -1384.368)" fill="none" stroke="#000" stroke-miterlimit="10" stroke-width="2"/>
          <line id="Line_158" data-name="Line 158" x2="8.152" transform="translate(-96.49 -1380.436)" fill="none" stroke="#000" stroke-miterlimit="10" stroke-width="2"/>
          <line id="Line_159" data-name="Line 159" x2="8.152" transform="translate(-96.49 -1376.503)" fill="none" stroke="#000" stroke-miterlimit="10" stroke-width="2"/>
          <line id="Line_160" data-name="Line 160" x2="8.152" transform="translate(-96.49 -1372.568)" fill="none" stroke="#000" stroke-miterlimit="10" stroke-width="2"/>
          <line id="Line_161" data-name="Line 161" x2="8.152" transform="translate(-96.49 -1368.636)" fill="none" stroke="#000" stroke-miterlimit="10" stroke-width="2"/>
          <line id="Line_162" data-name="Line 162" x2="8.152" transform="translate(-96.49 -1364.703)" fill="none" stroke="#000" stroke-miterlimit="10" stroke-width="2"/>
          <line id="Line_163" data-name="Line 163" x2="8.152" transform="translate(-96.49 -1360.771)" fill="none" stroke="#000" stroke-miterlimit="10" stroke-width="2"/>
          <line id="Line_164" data-name="Line 164" x2="8.152" transform="translate(-96.49 -1356.708)" fill="none" stroke="#000" stroke-miterlimit="10" stroke-width="2"/>
          <line id="Line_165" data-name="Line 165" x2="8.152" transform="translate(-96.49 -1352.774)" fill="none" stroke="#000" stroke-miterlimit="10" stroke-width="2"/>
          <line id="Line_166" data-name="Line 166" x2="8.152" transform="translate(-96.49 -1348.839)" fill="none" stroke="#000" stroke-miterlimit="10" stroke-width="2"/>
        </g>
        <line id="Line_167" data-name="Line 167" y2="26.132" transform="translate(-106.342 -1373.646)" fill="none" stroke="#000" stroke-miterlimit="10" stroke-width="2"/>
        <rect id="Rectangle_492" data-name="Rectangle 492" width="4.9" height="3.228" transform="translate(-107.745 -1380.436)" fill="none" stroke="#000" stroke-miterlimit="10" stroke-width="2"/>
        <line id="Line_169" data-name="Line 169" y1="2.695" transform="translate(-105.294 -1383.611)" fill="none" stroke="#000" stroke-miterlimit="10" stroke-width="2"/>
      </g>
      <circle id="Ellipse_152" data-name="Ellipse 152" cx="9.798" cy="9.798" r="9.798" transform="translate(-152.954 -1436.031)" fill="none" stroke="#000" stroke-miterlimit="10" stroke-width="2"/>
      <circle id="Ellipse_153" data-name="Ellipse 153" cx="9.798" cy="9.798" r="9.798" transform="translate(239.319 -1481.824)" fill="none" stroke="#000" stroke-miterlimit="10" stroke-width="2"/>
      <circle id="Ellipse_154" data-name="Ellipse 154" cx="4.415" cy="4.415" r="4.415" transform="translate(260.179 -1816.129)" fill="none" stroke="#000" stroke-miterlimit="10" stroke-width="2"/>
      <circle id="Ellipse_155" data-name="Ellipse 155" cx="6.093" cy="6.093" r="6.093" transform="translate(276.296 -1738.175)" fill="none" stroke="#000" stroke-miterlimit="10" stroke-width="2"/>
      <circle id="Ellipse_156" data-name="Ellipse 156" cx="6.351" cy="6.351" r="6.351" transform="translate(14.505 -1438.935)" fill="none" stroke="#000" stroke-miterlimit="10" stroke-width="2"/>
      <circle id="Ellipse_157" data-name="Ellipse 157" cx="6.351" cy="6.351" r="6.351" transform="translate(-131.938 -1246.746)" fill="none" stroke="#000" stroke-miterlimit="10" stroke-width="2"/>
      <circle id="Ellipse_158" data-name="Ellipse 158" cx="3.175" cy="3.175" r="3.175" transform="translate(44.796 -1293.347)" fill="none" stroke="#000" stroke-miterlimit="10" stroke-width="2"/>
      <g id="Group_533" data-name="Group 533">
        <line id="Line_208-2" data-name="Line 208" y2="22.125" transform="translate(-68.802 -1473.291)" fill="none" stroke="#000" stroke-miterlimit="10" stroke-width="2"/>
        <line id="Line_209-2" data-name="Line 209" x1="22.125" transform="translate(-79.865 -1462.228)" fill="none" stroke="#000" stroke-miterlimit="10" stroke-width="2"/>
      </g>
      <g id="Group_534" data-name="Group 534">
        <line id="Line_210-2" data-name="Line 210" y2="11.063" transform="translate(74.404 -1359.393)" fill="none" stroke="#000" stroke-miterlimit="10" stroke-width="2"/>
        <line id="Line_211-2" data-name="Line 211" x1="11.063" transform="translate(68.872 -1353.862)" fill="none" stroke="#000" stroke-miterlimit="10" stroke-width="2"/>
      </g>
      <g id="Group_535" data-name="Group 535">
        <line id="Line_212-2" data-name="Line 212" y2="17.322" transform="translate(261.315 -1524.797)" fill="none" stroke="#000" stroke-miterlimit="10" stroke-width="2"/>
        <line id="Line_213-2" data-name="Line 213" x1="17.322" transform="translate(252.654 -1516.136)" fill="none" stroke="#000" stroke-miterlimit="10" stroke-width="2"/>
      </g>
      <g id="Group_536" data-name="Group 536">
        <line id="Line_214-2" data-name="Line 214" y2="17.322" transform="translate(324.141 -1762.097)" fill="none" stroke="#000" stroke-miterlimit="10" stroke-width="2"/>
        <line id="Line_215-2" data-name="Line 215" x1="17.322" transform="translate(315.48 -1753.436)" fill="none" stroke="#000" stroke-miterlimit="10" stroke-width="2"/>
      </g>
      <g id="Group_537" data-name="Group 537">
        <path id="Path_763-2" data-name="Path 763" d="M-166.464-1197.654c5.717,0,9.289.174,14.2-2.562,5.315-2.96,8.127-2.561,14.2-2.561a2.2,2.2,0,0,0,2.2-2.2v-11.427a2.2,2.2,0,0,0-2.2-2.2c-6.074,0-8.886-.4-14.2,2.562-4.912,2.736-8.484,2.562-14.2,2.562a2.2,2.2,0,0,0-2.2,2.2v11.427A2.2,2.2,0,0,0-166.464-1197.654Z" fill="none" stroke="#000" stroke-miterlimit="10" stroke-width="2"/>
      </g>
      <g id="Group_538" data-name="Group 538">
        <path id="Path_764-2" data-name="Path 764" d="M81.065-1305.736c5.717,0,9.289.175,14.2-2.561,5.315-2.961,8.127-2.562,14.2-2.562a2.2,2.2,0,0,0,2.2-2.2v-11.427a2.2,2.2,0,0,0-2.2-2.2c-6.074,0-8.886-.4-14.2,2.562-4.912,2.736-8.484,2.562-14.2,2.562a2.2,2.2,0,0,0-2.2,2.2v11.428A2.2,2.2,0,0,0,81.065-1305.736Z" fill="none" stroke="#000" stroke-miterlimit="10" stroke-width="2"/>
      </g>
      <g id="Group_539" data-name="Group 539">
        <path id="Path_765-2" data-name="Path 765" d="M275.664-1768.407c5.716,0,9.288.174,14.2-2.562,5.316-2.961,8.127-2.562,14.2-2.562a2.2,2.2,0,0,0,2.2-2.2v-11.428a2.2,2.2,0,0,0-2.2-2.2c-6.074,0-8.885-.4-14.2,2.562-4.912,2.736-8.484,2.561-14.2,2.561a2.2,2.2,0,0,0-2.2,2.2v11.427A2.2,2.2,0,0,0,275.664-1768.407Z" fill="none" stroke="#000" stroke-miterlimit="10" stroke-width="2"/>
      </g>
      <g id="Group_540" data-name="Group 540">
        <path id="Path_766-2" data-name="Path 766" d="M195.1-1495.139c5.717,0,9.289.174,14.2-2.562,5.315-2.96,8.127-2.561,14.2-2.561a2.2,2.2,0,0,0,2.2-2.2v-11.427a2.2,2.2,0,0,0-2.2-2.2c-6.074,0-8.886-.4-14.2,2.562-4.912,2.736-8.484,2.562-14.2,2.562a2.2,2.2,0,0,0-2.2,2.2v11.428A2.2,2.2,0,0,0,195.1-1495.139Z" fill="none" stroke="#000" stroke-miterlimit="10" stroke-width="2"/>
      </g>
      <g id="Group_541" data-name="Group 541">
        <path id="Path_767-2" data-name="Path 767" d="M-43.355-1203.166a23.545,23.545,0,0,0,22.069,18.023l1.608.056a32.246,32.246,0,0,0,20.757-6.643l16.012-12.285,31.523,13.534,11.742-18.278-30.615-23.049a17.112,17.112,0,0,0-21.617-2.218l-30.21,20.043" fill="none" stroke="#000" stroke-miterlimit="10" stroke-width="2"/>
        <path id="Path_768-2" data-name="Path 768" d="M-41.6-1241.644l36.087-3.6a19.744,19.744,0,0,1,10.953,2.071l12.353,6.3" fill="none" stroke="#000" stroke-miterlimit="10" stroke-width="2"/>
        <path id="Path_769-2" data-name="Path 769" d="M-56.441-1262.976l.494,36.411a5.853,5.853,0,0,0,.939,2.378,14.068,14.068,0,0,0,18.047,5.193l30.3-16.373a5.433,5.433,0,0,1,6.527,1.042l3.468,3.475" fill="none" stroke="#000" stroke-miterlimit="10" stroke-width="2"/>
        <path id="Path_770-2" data-name="Path 770" d="M-24.4-1311.1l-13.339,5.29a25.014,25.014,0,0,0-13.1,11.963l-2.2,4.351a33.068,33.068,0,0,0-2.654,7.238" fill="none" stroke="#000" stroke-miterlimit="10" stroke-width="2"/>
        <path id="Path_771-2" data-name="Path 771" d="M85.806-1244.462l14.574-4.2a8.343,8.343,0,0,1,10.705,7.06q.032.384.032.777h0a21.1,21.1,0,0,1-7.307,15.966l-17.336,14.972" fill="none" stroke="#000" stroke-miterlimit="10" stroke-width="2"/>
        <path id="Path_772-2" data-name="Path 772" d="M95.266-1234.746l-5.649,1.288a27.489,27.489,0,0,0-14.847,9.016l-15.3,15.683" fill="none" stroke="#000" stroke-miterlimit="10" stroke-width="2"/>
        <path id="Path_773-2" data-name="Path 773" d="M27.122-1234.746l12.042-37.2a2.88,2.88,0,0,1,2.64-1.991l55.488-1.922a1.006,1.006,0,0,1,.966,1.385L81.375-1233.1a2.878,2.878,0,0,1-2.486,1.786L34.9-1228.557" stroke="#000" stroke-miterlimit="10" stroke-width="2"/>
        <path id="Path_774-2" data-name="Path 774" d="M17.8-1243.183l1.757-3.184a6.553,6.553,0,0,1,4.677-3.3,18.294,18.294,0,0,0,5.933-1.906l1.439-.8" fill="none" stroke="#000" stroke-miterlimit="10" stroke-width="2"/>
        <path id="Path_775-2" data-name="Path 775" d="M20.276-1283.815l-4.342-10.443A15.556,15.556,0,0,0,3.5-1304.216l-9.734-1.35" fill="none" stroke="#000" stroke-miterlimit="10" stroke-width="2"/>
        <line id="Line_216-2" data-name="Line 216" x1="5.7" y1="15.236" transform="translate(25.905 -1267.606)" fill="none" stroke="#000" stroke-miterlimit="10" stroke-width="2"/>
        <line id="Line_217-2" data-name="Line 217" y2="35.846" transform="translate(-33.091 -1277.367)" fill="none" stroke="#000" stroke-miterlimit="10" stroke-width="2"/>
        <path id="Path_776-2" data-name="Path 776" d="M4.479-1194.339l8.132,2.658a29.745,29.745,0,0,0,18.482-.573l6.14-2.287" fill="none" stroke="#000" stroke-miterlimit="10" stroke-width="2"/>
        <path id="Path_792" data-name="Path 792" d="M38.036-1194.739,31.728-1192a3.08,3.08,0,0,0-1.6,4.05,3.085,3.085,0,0,0,1.63,1.612h0a32.715,32.715,0,0,0,25.741-.139l8.568-3.634" fill="none" stroke="#000" stroke-miterlimit="10" stroke-width="2"/>
        <path id="Path_777-2" data-name="Path 777" d="M59.472-1208.759l6.289,2.1,4.506-2.681a10.959,10.959,0,0,1,6.529-1.5c7.394.624,24.038,2.27,26.987,4.649l1.143.922a4.717,4.717,0,0,1-1.662,8.207l-23.59,6.758a26.065,26.065,0,0,1-17.018-.923l-10.742-4.386" fill="none" stroke="#000" stroke-miterlimit="10" stroke-width="2"/>
        <path id="Path_794" data-name="Path 794" d="M-18.161-1350.877l-5.81,13.306a16.9,16.9,0,0,0,9.84,21.78l2.421.915a16.9,16.9,0,0,0,21.781-9.84l7.653-20.266" fill="none" stroke="#000" stroke-miterlimit="10" stroke-width="2"/>
        <path id="Path_794-2" data-name="Path 794" d="M17.726-1344.981" fill="none" stroke="#000" stroke-miterlimit="10" stroke-width="2"/>
        <line id="Line_232" data-name="Line 232" x1="5.583" y2="14.785" transform="translate(-26.629 -1320.437)" fill="none" stroke="#000" stroke-miterlimit="10" stroke-width="2"/>
        <line id="Line_233" data-name="Line 233" x1="4.197" y2="11.113" transform="translate(-7.908 -1310.769)" fill="none" stroke="#000" stroke-miterlimit="10" stroke-width="2"/>
        <path id="Path_778-2" data-name="Path 778" d="M-23.54-1315.57c-2.458-1.214-6.317-.286-8.4-2.016s-1.9-5.707-3.551-7.882c-1.634-2.15-5.514-3.016-6.651-5.518-1.111-2.444.773-5.94.2-8.645-.554-2.609-3.718-5.02-3.718-7.806,0-2.7,3.146-4.9,3.672-7.24.583-2.593-1.222-5.974-.06-8.129,1.225-2.271,5.055-2.581,6.842-4.366,1.772-1.769,2.052-5.586,4.3-6.877,2.138-1.228,5.635.4,8.131-.389,2.342-.744,4.186-4.119,6.784-4.48,2.439-.338,5.178,2.383,7.794,2.383s5.388-2.72,7.854-2.378c2.611.362,4.482,3.738,6.851,4.482,2.515.79,6.023-.855,8.192.365,2.277,1.281,2.62,5.108,4.43,6.862,1.833,1.777,5.683,2.044,6.948,4.3,1.208,2.16-.544,5.58.066,8.181.554,2.357,3.711,4.563,3.711,7.282,0,2.816-3.185,5.236-3.784,7.87-.618,2.721,1.186,6.279,0,8.733-1.2,2.495-5.123,3.3-6.834,5.439s-1.634,6.15-3.787,7.869-6.018.745-8.512,1.948c-2.455,1.184-4.107,4.828-6.827,5.446" fill="none" stroke="#000" stroke-miterlimit="10" stroke-width="2"/>
        <path id="Path_779-2" data-name="Path 779" d="M-16.831-1310.123" fill="none" stroke="#000" stroke-miterlimit="10" stroke-width="2"/>
        <path id="Path_780-2" data-name="Path 780" d="M-8.408-1312.085" fill="none" stroke="#000" stroke-miterlimit="10" stroke-width="2"/>
        <path id="Path_781-2" data-name="Path 781" d="M-21.678-1343.643l4.99-3.531a7.2,7.2,0,0,1,6.692-.865h0a7.2,7.2,0,0,0,6.939-1.047l1.077-.833a7.209,7.209,0,0,1,6.346-1.242h0a6.541,6.541,0,0,0,8.04-1.369l1.6-1.789" fill="none" stroke="#000" stroke-miterlimit="10" stroke-width="2"/>
        <path id="Path_782-2" data-name="Path 782" d="M13.6-1353.862l-2.228,5.361a2.675,2.675,0,0,0,.667,3.551h0a2.674,2.674,0,0,1,.38,3.931l-.354.391a2.675,2.675,0,0,0,.4,3.95l1.912,1.4" fill="none" stroke="#000" stroke-miterlimit="10" stroke-width="2"/>
        <path id="Path_783-2" data-name="Path 783" d="M-32.659-1307.828l3.339,5.918a16.56,16.56,0,0,0,14.5,8.563h0A16.558,16.558,0,0,0,.764-1304.311L.9-1304.7" fill="none" stroke="#000" stroke-miterlimit="10" stroke-width="2"/>
        <line id="Line_226" data-name="Line 226" x1="4.309" y2="11.527" transform="translate(-3.471 -1339.579)" fill="none" stroke="#000" stroke-miterlimit="10" stroke-width="2"/>
        <path id="Path_784-2" data-name="Path 784" d="M-33.091-1261.255l-23.9-1.535a2.482,2.482,0,0,1-2.263-3.024l4.288-19" fill="none" stroke="#000" stroke-miterlimit="10" stroke-width="2"/>
        <path id="Path_785-2" data-name="Path 785" d="M10.965-1279.823l3.04,12.951,11.525-.711a1.58,1.58,0,0,0,1.332-2.25l-6.586-13.982" fill="none" stroke="#000" stroke-miterlimit="10" stroke-width="2"/>
        <line id="Line_218-2" data-name="Line 218" x2="2.94" y2="14.502" transform="translate(14.005 -1266.872)" fill="none" stroke="#000" stroke-miterlimit="10" stroke-width="2"/>
      </g>
    </g>
  </g>
</svg>
