<svg xmlns="http://www.w3.org/2000/svg" viewBox="0 0 141.39 158.26"><defs><style>.cls-1,.cls-2{fill:#ff8d2b;}.cls-1{opacity:0.7;}.cls-1,.cls-3{isolation:isolate;}.cls-3,.cls-5{fill:#ff7600;}.cls-3{opacity:0.7;}.cls-4{fill:none;stroke:#ff8d2b;stroke-miterlimit:10;stroke-width:7px;}</style></defs><g id="Layer_2" data-name="Layer 2"><g id="Layer_1-2" data-name="Layer 1"><g id="Group_1007" data-name="Group 1007"><rect id="Rectangle_666" data-name="Rectangle 666" class="cls-1" y="6.11" width="106.01" height="143.21" rx="6.96"/><rect id="Rectangle_667" data-name="Rectangle 667" class="cls-2" x="13.73" y="47.78" width="54.63" height="9.39"/><rect id="Rectangle_668" data-name="Rectangle 668" class="cls-2" x="13.73" y="67.66" width="47.3" height="9.39"/><path id="Path_1583" data-name="Path 1583" class="cls-3" d="M141.39,57a32.83,32.83,0,0,0-3.69-2.51c-2.29-1.57-3.46-7.64-1.17-10.86,1.06-1.5,3.08-1.6,3.78-3.3a27.23,27.23,0,0,0-3.18-7.66c-.33-.57-1-2-1.48-2.18a4.47,4.47,0,0,0-2.43.23,10.93,10.93,0,0,1-2.3.71c-2.13.11-3.87-1.19-5.17-2.34A8.1,8.1,0,0,1,123,24.74c-.3-1.85,1-3.59.3-5.45a27.15,27.15,0,0,0-7.13-3,9.19,9.19,0,0,0-2.78-.62c-.61.07-1.24,1-1.65,1.63s-.7,1.7-1.12,2.27c-1.89,2.63-8.55,3.11-11.16.56a16.91,16.91,0,0,1-1.32-2,7.06,7.06,0,0,0-1.76-1.6,32.76,32.76,0,0,0-5,1.91c-.81.39-1.62.82-2.47,1.28-.6.34-2,.94-2.16,1.43a7.65,7.65,0,0,0,.16,2.48,14.45,14.45,0,0,1,.7,2.41,8.19,8.19,0,0,1-2.41,5.41c-1.11,1.22-3,2.84-5.21,2.66-1.62-.14-3.16-1-4.8-.31a40.67,40.67,0,0,0-3.38,9.57l0,.35c.92,1.58,2.56,1.85,4.09,2.73,2.42,1.39,3.78,4.74,2.61,8.26A6.39,6.39,0,0,1,75.87,58a15.61,15.61,0,0,0-1.79,1.1c-.5.4-1.27,1.22-1.31,1.72a5.05,5.05,0,0,0,.37,1.33,32.9,32.9,0,0,0,2.83,6c.33.58,1,1.91,1.49,2.11,1.52.6,3.06-.56,4.42-.83,2.48-.5,4.77,1,6.23,2.42A6.44,6.44,0,0,1,90.43,77c-.14,1.42-.85,2.8-.48,4.67,3.1,1.48,6.08,3.06,10.32,3.55,1.39-.87,1.46-2.38,2.29-3.71,1.72-2.75,8.15-3.56,11-1.21a11.09,11.09,0,0,1,1.64,2.42c.35.51,1,1.4,1.53,1.47a5.85,5.85,0,0,0,1.44-.36A28.07,28.07,0,0,0,124.67,81c.57-.34,2-1.07,2.13-1.67.4-1.47-.86-3.16-1.09-4.2-.54-2.39.88-4.52,2.22-6a7.11,7.11,0,0,1,4.66-2.52c2-.05,3.27,1,5.21.45a43,43,0,0,0,3.57-9.79C141.38,57.18,141.38,57.08,141.39,57Zm-21.3,6.79a18,18,0,0,1-13,5.19,18.57,18.57,0,0,1-13.51-5.74,18.11,18.11,0,0,1-5.19-13,18.33,18.33,0,0,1,5.74-13.51,18.08,18.08,0,0,1,13.06-5.24,18.78,18.78,0,0,1,13.56,5.8,18.3,18.3,0,0,1,5.13,13,18.06,18.06,0,0,1-5.8,13.45Z"/><rect id="Rectangle_669" data-name="Rectangle 669" class="cls-2" x="30.81" width="46.99" height="15.26"/><rect id="Rectangle_670" data-name="Rectangle 670" class="cls-4" x="59.19" y="104.13" width="32.74" height="4.22"/><path id="Path_1584" data-name="Path 1584" class="cls-1" d="M103.18,156.62l-22.9,1.64-14.12-33,19.94-8.54Z"/><path id="Path_1585" data-name="Path 1585" class="cls-1" d="M42.52,156.62l22.9,1.64,14.12-33L59.6,116.75Z"/><circle id="Ellipse_89" data-name="Ellipse 89" class="cls-5" cx="72.69" cy="110.51" r="25.06"/><path id="Path_1586" data-name="Path 1586" class="cls-4" d="M60.18,111.65l7.49,7.49,17.27-17.27"/><rect id="Rectangle_671" data-name="Rectangle 671" class="cls-2" x="13.73" y="27.89" width="34.16" height="9.39"/></g></g></g></svg>