<svg id="Layer_1" data-name="Layer 1" xmlns="http://www.w3.org/2000/svg" viewBox="0 0 144 144"><defs><style>.cls-1{opacity:0.66;}.cls-2{fill:#ff7600;}.cls-3{opacity:0.76;}.cls-4{fill:none;stroke:#ff7600;stroke-miterlimit:10;stroke-width:2px;opacity:0.57;}</style></defs><g class="cls-1"><rect class="cls-2" x="18.04" y="25.99" width="107.92" height="92.03" rx="5.57"/></g><circle class="cls-2" cx="45.86" cy="45.11" r="4.92"/><path class="cls-2" d="M34.66,63a11.2,11.2,0,0,1,22.39,0"/><g class="cls-3"><circle class="cls-2" cx="98.22" cy="45.11" r="4.92"/><path class="cls-2" d="M87,63a11.2,11.2,0,0,1,22.39,0"/></g><g class="cls-3"><circle class="cls-2" cx="45.86" cy="87.2" r="4.92"/><path class="cls-2" d="M34.66,105.06a11.2,11.2,0,1,1,22.39,0"/></g><circle class="cls-2" cx="98.22" cy="87.2" r="4.92"/><path class="cls-2" d="M87,105.06a11.2,11.2,0,1,1,22.39,0"/><line class="cls-4" x1="72" y1="33.38" x2="72" y2="110.29"/><line class="cls-4" x1="117.37" y1="71.83" x2="26.63" y2="71.83"/></svg>