<svg id="Layer_1" data-name="Layer 1" xmlns="http://www.w3.org/2000/svg" xmlns:xlink="http://www.w3.org/1999/xlink" viewBox="0 0 144 144"><defs><style>.cls-1{fill:none;}.cls-2{clip-path:url(#clip-path);}.cls-3{fill:#41d6c1;}.cls-4{opacity:0.59;}.cls-5{clip-path:url(#clip-path-2);}.cls-6{fill:#3dd9c5;}.cls-7{fill:#85e8dc;}</style><clipPath id="clip-path"><rect class="cls-1" x="66.4" y="64.92" width="55.82" height="37.88"/></clipPath><clipPath id="clip-path-2"><rect class="cls-1" x="23.78" y="40.36" width="55.82" height="37.88"/></clipPath></defs><g id="Group_152" data-name="Group 152"><g class="cls-2"><g id="Group_151" data-name="Group 151"><path id="Path_222" data-name="Path 222" class="cls-3" d="M120.34,102.8H68.28a1.88,1.88,0,0,1-1.88-1.88h0V66.8a1.89,1.89,0,0,1,1.88-1.89h52.06a1.89,1.89,0,0,1,1.88,1.89v34.12a1.88,1.88,0,0,1-1.88,1.88h0"/></g></g></g><g id="Group_263" data-name="Group 263" class="cls-4"><g id="Group_161" data-name="Group 161"><g class="cls-5"><g id="Group_160" data-name="Group 160"><path id="Path_225" data-name="Path 225" class="cls-3" d="M25.66,78.25H77.72a1.88,1.88,0,0,0,1.88-1.88h0V42.25a1.89,1.89,0,0,0-1.88-1.89H25.66a1.89,1.89,0,0,0-1.89,1.89V76.36a1.89,1.89,0,0,0,1.89,1.89"/></g></g></g></g><path id="Path_304" data-name="Path 304" class="cls-6" d="M122.22,109.64V94.23H104.3Z"/><path id="Path_305" data-name="Path 305" class="cls-7" d="M23.78,87.87V71.28H43.07Z"/></svg>