<svg id="Layer_1" data-name="Layer 1" xmlns="http://www.w3.org/2000/svg" viewBox="0 0 144 144"><g id="Group_239" data-name="Group 239"><g id="Group_110" data-name="Group 110"><path id="Path_152" data-name="Path 152" d="M122.85,76c-.19,1.57-.35,3.15-.56,4.71a47.74,47.74,0,0,1-7,19.23,51.21,51.21,0,0,1-16,16.29,49.83,49.83,0,0,1-11,5.21,2.53,2.53,0,0,1-3.4-1.11,2.56,2.56,0,0,1-.24-1.54c0-4.43,0-8.87,0-13.3a14.37,14.37,0,0,0-1.76-7.73c-.43-.69-1-1.31-1.49-2,2-.37,4-.63,5.9-1.12a21.32,21.32,0,0,0,13-8.14,23.87,23.87,0,0,0,3.85-11.13,28.68,28.68,0,0,0-.19-9.29,18.28,18.28,0,0,0-4.07-8.27A1.62,1.62,0,0,1,99.53,56a17.49,17.49,0,0,0-.74-12.11,1.1,1.1,0,0,0-.74-.48,8.82,8.82,0,0,0-5.09,1c-2.56,1.21-5,2.6-7.58,3.87a2.31,2.31,0,0,1-1.46.24,48.15,48.15,0,0,0-23.85,0,2.16,2.16,0,0,1-1.55-.3,36.44,36.44,0,0,0-10.33-4.66l-.2-.06c-2.33-.47-2.75-.21-3.42,2a17.32,17.32,0,0,0,0,10.91,1.24,1.24,0,0,1-.22,1c-4.18,4.77-5.18,10.41-4.65,16.5A29.26,29.26,0,0,0,42.53,84.5a18.24,18.24,0,0,0,10.82,9.07c2.94,1,6,1.57,9.14,2.35,0-.15,0,0,0,0a10.79,10.79,0,0,0-2.85,5.89,1.09,1.09,0,0,1-.47.76c-3.53,1.33-7.08,2-10.57-.1a11,11,0,0,1-3.68-4,10.77,10.77,0,0,0-6.31-5.11,9.62,9.62,0,0,0-3.21-.16c-.72,0-.95.59-.47,1.2A5.94,5.94,0,0,0,36.43,96a13.72,13.72,0,0,1,5.4,6.67,12.56,12.56,0,0,0,2.7,4.45,11.57,11.57,0,0,0,7.55,2.81c2.37.1,4.74,0,7.23,0a3.75,3.75,0,0,1,0,.47c0,2.68.07,5.36.09,8s-1.56,3.71-4.05,2.84a50.14,50.14,0,0,1-28.69-25,49.38,49.38,0,0,1-5.19-28.85A49.16,49.16,0,0,1,33.84,39.65a48.57,48.57,0,0,1,27.3-16.06A49.69,49.69,0,0,1,104,33.76a49.48,49.48,0,0,1,17.92,29.79c.35,1.78.48,3.6.73,5.4,0,.36.12.7.19,1.06Z"/></g></g></svg>