<svg xmlns="http://www.w3.org/2000/svg" width="100" height="24" viewBox="0 0 100 24">
  <g id="Group_4" data-name="Group 4" transform="translate(-270 141)">
    <path id="Path_1" data-name="Path 1" d="M98.223,18.153H100l-4.679-6.485L99.341,6.08h-1.78l-3.3,4.58L90.941,6.08H89.157l4.021,5.588L88.5,18.153H90.29l3.969-5.481Z" transform="translate(270 -141)"/>
    <path id="Path_2" data-name="Path 2" d="M36.149,2.133A2.076,2.076,0,0,0,34.9.174a2.1,2.1,0,0,0-2.3.414,2.07,2.07,0,0,0,.29,3.212,2.1,2.1,0,0,0,1.167.354,2.049,2.049,0,0,0,1.473-.574,2.023,2.023,0,0,0,.618-1.448ZM32.47,6.343v11.8h3.188V6.343ZM29.306,9.009a4.465,4.465,0,0,1,1.15.121L30.8,6.177a6.262,6.262,0,0,0-1.08-.093A4.467,4.467,0,0,0,26.268,7.52V6.343H23.2V18.149h3.191V11.536A2.9,2.9,0,0,1,29.306,9.009ZM45.075,6.083a5.468,5.468,0,0,0-3.484,1.194V6.343H38.532V24H41.72V17.318a5.034,5.034,0,0,0,3.188,1.073,6.045,6.045,0,0,0,4.508-2.008,6.288,6.288,0,0,0,1.5-4.155A5.948,5.948,0,0,0,45.075,6.083Zm-.387,9.431a3.11,3.11,0,0,1-3.282-3.254A3.113,3.113,0,0,1,44.689,9a3.165,3.165,0,0,1,3.063,3.258A3.162,3.162,0,0,1,44.689,15.514Zm22.389,2.631h3.188V.834H67.078Zm16.2-1.873A6.475,6.475,0,0,1,78.4,18.391a5.923,5.923,0,0,1-6.23-6.142c0-3.293,2.254-6.166,5.787-6.166a5.764,5.764,0,0,1,5.617,6.045,4.885,4.885,0,0,1-.073.9H75.262a3.109,3.109,0,0,0,1.05,2.031,3.148,3.148,0,0,0,2.162.774,4.225,4.225,0,0,0,2.993-1.364Zm-2.965-5.56a2.35,2.35,0,0,0-.78-1.484,2.378,2.378,0,0,0-1.575-.594,2.592,2.592,0,0,0-1.652.581,2.562,2.562,0,0,0-.9,1.5ZM55.869,7.278a5.45,5.45,0,0,1,3.484-1.194,5.957,5.957,0,0,1,5.843,6.17A6.3,6.3,0,0,1,63.7,16.407a6.048,6.048,0,0,1-4.512,2A5.038,5.038,0,0,1,56,17.332V24H52.81V6.343h3.063Zm-.185,4.982a3.106,3.106,0,0,0,.918,2.348,3.2,3.2,0,0,0,5.427-2.348A3.165,3.165,0,0,0,58.97,9,3.116,3.116,0,0,0,55.685,12.26Z" transform="translate(270 -141)" fill-rule="evenodd"/>
    <path id="Path_3" data-name="Path 3" d="M16.648,13.454a4.97,4.97,0,0,0-2.334-.561,1.661,1.661,0,0,1-1.195-.481,1.639,1.639,0,0,1-.484-1.187,1.691,1.691,0,0,1,.5-1.174,1.713,1.713,0,0,1,1.181-.5,4.958,4.958,0,0,0,2.334-.561,4.216,4.216,0,0,0,0-7.323,4.266,4.266,0,0,0-5.812,1.549,4.207,4.207,0,0,0-.569,2.114A4.79,4.79,0,0,0,10.938,7.6a1.636,1.636,0,0,1-.6,2.3,1.717,1.717,0,0,1-2.317-.627,4.86,4.86,0,0,0-1.645-1.71,4.262,4.262,0,0,0-5.8,1.548,4.212,4.212,0,0,0,1.555,5.768,4.274,4.274,0,0,0,4.249,0,4.86,4.86,0,0,0,1.645-1.71,1.662,1.662,0,0,1,2.307-.627,1.683,1.683,0,0,1,.6,2.3,4.856,4.856,0,0,0-.669,2.271,4.222,4.222,0,0,0,2.127,3.657,4.266,4.266,0,0,0,5.809-1.543,4.216,4.216,0,0,0-1.546-5.774Z" transform="translate(270 -141)"/>
  </g>
</svg>
