<svg id="Layer_1" data-name="Layer 1" xmlns="http://www.w3.org/2000/svg" viewBox="0 0 144 144"><defs><style>.cls-1{fill:#36c5f0;}.cls-1,.cls-2,.cls-3,.cls-4{fill-rule:evenodd;}.cls-2{fill:#2eb67d;}.cls-3{fill:#ecb22e;}.cls-4{fill:#e01e5a;}</style></defs><path class="cls-1" d="M60.94,30.81a8.31,8.31,0,0,0,0,16.62h8.3v-8.3a8.32,8.32,0,0,0-8.3-8.32h0m0,22.16H38.83a8.32,8.32,0,0,0,0,16.63H60.94a8.32,8.32,0,0,0,0-16.63Z"/><path class="cls-2" d="M113.47,61.28a8.3,8.3,0,1,0-16.59,0V69.6h8.29A8.32,8.32,0,0,0,113.47,61.28Zm-22.12,0V39.12a8.3,8.3,0,1,0-16.59,0V61.28a8.3,8.3,0,1,0,16.59,0Z"/><path class="cls-3" d="M83.06,113.92a8.31,8.31,0,0,0,0-16.62h-8.3v8.31A8.31,8.31,0,0,0,83.06,113.92Zm0-22.17h22.11a8.31,8.31,0,0,0,0-16.62H83.06a8.31,8.31,0,0,0,0,16.62Z"/><path class="cls-4" d="M30.53,83.44a8.3,8.3,0,1,0,16.59,0v-8.3H38.83A8.3,8.3,0,0,0,30.53,83.44Zm22.12,0V105.6a8.3,8.3,0,1,0,16.59,0V83.45a8.3,8.3,0,1,0-16.59,0h0"/></svg>