<svg id="Layer_1" data-name="Layer 1" xmlns="http://www.w3.org/2000/svg" viewBox="0 0 144 144"><defs><style>.cls-1{fill:#1da1f2;}.cls-2{fill:#fff;}</style></defs><g id="Dark_Blue" data-name="Dark Blue"><circle class="cls-1" cx="72" cy="72.37" r="51.94"/></g><g id="Logo_FIXED" data-name="Logo — FIXED"><path class="cls-2" d="M62.5,99.76c23,0,35.62-19.08,35.62-35.63,0-.54,0-1.09,0-1.61A25.59,25.59,0,0,0,104.36,56a25.66,25.66,0,0,1-7.2,2,12.53,12.53,0,0,0,5.51-6.94,25.32,25.32,0,0,1-8,3,12.53,12.53,0,0,0-21.66,8.57,11.67,11.67,0,0,0,.34,2.86A35.54,35.54,0,0,1,47.59,52.45a12.51,12.51,0,0,0,3.9,16.7,12.48,12.48,0,0,1-5.67-1.56v.15A12.54,12.54,0,0,0,55.87,80a12.62,12.62,0,0,1-3.29.44,11.69,11.69,0,0,1-2.37-.24,12.5,12.5,0,0,0,11.69,8.7,25.19,25.19,0,0,1-15.56,5.35,22.6,22.6,0,0,1-3-.18A34.91,34.91,0,0,0,62.5,99.76"/></g></svg>