<svg id="Layer_1" data-name="Layer 1" xmlns="http://www.w3.org/2000/svg" viewBox="0 0 144 144"><defs><style>.cls-1{fill:#0067b1;}.cls-2{fill:#fff;}</style></defs><path class="cls-1" d="M30.91,31.73h82.18v82.19H30.91Z"/><path class="cls-2" d="M54.7,57.35l5.57,18.94,5.57-18.94H81v1.88L75.26,69a7.9,7.9,0,0,1,4.53,3.5,12.32,12.32,0,0,1-.71,13.06,7.05,7.05,0,0,1-5.82,2.88,7,7,0,0,1-4.68-1.71,10,10,0,0,1-3-4.63l3.15-1.31a7.24,7.24,0,0,0,1.82,2.79,3.88,3.88,0,0,0,2.67,1A3.19,3.19,0,0,0,76,82.82a8.12,8.12,0,0,0,1.12-4.34,6.9,6.9,0,0,0-1.2-4.34,5.13,5.13,0,0,0-4.34-1.81H70V70.49l5.37-9.3H68.92l-.37.63L60.66,88.47h-.39L54.51,69.18,48.75,88.47h-.39L39.14,57.35h4l5.57,18.94,3.76-12.75-1.84-6.19ZM101.88,59c.58,0,.85.16.85.57s-.27.53-.84.53h-.53V59Zm.11-.41h-1.26V61.9h.63V60.48H102l.68,1.42h.7l-.74-1.52a.87.87,0,0,0,.76-.9c0-.6-.46-.91-1.39-.91Zm2.47,1.75a2.46,2.46,0,0,1-.74,1.77,2.56,2.56,0,0,1-1.83.75,2.51,2.51,0,0,1-1.78-.76,2.55,2.55,0,0,1-.75-1.79,2.62,2.62,0,0,1,.78-1.83,2.46,2.46,0,0,1,1.78-.73,2.53,2.53,0,0,1,1.82.76,2.57,2.57,0,0,1,.72,1.83Zm-2.55-3a2.83,2.83,0,0,0-2,.83A3,3,0,0,0,99,60.29a3,3,0,0,0,2.93,2.94,3,3,0,0,0,2.09-.87,2.85,2.85,0,0,0,.86-2.07,3,3,0,0,0-3-2.94Zm-5-.17.66,4L95.3,65.57a8.43,8.43,0,0,0-2.36-2.91,3.69,3.69,0,0,0-3.32-.81c-1.62.34-3.47,2.28-4.27,4.68a16,16,0,0,0-1,5.53,12.66,12.66,0,0,0,.27,3.25,14.57,14.57,0,0,1-1.39-6.4,16,16,0,0,1,1.69-7.61c1.11-2.14,2.75-3.42,4.21-3.57a4.74,4.74,0,0,1,3.62,1.36,11.21,11.21,0,0,1,1.94,2.63L97,57.18Zm.29,22.48a19.25,19.25,0,0,1-1.66,2.52,10.12,10.12,0,0,1-3.19,2.57,5.85,5.85,0,0,1-3.53.6,7,7,0,0,1-3.14-1.27,12.4,12.4,0,0,1-2.26-2.25c-.65-.92-1.68-2.76-1.68-2.76s.57,1.84.93,2.63a17.77,17.77,0,0,0,1.73,3,8.28,8.28,0,0,0,4.92,3.49A6.3,6.3,0,0,0,94,87.28a13.17,13.17,0,0,0,1.86-1.6,15.87,15.87,0,0,0,1.44-1.9c.22-.35.58-1.06.58-1.06l-.58-3.06Z"/></svg>