<?xml version="1.0" encoding="utf-8"?>
<!-- Generator: Adobe Illustrator 25.1.0, SVG Export Plug-In . SVG Version: 6.00 Build 0)  -->
<svg version="1.1" xmlns="http://www.w3.org/2000/svg" xmlns:xlink="http://www.w3.org/1999/xlink" x="0px" y="0px"
	 viewBox="0 0 721.2 712" style="enable-background:new 0 0 721.2 712;" xml:space="preserve">
<style type="text/css">
	.st0{display:none;}
	.st1{display:inline;}
	.st2{fill:none;stroke:#000000;stroke-width:2;stroke-miterlimit:10;}
</style>
<g id="Layer_1" class="st0">
	<g class="st1">
		<g id="Path_1839">
			<g>
				<path class="st2" d="M565.2,209.7"/>
			</g>
		</g>
		<g>
			<g>
				<path class="st2" d="M685.4,316.2c-1.2,0.2-2.3,0.2-3.5,0.2c-15.7,0-28.4-12.7-28.4-28.4c0-12.8,8.4-23.5,20-27.1
					c-15.4-50.1-42.5-95-78-131.7c-3.9-4-7.9-8-12-11.8C539.3,76.2,483.7,47,422,35.1h0c-2.5-0.5-5-0.9-7.5-1.4
					c-17.9-3-36.3-4.6-55-4.6c-23.3,0-46,2.4-68,7c0.8,3,1.2,6.1,1.2,9.3c0,19.8-16,35.8-35.8,35.8c-15.2,0-28.1-9.5-33.3-22.8
					c-52.2,23.7-97,60.7-130.3,106.6c5.3,3.7,8.8,9.8,8.8,16.8c0,11.3-9.2,20.4-20.4,20.4c-3.7,0-7.2-1-10.2-2.7
					c-25.8,46.9-40.5,100.9-40.5,158.2c0,14,0.9,27.7,2.6,41.2c0.7,5.6,1.5,11.1,2.5,16.6c18.7,105.1,87.3,193,180.5,238.1
					c1.8-4.1,5.9-7,10.7-7c6.5,0,11.7,5.3,11.7,11.7c0,1.7-0.3,3.3-1,4.7c37.6,15,78.6,23.2,121.6,23.2c40,0,78.3-7.2,113.8-20.2
					c5.2-1.9,10.4-4,15.5-6.2c34.4-14.7,65.8-35.2,92.9-60.1c-2.5-3.4-3.9-7.6-3.9-12.2c0-11.6,9.4-20.9,20.9-20.9
					c4.2,0,8.2,1.3,11.5,3.4c48.6-57.3,77.9-131.4,77.9-212.4C688,343.6,687.1,329.8,685.4,316.2z"/>
			</g>
		</g>
		<g>
			<g>
				<path d="M256.9,82.3c-15.3,0-28.7-9.2-34.3-23.4c-1.7-4.3-2.5-8.7-2.5-13.3c0-20.3,16.5-36.8,36.8-36.8
					c16.6,0,31.2,11.2,35.5,27.2c0.8,3.1,1.3,6.3,1.3,9.6C293.7,65.8,277.2,82.3,256.9,82.3z M256.9,10.7
					c-19.2,0-34.8,15.6-34.8,34.8c0,4.3,0.8,8.6,2.4,12.6c5.2,13.5,18,22.2,32.4,22.2c19.2,0,34.8-15.6,34.8-34.8
					c0-3.1-0.4-6.1-1.2-9C286.4,21.3,272.6,10.7,256.9,10.7z"/>
			</g>
		</g>
		<g>
			<g>
				<path d="M81.6,203.2c-3.8,0-7.5-1-10.7-2.9c-6.6-3.8-10.7-10.9-10.7-18.6c0-11.8,9.6-21.4,21.4-21.4c4.4,0,8.6,1.3,12.3,3.9
					c5.8,4,9.2,10.6,9.2,17.6C103,193.6,93.4,203.2,81.6,203.2z M81.6,162.3c-10.7,0-19.4,8.7-19.4,19.4c0,6.9,3.7,13.4,9.7,16.8
					c2.9,1.7,6.3,2.6,9.7,2.6c10.7,0,19.4-8.7,19.4-19.4c0-6.4-3.1-12.3-8.3-15.9C89.4,163.5,85.6,162.3,81.6,162.3z"/>
			</g>
		</g>
		<g>
			<g>
				<path d="M227.1,671.1c-7,0-12.7-5.7-12.7-12.7c0-1.8,0.4-3.5,1.1-5.1c2-4.6,6.6-7.6,11.6-7.6c7,0,12.7,5.7,12.7,12.7
					c0,1.8-0.4,3.5-1.1,5.1C236.8,668.1,232.2,671.1,227.1,671.1z M227.1,647.6c-4.2,0-8.1,2.5-9.8,6.4c-0.6,1.4-0.9,2.8-0.9,4.3
					c0,5.9,4.8,10.7,10.7,10.7c4.3,0,8.1-2.5,9.8-6.4c0.6-1.4,0.9-2.8,0.9-4.3C237.9,652.4,233,647.6,227.1,647.6z"/>
			</g>
		</g>
		<g id="Ellipse_415">
			<g>
				<circle cx="33.4" cy="407.4" r="8.5"/>
			</g>
			<g>
				<path d="M33.4,416.9c-5.2,0-9.5-4.2-9.5-9.5s4.2-9.5,9.5-9.5s9.5,4.2,9.5,9.5S38.6,416.9,33.4,416.9z M33.4,399.9
					c-4.1,0-7.5,3.4-7.5,7.5s3.4,7.5,7.5,7.5c4.1,0,7.5-3.4,7.5-7.5S37.5,399.9,33.4,399.9z"/>
			</g>
		</g>
		<g id="Ellipse_416">
			<g>
				<circle cx="590.1" cy="122.7" r="8.5"/>
			</g>
			<g>
				<path d="M590.1,132.1c-5.2,0-9.5-4.2-9.5-9.5s4.2-9.5,9.5-9.5s9.5,4.2,9.5,9.5S595.3,132.1,590.1,132.1z M590.1,115.2
					c-4.1,0-7.5,3.4-7.5,7.5c0,4.1,3.4,7.5,7.5,7.5s7.5-3.4,7.5-7.5C597.6,118.6,594.2,115.2,590.1,115.2z"/>
			</g>
		</g>
		<g id="Ellipse_417">
			<g>
				<circle cx="481.5" cy="664.2" r="8.5"/>
			</g>
			<g>
				<path d="M481.5,673.7c-5.2,0-9.5-4.2-9.5-9.5s4.2-9.5,9.5-9.5s9.5,4.2,9.5,9.5S486.7,673.7,481.5,673.7z M481.5,656.7
					c-4.1,0-7.5,3.4-7.5,7.5s3.4,7.5,7.5,7.5s7.5-3.4,7.5-7.5S485.6,656.7,481.5,656.7z"/>
			</g>
		</g>
		<g id="Ellipse_420">
			<g>
				<circle cx="418.4" cy="33.5" r="3.9"/>
			</g>
			<g>
				<path d="M418.4,38.4c-2.7,0-4.9-2.2-4.9-4.9s2.2-4.9,4.9-4.9c2.7,0,4.9,2.2,4.9,4.9S421.1,38.4,418.4,38.4z M418.4,30.6
					c-1.6,0-2.9,1.3-2.9,2.9c0,1.6,1.3,2.9,2.9,2.9c1.6,0,2.9-1.3,2.9-2.9C421.3,31.9,420,30.6,418.4,30.6z"/>
			</g>
		</g>
		<g>
			<g>
				<path d="M681.9,317.4c-16.2,0-29.4-13.2-29.4-29.4c0-13,8.3-24.3,20.7-28.1c2.8-0.9,5.7-1.3,8.7-1.3c16.2,0,29.4,13.2,29.4,29.4
					c0,14.8-11.1,27.3-25.7,29.1C684.4,317.3,683.2,317.4,681.9,317.4z M681.9,260.7c-2.7,0-5.5,0.4-8.1,1.2
					c-11.5,3.5-19.3,14.1-19.3,26.2c0,15.1,12.3,27.4,27.4,27.4c1.2,0,2.3-0.1,3.4-0.2c13.7-1.7,24-13.4,24-27.1
					C709.2,272.9,697,260.7,681.9,260.7z"/>
			</g>
		</g>
		<g id="Line_903">
			<g>
				<rect x="680.1" y="278.4" transform="matrix(0.9547 -0.2975 0.2975 0.9547 -54.5898 215.6228)" width="2" height="17.5"/>
			</g>
		</g>
		<g id="Path_1842">
			<g>
				<path d="M668.4,300.3l-5.1-16.4c-0.1-0.3-0.1-0.7,0.1-1c0.2-0.3,0.4-0.5,0.8-0.7c0.3-0.1,0.6-0.1,0.9,0l7.5,2.7
					c1.9,0.7,4,0.7,6,0.1l10.4-3.2c3.8-1.2,7.8,0.9,9,4.7l1.3,4.1l-1.9,0.6l-1.3-4.1c-0.8-2.7-3.7-4.2-6.5-3.4L679,287
					c-2.4,0.7-4.9,0.7-7.3-0.2l-6.2-2.2l4.7,15.1L668.4,300.3z M664.3,284.2C664.3,284.2,664.3,284.2,664.3,284.2L664.3,284.2z
					 M665.1,283.3L665.1,283.3C665.2,283.3,665.1,283.3,665.1,283.3z"/>
			</g>
		</g>
		<g>
			<g>
				<path d="M598.7,609.5c-7.1,0-13.7-3.4-17.8-9.2c-2.7-3.7-4.1-8.1-4.1-12.7c0-12.1,9.8-21.9,21.9-21.9c4.3,0,8.5,1.2,12,3.6
					c6.2,4.1,9.9,10.9,9.9,18.3C620.6,599.6,610.8,609.5,598.7,609.5z M598.7,567.6c-11,0-19.9,8.9-19.9,19.9
					c0,4.2,1.3,8.2,3.7,11.6c3.7,5.2,9.8,8.3,16.2,8.3c11,0,19.9-8.9,19.9-19.9c0-6.7-3.4-13-9-16.7
					C606.4,568.8,602.6,567.6,598.7,567.6z"/>
			</g>
		</g>
		<g id="Line_904">
			<g>
				<rect x="595.1" y="576.2" transform="matrix(0.7847 -0.6199 0.6199 0.7847 -231.7357 494.6039)" width="2" height="9.4"/>
			</g>
		</g>
		<g id="Line_905">
			<g>
				<rect x="591.2" y="579.3" transform="matrix(0.7846 -0.62 0.62 0.7846 -234.4725 492.9153)" width="2" height="9.4"/>
			</g>
		</g>
		<g id="Path_1843">
			<g>
				<path d="M592.4,599.6l-3.8-4.8c-1.2-1.5-1.8-3.5-1.5-5.4s1.2-3.7,2.7-4.9l7.4-5.8c1.5-1.2,3.4-1.8,5.4-1.5
					c1.9,0.2,3.7,1.2,4.9,2.7l3.8,4.8l-1.6,1.2l-3.8-4.8c-0.9-1.1-2.1-1.8-3.6-2c-1.4-0.2-2.8,0.2-3.9,1.1l-7.4,5.8
					c-1.1,0.9-1.8,2.1-2,3.6c-0.2,1.4,0.2,2.8,1.1,3.9l3.8,4.8L592.4,599.6z"/>
			</g>
		</g>
		<g id="Path_1844">
			<g>
				<path d="M251.2,63.1c-0.1,0-0.3,0-0.4-0.1c-0.8-0.2-1.2-1-1-1.8L259,29l-20.9,16.5l-1.2-1.6l22.3-17.6c0.3-0.2,0.7-0.3,1.1-0.3
					c0.4,0,0.7,0.2,1,0.5c0.3,0.4,0.4,0.8,0.2,1.3l-9.2,32.3L274,43l1.2,1.6l-23.1,18.3C251.8,63,251.5,63.1,251.2,63.1z"/>
			</g>
		</g>
		<g id="Line_906">
			<g>
				<rect x="257.9" y="24.9" transform="matrix(0.7846 -0.6199 0.6199 0.7846 29.8783 169.4597)" width="2" height="33.6"/>
			</g>
		</g>
		<g id="Line_907">
			<g>
				<rect x="251" y="30.3" transform="matrix(0.7846 -0.6199 0.6199 0.7846 25.0598 166.3864)" width="2" height="33.6"/>
			</g>
		</g>
		<g id="Path_1847">
			<g>
				<path class="st2" d="M436,130.5"/>
			</g>
		</g>
	</g>
</g>
<g id="Layer_2">
	<g>
		<polygon points="539.6,182.7 537.7,183.2 542.1,199 525,200.3 525.2,202.3 542.8,201 545.8,203.1 542.1,208.3 543.8,209.5 
			547.4,204.2 552.2,207.6 548.6,212.8 550.2,214 553.9,208.7 561.3,214 562.5,212.3 555,207.1 558.7,201.8 557.1,200.6 553.4,206 
			548.6,202.6 552.3,197.3 550.7,196.1 547,201.5 544.3,199.6 		"/>
		<path d="M219.4,546l-12.5,17.9l17.9,12.5l12.5-17.9L219.4,546z M224.3,573.6l-14.6-10.2l10.2-14.6l14.6,10.2L224.3,573.6z"/>
		<path d="M128.2,445.2c0.4-0.1,0.9-0.2,1.3-0.4c2-0.9,3.1-2.8,3.1-4.8c0-0.7-0.1-1.4-0.4-2.1c-0.6-1.6-0.9-2.4-1.6-4l0,0
			c-1.4-3.2-4.7-5-8.2-4.4l-4.1,0.8c-0.5,0.1-1,0.2-1.4,0.5c-1.2,0.6-2.1,1.6-2.6,2.9c-0.4,1.3-0.4,2.7,0.2,3.8c0.6,1.6,1,2.4,1.6,4
			c1.3,3.2,4.6,5,8,4.5L128.2,445.2z M118,440.8c-0.6-1.6-0.9-2.4-1.6-4c-0.2-0.4-0.3-0.9-0.3-1.4c0-0.3,0.1-0.7,0.2-1
			c0.3-0.8,0.8-1.4,1.6-1.8c0.3-0.1,0.6-0.2,0.9-0.3l4.1-0.8c2.5-0.4,5,0.9,6,3.3c0.6,1.6,1,2.4,1.6,4c0.7,1.6,0,3.6-1.7,4.3
			c-0.3,0.1-0.5,0.2-0.8,0.2l-4.1,0.8C121.3,444.4,118.9,443.1,118,440.8z"/>
		<path d="M109.1,373c3.4-0.8,5.8-3.8,5.8-7.2l0-1.2c0-1,0-1.8,0-3.1l0-0.2c0,0,0-0.1,0-0.1l0-0.7h-0.1c0-0.1,0-0.2-0.1-0.4
			c-0.3-1.4-1.2-2.5-2.3-3.2c-1.2-0.7-2.6-0.9-3.9-0.6l-4.1,0.8c-3.4,0.8-5.7,3.8-5.7,7.2c0,1.7,0,2.5,0,4.2c0,0.5,0,1,0.1,1.5
			c0.7,2.7,3.4,4.4,6.1,3.8L109.1,373z M102.2,371.5c-0.7-0.4-1.2-1.1-1.4-1.9c-0.1-0.2-0.1-0.5-0.1-0.7c0-0.1,0-0.2,0-0.3
			c0-1.7,0-2.6,0-4.3c0-2.5,1.7-4.7,4.1-5.3l4.1-0.8c0.8-0.2,1.7-0.1,2.4,0.4c0.7,0.4,1.2,1.2,1.4,2c0.1,0.3,0.1,0.6,0.1,0.9l0,1h0
			c0,0.8,0,1.4,0,2.1l0,1.1c-0.1,2.5-1.8,4.7-4.3,5.3l-4.1,0.8C103.7,372.1,102.9,371.9,102.2,371.5z"/>
		<path d="M308.1,81.5c-1.5,0-2.8,1.2-2.8,2.7l-1.2,33.6c-42.7,9.9-82,31.1-114,61.5c-5-4.8-11.6-7.4-18.6-7.4
			c-15,0-27.1,12.2-27.1,27.1c0,8.5,4,16.5,10.8,21.6c-23.2,34.5-37.3,74.6-40.8,116l-35.5,7.1c-1.5,0.3-2.4,1.7-2.2,3.2
			c1.9,40.7,9.9,80.8,23.7,119.1c0.4,1.4,1.8,2.3,3.3,2.1l32.6-6.5c14.7,31.8,36.6,60.6,63.3,83.6c-3.4,4.7-5.1,10.2-5.1,16
			c0,15.3,12.4,27.7,27.7,27.7c9.3,0,18.1-4.8,23.2-12.6c14.1,7.4,28.9,13.5,44.2,18c0,0.2-0.1,0.5-0.1,0.7c0,2.7,2.2,4.8,4.8,4.8
			c2,0,3.7-1.2,4.4-3c19.1,4.9,38.9,7.5,58.9,7.7c0,0.4,0,0.7,0,1c0,15.2,12.4,27.6,27.6,27.6c15.2,0,27.6-12.4,27.6-27.6
			c0-2.2-0.3-4.4-0.8-6.5c39.1-8.4,76-26.5,106.8-52.4l29.2,20.5c1.2,0.9,2.9,0.6,3.8-0.6c27-30.3,50.4-63.8,69.7-99.4
			c0.3-0.5,0.5-1,0.5-1.5c0-0.9-0.4-1.8-1.2-2.3l-29.2-20.5c10-27.1,15-55.7,15-84.9c0-4.5-0.1-9-0.4-13.4
			c12.9-0.7,23.2-11.4,23.2-24.5c0-13.5-11-24.5-24.5-24.5c-2.1,0-4.1,0.3-6,0.8c-6.6-25.7-17.3-50-31.7-72.3c6.2-6,9.7-14.3,9.7-23
			c0-17.6-14.3-31.9-31.9-31.9c-7,0-13.5,2.2-19,6.3c-13.2-12-27.7-22.6-43.2-31.5c0.1-0.3,0.1-0.7,0.1-1.1c0-2.7-2.2-4.8-4.8-4.8
			c-1.3,0-2.5,0.5-3.4,1.4c-13.9-7.3-28.6-13.3-43.7-17.9l1.1-33.2c0,0,0-0.1,0-0.1c0-1.5-1.1-2.7-2.6-2.8
			C389.2,80.9,348.4,79.5,308.1,81.5z M146.4,199.1c0-13.9,11.3-25.1,25.1-25.1c6.8,0,13.1,2.7,17.9,7.5c4.7,4.7,7.3,11,7.3,17.7
			c0,13.9-11.3,25.1-25.1,25.1c-0.7,0-1.3,0-1.9-0.1c-0.8-0.1-1.6-0.2-2.4-0.3c-3.6-0.6-7.1-2-10.1-4.2
			C150.4,215,146.4,207.3,146.4,199.1z M102.3,465.5l0-0.1c-13.8-38.2-21.7-78.1-23.6-118.6l0-0.1c-0.1-0.4,0.2-0.8,0.6-0.9
			l55.7-11.1c0.1,0,0.2,0,0.3,0c0.3,0,0.5,0.2,0.5,0.5l0,0c0.5,10.2,1.3,20.3,2.6,30.4c3.7,30.2,10.8,59.9,21.1,88.7c0,0,0,0,0,0
			c0,0.1,0,0.2,0,0.2c0,0,0,0,0,0c0,0.1-0.1,0.3-0.2,0.4c-0.1,0.1-0.2,0.1-0.3,0.1l-55.7,11.1C102.8,466.2,102.4,465.9,102.3,465.5z
			 M222.1,586.9c-14.2,0-25.7-11.5-25.7-25.7c0-5.6,1.8-11,5.2-15.4l0.1-0.1c4.9-6.4,12.4-10.1,20.5-10.1c7.5,0,14.3,3.3,19,8.4
			c4.2,4.6,6.7,10.6,6.7,17.3c0,4.7-1.3,9.3-3.7,13.3C239.4,582.2,231.2,586.9,222.1,586.9z M385.1,631.1
			c-14.1,0-25.6-11.5-25.6-25.6c0-0.6,0-1.3,0.1-2c1-13.2,12.2-23.6,25.5-23.6c1.4,0,2.8,0.1,4.2,0.3c9.6,1.6,17.7,8.7,20.4,18.2
			c0.6,2.2,1,4.6,1,7C410.7,619.6,399.2,631.1,385.1,631.1z M619.5,464.9c0.4,0.3,0.5,0.8,0.2,1.2c-19.2,35.6-42.6,68.9-69.5,99.1
			c-0.3,0.3-0.8,0.4-1.1,0.2l-28.8-20.2l0,0l-17.7-12.4c-0.2-0.1-0.3-0.3-0.3-0.5c0-0.1,0-0.2,0-0.2c0,0,0,0,0-0.1
			c0-0.1,0-0.2,0.1-0.2l0,0c26.9-30.3,50.4-63.7,69.6-99.3c0.1-0.2,0.3-0.3,0.4-0.3c0.1,0,0.2,0,0.3,0c0.1,0,0.2,0.1,0.3,0.1
			L619.5,464.9z M627.3,320.1c0,11.9-9.4,21.8-21.3,22.5l0-0.1l-1,0.1c-0.1,0-0.1,0-0.2,0c-12.4,0-22.5-10.1-22.5-22.5
			c0-1.2,0.1-2.4,0.3-3.6c1.4-8.3,7.5-15.4,15.7-17.9l0,0c2.1-0.6,4.2-0.9,6.5-0.9C617.2,297.7,627.3,307.7,627.3,320.1z
			 M574.8,201.2c0,8.4-3.5,16.4-9.7,22.1c-5.5,5.1-12.7,7.9-20.2,7.9c-16.5,0-29.9-13.4-29.9-29.9c0-2.9,0.4-5.7,1.2-8.4
			c1.7-5.9,5.3-11.2,10.3-15.1c5.3-4.2,11.7-6.4,18.5-6.4C561.4,171.3,574.8,184.7,574.8,201.2z M430.7,123.8
			c14.7,4.4,29.1,10.3,42.7,17.5c-0.2,0.5-0.3,1.1-0.3,1.7c0,2.7,2.2,4.8,4.8,4.8c1.6,0,3-0.8,3.8-1.9c15.2,8.7,29.4,19.1,42.4,30.9
			c-0.1,0.1-0.2,0.2-0.3,0.2c-0.2,0.2-0.4,0.3-0.6,0.5c-0.3,0.2-0.5,0.5-0.8,0.7c-0.2,0.2-0.4,0.4-0.6,0.5c-0.2,0.2-0.5,0.5-0.7,0.7
			c-0.2,0.2-0.4,0.4-0.5,0.6c-0.2,0.2-0.4,0.5-0.6,0.8c-0.2,0.2-0.3,0.4-0.5,0.6c-0.2,0.3-0.4,0.5-0.6,0.8c-0.2,0.2-0.3,0.4-0.5,0.6
			c-0.2,0.3-0.4,0.5-0.5,0.8c-0.1,0.2-0.3,0.4-0.4,0.7c-0.2,0.3-0.3,0.6-0.5,0.8c-0.1,0.2-0.3,0.5-0.4,0.7c-0.2,0.3-0.3,0.6-0.4,0.9
			c-0.1,0.2-0.2,0.5-0.4,0.7c-0.1,0.3-0.3,0.6-0.4,0.9c-0.1,0.2-0.2,0.5-0.3,0.7c-0.1,0.3-0.2,0.6-0.3,0.9c-0.1,0.2-0.2,0.5-0.3,0.7
			c-0.1,0.3-0.2,0.6-0.3,0.9c-0.1,0.2-0.2,0.5-0.2,0.7c-0.1,0.3-0.2,0.6-0.3,1c-0.1,0.2-0.1,0.5-0.2,0.7c-0.1,0.3-0.1,0.7-0.2,1
			c0,0.2-0.1,0.5-0.1,0.7c-0.1,0.4-0.1,0.7-0.2,1.1c0,0.2-0.1,0.5-0.1,0.7c0,0.4-0.1,0.8-0.1,1.2c0,0.2,0,0.4,0,0.6
			c0,0.6-0.1,1.2-0.1,1.8c0,17.6,14.3,31.9,31.9,31.9c0.5,0,1,0,1.5,0c0.2,0,0.3,0,0.5,0c0.3,0,0.6,0,1-0.1c0.2,0,0.4,0,0.6-0.1
			c0.3,0,0.6-0.1,0.9-0.1c0.2,0,0.4-0.1,0.6-0.1c0.3,0,0.5-0.1,0.8-0.1c0.2,0,0.4-0.1,0.6-0.1c0.3-0.1,0.5-0.1,0.8-0.2
			c0.2,0,0.4-0.1,0.6-0.2c0.3-0.1,0.5-0.1,0.8-0.2c0.2-0.1,0.4-0.1,0.6-0.2c0.2-0.1,0.5-0.2,0.7-0.2c0.2-0.1,0.4-0.1,0.6-0.2
			c0.2-0.1,0.5-0.2,0.7-0.3c0.2-0.1,0.4-0.2,0.6-0.2c0.2-0.1,0.5-0.2,0.7-0.3c0.2-0.1,0.4-0.2,0.6-0.3c0.2-0.1,0.5-0.2,0.7-0.3
			c0.2-0.1,0.4-0.2,0.6-0.3c0.2-0.1,0.5-0.2,0.7-0.4c0.2-0.1,0.4-0.2,0.6-0.3c0.2-0.1,0.4-0.3,0.7-0.4c0.2-0.1,0.4-0.2,0.6-0.3
			c0.2-0.1,0.4-0.3,0.7-0.4c0.2-0.1,0.4-0.2,0.6-0.4c0.2-0.2,0.4-0.3,0.6-0.5c0.2-0.1,0.4-0.3,0.5-0.4c0.2-0.2,0.4-0.3,0.6-0.5
			c0.2-0.1,0.3-0.3,0.5-0.4c0,0,0.1-0.1,0.1-0.1c14.2,22.1,24.8,46.1,31.3,71.5c-0.2,0.1-0.3,0.1-0.5,0.2c-0.3,0.1-0.6,0.2-0.9,0.3
			c-0.3,0.1-0.6,0.3-0.9,0.4c-0.3,0.1-0.6,0.3-0.8,0.4c-0.3,0.2-0.6,0.3-0.9,0.5c-0.3,0.2-0.5,0.3-0.8,0.5c-0.3,0.2-0.6,0.4-0.8,0.6
			c-0.3,0.2-0.5,0.3-0.7,0.5c-0.3,0.2-0.5,0.4-0.8,0.6c-0.2,0.2-0.5,0.4-0.7,0.6c-0.3,0.2-0.5,0.4-0.8,0.7c-0.2,0.2-0.4,0.4-0.6,0.6
			c-0.2,0.2-0.5,0.5-0.7,0.7c-0.2,0.2-0.4,0.4-0.6,0.7c-0.2,0.3-0.4,0.5-0.6,0.8c-0.2,0.2-0.4,0.5-0.5,0.7c-0.2,0.3-0.4,0.6-0.6,0.9
			c-0.2,0.2-0.3,0.5-0.5,0.7c-0.2,0.3-0.3,0.6-0.5,0.9c-0.1,0.3-0.3,0.5-0.4,0.8c-0.2,0.3-0.3,0.6-0.5,1c-0.1,0.3-0.2,0.5-0.4,0.8
			c-0.1,0.3-0.3,0.7-0.4,1c-0.1,0.3-0.2,0.5-0.3,0.8c-0.1,0.3-0.2,0.7-0.3,1.1c-0.1,0.3-0.2,0.5-0.2,0.8c-0.1,0.4-0.2,0.8-0.2,1.1
			c0,0.3-0.1,0.5-0.2,0.8c-0.1,0.4-0.1,0.9-0.2,1.3c0,0.2-0.1,0.4-0.1,0.6c-0.1,0.7-0.1,1.3-0.1,2c0,0.4,0,0.8,0,1.2
			c0,0.1,0,0.3,0,0.4c0,0.3,0,0.5,0.1,0.8c0,0.2,0,0.3,0.1,0.5c0,0.2,0.1,0.5,0.1,0.7c0,0.2,0.1,0.3,0.1,0.5c0,0.2,0.1,0.5,0.1,0.7
			c0,0.2,0.1,0.3,0.1,0.5c0,0.2,0.1,0.4,0.2,0.7c0,0.2,0.1,0.3,0.1,0.5c0.1,0.2,0.1,0.4,0.2,0.6c0.1,0.2,0.1,0.3,0.2,0.5
			c0.1,0.2,0.1,0.4,0.2,0.6c0.1,0.2,0.1,0.3,0.2,0.5c0.1,0.2,0.2,0.4,0.2,0.6c0.1,0.2,0.1,0.3,0.2,0.5c0.1,0.2,0.2,0.4,0.3,0.6
			c0.1,0.2,0.2,0.3,0.2,0.5c0.1,0.2,0.2,0.4,0.3,0.6c0.1,0.2,0.2,0.3,0.3,0.5c0.1,0.2,0.2,0.4,0.3,0.5c0.1,0.2,0.2,0.3,0.3,0.5
			c0.1,0.2,0.2,0.4,0.3,0.5c0.1,0.1,0.2,0.3,0.3,0.4c0.1,0.2,0.2,0.3,0.4,0.5c0.1,0.1,0.2,0.3,0.3,0.4c0.1,0.2,0.3,0.3,0.4,0.5
			c0.1,0.1,0.2,0.3,0.4,0.4c0.1,0.2,0.3,0.3,0.4,0.5c0.1,0.1,0.2,0.3,0.4,0.4c0.1,0.2,0.3,0.3,0.4,0.4c0.1,0.1,0.3,0.3,0.4,0.4
			c0.1,0.1,0.3,0.3,0.4,0.4c0.1,0.1,0.3,0.2,0.4,0.4c0.2,0.1,0.3,0.3,0.5,0.4c0.1,0.1,0.3,0.2,0.4,0.3c0.2,0.1,0.3,0.3,0.5,0.4
			c0.1,0.1,0.3,0.2,0.4,0.3c0.2,0.1,0.3,0.2,0.5,0.4c0.2,0.1,0.3,0.2,0.5,0.3c0.2,0.1,0.3,0.2,0.5,0.3c0.2,0.1,0.3,0.2,0.5,0.3
			c0.2,0.1,0.4,0.2,0.5,0.3c0.2,0.1,0.3,0.2,0.5,0.3c0.2,0.1,0.4,0.2,0.5,0.3c0.2,0.1,0.3,0.2,0.5,0.2c0.2,0.1,0.4,0.2,0.6,0.3
			c0.2,0.1,0.3,0.1,0.5,0.2c0.2,0.1,0.4,0.2,0.6,0.2c0.2,0.1,0.4,0.1,0.5,0.2c0.2,0.1,0.4,0.1,0.6,0.2c0.2,0.1,0.4,0.1,0.6,0.2
			c0.2,0.1,0.4,0.1,0.6,0.2c0.2,0.1,0.4,0.1,0.6,0.1c0.2,0,0.4,0.1,0.6,0.1c0.2,0,0.4,0.1,0.6,0.1c0.2,0,0.4,0.1,0.6,0.1
			c0.2,0,0.4,0.1,0.6,0.1c0.2,0,0.4,0.1,0.6,0.1c0.2,0,0.4,0,0.6,0.1c0.2,0,0.4,0,0.6,0c0.2,0,0.4,0,0.6,0c0.1,0,0.2,0,0.3,0
			c0.2,4.4,0.4,8.9,0.4,13.3c0,28.8-4.9,56.9-14.7,83.7l-15.6-11l-0.2-0.1c-0.4-0.3-0.9-0.4-1.4-0.4c-0.2,0-0.3,0-0.5,0.1
			c-0.7,0.1-1.3,0.6-1.7,1.2c-19.2,35.6-42.6,68.9-69.4,99.1l-0.1,0.2c-0.4,0.6-0.6,1.3-0.4,2c0.1,0.7,0.5,1.3,1.1,1.7l15.6,10.9
			c-30.5,25.5-67,43.4-105.6,51.7c-0.1-0.2-0.2-0.4-0.2-0.7c-0.1-0.3-0.2-0.7-0.4-1c-0.1-0.4-0.3-0.7-0.5-1.1
			c-0.1-0.3-0.3-0.6-0.4-0.9c-0.2-0.3-0.4-0.7-0.5-1c-0.2-0.3-0.3-0.6-0.5-0.9c-0.2-0.3-0.4-0.7-0.6-1c-0.2-0.3-0.4-0.6-0.6-0.9
			c-0.2-0.3-0.5-0.6-0.7-0.9c-0.2-0.3-0.4-0.6-0.7-0.8c-0.2-0.3-0.5-0.6-0.7-0.8c-0.2-0.3-0.5-0.5-0.7-0.8c-0.3-0.3-0.5-0.5-0.8-0.8
			c-0.3-0.2-0.5-0.5-0.8-0.7c-0.3-0.2-0.6-0.5-0.9-0.7c-0.3-0.2-0.5-0.4-0.8-0.6c-0.3-0.2-0.6-0.4-0.9-0.6c-0.3-0.2-0.6-0.4-0.9-0.6
			c-0.3-0.2-0.7-0.4-1-0.6c-0.3-0.2-0.6-0.3-0.9-0.5c-0.3-0.2-0.7-0.3-1-0.5c-0.3-0.1-0.6-0.3-0.9-0.4c-0.4-0.2-0.7-0.3-1.1-0.4
			c-0.3-0.1-0.6-0.2-0.9-0.4c-0.4-0.1-0.8-0.2-1.2-0.3c-0.3-0.1-0.6-0.2-0.9-0.3c-0.4-0.1-0.8-0.2-1.3-0.3c-0.3-0.1-0.6-0.1-0.9-0.2
			c-0.5-0.1-1-0.1-1.5-0.2c-0.2,0-0.5-0.1-0.7-0.1c-0.7-0.1-1.5-0.1-2.3-0.1c-0.4,0-0.9,0-1.3,0c-0.1,0-0.3,0-0.4,0
			c-0.3,0-0.6,0-0.9,0.1c-0.2,0-0.4,0-0.5,0.1c-0.3,0-0.5,0.1-0.8,0.1c-0.2,0-0.4,0.1-0.6,0.1c-0.2,0-0.5,0.1-0.7,0.1
			c-0.2,0-0.4,0.1-0.6,0.1c-0.2,0-0.5,0.1-0.7,0.2c-0.2,0-0.4,0.1-0.6,0.1c-0.2,0.1-0.5,0.1-0.7,0.2c-0.2,0.1-0.4,0.1-0.6,0.2
			c-0.2,0.1-0.4,0.1-0.7,0.2c-0.2,0.1-0.4,0.1-0.6,0.2c-0.2,0.1-0.4,0.2-0.6,0.2c-0.2,0.1-0.4,0.2-0.6,0.2c-0.2,0.1-0.4,0.2-0.6,0.3
			c-0.2,0.1-0.4,0.2-0.5,0.3c-0.2,0.1-0.4,0.2-0.6,0.3c-0.2,0.1-0.4,0.2-0.5,0.3c-0.2,0.1-0.4,0.2-0.6,0.3c-0.2,0.1-0.3,0.2-0.5,0.3
			c-0.2,0.1-0.4,0.2-0.6,0.3c-0.2,0.1-0.3,0.2-0.5,0.3c-0.2,0.1-0.4,0.2-0.5,0.4c-0.2,0.1-0.3,0.2-0.5,0.4c-0.2,0.1-0.3,0.3-0.5,0.4
			c-0.2,0.1-0.3,0.2-0.5,0.4c-0.2,0.1-0.3,0.3-0.5,0.4c-0.2,0.1-0.3,0.3-0.5,0.4c-0.2,0.1-0.3,0.3-0.5,0.4c-0.1,0.1-0.3,0.3-0.4,0.4
			c-0.2,0.1-0.3,0.3-0.5,0.4c-0.1,0.1-0.3,0.3-0.4,0.4c-0.1,0.2-0.3,0.3-0.4,0.5c-0.1,0.2-0.3,0.3-0.4,0.5c-0.1,0.2-0.3,0.3-0.4,0.5
			c-0.1,0.2-0.3,0.3-0.4,0.5c-0.1,0.2-0.3,0.3-0.4,0.5c-0.1,0.2-0.2,0.3-0.4,0.5c-0.1,0.2-0.3,0.3-0.4,0.5c-0.1,0.2-0.2,0.3-0.3,0.5
			c-0.1,0.2-0.2,0.4-0.3,0.5c-0.1,0.2-0.2,0.3-0.3,0.5c-0.1,0.2-0.2,0.4-0.3,0.6c-0.1,0.2-0.2,0.4-0.3,0.5c-0.1,0.2-0.2,0.4-0.3,0.6
			c-0.1,0.2-0.2,0.4-0.3,0.5c-0.1,0.2-0.2,0.4-0.3,0.6c-0.1,0.2-0.2,0.4-0.2,0.6c-0.1,0.2-0.2,0.4-0.2,0.6c-0.1,0.2-0.1,0.4-0.2,0.6
			c-0.1,0.2-0.1,0.4-0.2,0.6c-0.1,0.2-0.1,0.4-0.2,0.6c-0.1,0.2-0.1,0.4-0.2,0.6c-0.1,0.2-0.1,0.4-0.2,0.6c-0.1,0.2-0.1,0.4-0.2,0.7
			c0,0.2-0.1,0.4-0.1,0.6c0,0.2-0.1,0.4-0.1,0.7c0,0.2-0.1,0.4-0.1,0.6c0,0.2-0.1,0.5-0.1,0.7c0,0.2-0.1,0.4-0.1,0.6
			c0,0.1,0,0.1,0,0.2c-19.9-0.2-39.6-2.8-58.7-7.6c-0.1-2.6-2.2-4.7-4.8-4.7c-1.7,0-3.2,0.9-4.1,2.2c-15.1-4.5-29.9-10.5-43.8-17.8
			c0.1-0.2,0.2-0.4,0.3-0.6c0.1-0.1,0.1-0.2,0.2-0.4c0.2-0.4,0.4-0.9,0.6-1.3c0.1-0.1,0.1-0.3,0.2-0.4c0.2-0.4,0.4-0.9,0.5-1.3
			c0-0.1,0.1-0.3,0.1-0.4c0.2-0.5,0.3-0.9,0.4-1.4c0-0.1,0.1-0.2,0.1-0.4c0.1-0.5,0.3-1,0.4-1.5c0-0.1,0-0.2,0.1-0.3
			c0.1-0.6,0.2-1.1,0.3-1.7c0,0,0-0.1,0-0.1c0.2-1.2,0.3-2.5,0.3-3.7c0-7.2-2.7-13.7-7.2-18.6c-5.1-5.6-12.4-9.1-20.5-9.1
			c-2.6,0-5.1,0.4-7.5,1c0,0-0.1,0-0.1,0c-0.4,0.1-0.9,0.3-1.3,0.4c-0.1,0-0.1,0-0.2,0.1c-0.4,0.1-0.8,0.3-1.2,0.5
			c-0.1,0-0.1,0.1-0.2,0.1c-0.4,0.2-0.8,0.3-1.2,0.5c-0.1,0-0.1,0.1-0.2,0.1c-0.4,0.2-0.8,0.4-1.1,0.6c-0.1,0-0.2,0.1-0.2,0.1
			c-0.4,0.2-0.7,0.4-1.1,0.6c-0.1,0-0.2,0.1-0.2,0.1c-0.4,0.2-0.7,0.4-1,0.7c-0.1,0.1-0.2,0.1-0.2,0.2c-0.3,0.2-0.7,0.5-1,0.7
			c-0.1,0.1-0.2,0.1-0.2,0.2c-0.3,0.3-0.6,0.5-1,0.8c-0.1,0.1-0.2,0.1-0.2,0.2c-0.3,0.3-0.6,0.6-0.9,0.8c-0.1,0.1-0.1,0.1-0.2,0.2
			c-0.3,0.3-0.6,0.6-0.9,0.9c-0.1,0.1-0.1,0.1-0.2,0.2c-0.3,0.3-0.6,0.6-0.8,1c0,0,0,0.1-0.1,0.1c-26.3-22.6-47.9-51-62.5-82.4
			l21.1-4.2l0.1,0c0.2,0,0.3-0.1,0.5-0.2c0,0,0.1-0.1,0.1-0.1c0.1-0.1,0.2-0.1,0.3-0.2c0.1,0,0.1-0.1,0.1-0.1
			c0.1-0.1,0.2-0.1,0.2-0.2c0,0,0.1-0.1,0.1-0.1c0.1-0.1,0.1-0.2,0.2-0.2c0,0,0.1-0.1,0.1-0.1c0.1-0.1,0.1-0.2,0.2-0.3
			c0,0,0-0.1,0.1-0.1c0.1-0.2,0.1-0.3,0.1-0.5c0,0,0,0,0-0.1c0-0.1,0-0.3,0-0.4c0,0,0,0,0,0c0-0.2,0-0.4-0.1-0.6l0-0.1
			c-13.8-38.2-21.7-78.1-23.6-118.6l0-0.2c0,0,0,0,0,0l0,0c0-0.1-0.1-0.3-0.1-0.4c0,0,0-0.1,0-0.1c-0.1-0.1-0.1-0.2-0.2-0.4
			c0,0,0-0.1-0.1-0.1c-0.1-0.1-0.2-0.2-0.3-0.3c0,0,0,0-0.1-0.1c-0.1-0.1-0.2-0.2-0.4-0.3c0,0,0,0,0,0c-0.1-0.1-0.3-0.2-0.4-0.2
			c0,0,0,0,0,0c-0.5-0.2-1-0.3-1.6-0.1l-18.2,3.6c3.6-40.8,17.5-80.4,40.4-114.4c0.2,0.1,0.3,0.2,0.5,0.3c0.3,0.2,0.5,0.3,0.8,0.5
			c0.3,0.2,0.6,0.4,1,0.5c0.3,0.1,0.5,0.3,0.8,0.4c0.3,0.2,0.7,0.3,1,0.4c0.3,0.1,0.6,0.2,0.8,0.3c0.3,0.1,0.7,0.3,1,0.4
			c0.3,0.1,0.6,0.2,0.8,0.3c0.4,0.1,0.7,0.2,1.1,0.3c0.3,0.1,0.6,0.1,0.8,0.2c0.4,0.1,0.8,0.2,1.2,0.2c0.3,0,0.5,0.1,0.8,0.1
			c0.4,0.1,0.9,0.1,1.3,0.2c0.2,0,0.4,0.1,0.7,0.1c0.7,0,1.4,0.1,2,0.1c15,0,27.1-12.2,27.1-27.1c0-0.4,0-0.9,0-1.3
			c0-0.1,0-0.3,0-0.4c0-0.3,0-0.6-0.1-0.9c0-0.2,0-0.3-0.1-0.5c0-0.3-0.1-0.5-0.1-0.8c0-0.2-0.1-0.4-0.1-0.5c0-0.2-0.1-0.5-0.1-0.7
			c0-0.2-0.1-0.4-0.1-0.6c-0.1-0.2-0.1-0.5-0.2-0.7c0-0.2-0.1-0.4-0.1-0.6c-0.1-0.2-0.1-0.5-0.2-0.7c-0.1-0.2-0.1-0.4-0.2-0.6
			c-0.1-0.2-0.1-0.4-0.2-0.7c-0.1-0.2-0.1-0.4-0.2-0.6c-0.1-0.2-0.2-0.4-0.2-0.6c-0.1-0.2-0.2-0.4-0.2-0.6c-0.1-0.2-0.2-0.4-0.3-0.6
			c-0.1-0.2-0.2-0.4-0.3-0.6c-0.1-0.2-0.2-0.4-0.3-0.6c-0.1-0.2-0.2-0.4-0.3-0.5c-0.1-0.2-0.2-0.4-0.3-0.6c-0.1-0.2-0.2-0.4-0.3-0.5
			c-0.1-0.2-0.2-0.4-0.4-0.6c-0.1-0.2-0.2-0.3-0.3-0.5c-0.1-0.2-0.3-0.4-0.4-0.6c-0.1-0.2-0.2-0.3-0.4-0.5c-0.1-0.2-0.3-0.4-0.4-0.5
			c-0.1-0.2-0.3-0.3-0.4-0.5c-0.1-0.2-0.3-0.4-0.5-0.5c-0.1-0.2-0.3-0.3-0.4-0.5c0,0-0.1-0.1-0.1-0.1c31.5-30,70.4-51,112.5-60.8
			l-0.7,21l0,0.2c0,0,0,0,0,0v0c0,0,0,0,0,0c0,0.7,0.3,1.4,0.8,1.9c0.5,0.5,1.2,0.8,2,0.8c40.3-2,81-0.6,121,4.2l0.1,0
			c0.1,0,0.1,0,0.2,0c0.1,0,0.2,0,0.3,0c0,0,0.1,0,0.1,0c0.5-0.1,0.9-0.3,1.3-0.7c0.4-0.4,0.6-0.8,0.8-1.3c0,0,0,0,0,0
			c0-0.2,0.1-0.4,0.1-0.5L430.7,123.8z M429.1,87.7L429.1,87.7c0.5,0,0.8,0.4,0.8,0.8c0,0,0,0,0,0l-2,56.8c0,0.4-0.3,0.7-0.8,0.7
			c-27.5-3.3-55.4-5-83.3-5.1c-12.7,0-25.3,0.3-37.9,0.9c-0.4,0-0.7-0.3-0.7-0.7c0,0,0,0,0,0l2-56.8c0-0.4,0.4-0.8,0.9-0.8
			C348.4,81.5,389.1,82.9,429.1,87.7z"/>
		<path d="M360.4,97.3c-2.3-0.2-4.4,1.4-4.6,3.8l-0.3,7.3c0,2.3,2,4.2,4.2,4.1l7,0.3l-0.6,12.5l-9.9-0.5l-0.1,2l9.9,0.5l-0.2,3.3
			l2,0.1l0.2-3.3l7,0.3c2.3,0.2,4.4-1.4,4.6-3.8l0.4-8.6c0-2.3-2-4.2-4.2-4.1l-7-0.3l0.5-11.3l9.4,0.4l0.1-2l-9.4-0.4l0.2-3.9
			l-2-0.1l-0.2,3.9L360.4,97.3z M375.7,113.4c1.2,0,2.2,1,2.3,2.1l-0.4,8.4c-0.1,1.2-1.2,2.1-2.5,2l-7-0.3l0.6-12.5L375.7,113.4z
			 M366.7,110.9l-7.1-0.3c-1.2,0-2.2-1-2.3-2.1l0.3-7.2c0.1-1.2,1.2-2.1,2.5-2l7,0.3L366.7,110.9z"/>
		<path d="M392.3,597.6l-0.3-0.2l1.8-2.6l-1.6-1.1l-1.8,2.6l-2.9-2l1.8-2.6l-1.6-1.1l-1.8,2.6l-0.6-0.4c-2.3-1.6-5.4-1-7,1.2
			l-7.9,11.3l4.7,3.3l-2.1,3l1.6,1.1l2.1-3l2.9,2l-2.1,3l1.6,1.1l2.1-3l12.4,8.7l1.1-1.6l-12.4-8.7l8.5-12.1l0.3,0.2
			c1.4,1,1.7,2.9,0.7,4.2l-5.2,7.4l1.6,1.1l5.2-7.4C395.1,602.4,394.6,599.2,392.3,597.6z M373.1,604.7l6.7-9.6
			c1-1.4,2.9-1.7,4.2-0.7l0.6,0.4l-8.5,12.1L373.1,604.7z M380.7,610l-2.9-2l8.5-12.1l2.9,2L380.7,610z"/>
		<path d="M542.4,503.1c0,10.6,8.6,19.2,19.2,19.2s19.2-8.6,19.2-19.2c0-10.6-8.6-19.2-19.2-19.2S542.4,492.5,542.4,503.1z
			 M578.9,503.1c0,9.5-7.7,17.2-17.2,17.2s-17.2-7.7-17.2-17.2s7.7-17.2,17.2-17.2S578.9,493.6,578.9,503.1z"/>
		<path d="M596.6,313L596.6,313l1.6,1.1c0,0,0,0,0,0v0c0.8-1.1,2.4-1.4,3.5-0.6l1.2,0.8l-7.2,10.2l1.6,1.1l7.2-10.2l0.9,0.6
			c0.6,0.4,0.9,1,1,1.6c0.1,0.7,0,1.3-0.4,1.9l-5.5,7.8c-0.2,0.3-0.3,0.6-0.2,0.9c0.1,0.3,0.2,0.6,0.5,0.8c0.3,0.2,0.6,0.3,0.9,0.2
			l18.5-3.3l-0.3-2l-16.6,2.9l4.1-5.8l0.5,0v-0.7c0.6-0.9,0.8-2,0.6-3.1c-0.2-1.2-0.9-2.2-1.9-2.9l-0.9-0.6l1.8-2.5l-1.6-1.1
			l-1.8,2.5l-1.2-0.8c-0.8-0.5-1.6-0.8-2.5-0.8l2.2-3.1l-1.6-1.1L596.6,313C596.6,313,596.6,313,596.6,313z"/>
		<path d="M130,408.4l-1.3-7.3l2.1-0.4l-0.4-2l-2.1,0.4l-0.9-4.7c-0.5-2.8-3.2-4.7-6.1-4.2l-5.9,1.1c-1.7,0.3-3,1.4-3.7,2.8
			c-1.2-1.1-2.8-1.6-4.5-1.3l-5.9,1.1c-2.8,0.5-4.7,3.2-4.1,6l0.9,4.7l-3.5,0.6l0.4,2l3.5-0.6l1.3,7.3L130,408.4z M127.7,406.8
			l-12.1,2.2l-1-5.3l12.1-2.2L127.7,406.8z M115.7,393.4l6-1.1c1.7-0.3,3.4,0.8,3.7,2.6l0.9,4.7l-12.1,2.2l-0.9-4.7
			c0-0.1-0.1-0.3-0.1-0.4C113.2,395.1,114.2,393.7,115.7,393.4z M99.2,399.7c-0.3-1.7,0.8-3.3,2.4-3.7l6-1.1
			c1.6-0.3,3.1,0.6,3.6,2.1c0,0.1,0,0.3,0.1,0.4l0,0l0.9,4.7l-12.1,2.3L99.2,399.7z M112.6,404.1l1,5.3l-12.1,2.3l-1-5.3
			L112.6,404.1z"/>
		<path d="M168,203.7l4-5.7l16.1,3.2l0.4-2l-15.2-3l0.8-1.1c1.6-2.3,1-5.4-1.2-7l-4.2-2.9c-2.3-1.6-5.4-1-7,1.2l-7.1,10.2l24.4,17.1
			l1.1-1.6L168,203.7z M157.2,196.1l6-8.6c1-1.4,2.9-1.7,4.2-0.7l4.2,2.9c1.4,1,1.7,2.9,0.7,4.2l-6,8.6L157.2,196.1z"/>
	</g>
</g>
<g id="Layer_3" class="st0">
	<path class="st1" d="M524.6,286.6l-0.1-0.2c-3.8-9-8.4-17.7-13.5-25.8l0.1-0.2l-0.4-0.2c-19.8-31.1-48.6-55.2-83.4-69.2
		c-44.1-17.8-92.5-17.3-136.3,1.3c-43.8,18.6-77.7,53.1-95.5,97.2c-17.8,44.1-17.3,92.5,1.3,136.3c28.8,67.7,94.8,108.4,164.1,108.4
		c23.2,0,46.8-4.6,69.4-14.2l4.5-1.9h-0.2C521.9,478.1,562.2,375.4,524.6,286.6z M508.6,260.6l-4.7,8.1c-0.3,0.5-0.6,0.9-1.1,1.2
		c-2,1.5-4.8,1.2-6.3-0.8l-19.1-24.6c-0.7-0.8-1.5-1.5-2.5-1.9l-33.3-15c-1.6-0.7-3.6-0.8-5.2-0.1l-6.7,2.9c-1,0.4-2.2,0.5-3.2,0.1
		l-1.9-0.7c-2.1-0.7-3.4-2.9-3-5.1l2-11.1c0.5-2.9-1-5.8-3.7-7.1l-8.9-4.1c-1.1-0.5-2.3-0.7-3.6-0.5c-1.7,0.2-3.3,1.1-4.3,2.5
		s-1.5,3.1-1.3,4.8l1.2,9.4c0.2,1.4-0.3,2.9-1.4,3.9l-8.2,7.8c-2.3,2.2-2.7,5.8-0.8,8.5l20.5,29.1c0.6,0.8,0.9,1.8,0.8,2.8l-1.5,29
		c0,0.6-0.2,1.1-0.4,1.7l-8.4,18.2c-0.3,0.6-0.5,1.3-0.6,2l-3.5,30.6l0,0.1c-0.2,1.2-0.8,2.2-1.8,3c-1,0.7-2.2,1-3.3,0.8l-12.5-1.8
		c-1.2-0.2-2.4,0-3.5,0.5l-18.5,7.9c-1.6,0.7-3.4,0.4-4.7-0.8l-17.5-15.2c-1.2-1.1-2.8-1.6-4.4-1.6l-20.7,0.4
		c-0.5,0-1.1-0.1-1.6-0.3l-19.9-7c-1.4-0.5-2.9-0.5-4.3,0l-26.1,9.2c-1.6,0.6-3.4,0.2-4.7-1c-1.8-1.7-1.8-4.6-0.1-6.4l16.2-16.4
		c0.2-0.2,0.5-0.5,0.6-0.8l8.1-11.3c3.5-4.8,8.9-8.1,14.8-8.9l15-2.1c2.4-0.3,4.4-2,5.2-4.2l7.8-21.8c0.1-0.4,0.3-0.7,0.5-1.1
		l7.6-10.8l15.5-21.5c0.6-0.9,1.5-1.5,2.5-1.7l19.4-5c1.9-0.5,3.4-1.8,4.3-3.5l5.4-11.5c0.8-1.7,0.8-3.6,0.1-5.3l-5-11.7
		c-0.8-1.8-0.3-3.9,1.2-5.2l15.8-14.7c11.9,2.1,23.7,5.5,35.2,10.2C460.7,206.6,489.1,230.2,508.6,260.6z M197.4,290.2
		c17.6-43.6,51.1-77.8,94.4-96.1c22.1-9.4,45.5-14.1,68.8-14.1c9.4,0,18.8,0.8,28.2,2.3l-14.7,13.6c-2.2,1.9-2.9,4.9-1.8,7.5l5,11.7
		c0.5,1.2,0.5,2.5-0.1,3.7l-5.4,11.5c-0.6,1.2-1.7,2.1-3,2.4l-19.4,5c-1.5,0.4-2.8,1.3-3.7,2.5l-15.5,21.5l-7.6,10.8
		c-0.3,0.5-0.6,1-0.8,1.5l-7.8,21.7c-0.6,1.6-2,2.7-3.6,2.9l-15,2.1c-6.4,0.9-12.3,4.4-16.1,9.7l-8.1,11.3c-0.1,0.2-0.3,0.4-0.5,0.5
		l-16.2,16.4c-2.5,2.6-2.5,6.7,0.1,9.2c1.8,1.7,4.4,2.3,6.7,1.5l26.1-9.2c1-0.3,2-0.3,3,0l19.9,7c0.7,0.3,1.5,0.4,2.3,0.4l20.7-0.4
		c1.1,0,2.2,0.4,3.1,1.1l17.5,15.2c1.2,1,2.7,1.6,4.3,1.6c0.9,0,1.7-0.2,2.5-0.5l18.5-7.9c0.8-0.3,1.6-0.4,2.4-0.3l12.5,1.8
		c1.7,0.3,3.4-0.2,4.8-1.2c1.4-1,2.3-2.6,2.6-4.3l3.6-30.8c0.1-0.5,0.2-0.9,0.4-1.4l8.4-18.2c0.3-0.8,0.5-1.6,0.6-2.4l1.5-29
		c0.1-1.4-0.3-2.9-1.2-4.1l-20.5-29.2c-1.3-1.8-1-4.3,0.6-5.9l8.2-7.8c1.5-1.4,2.2-3.5,2-5.6l-1.2-9.4c-0.2-1.2,0.2-2.4,0.9-3.3
		c0.7-1,1.8-1.6,3-1.7c0.8-0.1,1.7,0,2.5,0.4l8.9,4.1c1.9,0.9,2.9,2.9,2.6,4.9l-2,11.1c-0.6,3.1,1.3,6.3,4.3,7.3l1.9,0.7
		c1.5,0.5,3.2,0.4,4.6-0.2l6.7-2.9c1.2-0.5,2.5-0.5,3.6,0l33.3,15c0.7,0.3,1.3,0.8,1.7,1.3l19.1,24.6c2.2,2.8,6.3,3.4,9.1,1.2
		c0.6-0.5,1.1-1.1,1.6-1.7l4.1-7.2c4.8,7.7,9.1,15.9,12.7,24.4l0.1,0.2c6.8,16,11,32.5,12.9,48.9l-8.5-1c-2.2-0.2-4.4,0.5-6.1,2
		c-1.7,1.5-2.7,3.5-2.9,5.7c-0.1,0.7,0,1.4,0.1,2l3,18c0.4,2.1-0.4,4.3-1.9,5.8l-21.6,20.2c-1.1,1-2.4,1.6-3.9,1.7l-33.6,2.7
		c-3.2,0.3-6,2.4-7.2,5.4l-6.2,16.1c-0.4,1.1-1.1,2-2,2.8l-11.8,9.3c-3.4,2.6-4.2,7.4-2,11l11.6,18.9c1.8,3,0.9,6.9-2,8.7l-0.1,0.1
		c-0.3,0.2-0.6,0.3-0.9,0.5L393.2,485c-0.6,0.3-1.3,0.4-2,0.5l-20,1.4c-1.2,0.1-2.3,0.4-3.3,1l-22.2,11.8c-0.9,0.5-1.9,0.7-3,0.8
		l-11,0.1c-2.2,0-4.4,0.9-5.9,2.5s-2.4,3.7-2.4,6c0,2.9,1.6,5.6,4,7.1l23.7,15.7c-41.6-2.3-81.4-19.4-111.8-48.1l7.7-7
		c2.1-1.9,2.9-4.9,1.8-7.5l-7.4-19.3c-0.2-0.5-0.3-1-0.3-1.6l-0.5-17.8c-0.1-2.2-1.2-4.3-3.1-5.5l-17.3-11.4
		c-0.8-0.5-1.4-1.3-1.8-2.1l-8.6-20.2c-0.2-0.5-0.3-1-0.4-1.5c-0.1-1.3,0.3-2.5,1.2-3.5c0.8-1,2-1.5,3.3-1.6l8.8-0.6
		c2.1-0.1,4.1-1.3,5.2-3c1-1.5,1.3-3.3,1-5.1c-0.4-1.8-1.4-3.3-2.9-4.3l-10-6.6c-0.1-0.1-0.2-0.1-0.3-0.2l-14.3-11.3
		c-1-0.8-2.3-1.3-3.6-1.4l-13.3-1C185.1,330.6,189.4,309.9,197.4,290.2z M198.6,424.9c-9.8-23-14.5-47.4-14.1-71.7l13.2,1
		c0.9,0.1,1.8,0.4,2.5,1l14.3,11.3c0.2,0.1,0.3,0.2,0.5,0.3l10,6.6c1.1,0.7,1.8,1.8,2.1,3c0.3,1.2,0,2.5-0.7,3.6
		c-0.8,1.2-2.2,2-3.7,2.1l-8.8,0.6c-1.8,0.1-3.5,0.9-4.6,2.3c-1.2,1.4-1.8,3.1-1.7,4.9c0.1,0.8,0.2,1.5,0.5,2.2l8.6,20.2
		c0.5,1.2,1.4,2.3,2.5,3l17.3,11.4c1.3,0.9,2.1,2.3,2.1,3.9l0.5,17.8c0,0.8,0.2,1.5,0.5,2.2l7.4,19.3c0.7,1.9,0.2,4-1.3,5.3
		l-7.8,7.2C221.6,466.5,208.1,447.2,198.6,424.9z M429.5,518.1l-0.6,0.2c-24.1,10.1-49.2,14.5-73.8,13.7l-26.6-17.5
		c-1.9-1.1-3.1-3.2-3.1-5.4c0-1.7,0.6-3.3,1.8-4.6c1.2-1.2,2.8-1.9,4.5-1.9l11-0.1c1.3,0,2.7-0.4,3.9-1l22.2-11.8
		c0.8-0.4,1.7-0.7,2.5-0.7l20-1.4c0.9-0.1,1.8-0.3,2.6-0.6l46.2-19.1c0.3-0.1,0.6-0.3,0.9-0.5l0.3-0.1c4-2.4,5.2-7.6,2.8-11.6
		l-11.6-18.9c-1.7-2.8-1.1-6.4,1.5-8.4l11.8-9.3c1.2-0.9,2.1-2.2,2.7-3.6l6.2-16.1c0.9-2.3,3-3.9,5.5-4.1l33.6-2.7
		c1.9-0.2,3.7-0.9,5.1-2.2l21.6-20.2c2.1-1.9,3-4.8,2.6-7.5l-3-18c-0.1-0.5-0.1-1-0.1-1.6c0.3-3.5,3.4-6.2,6.9-5.9l8.9,1.1
		C543.4,412.9,502.2,487.2,429.5,518.1z"/>
</g>
</svg>
