<svg xmlns="http://www.w3.org/2000/svg" viewBox="0 0 1099.19 623.37"><defs><style>.cls-1,.cls-2{fill:none;}.cls-2{stroke:#fff;stroke-linecap:round;stroke-linejoin:round;stroke-width:0;}.cls-3{fill:#0065ff;}</style></defs><g id="Layer_2" data-name="Layer 2"><g id="Layer_1-2" data-name="Layer 1"><path class="cls-1" d="M708.57,357.77a8.08,8.08,0,0,0,8.08-8.07V112.59a8.08,8.08,0,0,0-8.08-8.07H352.76a8.08,8.08,0,0,0-8.07,8.07V349.7a8.08,8.08,0,0,0,8.07,8.07H708.57ZM367,341A6.09,6.09,0,0,1,361,334.9V127.39a6.09,6.09,0,0,1,6.08-6.08H694.3a6.09,6.09,0,0,1,6.08,6.08V334.9A6.09,6.09,0,0,1,694.3,341Z"/><polygon class="cls-1" points="668.29 525.98 670.63 513.91 659.42 513.91 668.29 525.98"/><path class="cls-1" d="M276.14,156.22a12.39,12.39,0,1,0-12.39-12.39A12.4,12.4,0,0,0,276.14,156.22Z"/><path class="cls-1" d="M963,169.88A20.85,20.85,0,1,0,942.12,149,20.87,20.87,0,0,0,963,169.88Z"/><rect class="cls-1" x="516.53" y="359.94" width="27.76" height="13.63"/><path class="cls-1" d="M266.74,319.66v46.6h0v8.56h1.74a6.59,6.59,0,0,0,6.58-6.58v-49.8a6.59,6.59,0,0,0-6.58-6.58h-1.74v7.8Z"/><path class="cls-1" d="M103,309.68c.28,0,.56,0,.84,0v0H261.78a24.76,24.76,0,0,0,15-22.78v-5.69l-14-14v23.42a8.76,8.76,0,0,1-8.75,8.76H86.57v-2.78a24.78,24.78,0,0,0-14,22.35v5.7L87.86,340a1.51,1.51,0,0,0,1.08.45h0a1.54,1.54,0,0,0,1.53-1.52V323a13.41,13.41,0,0,1,10.62-13.1v-.26Z"/><rect class="cls-1" x="88.74" y="416.32" width="161.32" height="6.38"/><path class="cls-1" d="M252.24,422.71H254a6.61,6.61,0,0,0,6.58-6.59V377h-8.31Z"/><path class="cls-1" d="M112.29,110.61A17.41,17.41,0,1,0,94.87,93.2,17.43,17.43,0,0,0,112.29,110.61Z"/><path class="cls-1" d="M841.23,98a12.39,12.39,0,1,0-12.38-12.39A12.4,12.4,0,0,0,841.23,98Z"/><polygon points="659.42 513.91 670.63 513.91 670.88 512.62 658.47 512.62 659.42 513.91"/><path d="M692,512.62l-.2,1.29h30.51l2.23-1.29Z"/><path d="M998.21,491.14c2.16.27,4.31.61,6.45,1L951,472.39v1.37Z"/><path d="M551.06,511.13,532.7,457.89H844.94q-2.52-.57-5-1.29H530.89l19.3,56v-1.45Z"/><polygon points="552.37 512.62 552.37 513.91 588.21 513.91 587.91 512.62 552.37 512.62"/><path d="M552.49,511.34l-18-52.16H847.3v-.79c-.79-.16-1.58-.32-2.36-.5H532.7l18.36,53.24h1.31v1.49h35.54l-.29-1.28Z"/><path d="M692.22,511.34l-.2,1.28h32.54l2.34-1.28Z"/><path d="M993,490.59c1.74.15,3.48.33,5.21.55L951,473.76v1.38Z"/><polygon points="670.88 512.62 671.13 511.33 657.52 511.33 658.47 512.62 670.88 512.62"/><path d="M514.36,376.79v-.64H495.57L468,395.5a2.48,2.48,0,0,0,1.42,4.52H592.88a2.49,2.49,0,0,0,1.42-4.53l-27.95-19.34H546.46v.64Z"/><path d="M566.75,374.86,595,394.43a3.78,3.78,0,0,1-2.15,6.88H469.44a3.77,3.77,0,0,1-2.16-6.86l27.88-19.59h19.2v-1.28h-19.6l-28.23,19.81a5.07,5.07,0,0,0,2.91,9.21H592.88a5.06,5.06,0,0,0,2.88-9.23l-28.61-19.79H546.46v1.28Z"/><rect x="516.53" y="373.58" width="27.76" height="1.05"/><path d="M467.28,394.45a3.77,3.77,0,0,0,2.16,6.86H592.88a3.78,3.78,0,0,0,2.15-6.88l-28.28-19.57H546.46v1.29h19.89l27.95,19.34a2.49,2.49,0,0,1-1.42,4.53H469.44A2.48,2.48,0,0,1,468,395.5l27.55-19.35h18.79v-1.29h-19.2Z"/><path d="M700.38,334.9V127.39a6.09,6.09,0,0,0-6.08-6.08H367a6.09,6.09,0,0,0-6.08,6.08V334.9A6.09,6.09,0,0,0,367,341H694.3A6.09,6.09,0,0,0,700.38,334.9ZM362,334.9V127.39a5,5,0,0,1,5-5H694.3a5,5,0,0,1,5,5V334.9a5,5,0,0,1-5,5H367A5,5,0,0,1,362,334.9Z"/><path d="M699.29,334.9V127.39a5,5,0,0,0-5-5H367a5,5,0,0,0-5,5V334.9a5,5,0,0,0,5,5H694.3A5,5,0,0,0,699.29,334.9ZM367,338.8a3.91,3.91,0,0,1-3.9-3.9V127.39a3.91,3.91,0,0,1,3.9-3.9H694.3a3.9,3.9,0,0,1,3.9,3.9V334.9a3.9,3.9,0,0,1-3.9,3.9Z"/><path d="M776.93,367.49c-9.41,0-17-13.83-17-30.89s7.63-30.89,17-30.89a11.35,11.35,0,0,1,7.63,3.27c0-.45,0-.9,0-1.35a12,12,0,0,0-7.66-3c-10,0-18.12,14.34-18.12,32s8.13,32,18.12,32a11.92,11.92,0,0,0,7.57-2.93v-1.37A11.33,11.33,0,0,1,776.93,367.49Z"/><path d="M776.93,366.4C768.14,366.4,761,353,761,336.6c0-.71,0-1.42,0-2.12l-.63,0-.17-2.16.93-.08c1.12-14.4,7.77-25.49,15.78-25.49a10.71,10.71,0,0,1,7.59,3.59c0-.47,0-.94,0-1.41a11.35,11.35,0,0,0-7.63-3.27c-9.41,0-17,13.83-17,30.89s7.63,30.89,17,30.89a11.33,11.33,0,0,0,7.57-3.22v-1.45A10.7,10.7,0,0,1,776.93,366.4Z"/><path d="M352.76,359.94h161.6v-2.17H352.76a8.08,8.08,0,0,1-8.07-8.07V112.59a8.08,8.08,0,0,1,8.07-8.07H708.57a8.08,8.08,0,0,1,8.08,8.07V349.7a8.08,8.08,0,0,1-8.08,8.07H546.46v2.17H708.57a10.26,10.26,0,0,0,10.25-10.24V112.59a10.26,10.26,0,0,0-10.25-10.25H352.76a10.26,10.26,0,0,0-10.24,10.25V349.7A10.25,10.25,0,0,0,352.76,359.94Z"/><rect x="544.29" y="359.94" width="2.17" height="13.63"/><rect x="514.36" y="359.94" width="2.17" height="13.63"/><rect x="514.36" y="376.15" width="32.1" height="0.64"/><polygon points="544.29 374.62 516.53 374.62 516.53 373.57 514.36 373.57 514.36 374.86 546.46 374.86 546.46 373.57 544.29 373.57 544.29 374.62"/><rect x="514.36" y="374.86" width="32.1" height="1.29"/><polygon points="514.36 357.77 514.36 359.94 516.53 359.94 544.29 359.94 546.46 359.94 546.46 357.77 514.36 357.77"/><path d="M260.55,416.12a6.61,6.61,0,0,1-6.58,6.59h-1.73v1.08h-2.18v-1.08H88.74v-6.39H250.06v-2.17H86.57v10.73H254a8.77,8.77,0,0,0,8.75-8.76V377h-2.17Z"/><polygon points="101.08 375.95 101.08 374.82 86.57 374.82 86.57 384.12 225.41 384.12 225.41 381.94 88.74 381.94 88.74 376.99 101.09 376.99 101.09 375.95 101.08 375.95"/><rect x="95.21" y="393.55" width="60.07" height="2.17"/><rect x="95.21" y="403.89" width="25.09" height="2.17"/><rect x="169.3" y="405.06" width="60.07" height="2.17"/><polygon points="251.15 416.32 250.06 416.32 250.06 422.71 252.24 422.71 252.24 376.99 250.06 376.99 250.06 414.15 251.15 414.15 251.15 416.32"/><rect x="250.06" y="422.71" width="2.17" height="1.09"/><rect x="250.06" y="414.15" width="1.09" height="2.17"/><path d="M87.69,296.05c-.38.16-.75.35-1.12.52v2.78H254a8.76,8.76,0,0,0,8.75-8.76V267.17l-1.29-1.3,1.29-1.29V257a7.73,7.73,0,0,0-7.71-7.71H86.57v9.3H225.41V256.4H88.74v-4.95H255a5.54,5.54,0,0,1,5.54,5.53v33.61a6.6,6.6,0,0,1-6.58,6.59H88.74v-6.39H240.39v-2.17H86.57v5.56l.27-.13Z"/><rect x="95.21" y="268" width="60.07" height="2.17"/><rect x="95.21" y="278.34" width="25.09" height="2.17"/><rect x="169.3" y="279.52" width="60.07" height="2.17"/><rect x="250.06" y="259.28" width="2.17" height="30.4"/><path d="M101.09,309.68v.26a13.72,13.72,0,0,1,1.94-.26Z"/><path d="M266.74,310v1.89h1.74a6.59,6.59,0,0,1,6.58,6.58v49.8a6.59,6.59,0,0,1-6.58,6.58h-1.74V376h-4v1h5.76a8.76,8.76,0,0,0,8.76-8.75v-49.8a8.78,8.78,0,0,0-8.76-8.76h-2.07L266,310Z"/><rect x="252.24" y="376.99" width="8.31"/><path d="M103.87,310H261.69l-.09-.2.18-.09H103.87Z"/><rect x="101.09" y="376.99" width="148.98"/><polygon points="252.24 375.95 252.24 376.99 260.55 376.99 260.55 376.99 262.72 376.99 262.72 375.95 252.24 375.95"/><rect x="101.09" y="375.95" width="148.98" height="1.04"/><rect x="250.06" y="376.99" width="2.17"/><rect x="250.06" y="375.95" width="2.17" height="1.04"/><rect x="103.26" y="368.44" width="161.31" height="5.34"/><polygon points="103.25 373.78 103.26 373.78 103.26 368.44 264.57 368.44 264.57 368.43 103.25 368.43 103.25 373.78"/><rect x="266.74" y="366.26" height="8.56"/><polygon points="101.09 366.26 264.57 366.26 264.57 366.26 101.08 366.26 101.08 374.82 101.09 374.82 101.09 366.26"/><rect x="101.08" y="374.82" width="0.01" height="1.13"/><polygon points="266.74 375.9 264.57 375.9 264.57 374.86 262.72 374.86 262.72 375.95 266.74 375.95 266.74 374.82 266.74 374.82 266.74 375.9"/><polygon points="102.16 367.35 264.57 367.35 264.57 366.26 101.09 366.26 101.09 374.82 102.16 374.82 102.16 367.35"/><polygon points="102.16 374.86 102.16 374.82 101.09 374.82 101.09 375.95 250.06 375.95 250.06 375.91 252.24 375.91 252.24 375.95 262.72 375.95 262.72 374.86 102.16 374.86"/><rect x="250.06" y="375.91" width="2.17" height="0.04"/><polygon points="103.26 374.82 262.72 374.82 262.72 374.82 264.57 374.82 264.57 373.78 103.26 373.78 103.26 374.82"/><rect x="103.26" y="374.82" width="159.46"/><rect x="262.72" y="374.82" width="1.85" height="0.04"/><polygon points="103.26 373.78 103.25 373.78 103.25 368.43 264.57 368.43 264.57 367.35 102.16 367.35 102.16 374.82 103.26 374.82 103.26 373.78"/><polygon points="103.26 374.82 103.26 374.82 102.16 374.82 102.16 374.86 262.72 374.86 262.72 374.82 103.26 374.82"/><polygon points="103.26 316.81 239.91 316.81 239.91 317.49 264.57 317.49 264.57 312.14 103.26 312.14 103.26 316.81"/><polygon points="103.26 316.81 103.26 312.14 103.25 312.14 103.25 317.49 239.91 317.49 239.91 316.81 103.26 316.81"/><rect x="266.74" y="311.86" height="7.81"/><path d="M239.91,318.58V319H101.09v-6.81h0v7.48H264.57v-1.08Z"/><path d="M102.16,312c-.36.06-.72.13-1.07.22V319H239.91v-.41H102.16Z"/><path d="M264.57,311.06v-.29h2.17v1.09h0V310H266c-.64.39-1.31.75-2,1.09Z"/><polygon points="103.87 311.06 262.14 311.06 261.69 309.97 103.87 309.97 103.87 311.06"/><rect x="103.26" y="311.86" width="161.31" height="0.29"/><rect x="239.91" y="317.49" width="24.66" height="1.09"/><path d="M103.25,317.49v-5.34h0v-.29H264.57v-.8H264c-.5.25-1,.49-1.52.71l-.31-.71H103.87v.76a10.76,10.76,0,0,0-1.71.14v6.62H239.91v-1.09Z"/><rect x="109.71" y="345.66" width="12.54" height="2.17"/><rect x="109.71" y="356" width="45.57" height="2.17"/><rect x="229.37" y="357.18" width="14.51" height="2.17"/><rect x="218.79" y="330.31" width="25.09" height="2.17"/><rect x="109.71" y="331.48" width="60.07" height="2.17"/><rect x="264.57" y="319.66" width="2.17" height="46.59"/><rect x="264.57" y="368.44" height="5.34"/><rect x="264.57" y="368.43" height="0.01"/><polygon points="265.67 366.26 265.67 368.44 265.66 368.44 265.66 374.82 266.74 374.82 266.74 366.26 264.57 366.26 264.57 366.26 265.67 366.26"/><polygon points="265.66 367.35 265.66 368.44 265.67 368.44 265.67 366.26 264.57 366.26 264.57 367.35 265.66 367.35"/><polygon points="264.57 374.86 264.57 375.9 266.74 375.9 266.74 374.82 265.66 374.82 265.66 374.86 264.57 374.86"/><polygon points="264.57 373.78 264.57 373.78 264.57 374.82 265.66 374.82 265.66 368.44 264.57 368.44 264.57 373.78"/><rect x="264.57" y="374.82" width="1.09" height="0.04"/><polygon points="264.57 367.35 264.57 368.43 264.57 368.43 264.57 368.44 265.66 368.44 265.66 367.35 264.57 367.35"/><rect x="264.57" y="312.15" height="5.35"/><polygon points="266.74 311.86 265.66 311.86 265.66 318.58 264.57 318.58 264.57 319.67 266.74 319.67 266.74 311.86"/><polygon points="264.57 310.77 264.57 311.06 265.66 311.06 265.66 311.86 266.74 311.86 266.74 310.77 264.57 310.77"/><polygon points="264.57 312.14 264.57 312.14 264.57 317.49 264.57 317.49 264.57 318.58 265.66 318.58 265.66 311.86 264.57 311.86 264.57 312.14"/><rect x="264.57" y="311.06" width="1.09" height="0.8"/><path d="M103,309.68h.84v0C103.59,309.64,103.31,309.67,103,309.68Z"/><path d="M88.94,342.57h0a3.7,3.7,0,0,0,3.7-3.68V323a11.24,11.24,0,0,1,8.44-10.86V310h0v0A13.41,13.41,0,0,0,90.47,323v15.84a1.54,1.54,0,0,1-1.53,1.52h0a1.51,1.51,0,0,1-1.08-.45L72.53,324.62v-5.7a24.78,24.78,0,0,1,14-22.35v-2.39a27,27,0,0,0-16.22,24.74v6.6l16,16A3.68,3.68,0,0,0,88.94,342.57Z"/><path d="M87.69,296.05l-.85-2-.27.13v2.39C86.94,296.4,87.31,296.21,87.69,296.05Z"/><path d="M103.87,309.68H103a13.72,13.72,0,0,0-1.94.26v0h2.78Z"/><path d="M101.09,310h0v2.21h0Z"/><path d="M102.16,312v-.9h1.71V310h-2.78v2.21C101.44,312.09,101.8,312,102.16,312Z"/><path d="M103.87,311.06h-1.71v.9a10.76,10.76,0,0,1,1.71-.14Z"/><path d="M276.76,281.21v5.69a24.76,24.76,0,0,1-15,22.78h4.63a26.9,26.9,0,0,0,12.52-22.78v-6.59l-16-16-.24.24v2.59Z"/><polygon points="262.72 267.17 262.72 264.58 261.43 265.87 262.72 267.17"/><path d="M261.6,309.77l.09.2H266l.45-.29h-4.63Z"/><path d="M264,311.06c.68-.34,1.35-.7,2-1.09h-4.27l.45,1.09Z"/><path d="M264,311.06h-1.83l.31.71C263,311.55,263.47,311.31,264,311.06Z"/><path d="M297.32,424.66l-47.38,34.27a1.64,1.64,0,0,0,1,3H358l47.38-34.26a1.69,1.69,0,0,0,.68-1.33,1.66,1.66,0,0,0-1.65-1.65ZM405,426.31a.53.53,0,0,1-.23.45l-47.09,34.06H250.91a.57.57,0,0,1-.56-.56.56.56,0,0,1,.23-.45l47.09-34.06H404.42A.56.56,0,0,1,405,426.31Z"/><path d="M250.58,459.81a.56.56,0,0,0-.23.45.57.57,0,0,0,.56.56H357.66l47.09-34.06a.53.53,0,0,0,.23-.45.56.56,0,0,0-.56-.56H297.67Zm152.21-33-45.48,32.89H252.54L298,426.84Z"/><polygon points="513.12 539.37 515.44 539.01 445.67 590.07 329.21 590.07 321.64 598.88 289.87 598.88 284.65 590.07 179.97 590.07 187.11 588.98 179.97 588.98 179.97 591.15 284.03 591.15 289.25 599.97 322.14 599.97 329.71 591.15 446.03 591.15 516.08 539.89 514.8 538.14 513.12 539.37"/><polygon points="284.65 590.07 289.87 598.88 321.64 598.88 329.21 590.07 445.67 590.07 515.44 539.01 513.12 539.37 445.32 588.98 328.71 588.98 321.14 597.8 290.49 597.8 285.27 588.98 187.11 588.98 179.97 590.07 284.65 590.07"/><polygon points="186.18 579.18 186.18 579.17 185.09 579.18 186.18 579.18"/><path d="M262.63,529.58l29.44-5.05a158.42,158.42,0,0,1,66.75,2.86l8.41,2.19-53,40,2.25-.35,53.15-40.18-10.57-2.76a158.36,158.36,0,0,0-67.22-2.88l-29.43,5-.16,0-77.7,39.75-.59.3v10.59h1.09v-9.92Z"/><polygon points="302.53 578.5 303.19 579.37 316.52 569.28 314.27 569.63 302.53 578.5"/><path d="M263,530.62l29.27-5a156.32,156.32,0,0,1,66.3,2.84l6.24,1.63L312,570l2.26-.34,53-40-8.41-2.19a158.42,158.42,0,0,0-66.75-2.86l-29.44,5.05-77.54,39.68v9.92h1.09v-9.25Z"/><polygon points="312.01 569.97 301.88 577.63 302.53 578.5 314.27 569.63 312.01 569.97"/><line class="cls-2" x1="334.33" y1="579.18" x2="334.33" y2="579.18"/><path d="M461.4,525.67l35.91,3.7a3.36,3.36,0,0,1,1.61,6.07l-10.86,7.74,2.38-.36,9.11-6.5a4.44,4.44,0,0,0-2.12-8l-35.91-3.7c-20.12-2.25-81.18,4.33-83.77,4.61l.12,1.08h0S441.17,523.41,461.4,525.67Z"/><polygon points="437.55 579.18 334.33 579.18 334.33 580.26 437.89 580.26 490.44 542.82 488.06 543.18 437.55 579.18"/><polygon points="334.33 578.09 334.33 579.18 335.29 578.09 334.33 578.09"/><path d="M461.28,526.75l35.92,3.7a2.28,2.28,0,0,1,1.09,4.11l-12.61,9,2.38-.36,10.86-7.74a3.36,3.36,0,0,0-1.61-6.07l-35.91-3.7c-20.23-2.26-83.53,4.61-83.53,4.61h0l.12,1.08C378.62,531.29,441.4,524.52,461.28,526.75Z"/><polygon points="488.06 543.18 485.68 543.54 437.2 578.09 335.29 578.09 334.33 579.18 437.55 579.18 488.06 543.18"/><rect x="204.43" y="569.21" width="73.58" height="2.17"/><polygon points="350.88 563.76 352.84 563.76 367.12 561.58 350.88 561.58 350.88 563.76"/><polygon points="424.46 563.76 424.46 561.58 367.12 561.58 352.84 563.76 424.46 563.76"/><polygon points="376.13 548.29 376.13 550.47 440.18 550.47 449.71 549.02 449.71 548.29 376.13 548.29"/><polygon points="449.71 550.47 449.71 549.02 440.18 550.47 449.71 550.47"/><rect x="400.29" y="537.92" width="19.67" height="2.17"/><rect x="437.55" y="537.92" width="19.67" height="2.17"/><rect x="241.9" y="554.94" width="52.46" height="2.17"/><rect x="303.51" y="554.94" width="13.18" height="2.17"/><rect x="273.51" y="539.82" width="7.21" height="2.17"/><rect x="290.58" y="539.82" width="33.02" height="2.17"/><rect x="280.72" y="539.82" width="9.86" height="2.17"/><rect x="302.88" y="435.41" width="64.76" height="2.17"/><rect x="284.81" y="446.57" width="43.73" height="2.17"/><rect x="339.65" y="446.57" width="17.48" height="2.17"/><path d="M949.94,380.82H951v-5.09c-.35.62-.71,1.23-1.09,1.82Z"/><path d="M785.59,382.36V364.68c-.36.35-.72.66-1.09,1v16.72A77.55,77.55,0,0,0,840,456.6h4.18A76.35,76.35,0,0,1,785.59,382.36Z"/><path d="M794.61,275.12h-1.19a76.84,76.84,0,0,0-8.83,32.51c.36.3.71.61,1.06.95A76,76,0,0,1,794.61,275.12Z"/><path d="M847.3,457.89v-.6q-1.59-.32-3.15-.69H840q2.44.72,5,1.29Z"/><path d="M847.3,457.89h-2.36c.78.18,1.57.34,2.36.5Z"/><path d="M784.5,332.61v30.21c.37-.37.73-.78,1.09-1.21V332.52Z"/><path d="M784.5,330.43l1.09-.09V311.58c-.35-.42-.71-.82-1.07-1.19,0,.25,0,.5,0,.75Z"/><path d="M785.61,310c0-.48,0-1,0-1.44-.35-.34-.7-.65-1.06-.95,0,.45,0,.9,0,1.35A14.69,14.69,0,0,1,785.61,310Z"/><path d="M785.59,363.2c-.36.38-.72.74-1.09,1.07v1.37c.37-.3.73-.61,1.09-1Z"/><path d="M785.59,311.58v-.44c0-.38,0-.74,0-1.12a14.69,14.69,0,0,0-1.05-1c0,.47,0,.94,0,1.41C784.88,310.76,785.24,311.16,785.59,311.58Z"/><path d="M784.5,362.82v1.45c.37-.33.73-.69,1.09-1.07v-1.59C785.23,362,784.87,362.45,784.5,362.82Z"/><path d="M795.87,275.12h-1.26a76,76,0,0,0-9,33.46c.36.35.71.73,1.06,1.12A74.86,74.86,0,0,1,795.87,275.12Z"/><path d="M948.85,380.82h1.09v-3.27c-.35.56-.71,1.1-1.09,1.63Z"/><path d="M847.3,456.18a75.38,75.38,0,0,1-60.63-73.82V363.54c-.35.4-.71.79-1.08,1.14v17.68a76.35,76.35,0,0,0,58.56,74.24h3.15Z"/><path d="M844.15,456.6q1.56.38,3.15.69v-.69Z"/><path d="M786.67,330.26V313q-.52-.75-1.08-1.44v18.76Z"/><path d="M785.59,332.52v29.09q.55-.67,1.08-1.44V332.44Z"/><path d="M786.67,311.14c0-.48,0-1,0-1.44-.35-.39-.7-.77-1.06-1.12,0,.48,0,1,0,1.44.37.39.72.81,1.06,1.24Z"/><path d="M786.67,361.93c-.35.45-.71.87-1.08,1.27v1.48c.37-.35.73-.74,1.08-1.14Z"/><path d="M785.59,311.58q.55.69,1.08,1.44v-1.76c-.34-.43-.69-.85-1.06-1.24,0,.38,0,.74,0,1.12Z"/><path d="M786.67,360.17q-.52.76-1.08,1.44v1.59c.37-.4.73-.82,1.08-1.27Z"/><path d="M949.94,472l1.09.4v-90a77.94,77.94,0,0,1-1.09,12.86Z"/><rect x="847.3" y="459.18" width="1.09" height="30.99"/><polygon points="951.03 490.17 951.03 475.14 949.94 474.74 949.94 490.17 951.03 490.17"/><polygon points="949.94 473.36 951.03 473.76 951.03 472.39 949.94 471.99 949.94 473.36"/><path d="M848.39,458.58l-1.09-.19v.79h1.09Z"/><polygon points="951.03 475.14 951.03 473.76 949.94 473.36 949.94 474.74 951.03 475.14"/><path d="M848.39,418.57H847.3v37.61l1.09.19Z"/><path d="M949.94,382.36h0v12.85A77.94,77.94,0,0,0,951,382.36v-1.54h-1.09Z"/><path d="M848.39,457.48l-1.09-.19v.6h1.09Z"/><path d="M848.39,458.58v-.69H847.3v.5Z"/><path d="M847.3,456.18v.42h1.09v-.23Z"/><polygon points="949.94 380.82 948.85 380.82 948.85 381.23 949.94 380.82"/><polygon points="949.94 382.37 949.94 382.37 949.94 380.82 949.94 380.82 949.94 382.37"/><path d="M848.39,456.6H847.3v.69l1.09.19Z"/><path d="M948.85,471.59l1.09.4V395.22q-.45,2.68-1.09,5.31Z"/><rect x="848.39" y="459.18" width="1.09" height="30.99"/><polygon points="949.94 490.17 949.94 474.74 948.85 474.34 948.85 490.17 949.94 490.17"/><polygon points="948.85 472.96 949.94 473.36 949.94 471.99 948.85 471.59 948.85 472.96"/><path d="M849.47,459.18v-.41c-.36,0-.72-.13-1.08-.19v.6Z"/><polygon points="948.85 474.34 949.94 474.74 949.94 473.36 948.85 472.96 948.85 474.34"/><path d="M848.39,418.57v37.8l1.08.2v-38Z"/><path d="M948.85,400.53q.64-2.62,1.09-5.31V382.37a75.83,75.83,0,0,1-1.09,12.78Z"/><path d="M849.47,457.68l-1.08-.2v.41h1.08Z"/><path d="M849.47,457.89h-1.08v.69c.36.06.72.14,1.08.19Z"/><path d="M949.94,380.82l-1.09.41v13.92a75.83,75.83,0,0,0,1.09-12.78v-1.55Z"/><path d="M849.47,456.57l-1.08-.2v.23h1.08Z"/><path d="M849.47,456.6h-1.08v.88l1.08.2Z"/><path d="M773.36,274c0-6.8,7.9-12.32,9.28-18.21,1.52-6.5-2.85-15.05.17-20.45,3.16-5.65,12.78-6.32,17.37-10.76s5.38-14,11.07-17.16c5.41-3.06,14.18,1.06,20.47-.92,5.93-1.86,10.6-10.29,17.13-11.2,6.17-.86,13.1,5.94,19.64,5.94s13.37-6.8,19.49-6c6.49.9,11.1,9.34,17,11.2,6.24,2,15-2.08,20.33,1,5.61,3.22,6.27,12.73,10.74,17.19s14.06,5.24,17.11,10.92c2.91,5.38-1.61,13.84-.15,20.32,1.31,5.85,9.17,11.36,9.17,18.1L955,297.74v58.58h0a38.64,38.64,0,0,1-4,17.11v2.3a39.68,39.68,0,0,0,5.05-19.41V297.9l7.1-23.55,0-.32c0-4.15-2.59-7.7-5.1-11.13-1.84-2.5-3.57-4.87-4.09-7.21-.61-2.7-.07-5.94.45-9.06.68-4,1.37-8.25-.4-11.54-1.91-3.55-6-5.29-9.91-7-2.88-1.24-5.6-2.4-7.39-4.19s-3-4.56-4.19-7.48c-1.63-3.88-3.31-7.89-6.79-9.89-3.18-1.82-7.32-1.37-11.33-.93-3.22.35-6.55.71-9.21-.13-2.43-.78-4.7-2.86-7.1-5.06-3-2.77-6.16-5.64-10-6.18-3.51-.49-7.14,1.27-10.65,3-3,1.46-6.11,3-9,3s-6-1.5-9-2.95c-3.55-1.71-7.22-3.48-10.78-3-3.88.54-7,3.41-10.09,6.17-2.44,2.21-4.74,4.3-7.21,5.08-2.68.84-6,.46-9.26.1-4-.45-8.2-.92-11.42.9-3.52,2-5.28,6-7,9.9-1.28,2.91-2.48,5.65-4.31,7.43s-4.6,2.92-7.52,4.13c-4,1.65-8.06,3.35-10,6.88-1.85,3.31-1.22,7.56-.6,11.66.47,3.13,1,6.37.32,9.07-.55,2.35-2.28,4.71-4.12,7.21-2.55,3.46-5.18,7-5.18,11.25v1.08h21.14c.19-.36.37-.72.57-1.08Z"/><path d="M946.65,382.05c.78-.92,1.51-1.88,2.2-2.87v-1.91a38.36,38.36,0,0,1-4.34,5.57Z"/><path d="M825.11,282a6.89,6.89,0,0,1-3.58,6.05L810,294.42,809,317.74l19.11-4a22.29,22.29,0,0,1,14.05,1.67,17.4,17.4,0,0,1,9.61,16.84l-2.75,47.07a16,16,0,0,0,15,16.87l.94,0h43.53l2.92-1.08H865l-.87,0a14.88,14.88,0,0,1-14-15.72l2.75-47.05a18.55,18.55,0,0,0-10.21-17.9,23.21,23.21,0,0,0-14.75-1.75l-17.75,3.71.85-21.31,11-6.05a8,8,0,0,0-3.84-15H796.49c-.2.36-.42.72-.62,1.08h22.34A6.92,6.92,0,0,1,825.11,282Z"/><path d="M795.21,274H794c-.2.36-.38.72-.57,1.08h1.19C794.8,274.76,795,274.4,795.21,274Z"/><path d="M949.94,375.47v2.08c.38-.59.74-1.2,1.09-1.82v-2.3C950.69,374.12,950.32,374.8,949.94,375.47Z"/><path d="M796.49,274h-1.28c-.2.36-.41.72-.6,1.08h1.26C796.07,274.76,796.29,274.4,796.49,274Z"/><path d="M948.85,379.18c.38-.53.74-1.07,1.09-1.63v-2.08c-.35.61-.71,1.21-1.09,1.8Z"/><path d="M946.65,382.05l-2.14.79a38.68,38.68,0,0,1-28.32,12.29h-4.74l-2.92,1.08h7.66A39.83,39.83,0,0,0,946.65,382.05Z"/><path d="M774.52,273c.43-3.09,2.59-6,4.69-8.87,2-2.69,3.84-5.22,4.49-8,.73-3.11.21-6.56-.29-9.89-.59-3.92-1.14-7.62.35-10.28,1.6-2.87,5.18-4.36,9-5.93,3-1.24,6.07-2.51,8.2-4.58s3.49-5.15,4.79-8.12c1.57-3.56,3.18-7.25,6.07-8.87,2.61-1.48,6.25-1.07,10.11-.64,3.45.39,7,.79,10.15-.19,2.93-.92,5.51-3.27,8-5.54,2.81-2.54,5.71-5.18,8.93-5.63,2.91-.4,6.13,1.15,9.54,2.79,3.24,1.56,6.59,3.17,10,3.17s6.7-1.62,9.93-3.19,6.54-3.17,9.41-2.78c3.2.44,6.08,3.08,8.87,5.64,2.46,2.26,5,4.6,7.91,5.52,3.09,1,6.66.59,10.1.22,3.83-.42,7.44-.81,10,.66,2.84,1.63,4.31,5.13,5.86,8.85,1.26,3,2.55,6.06,4.66,8.17s5.13,3.38,8.08,4.65c3.75,1.61,7.29,3.13,8.85,6,1.42,2.64.81,6.29.17,10.15-.56,3.33-1.13,6.78-.43,9.9.62,2.78,2.48,5.32,4.45,8,2.27,3.11,4.62,6.31,4.69,9.7l-7.14,23.7v58.74A37.65,37.65,0,0,1,951,370.78v2.65a38.64,38.64,0,0,0,4-17.11h0V297.74L962.14,274c0-6.74-7.86-12.25-9.17-18.1-1.46-6.48,3.06-14.94.15-20.32-3-5.68-12.64-6.46-17.11-10.92s-5.13-14-10.74-17.19c-5.35-3.06-14.09,1-20.33-1-5.86-1.86-10.47-10.3-17-11.2-6.12-.84-13,6-19.49,6s-13.47-6.8-19.64-5.94c-6.53.91-11.2,9.34-17.13,11.2-6.29,2-15.06-2.14-20.47.92-5.69,3.2-6.55,12.77-11.07,17.16s-14.21,5.11-17.37,10.76c-3,5.4,1.35,14-.17,20.45-1.38,5.89-9.28,11.41-9.28,18.21H794c.2-.37.42-.72.62-1.09Z"/><path d="M944.51,382.84a38.36,38.36,0,0,0,4.34-5.57v-2.12a37.47,37.47,0,0,1-6.82,8.61Z"/><path d="M826.2,282a8,8,0,0,1-4.15,7l-11,6.05-.85,21.31,17.75-3.71a23.21,23.21,0,0,1,14.75,1.75,18.55,18.55,0,0,1,10.21,17.9l-2.75,47.05a14.88,14.88,0,0,0,14,15.72l.87,0h46.45l2.93-1.09H865l-.81,0a13.81,13.81,0,0,1-13-14.58l2.75-47a19.6,19.6,0,0,0-10.83-18.95,24.53,24.53,0,0,0-15.44-1.84L811.32,315l.77-19.31L822.57,290a9.08,9.08,0,0,0-4.36-17H797.12l-.63,1.09h21.72A8,8,0,0,1,826.2,282Z"/><path d="M949.94,373.14v2.33c.38-.67.75-1.35,1.09-2v-2.65C950.69,371.58,950.33,372.37,949.94,373.14Z"/><path d="M794.61,273c-.2.37-.42.72-.62,1.09h1.22c.2-.37.42-.73.62-1.09Z"/><path d="M948.85,375.15v2.12c.38-.59.74-1.19,1.09-1.8v-2.33C949.6,373.82,949.24,374.49,948.85,375.15Z"/><path d="M797.12,273h-1.29c-.2.36-.42.72-.62,1.09h1.28Z"/><path d="M944.51,382.84l-2.48.92A37.53,37.53,0,0,1,916.19,394h-1.81l-2.93,1.09h4.74A38.68,38.68,0,0,0,944.51,382.84Z"/><path d="M826.92,329.44l-6,1.87.32,1h0l6-1.87a5.6,5.6,0,0,1,7,3.68,5.86,5.86,0,0,1,.25,1.66V357a6.18,6.18,0,0,1-6.17,6.18h-3.91v1.09h3.91a7.26,7.26,0,0,0,7.25-7.26V335.82a6.68,6.68,0,0,0-8.66-6.38Z"/><path d="M828.33,363.13A6.18,6.18,0,0,0,834.5,357V335.82a5.86,5.86,0,0,0-.25-1.66,5.6,5.6,0,0,0-7-3.68l-6,1.87h0l.32,1,6-1.87a4.52,4.52,0,0,1,5.65,3,4.61,4.61,0,0,1,.2,1.33V357a5.09,5.09,0,0,1-5.08,5.09h-3.91v1.08h3.91Z"/><path d="M784.5,330.43l-23.35,1.86c-.06.73-.1,1.46-.13,2.19l23.48-1.87Z"/><path d="M760.22,332.37l.17,2.16.63,0c0-.73.07-1.46.13-2.19Z"/><path d="M816.73,330l-.17-2.17-21.94,1.75c.09.72.17,1.44.23,2.17Z"/><path d="M786.67,330.26v2.18l6-.48c-.06-.73-.14-1.45-.23-2.16Z"/><path d="M793.77,331.87l1.08-.08c-.06-.73-.14-1.45-.23-2.17l-1.08.09C793.63,330.42,793.71,331.14,793.77,331.87Z"/><path d="M792.46,329.8c.09.71.17,1.43.23,2.16l1.08-.09c-.06-.73-.14-1.45-.23-2.16Z"/><polygon points="784.5 330.43 784.5 332.61 785.59 332.52 785.59 330.34 784.5 330.43"/><polygon points="785.59 330.34 785.59 332.52 786.67 332.44 786.67 330.26 785.59 330.34"/><path d="M186.33,509.81a1.95,1.95,0,0,1,.92,2.24,1.92,1.92,0,0,1-.93,1.14L171.82,521a1.89,1.89,0,0,1-.89.22h0a1.86,1.86,0,0,1-1.28-.51H1.09V502.34H169.6a2.05,2.05,0,0,1,.74-.44,1.92,1.92,0,0,1,1.43.11l-1.41-.75H20.22v1.07H18.05v-1.07H0v20.5H170.36l19.14-10.25Z"/><path d="M16.78,519.59v1.08H14.6v-1.08H2.17V503.43H169a1.94,1.94,0,0,1,.17-.58,2.16,2.16,0,0,1,.39-.51H1.09v18.33H169.63a1.91,1.91,0,0,1-.6-1.08Z"/><rect x="14.6" y="511.5" width="2.17" height="8.09"/><rect x="14.6" y="519.59" width="2.17" height="1.08"/><polygon points="20.22 492.9 65.14 492.9 65.14 490.73 18.05 490.73 18.05 501.26 20.22 501.26 20.22 492.9"/><rect x="18.05" y="501.26" width="2.17" height="1.07"/><rect x="290.57" y="393.15" width="156.81" height="2.17"/><rect x="606.33" y="393.15" width="156.81" height="2.17"/><polygon points="607.1 623.37 608.12 622.37 606.34 622.6 607.1 623.37"/><path d="M724.64,513.91h-2.31a177,177,0,0,0-35.81,27.65l-80.95,80.27.77.77,80.94-80.27A174.58,174.58,0,0,1,724.64,513.91Z"/><path d="M1067.41,525.18a118.75,118.75,0,0,0-62.75-33l7.78,2.87a118.65,118.65,0,0,1,22.31,8.21l1.53.57a5.41,5.41,0,0,1,1.88,1.16,118.24,118.24,0,0,1,28.48,21l31.78,31.78-1.36.18.59.59,1.54-1.54Z"/><path d="M951,490.17v1.08h31.84a118.67,118.67,0,0,1,14.26.87L993,490.59q-5-.42-10.13-.42Z"/><path d="M847.3,491.25v-1.08H810.61a174.43,174.43,0,0,0-83.71,21.17h2.47a174.38,174.38,0,0,1,81.24-20.09Z"/><path d="M1036.28,503.79l-1.53-.57c1.14.56,2.28,1.14,3.41,1.73A5.41,5.41,0,0,0,1036.28,503.79Z"/><path d="M727,512.62h-2.42l-2.23,1.29h2.31C725.41,513.47,726.2,513.05,727,512.62Z"/><path d="M1003.36,493c3.06.53,6.08,1.19,9.08,2l-7.78-2.87c-2.14-.39-4.29-.73-6.45-1Z"/><path d="M726.9,511.34l-2.34,1.28H727l2.39-1.28Z"/><path d="M997.13,492.12q3.14.38,6.23.92l-5.15-1.9c-1.73-.22-3.47-.4-5.21-.55Z"/><rect x="849.47" y="490.17" width="99.38" height="1.09"/><rect x="847.3" y="490.17" width="1.09" height="1.09"/><rect x="949.94" y="490.17" width="1.09" height="1.09"/><rect x="848.39" y="490.17" width="1.09" height="1.09"/><rect x="948.85" y="490.17" width="1.09" height="1.09"/><path d="M1066.64,526a118.24,118.24,0,0,0-28.48-21,4.87,4.87,0,0,1,1.19,1.82,117.66,117.66,0,0,1,26.52,20l31.19,31.19,1.36-.18Z"/><path d="M726.72,513.91h-2.08a174.58,174.58,0,0,0-37.36,28.42L606.34,622.6h0l1.78-.23,79.93-79.27A174.62,174.62,0,0,1,726.72,513.91Z"/><path d="M1012.44,495l22.31,8.21A118.65,118.65,0,0,0,1012.44,495Z"/><path d="M847.3,492.34v-1.09H810.61a174.38,174.38,0,0,0-81.24,20.09h2.18a172.45,172.45,0,0,1,79.06-19Z"/><path d="M951,491.25v1.09h31.84a118.76,118.76,0,0,1,19,1.53l-4.76-1.75a118.67,118.67,0,0,0-14.26-.87Z"/><path d="M727,512.62c-.78.43-1.57.85-2.34,1.29h2.08c.78-.43,1.56-.87,2.35-1.29Z"/><path d="M1010,495.47a115.89,115.89,0,0,1,29.38,11.3,4.87,4.87,0,0,0-1.19-1.82c-1.13-.59-2.27-1.17-3.41-1.73L1012.44,495c-3-.78-6-1.44-9.08-2Z"/><path d="M1001.89,493.87c2.72.44,5.42,1,8.08,1.6l-6.61-2.43q-3.09-.54-6.23-.92Z"/><path d="M731.55,511.34h-2.18L727,512.62h2.09C729.89,512.18,730.72,511.76,731.55,511.34Z"/><rect x="849.47" y="491.25" width="99.38" height="1.09"/><rect x="847.3" y="491.25" width="1.09" height="1.09"/><rect x="949.94" y="491.25" width="1.09" height="1.09"/><rect x="948.85" y="491.25" width="1.09" height="1.09"/><rect x="848.39" y="491.25" width="1.09" height="1.09"/><polygon points="668.29 525.98 659.42 513.91 658.07 513.91 667.34 526.51 668.88 528.62 671.74 513.91 670.63 513.91 668.29 525.98"/><path d="M611.17,561.94,595.28,535.3a21.65,21.65,0,0,1-2.48-6.2l-3.48-15.19h-1.11l3.53,15.43a22.61,22.61,0,0,0,2.61,6.52l15.89,26.64a20.34,20.34,0,0,1,2.51,14.26L605.24,616l1.07.21L613.82,577A21.42,21.42,0,0,0,611.17,561.94Z"/><polygon points="607.38 616.45 607.69 614.79 606.31 616.25 607.38 616.45"/><polygon points="688.25 530.09 689.33 530.25 691.82 513.91 690.72 513.91 688.25 530.09"/><path d="M683.74,498.47a10.32,10.32,0,0,0-10,4.25v1.67h-1a10.1,10.1,0,0,0-.76,2.33l-.9,4.62h1.11l.86-4.42a9.24,9.24,0,0,1,18.21,3.17l-.19,1.25h1.1l.16-1.09A10.34,10.34,0,0,0,683.74,498.47Z"/><path d="M586.62,501.06a9.24,9.24,0,0,1,9.24-9.24h41.29a9.23,9.23,0,0,1,7.44,3.77l11.58,15.75h1.35l-12-16.39a10.36,10.36,0,0,0-8.32-4.21H595.86a10.33,10.33,0,0,0-10.33,10.32,10.49,10.49,0,0,0,.26,2.31l1.83,8h1.11l-1.88-8.21A9.59,9.59,0,0,1,586.62,501.06Z"/><polygon points="690.92 512.62 690.72 513.91 691.82 513.91 692.02 512.62 690.92 512.62"/><polygon points="589.03 512.62 587.91 512.62 588.21 513.91 589.32 513.91 589.03 512.62"/><polygon points="670.63 513.91 671.74 513.91 671.99 512.62 670.88 512.62 670.63 513.91"/><polygon points="658.47 512.62 657.12 512.62 658.07 513.91 659.42 513.91 658.47 512.62"/><polygon points="587.62 511.33 587.91 512.62 589.03 512.62 588.73 511.33 587.62 511.33"/><polygon points="671.13 511.33 670.88 512.62 671.99 512.62 672.24 511.33 671.13 511.33"/><polygon points="657.52 511.33 656.17 511.33 657.12 512.62 658.47 512.62 657.52 511.33"/><polygon points="691.12 511.33 690.92 512.62 692.02 512.62 692.22 511.33 691.12 511.33"/><polygon points="668.88 528.62 667.34 526.51 658.07 513.91 656.72 513.91 669.48 531.25 672.85 513.91 671.74 513.91 668.88 528.62"/><polygon points="689.62 513.91 687.18 529.92 688.25 530.09 690.72 513.91 689.62 513.91"/><path d="M612.11,561.38l-15.89-26.63a20.43,20.43,0,0,1-2.36-5.89l-3.42-15h-1.12l3.48,15.19a21.65,21.65,0,0,0,2.48,6.2l15.89,26.64a21.42,21.42,0,0,1,2.65,15l-7.51,39.28h0l1.38-1.46,7.2-37.62A22.54,22.54,0,0,0,612.11,561.38Z"/><path d="M683.57,499.55a9.22,9.22,0,0,0-10.47,7.37l-.86,4.42h1.11l.81-4.21a8.17,8.17,0,0,1,8-6.6,8.62,8.62,0,0,1,1.24.09,8.16,8.16,0,0,1,6.82,9.3l-.21,1.42h1.1l.19-1.25A9.24,9.24,0,0,0,683.57,499.55Z"/><path d="M587.71,501.06a8.16,8.16,0,0,1,8.15-8.15h41.29a8.19,8.19,0,0,1,6.57,3.32l11.11,15.11h1.34l-11.58-15.75a9.23,9.23,0,0,0-7.44-3.77H595.86a9.24,9.24,0,0,0-9.24,9.24,9.59,9.59,0,0,0,.23,2.07l1.88,8.21h1.12l-1.94-8.45A8.62,8.62,0,0,1,587.71,501.06Z"/><polygon points="689.62 513.91 690.72 513.91 690.92 512.62 689.82 512.62 689.62 513.91"/><polygon points="589.03 512.62 589.32 513.91 590.44 513.91 590.14 512.62 589.03 512.62"/><polygon points="671.99 512.62 671.74 513.91 672.85 513.91 673.1 512.62 671.99 512.62"/><polygon points="657.12 512.62 655.77 512.62 656.72 513.91 658.07 513.91 657.12 512.62"/><polygon points="654.83 511.33 655.77 512.62 657.12 512.62 656.17 511.33 654.83 511.33"/><polygon points="690.02 511.33 689.82 512.62 690.92 512.62 691.12 511.33 690.02 511.33"/><polygon points="589.85 511.33 588.73 511.33 589.03 512.62 590.14 512.62 589.85 511.33"/><polygon points="672.24 511.33 671.99 512.62 673.1 512.62 673.35 511.33 672.24 511.33"/><rect x="545.53" y="467.73" width="13.59" height="2.17"/><rect x="555.73" y="490.72" width="13.59" height="2.17"/><rect x="561.91" y="502.21" width="13.59" height="2.17"/><rect x="570.1" y="467.73" width="13.59" height="2.17"/><rect x="575.85" y="479.22" width="13.59" height="2.17"/><rect x="602.43" y="479.22" width="13.59" height="2.17"/><rect x="621.26" y="467.73" width="13.59" height="2.17"/><rect x="647.03" y="467.73" width="13.59" height="2.17"/><rect x="657.23" y="490.72" width="13.59" height="2.17"/><path d="M673.74,502.21H660.15v2.18h12.64a10.15,10.15,0,0,1,1-1.67Z"/><path d="M673.74,502.72a10.15,10.15,0,0,0-1,1.67h1Z"/><rect x="671.6" y="467.73" width="13.59" height="2.17"/><rect x="677.35" y="479.22" width="13.59" height="2.17"/><rect x="695.59" y="502.21" width="13.59" height="2.17"/><rect x="701.57" y="467.73" width="13.59" height="2.17"/><rect x="711.78" y="490.72" width="13.59" height="2.17"/><rect x="717.95" y="502.21" width="13.59" height="2.17"/><rect x="726.14" y="467.73" width="13.59" height="2.17"/><rect x="731.89" y="479.22" width="13.59" height="2.17"/><rect x="758.47" y="479.22" width="13.59" height="2.17"/><rect x="777.29" y="467.73" width="13.59" height="2.17"/><rect x="783.04" y="479.22" width="13.59" height="2.17"/><rect x="803.07" y="467.73" width="13.59" height="2.17"/><rect x="827.64" y="467.73" width="13.59" height="2.17"/><rect x="833.39" y="479.22" width="13.59" height="2.17"/><polygon points="550.19 512.58 550.19 526.3 580.31 526.3 580.31 524.13 552.37 524.13 552.37 513.91 550.65 513.91 550.19 512.58"/><polygon points="551.57 512.62 551.06 511.13 550.19 511.13 550.19 512.58 550.65 513.91 552.37 513.91 552.37 512.62 551.57 512.62"/><polygon points="551.06 511.13 551.57 512.62 552.37 512.62 552.37 511.13 551.06 511.13"/><path d="M88.74,186.63A19.59,19.59,0,1,0,69.15,167,19.61,19.61,0,0,0,88.74,186.63Zm0-37A17.42,17.42,0,1,1,71.33,167,17.43,17.43,0,0,1,88.74,149.63Z"/><path d="M544.29,46a23,23,0,1,0-23-23A23,23,0,0,0,544.29,46Zm0-43.86A20.85,20.85,0,1,1,523.45,23,20.87,20.87,0,0,1,544.29,2.17Z"/><path d="M288.53,199A14.56,14.56,0,1,0,274,184.46,14.57,14.57,0,0,0,288.53,199Zm0-27a12.39,12.39,0,1,1-12.39,12.39A12.4,12.4,0,0,1,288.53,172.07Z"/><path d="M914.38,153a14.56,14.56,0,1,0-14.56-14.56A14.57,14.57,0,0,0,914.38,153Zm0-26.95A12.39,12.39,0,1,1,902,138.41,12.41,12.41,0,0,1,914.38,126Z"/><rect x="188.33" y="114.53" width="11.99" height="2.17" transform="translate(-24.84 171.27) rotate(-45)"/><rect x="198.35" y="104.52" width="11.99" height="2.17" transform="translate(-14.83 175.42) rotate(-45)"/><rect x="203.25" y="109.63" width="2.17" height="11.99" transform="translate(-21.91 178.35) rotate(-45)"/><rect x="193.24" y="99.61" width="2.17" height="11.99" transform="translate(-17.76 168.34) rotate(-45)"/><rect x="198.25" y="109.53" width="2.17" height="2.17" transform="translate(-19.83 173.35) rotate(-45)"/><rect x="767.14" y="150.34" width="2.17" height="5.45" transform="translate(116.77 588.05) rotate(-45)"/><rect x="761.75" y="144.95" width="2.17" height="5.45" transform="translate(119 582.66) rotate(-45)"/><rect x="765.5" y="146.59" width="5.45" height="2.17" transform="translate(120.58 586.47) rotate(-45)"/><rect x="760.11" y="151.98" width="5.45" height="2.17" transform="translate(115.19 584.24) rotate(-45)"/><rect x="764.44" y="149.29" width="2.17" height="2.17" transform="translate(117.89 585.35) rotate(-45)"/><rect x="275.12" y="60.37" width="2.17" height="5.45" transform="translate(36.28 213.79) rotate(-45)"/><rect x="269.73" y="54.98" width="2.17" height="5.45" transform="translate(38.52 208.4) rotate(-45)"/><rect x="273.48" y="56.62" width="5.45" height="2.17" transform="translate(40.09 212.21) rotate(-45)"/><rect x="268.09" y="62.01" width="5.45" height="2.17" transform="translate(34.7 209.98) rotate(-45)"/><rect x="272.43" y="59.32" width="2.17" height="2.17" transform="translate(37.4 211.09) rotate(-45)"/><rect x="545.98" y="23.99" width="2.17" height="5.45" transform="translate(141.35 394.66) rotate(-45)"/><rect x="540.59" y="18.59" width="2.17" height="5.45" transform="translate(143.58 389.27) rotate(-45)"/><rect x="544.35" y="20.23" width="5.45" height="2.17" transform="translate(145.16 393.08) rotate(-45)"/><rect x="538.95" y="25.62" width="5.45" height="2.17" transform="translate(139.77 390.85) rotate(-45)"/><rect x="543.29" y="22.93" width="2.17" height="2.17" transform="translate(142.46 391.97) rotate(-45)"/><rect x="467.44" y="65.65" width="2.17" height="5.45" transform="translate(88.88 351.32) rotate(-45)"/><rect x="462.05" y="60.25" width="2.17" height="5.45" transform="translate(91.11 345.93) rotate(-45)"/><rect x="465.8" y="61.9" width="5.45" height="2.17" transform="translate(92.69 349.74) rotate(-45)"/><rect x="460.41" y="67.29" width="5.45" height="2.17" transform="translate(87.3 347.51) rotate(-45)"/><rect x="464.74" y="64.59" width="2.17" height="2.17" transform="translate(90 348.63) rotate(-45)"/><rect x="89.97" y="166.87" width="2.17" height="5.45" transform="translate(-93.25 114.06) rotate(-45)"/><rect x="84.58" y="161.47" width="2.17" height="5.45" transform="translate(-91.02 108.67) rotate(-45)"/><rect x="88.33" y="163.12" width="5.45" height="2.17" transform="translate(-89.44 112.48) rotate(-45)"/><rect x="82.94" y="168.51" width="5.45" height="2.17" transform="translate(-94.83 110.25) rotate(-45)"/><rect x="87.27" y="165.81" width="2.17" height="2.17" transform="translate(-92.13 111.36) rotate(-45)"/><rect x="915.99" y="138.38" width="2.17" height="5.45" transform="translate(168.83 689.8) rotate(-45)"/><rect x="910.6" y="132.99" width="2.17" height="5.45" transform="translate(171.06 684.41) rotate(-45)"/><rect x="914.35" y="134.63" width="5.45" height="2.17" transform="translate(172.64 688.22) rotate(-45)"/><rect x="908.96" y="140.02" width="5.45" height="2.17" transform="translate(167.25 685.99) rotate(-45)"/><rect x="913.29" y="137.32" width="2.17" height="2.17" transform="translate(169.95 687.1) rotate(-45)"/><rect x="839.56" y="58.94" width="9.46" height="2.17" transform="translate(204.84 614.59) rotate(-45)"/><rect x="831.34" y="67.17" width="9.46" height="2.17" transform="translate(196.62 611.18) rotate(-45)"/><rect x="843.21" y="63.52" width="2.17" height="9.46" transform="translate(199.03 617) rotate(-45)"/><rect x="834.98" y="55.3" width="2.17" height="9.46" transform="translate(202.43 608.77) rotate(-45)"/><rect x="839.09" y="63.05" width="2.17" height="2.17" transform="translate(200.73 612.88) rotate(-45)"/><polygon points="184.87 511.5 171.17 504.16 171.17 518.84 184.87 511.5"/><rect x="178.02" y="500.05" width="0.01" height="15.55" transform="translate(-353.67 424.87) rotate(-61.81)"/><path d="M186.31,509.8,171.81,502l0,0,14.56,7.8Z"/><path d="M170.08,503.73a.74.74,0,0,1,0-.14l-.31-.16H169a1.54,1.54,0,0,0,0,.3v15.54a1.73,1.73,0,0,0,0,.32h.78l.31-.17s0-.1,0-.16Z"/><path d="M170.34,501.9a2.05,2.05,0,0,0-.74.44h.48l1.2.64h0l14.49,7.77h0l1.39.74-17.12,9.16h-.45a1.86,1.86,0,0,0,1.28.51h0a1.89,1.89,0,0,0,.89-.22l14.5-7.77a1.91,1.91,0,0,0,.77-2.61,1.94,1.94,0,0,0-.76-.77L171.77,502A1.92,1.92,0,0,0,170.34,501.9Z"/><path d="M187.2,511.51l-1.39-.74a.87.87,0,0,1,.33.33.84.84,0,0,1-.34,1.14L171.31,520a.86.86,0,0,1-.38.1.83.83,0,0,1-.81-.68l-.31.17H169a1.91,1.91,0,0,0,.6,1.08h.45Z"/><path d="M169,503.43h.77l.31.16a.71.71,0,0,1,.06-.24.84.84,0,0,1,1.1-.37l-1.2-.64h-.48a2.16,2.16,0,0,0-.39.51A1.94,1.94,0,0,0,169,503.43Z"/><path d="M184.87,511.5l-13.7,7.34V504.16l-1-.57a.74.74,0,0,0,0,.14v15.53c0,.06,0,.11,0,.16l14.77-7.91Z"/><path d="M185.8,510.76,171.31,503h0l14.53,7.79Z"/><path d="M170.18,503.35a.71.71,0,0,0-.06.24l1,.57h0l13.71,7.35h0l-14.77,7.91a.83.83,0,0,0,.81.68.86.86,0,0,0,.38-.1l14.49-7.76a.84.84,0,0,0,.34-1.14.87.87,0,0,0-.33-.33L171.28,503A.84.84,0,0,0,170.18,503.35Z"/><path class="cls-3" d="M465.9,256.53V243.14H429.76v-6.62l35.43-31.9h6.62v32.62h8.06v5.9h-8.06v13.39Zm-28.58-19.29H465.9V212.61Z"/><path class="cls-3" d="M509.11,256.53a8.66,8.66,0,0,1-8.72-8.71V213.48a8.55,8.55,0,0,1,2.52-6.23,8.39,8.39,0,0,1,6.2-2.56H544a8.41,8.41,0,0,1,6.16,2.56,8.51,8.51,0,0,1,2.56,6.23v34.34a8.72,8.72,0,0,1-8.72,8.71Zm-2.81-13L546,210.67H509.11a2.74,2.74,0,0,0-2,.83,2.7,2.7,0,0,0-.82,2Zm.72,7.13h37a2.71,2.71,0,0,0,2-.83,2.67,2.67,0,0,0,.83-2v-30Z"/><path class="cls-3" d="M607.31,256.53V243.14H571.17v-6.62l35.42-31.9h6.63v32.62h8.06v5.9h-8.06v13.39Zm-28.58-19.29h28.58V212.61Z"/></g></g></svg>