<svg xmlns="http://www.w3.org/2000/svg" width="655" height="655"><g fill="#fff"><path d="M123.664 244.25a68.892 68.892 0 0 1-29.465 29.328l161.758 162.39 38.998-19.765Zm213.363 214.188-38.998 19.764 81.963 82.283a68.893 68.893 0 0 1 29.47-29.332ZM524.18 308.504l-91.577 46.41 6.752 43.19 103.616-52.514a68.893 68.893 0 0 1-18.791-37.086ZM379.44 381.856 162.916 491.59a68.892 68.892 0 0 1 18.795 37.09l204.482-103.633ZM309.808 111.551l-104.48 203.97 30.848 30.968 110.623-215.957a68.892 68.892 0 0 1-36.99-18.98ZM178.154 368.573l-52.922 103.314a68.892 68.892 0 0 1 36.987 18.979l46.78-91.329ZM93.3 274.032a68.892 68.892 0 0 1-34.415 7.195 68.897 68.897 0 0 1-6.65-.695l30.902 197.662a68.892 68.892 0 0 1 34.416-7.196c2.225.125 4.443.357 6.646.696ZM181.875 529.659c.707 4.59.949 9.238.72 13.877a68.892 68.892 0 0 1-7.267 27.18l197.629 31.712c-.708-4.59-.95-9.24-.723-13.879a68.892 68.892 0 0 1 7.27-27.178ZM543.666 346.313l-91.219 178.082a68.892 68.892 0 0 1 36.994 18.982l91.217-178.08a68.893 68.893 0 0 1-36.992-18.984ZM419.256 94.444a68.893 68.893 0 0 1-29.471 29.332l141.266 141.81a68.892 68.892 0 0 1 29.468-29.332ZM290.32 73.745l-178.576 90.498a68.892 68.892 0 0 1 18.793 37.085l178.574-90.501a68.893 68.893 0 0 1-18.79-37.082ZM389.459 123.94a68.893 68.893 0 0 1-34.983 7.482 68.893 68.893 0 0 1-6.029-.633l15.818 101.291 43.163 6.926Zm-16 167.027 37.4 239.483a68.892 68.892 0 0 1 33.914-6.944c2.415.137 4.82.401 7.207.791l-35.357-226.406ZM130.664 202.088c.734 4.66.988 9.384.758 14.096a68.892 68.892 0 0 1-7.16 26.982l101.369 16.282 19.924-38.909Zm173.736 27.9-19.926 38.913 239.514 38.467a68.893 68.893 0 0 1-.695-13.72 68.893 68.893 0 0 1 7.35-27.323Z"/><path d="M420.76 66.037c-1.881 34.539-31.405 61.012-65.943 59.13-34.538-1.88-61.012-31.404-59.13-65.942 1.88-34.538 31.404-61.012 65.942-59.13 34.539 1.88 61.012 31.404 59.13 65.942ZM654.62 300.803c-1.881 34.538-31.405 61.012-65.943 59.13-34.538-1.88-61.011-31.405-59.13-65.943 1.881-34.538 31.405-61.011 65.943-59.13 34.538 1.881 61.012 31.405 59.13 65.943ZM503.562 595.702c-1.881 34.538-31.405 61.012-65.943 59.13-34.538-1.88-61.012-31.404-59.13-65.942 1.88-34.538 31.405-61.012 65.943-59.13 34.538 1.88 61.011 31.404 59.13 65.942ZM176.342 543.195c-1.88 34.538-31.405 61.011-65.943 59.13-34.538-1.881-61.011-31.405-59.13-65.943 1.881-34.538 31.405-61.012 65.943-59.13 34.538 1.88 61.012 31.405 59.13 65.943ZM125.168 215.844c-1.881 34.538-31.405 61.011-65.943 59.13-34.538-1.881-61.012-31.405-59.13-65.943 1.88-34.538 31.404-61.012 65.942-59.13 34.539 1.88 61.012 31.405 59.13 65.943Z"/></g></svg>