<svg xmlns="http://www.w3.org/2000/svg" xmlns:xlink="http://www.w3.org/1999/xlink" width="53.104" height="51.833" viewBox="0 0 53.104 51.833">
  <defs>
    <clipPath id="clip-path">
      <rect id="Rectangle_208" data-name="Rectangle 208" width="53.104" height="51.833" fill="#fff"/>
    </clipPath>
  </defs>
  <g id="Group_239" data-name="Group 239" transform="translate(0)">
    <g id="Group_110" data-name="Group 110" transform="translate(0)" clip-path="url(#clip-path)">
      <path id="Path_152" data-name="Path 152" d="M53.1,27.986c-.1.821-.179,1.643-.289,2.462a24.962,24.962,0,0,1-3.653,10.043A26.744,26.744,0,0,1,40.8,49a26.253,26.253,0,0,1-5.741,2.721,1.32,1.32,0,0,1-1.9-1.383c-.011-2.316,0-4.633-.007-6.949a7.431,7.431,0,0,0-.919-4.038c-.225-.361-.51-.684-.777-1.037,1.036-.194,2.075-.331,3.084-.588a11.138,11.138,0,0,0,6.782-4.251,12.475,12.475,0,0,0,2.012-5.815,14.878,14.878,0,0,0-.1-4.849,9.491,9.491,0,0,0-2.127-4.32.85.85,0,0,1-.188-.955,9.122,9.122,0,0,0-.386-6.326.552.552,0,0,0-.387-.25,4.59,4.59,0,0,0-2.656.515c-1.339.633-2.633,1.358-3.959,2.02a1.22,1.22,0,0,1-.764.129,25.063,25.063,0,0,0-12.46,0,1.152,1.152,0,0,1-.805-.159,19.083,19.083,0,0,0-5.4-2.436c-.033-.009-.066-.021-.1-.028-1.218-.249-1.441-.11-1.788,1.069a9.057,9.057,0,0,0,.005,5.7.644.644,0,0,1-.118.533C9.92,20.791,9.4,23.74,9.675,26.92a15.216,15.216,0,0,0,1.475,5.519A9.505,9.505,0,0,0,16.8,37.177c1.535.542,3.161.824,4.772,1.229.013-.078.022-.016,0,.011a5.646,5.646,0,0,0-1.487,3.074.583.583,0,0,1-.245.4c-1.845.694-3.7,1.059-5.523-.054a5.73,5.73,0,0,1-1.922-2.068A5.629,5.629,0,0,0,9.1,37.1a5,5,0,0,0-1.674-.083c-.38.022-.5.307-.25.625a3.153,3.153,0,0,0,.788.806,7.137,7.137,0,0,1,2.816,3.485,6.6,6.6,0,0,0,1.412,2.323,6.022,6.022,0,0,0,3.946,1.469c1.236.054,2.476.011,3.772.011a1.37,1.37,0,0,1,.026.243c.018,1.4.037,2.8.047,4.2.01,1.37-.813,1.937-2.112,1.485A26.182,26.182,0,0,1,2.883,38.624,25.791,25.791,0,0,1,.173,23.554,25.688,25.688,0,0,1,6.606,9.013,25.394,25.394,0,0,1,20.867.624a25.961,25.961,0,0,1,22.4,5.314A25.835,25.835,0,0,1,52.625,21.5c.184.929.254,1.881.38,2.821.025.184.066.366.1.55Z" transform="translate(0 0)" fill="#fff"/>
    </g>
  </g>
</svg>
