<svg xmlns="http://www.w3.org/2000/svg" xmlns:xlink="http://www.w3.org/1999/xlink" width="343.833" height="96.312" viewBox="0 0 343.833 96.312">
  <defs>
    <clipPath id="clip-path">
      <rect id="Rectangle_241" data-name="Rectangle 241" width="343.833" height="96.311" fill="#fff"/>
    </clipPath>
  </defs>
  <g id="Group_236" data-name="Group 236" transform="translate(0 0)">
    <rect id="Rectangle_238" data-name="Rectangle 238" width="5.837" height="52.453" transform="translate(1.982 1.972)" fill="#fff"/>
    <g id="Group_235" data-name="Group 235" transform="translate(0 0)">
      <g id="Group_234" data-name="Group 234" clip-path="url(#clip-path)">
        <path id="Path_253" data-name="Path 253" d="M15.633,46.642H9.948V8.743h5.61V11.4a24.244,24.244,0,0,1,11.748-3.41q7.579,0,10.194,4.093T40.115,26.63V46.642H34.509V26.782q0-7.881-1.556-10.8t-6.632-2.918a19.826,19.826,0,0,0-5.118.719,25.846,25.846,0,0,0-4.131,1.4l-1.439.683Z" transform="translate(9.695 7.782)" fill="#fff"/>
        <path id="Path_254" data-name="Path 254" d="M51.764,19.02H39.711V37.136q0,6.519.948,8.565t4.51,2.046l6.745-.454.381,4.7a51.983,51.983,0,0,1-7.73.833q-5.918,0-8.188-2.879T34.1,38.955V19.02H28.721V14.093H34.1V2.495h5.608v11.6H51.764Z" transform="translate(27.989 2.432)" fill="#fff"/>
        <path id="Path_255" data-name="Path 255" d="M70.517,41.945l2.2-.229.152,4.472A108.624,108.624,0,0,1,58.085,47.4q-8.183,0-11.6-4.737t-3.41-14.742q0-19.936,15.842-19.937,7.656,0,11.446,4.283t3.791,13.454l-.3,4.322H48.839q0,6.291,2.273,9.322T59.033,42.4q5.645,0,11.484-.454M68.471,25.5q0-6.972-2.235-9.853t-7.278-2.881q-5.044,0-7.58,3.031t-2.612,9.7Z" transform="translate(41.98 7.782)" fill="#fff"/>
        <path id="Path_256" data-name="Path 256" d="M63.308,46.68V8.781h5.61v5.154A36.943,36.943,0,0,1,82.789,7.946v5.762a40.836,40.836,0,0,0-6.63,1.894,43.981,43.981,0,0,0-5.268,2.277l-1.9.983V46.68Z" transform="translate(61.695 7.744)" fill="#fff"/>
        <rect id="Rectangle_239" data-name="Rectangle 239" width="5.687" height="54.424" transform="translate(151.683)" fill="#fff"/>
        <path id="Path_257" data-name="Path 257" d="M112.054,41.945l2.2-.229.154,4.472A108.648,108.648,0,0,1,99.622,47.4q-8.186,0-11.6-4.737t-3.41-14.742q0-19.936,15.842-19.937,7.656,0,11.446,4.283t3.789,13.454l-.3,4.322H90.376q0,6.291,2.273,9.322T100.57,42.4q5.645,0,11.484-.454M110.006,25.5q0-6.972-2.235-9.853T100.5,12.761q-5.044,0-7.582,3.031T90.3,25.5Z" transform="translate(82.458 7.782)" fill="#fff"/>
        <path id="Path_258" data-name="Path 258" d="M134.774,0V54.424h-5.61V51.847a23.1,23.1,0,0,1-11.521,3.335,16.846,16.846,0,0,1-5.306-.758,10.843,10.843,0,0,1-4.245-2.729Q104,47.6,104,36.574t3.677-15.921q3.676-4.887,12.165-4.887a47.587,47.587,0,0,1,9.324.985V0ZM115.066,49.572a9.828,9.828,0,0,0,3.525.531,18.959,18.959,0,0,0,4.849-.721,28.677,28.677,0,0,0,4.208-1.4l1.516-.681V21.6a49.173,49.173,0,0,0-9.022-.91q-5.758,0-8.032,3.677t-2.275,11.409q0,8.791,2.652,11.823a6.542,6.542,0,0,0,2.579,1.971" transform="translate(101.349 0.001)" fill="#fff"/>
        <path id="Path_259" data-name="Path 259" d="M140.6,64.456q-9.1,0-12.7-2.466t-3.6-8.98a8.545,8.545,0,0,1,1.364-5.041,21.158,21.158,0,0,1,4.624-4.36q-2.124-1.436-2.123-5.229,0-1.288,1.9-4.776l.681-1.212q-5.989-2.731-5.989-11.446,0-12.961,14.175-12.961a28.342,28.342,0,0,1,6.747.758l1.135.227,11.219-.3v4.851l-7.2-.152q2.5,2.5,2.5,7.58,0,7.126-3.525,9.967t-11.1,2.843a20.708,20.708,0,0,1-3.714-.3,15.89,15.89,0,0,0-1.364,4.32q0,2.352,1.439,2.918t8.718.571q7.277,0,10.461,2.273t3.183,8.868q0,12.052-16.827,12.054m-10.69-11.9q0,4.016,2.237,5.572t8.263,1.554q6.024,0,8.641-1.668t2.614-5.572q0-3.9-1.894-5.041t-7.43-1.135l-8.186-.379a13.421,13.421,0,0,0-3.373,3.183,6.376,6.376,0,0,0-.873,3.487m.531-31.608q0,4.472,2.01,6.368t6.632,1.894q4.62,0,6.595-1.894t1.971-6.405q0-4.511-1.971-6.405t-6.595-1.9q-4.626,0-6.632,1.933t-2.01,6.405" transform="translate(121.14 7.782)" fill="#fff"/>
        <path id="Path_260" data-name="Path 260" d="M171.477,41.945l2.2-.229.154,4.472A108.674,108.674,0,0,1,159.045,47.4q-8.183,0-11.6-4.737t-3.41-14.742q0-19.936,15.842-19.937,7.653,0,11.444,4.283t3.791,13.454l-.3,4.322H149.8q0,6.291,2.275,9.322T160,42.4q5.642,0,11.482-.454M169.431,25.5q0-6.972-2.237-9.853t-7.276-2.881q-5.044,0-7.58,3.031t-2.614,9.7Z" transform="translate(140.369 7.782)" fill="#fff"/>
        <path id="Path_261" data-name="Path 261" d="M164.27,46.68V8.781h5.608v5.154a36.915,36.915,0,0,1,13.871-5.989v5.762a40.913,40.913,0,0,0-6.632,1.894,43.982,43.982,0,0,0-5.268,2.277l-1.9.983V46.68Z" transform="translate(160.085 7.744)" fill="#fff"/>
        <path id="Path_262" data-name="Path 262" d="M16.074,41.812H4.205v6.2H15.03v3.609H4.205v7.128H0V38.175H16.074Z" transform="translate(0 37.203)" fill="#fff"/>
        <path id="Path_263" data-name="Path 263" d="M21.126,59.286c-7.335,0-11.839-4.117-11.839-10.647s4.534-10.647,11.869-10.647S33.025,42.108,33.025,48.64s-4.563,10.647-11.9,10.647m.03-17.595c-4.591,0-7.574,2.654-7.574,6.919,0,4.233,2.984,6.887,7.606,6.887,4.561,0,7.513-2.654,7.513-6.887,0-4.265-2.952-6.919-7.545-6.919" transform="translate(9.05 37.026)" fill="#fff"/>
        <path id="Path_264" data-name="Path 264" d="M44.192,48.521c0,6.532-3.25,10.587-10.526,10.587S23.377,55.44,23.377,48.521V38.175h4.206V48.521c0,4.563,2.028,6.8,6.352,6.8,4.115,0,6.143-2.294,6.143-6.8V38.175h4.115Z" transform="translate(22.781 37.203)" fill="#fff"/>
        <path id="Path_265" data-name="Path 265" d="M57.033,58.751H52.8L40.78,44.556h-.061V58.751h-4.2V38.174h4.235L52.768,52.369h.059V38.174h4.206Z" transform="translate(35.585 37.203)" fill="#fff"/>
        <path id="Path_266" data-name="Path 266" d="M58.6,58.751H49.564V38.175H58.6c9.006,0,13.123,3.369,13.123,10.137,0,6.473-4.058,10.439-13.123,10.439m-.239-16.939H53.77V55.053h4.591c6.443,0,9.035-2.446,9.035-6.711,0-4.233-2.474-6.53-9.035-6.53" transform="translate(48.301 37.203)" fill="#fff"/>
        <path id="Path_267" data-name="Path 267" d="M84.453,58.751H79.862l-2.387-5.578h-9.3l-2.326,5.578h-4.5l9.272-20.577h4.593Zm-11.6-16.641h-.059l-3.369,8.052h6.858Z" transform="translate(59.78 37.202)" fill="#fff"/>
        <path id="Path_268" data-name="Path 268" d="M93.882,41.812H85.174V58.751h-4.2V41.812h-8.68V38.175H93.882Z" transform="translate(70.449 37.203)" fill="#fff"/>
        <rect id="Rectangle_240" data-name="Rectangle 240" width="4.206" height="20.576" transform="translate(167.787 75.377)" fill="#fff"/>
        <path id="Path_269" data-name="Path 269" d="M101.21,59.286c-7.335,0-11.839-4.117-11.839-10.647S93.9,37.993,101.24,37.993s11.869,4.115,11.869,10.647-4.563,10.647-11.9,10.647m.03-17.595c-4.591,0-7.574,2.654-7.574,6.919,0,4.233,2.984,6.887,7.606,6.887,4.561,0,7.513-2.654,7.513-6.887,0-4.265-2.952-6.919-7.545-6.919" transform="translate(87.094 37.026)" fill="#fff"/>
        <path id="Path_270" data-name="Path 270" d="M124.038,58.751H119.8L107.788,44.556h-.061V58.751h-4.206V38.174h4.235l12.019,14.195h.059V38.174h4.2Z" transform="translate(100.884 37.203)" fill="#fff"/>
      </g>
    </g>
  </g>
</svg>
