<svg xmlns="http://www.w3.org/2000/svg" xmlns:xlink="http://www.w3.org/1999/xlink" width="50.746" height="41.382" viewBox="0 0 50.746 41.382">
  <defs>
    <clipPath id="clip-path">
      <rect id="Rectangle_242" data-name="Rectangle 242" width="50.746" height="41.382" fill="#fff"/>
    </clipPath>
  </defs>
  <g id="Group_237" data-name="Group 237" clip-path="url(#clip-path)">
    <path id="Path_271" data-name="Path 271" d="M0,36.708A21.219,21.219,0,0,0,15.3,32.4a10.681,10.681,0,0,1-9.726-7.26,11.477,11.477,0,0,0,4.662-.22,10.5,10.5,0,0,1-5.989-3.7A10.259,10.259,0,0,1,1.952,14.57,10.807,10.807,0,0,0,6.62,15.835,10.476,10.476,0,0,1,2.3,9.49,10.347,10.347,0,0,1,3.433,1.946,29.854,29.854,0,0,0,24.916,12.839c-.067-.681-.148-1.3-.185-1.922A10.424,10.424,0,0,1,36.887.161a10.259,10.259,0,0,1,5.526,2.82.772.772,0,0,0,.829.214,21.285,21.285,0,0,0,5.594-2.127c.142-.079.29-.15.512-.264A8.236,8.236,0,0,1,47.66,3.989c-.774.889-1.669,1.672-2.552,2.541.934-.2,1.885-.358,2.809-.611s1.814-.6,2.828-.943a14.9,14.9,0,0,1-1.193,1.571c-1.175,1.185-2.389,2.333-3.613,3.468a.909.909,0,0,0-.34.756,30.238,30.238,0,0,1-9.517,22.843A27.175,27.175,0,0,1,21.6,40.874,30.271,30.271,0,0,1,5.613,39.532,29.124,29.124,0,0,1,.23,36.889c-.051-.032-.1-.074-.23-.181" transform="translate(0 0)" fill="#fff"/>
  </g>
</svg>
